M48
;Layer_Color=9474304
;FILE_FORMAT=2:3
INCH,LZ
;TYPE=PLATED
T1F00S00C0.028
T2F00S00C0.031
T3F00S00C0.035
T4F00S00C0.039
T5F00S00C0.047
T7F00S00C0.051
T8F00S00C0.157
;TYPE=NON_PLATED
T10F00S00C0.157
%
T01
X00394Y01181
X00886
X01378
X0187
X01969Y00689
X02362Y01181
X02854
X03346
X03839
X04331
X04823
X05315
X05807
X06299
X06791
X07283
X07776
Y00984
Y00886
Y00787
X08464Y00689
Y01083
X08661Y0128
X09055Y01083
X09842
X09547Y00689
X09154Y00394
X1063Y00984
X11516Y01378
X11614Y01673
X11614Y02264
Y02362
X11516Y02461
X1122
X11319Y02559
X10728Y02461
Y02067
X10827Y0187
Y01476
X1122
X11122Y01378
X10433Y01772
X10138Y0187
X10039Y01476
X10039Y02461
X09843Y02362
X09941Y02165
X09547
X0935Y02067
X09252Y02165
Y02362
Y02461
X0935Y02756
X09449Y02657
X09547Y02559
X09646Y02756
X09744Y02657
X0935Y01673
X09252Y01575
Y01476
X09449
X08957Y01378
X08957Y01772
X08415Y01575
X08464Y02264
X08268Y01673
X07972Y01673
X07283Y02264
X07087Y02559
X06988
X06791Y02264
X06299
X05807
X05315
X05512Y01673
X05709Y01575
X04823Y02264
X04331
X03839
X03346
X02854
X02362
X02165Y01575
X02264Y01476
X0315Y02657
X0187Y02264
X01378
X01476Y02461
X00886Y02264
X01083Y01673
X00394Y02461
Y03346
Y04429
X00886
X01378
X0187
X01772Y03839
X0187Y03346
X01378
X00886
X01083Y03839
X02461Y03543
X02362Y03346
X02854
X02953Y03543
X03346Y03346
Y04429
X02854
X02362
X03839
X04331
X04823
Y03346
X04331
X03839
X04134Y0374
X05413Y03839
X05512
X0561
X05709Y03642
X05905Y03543
X05807Y03346
X06299
X06791
Y04429
X06299
X05807
X05315
Y03346
X07283
Y03642
X07972
X07874Y03543
X07874Y03445
X08071Y02953
X08366Y03051
X08169Y04232
X08071Y04429
X07776
X07283
X0876Y04429
X09301
X09842Y04331
X09892Y04183
X09252Y03839
X09153
Y03642
X09055Y03248
Y03051
X08661Y03199
X08661Y03346
X09842Y02953
X10433Y03051
Y0315
X10728Y03248
X10827Y03051
X10827Y0374
X10531Y03839
X10433
Y03937
X10236
X10138Y04232
X10531Y04134
X11319
X1122Y04331
X11417Y03543
X10138Y03346
X11516Y05315
X11417
X11417Y05413
Y05512
Y0561
X11073Y05709
X11122Y05413
X11073Y05118
X10827
X10925Y04921
X10925Y04724
X11024
X11368Y04823
X10531Y0502
Y05217
X10236
X10138
X10138Y05315
X10236Y05512
X10433Y0561
X10728
X10827
X10728Y05906
X10335Y04724
X10236Y04528
X09843
X09941Y04626
Y05118
X09842Y0561
X09744Y05807
X09646Y05709
X0925Y0521
X093Y0511
X0935Y0502
Y04626
Y04528
X08957Y05118
Y05315
X08661Y05217
Y05118
X0876Y0502
X08661Y04872
X08465Y0502
X08169Y05118
X08071Y05315
X07874Y05217
X07776Y05217
X07677
X07579Y05315
Y05512
X0748Y0561
Y05709
X0689
Y05512
Y05315
Y05118
X0724Y0516
X07185Y04823
X07087
X06988
X07677
X07874Y04626
X08071
X08169Y04528
X08366Y05315
Y05906
X08169
X07087Y05512
X06791
Y05413
Y05118
Y04823
X06693
X06594Y04921
Y0502
X06299Y04823
X06201
X06102
X06004Y0502
X05709Y0502
X05512Y05217
X05315Y05315
X05709Y05906
X06299Y0561
Y05512
X0625Y05413
X06791Y05758
X0679Y0586
Y0596
X05217Y05807
X05216Y05709
Y05413
X04724Y05217
X04626Y05118
X04429Y05413
X04331Y05512
X04134Y05512
Y05118
Y04823
X04232
X04331
X04429Y04626
X03937Y04921
X03839Y0502
X0374
X0374Y05413
X03839Y05807
X04429Y05906
X04429Y05709
X04724Y05906
X0315Y0561
X03248Y05413
Y05315
X03543Y05118
Y04724
X03445Y04626
X0256Y05005
Y05305
X02362Y05315
X02854Y05807
X01575Y05906
X01673Y0561
X01673Y05217
X01476Y04921
X01083Y0502
X00984Y04921
Y04823
X00886Y04724
X00787Y04724
X00197Y05906
X00295Y06594
X0059Y06398
X00689Y06988
X00787Y07283
X00984
X01181Y06988
X01378Y07087
X01378Y07185
X01476Y07283
X01968
X0187Y07087
Y0689
X01673
X01575
X01722Y06791
X0197Y06705
X01969Y06201
X01821Y06004
X01722Y06348
X01378Y06496
X02165Y06201
X02362Y06102
X02756Y06004
X02953
X02756Y06201
X0315Y06299
X03248
Y06398
Y06496
X03445Y06398
X03543Y06496
X03346Y06201
X03248Y0689
Y07136
Y07382
X02953
X0305Y06995
X02755Y06905
X0256
Y06805
Y06605
X02461Y06988
X02461Y0748
X02214
X04429Y07382
X04527
X04675Y07431
X04823Y07382
Y07283
X04921
X0502
X05118
X05266Y07333
X05217Y07185
X04921Y06791
Y06299
X04626Y06398
X04429Y06299
X04331
Y06398
Y06496
Y06102
X04134Y06004
X03937
X03839
X04035Y06299
Y06693
Y06791
X04429Y0689
X0438Y07185
X04626Y07087
X04823Y0753
X05315Y07185
X05512Y07283
X05709Y07185
Y07087
X05807Y07185
X05807Y0689
Y06791
Y06496
X05709
X05807Y06398
Y06299
X05512
X06004Y06496
X0625Y06398
X06299Y06299
X06299Y0689
X06201
X06496Y06791
X06594
X0679Y0606
X05807Y0753
X06988Y0748
X0709Y0728
X07677Y07185
X07579Y06594
X0748Y06398
X07382
X07283Y06299
X07726Y06348
X07825Y06299
X07874Y06398
Y06496
X07776
X07775Y0601
X08071Y06004
X08169Y06594
X08366Y06791
X08169Y06988
Y0748
X08268
X0689Y06594
X08563Y06496
X08661
Y06398
X08858Y06201
X09055Y06102
X09646Y06201
X09449Y06693
X0935
X09153
X08957
Y07185
X0876
X08661Y0689
X09547
X09547Y06791
X09744Y07283
X09154Y0748
X09055Y07382
X10236
Y0748
X10335Y07087
X10433Y06988
X10433Y06693
Y06496
X10138Y06693
Y07087
X10039
X10925Y07185
X1122Y07087
X11417Y07185
X11516Y07087
X11516Y06988
X11516Y06693
X11024Y07579
X11122Y07874
Y08169
Y08563
X10925Y0876
X10728Y09055
X1063Y08957
X10531Y08858
Y08366
X10433Y08169
Y08071
Y07677
Y07579
X10335
X10531Y07776
X10039Y08661
X10138Y09055
X09744Y0876
X09941Y08563
X09449Y08465
Y08071
X0945Y0791
X09547Y07677
X09154Y07628
X0871Y0796
X0876Y0816
Y0851
X08563Y08809
X08661Y08907
X09449Y08957
X09547
X09744Y08071
X08365Y0836
Y0846
Y0856
X08366Y08661
Y0876
Y08858
Y08962
X08169Y09055
X07776Y08563
Y08219
Y0812
X07677Y07776
X0748Y07677
X07382Y07972
X07037
X06791Y07874
X06102
X06201Y07776
X06348Y08169
X06004Y08465
X05561
X05315Y08268
X05315Y07874
X05315Y07677
X05512
X0561Y07874
X05807Y07628
X06594Y08661
X05118Y08465
X04921
Y08366
X04626
Y08268
X04823Y08071
X04921Y07874
Y07776
X04429
X04429Y07677
X04429Y07579
Y07972
X05217
X05216Y08071
X04675Y08711
X03986Y0876
Y08858
X0374Y08465
X03543Y08071
Y07677
X0315Y07776
X02805Y07825
X02756Y07677
Y07972
X02854
X02559Y07923
X02165Y07726
X02264Y08563
X02953Y08268
X02116Y08711
X01969Y0876
X02067Y08858
X01476Y08563
X01575Y08169
X01476Y07972
X00886
X00935Y07825
X00689Y08465
X00295Y08268
X02264Y09554
X03248Y10154
X04625Y10404
X05561Y09804
Y09704
X06791Y09252
X07874Y09154
X08365Y0936
X08169Y1063
X08661Y10335
X0876Y10236
Y10138
X08661Y09646
X08464Y09449
X0876Y0916
X0896
X0925Y1003
X09153Y10531
X09646
Y1063
X10433
X10728Y09646
Y09547
X10827Y09646
Y0935
X10728Y09154
X10236Y09252
X11024Y09843
X11319Y09547
X11516Y09744
X11614Y09843
X11516Y10728
X1063
X10433Y11122
Y11319
X10138Y11516
Y11713
X1063Y11811
X10728Y12106
X10925Y12008
X1122
X1122Y12205
X11122Y11713
Y11614
X11024
X10728Y11516
X10925Y11024
X10138Y10925
X09646Y10728
Y11319
X09345Y1113
X09252Y11516
X09547Y11811
Y12106
X09842Y12205
X09941Y11713
X09055Y12106
X08563Y12008
X08465Y11909
Y11713
X08661Y11319
X08465Y10728
X08169Y10827
Y10925
X08071Y10827
X07972
Y11319
Y11516
X08169Y11319
X08366Y11024
Y12106
X0812Y12008
X07972Y12106
X0689Y12106
Y11516
X06791Y1122
X0315Y11604
X031Y11704
X03051Y11804
X02362Y10704
X01624Y11055
X01378Y12205
X00787Y12352
X00591
Y12254
X02264Y12598
X02362
X04724Y12697
X0689Y12352
X08366Y12697
X08661Y125
X0935Y125
X0935Y12303
X09842
X09843Y125
X10531
X10827Y12894
X11319Y12795
T02
X00295Y00689
Y00787
Y00886
Y00984
Y01083
Y01181
Y0128
X0059
Y01181
Y01083
Y00984
Y00886
Y00787
Y00689
X00787
Y00787
Y00886
Y00984
Y01083
Y01181
Y0128
X01083
Y01181
Y01083
Y00984
Y00886
Y00787
Y00689
X01279
Y00787
Y00886
Y00984
Y01083
Y01181
Y0128
X01575
Y01181
Y01083
Y00984
Y00886
Y00787
Y00689
X01772
Y00787
Y00886
Y00984
Y01083
Y01181
Y0128
X02067
Y01181
Y01083
Y00984
Y00886
Y00787
Y00689
Y00492
X0187
X01575
X01378
X01181
X00984
X02362
X02559
Y00689
Y00787
Y00886
Y00984
Y01083
Y01181
Y0128
X02756
Y01181
Y01083
Y00984
Y00886
Y00787
Y00689
X03051
Y00787
Y00886
Y00984
Y01083
Y01181
Y0128
X03248
Y01181
Y01083
Y00984
Y00886
Y00787
Y00689
X03543
Y00787
Y00886
Y00984
Y01083
Y01181
Y0128
Y00492
X03346
X03051
X02854
X02264Y00689
Y00787
Y00886
Y00984
Y01083
Y01181
Y0128
X0374
Y01181
Y01083
Y00984
Y00886
Y00787
Y00689
X04035
Y00787
Y00886
Y00984
Y01083
Y01181
Y0128
X04232
Y01181
Y01083
Y00984
Y00886
Y00787
Y00689
X04527
Y00787
Y00886
Y00984
Y01083
Y01181
Y0128
X04724
Y01181
Y01083
Y00984
Y00886
Y00787
Y00689
X0502
Y00787
Y00886
Y00984
Y01083
Y01181
Y0128
X05216
Y01181
Y01083
Y00984
Y00886
Y00787
Y00689
Y00492
X0502
X04823
Y00197
X05216
X04527Y00492
X04331
X04035
X03839
X05413
X05512Y00689
Y00787
Y00886
Y00984
Y01083
Y01181
Y0128
X05709
Y01181
Y01083
Y00984
Y00886
Y00787
Y00689
X06004
Y00787
Y00886
Y00984
Y01083
Y01181
Y0128
X06201
Y01181
Y01083
Y00984
Y00886
Y00787
Y00689
Y00492
X06398
X06594
X06791
X06693Y00689
Y00787
Y00886
Y00984
Y01083
Y01181
Y0128
X06496
Y01181
Y01083
Y00984
Y00886
Y00787
Y00689
X06004Y00492
X06988
Y00689
Y00787
Y00886
Y00984
Y01083
Y01181
Y0128
X07185
Y01181
Y01083
Y00984
Y00886
Y00787
Y00689
X0748
Y00787
Y00886
Y00984
Y01083
Y01181
Y0128
X07677
Y01181
Y01083
Y00984
Y00886
Y00787
Y00689
X07972
Y00787
Y00886
Y00984
Y01083
Y01181
Y0128
X08268
Y01181
Y01083
Y00984
Y00886
Y00787
Y00689
X07972Y00492
X07776
X0748
X07283
X08464
X08661
X08858
Y00591
Y00689
Y00787
Y00886
Y00984
Y01083
Y01181
Y0128
X08563
Y01181
Y01083
Y00984
Y00886
Y00787
Y00689
X09153
Y00787
Y00886
Y00984
Y01083
Y01181
Y0128
X09449
Y01181
Y01083
Y00984
Y00886
Y00787
X09744
Y00886
Y00984
Y01083
Y01181
Y0128
X09646Y00492
X09449
X09153
Y00591
X10138Y0064
X10039Y00787
Y00886
Y00984
Y01083
Y01181
Y0128
X10335
Y01181
Y01083
Y00984
Y00886
Y00787
X10531
Y00886
Y00984
Y01083
Y01181
Y0128
X10827
Y01181
Y01083
Y00984
Y00886
Y00787
X11024
Y00886
Y00984
Y01083
Y01181
Y0128
X11319
Y01181
Y01083
Y00984
Y00886
Y00787
X1122Y00394
Y00197
X10827
Y00394
X1063Y00295
Y00492
X10138Y00148
X11417Y00394
X11516
Y01772
Y0187
Y01969
Y02067
Y02165
Y02264
Y02362
Y02657
X11122
X10925
Y02854
X1063
X10335
Y02756
X10039
Y02854
Y02559
Y02362
Y02264
Y02165
Y02067
Y01969
Y0187
Y01772
Y01575
Y01378
X10335
X10531
X1063Y01575
Y01772
Y0187
Y01969
Y02067
Y02165
Y02264
Y02362
Y02461
X10925
Y02362
Y02264
Y02165
Y02067
Y01969
Y0187
Y01772
X1122
Y0187
Y01969
Y02067
Y02165
Y02264
Y02362
Y01575
X11417
X11319Y01378
X11024
X10827
Y01575
X10236
X10335Y01772
Y0187
Y01969
Y02067
Y02165
Y02264
Y02362
X10236Y02559
X10531Y02657
X09744Y02756
Y02854
X09449
Y02756
Y02559
Y02362
Y02264
Y02165
Y02067
Y01969
Y0187
Y01772
X09153
Y0187
Y01969
Y02067
Y02165
Y02264
Y02362
Y02461
X08858
Y02362
Y02264
Y02165
Y02067
Y01969
Y0187
Y01772
X08563
Y0187
Y01969
Y02067
Y02165
Y02264
Y02362
Y02461
Y02854
X08858
X09153
X09646Y02559
X09744Y02362
Y02264
Y02165
Y02067
Y01969
Y0187
Y01772
Y01575
Y01378
X09449
X09547Y01575
X09153
Y01378
X08858
X08957Y01575
X08563Y01378
X08268
X07972
Y01575
Y01772
Y0187
Y01969
Y02067
Y02165
Y02264
Y02362
Y02461
Y02657
Y02854
X07677
X0748
Y02657
Y02461
Y02362
Y02264
Y02165
Y02067
Y01969
Y0187
Y01772
X07677
Y0187
Y01969
Y02067
Y02165
Y02264
Y02362
Y02461
X07776Y02657
X07283
X06988
Y02854
X07185
Y02461
Y02362
Y02264
Y02165
Y02067
Y01969
Y0187
Y01772
X06988
Y0187
Y01969
Y02067
Y02165
Y02264
Y02362
Y02461
Y01575
Y01378
X07185
X07283Y01575
X0748
Y01378
X07677
X07776Y01575
X08268Y01772
Y0187
Y01969
Y02067
Y02165
Y02264
Y02362
Y02461
Y02854
X06693
X06496
Y02657
Y02461
Y02362
Y02264
Y02165
Y02067
Y01969
Y0187
Y01772
X06693
Y0187
Y01969
Y02067
Y02165
Y02264
Y02362
Y02461
X06791Y02657
X06299
X06201Y02854
X06004
Y02657
Y02461
Y02362
Y02264
Y02165
Y02067
Y01969
Y0187
Y01772
X06201
Y0187
Y01969
Y02067
Y02165
Y02264
Y02362
Y02461
X05709
Y02362
Y02264
Y02165
Y02067
Y01969
Y0187
Y01772
X05512
Y0187
Y01969
Y02067
Y02165
Y02264
Y02362
Y02461
Y02657
Y02854
X05709
X05807Y02657
X05315
Y01575
X05512
Y01378
X05709
X05807Y01575
X06004
Y01378
X06201
X06299Y01575
X06496
Y01378
X06693
X06791Y01575
X05216Y01378
X0502
Y01575
Y01772
Y0187
Y01969
Y02067
Y02165
Y02264
Y02362
Y02461
X05216
Y02362
Y02264
Y02165
Y02067
Y01969
Y0187
Y01772
X04724
Y0187
Y01969
Y02067
Y02165
Y02264
Y02362
Y02461
X04527
Y02362
Y02264
Y02165
Y02067
Y01969
Y0187
Y01772
Y01575
Y01378
X04724
X04823Y01575
X04331
X04232Y01378
X04035
Y01575
Y01772
Y0187
Y01969
Y02067
Y02165
Y02264
Y02362
Y02461
X04232
Y02362
Y02264
Y02165
Y02067
Y01969
Y0187
Y01772
X0374
Y0187
Y01969
Y02067
Y02165
Y02264
Y02362
Y02461
X03839Y02657
X04035
Y02854
X04232
X04527
X04724
X0502
X05216
X0502Y02657
X04823
X04527
X04331
X0374Y02854
X03839Y01575
X0374Y01378
X03543
Y01575
Y01772
Y0187
Y01969
Y02067
Y02165
Y02264
Y02362
Y02461
Y02657
Y02854
X03248
X03051
Y02657
Y02461
Y02362
Y02264
Y02165
Y02067
Y01969
Y0187
Y01772
X03248
Y0187
Y01969
Y02067
Y02165
Y02264
Y02362
Y02461
X03346Y02657
X02854
X02756Y02854
X02559
Y02657
Y02461
Y02362
Y02264
Y02165
Y02067
Y01969
Y0187
Y01772
X02756
Y0187
Y01969
Y02067
Y02165
Y02264
Y02362
Y02461
X02264
Y02362
Y02264
Y02165
Y02067
Y01969
Y0187
Y01772
X02362Y01575
X02559
Y01378
X02756
X02854Y01575
X03051
Y01378
X03248
X03346Y01575
X02264Y01378
X02362Y02657
X02264Y02854
X02067
Y02657
Y02461
Y02362
Y02264
Y02165
Y02067
Y01969
Y0187
Y01772
Y01575
Y01378
X01772
X01575
Y01575
Y01772
Y0187
Y01969
Y02067
Y02165
Y02264
Y02362
Y02461
X01772
Y02362
Y02264
Y02165
Y02067
Y01969
Y0187
Y01772
X0187Y01575
X01378
X01279Y01378
X01083
Y01575
Y01772
Y0187
Y01969
Y02067
Y02165
Y02264
Y02362
Y02461
X01279
Y02362
Y02264
Y02165
Y02067
Y01969
Y0187
Y01772
X00787
Y0187
Y01969
Y02067
Y02165
Y02264
Y02362
Y02461
X0059
Y02362
Y02264
Y02165
Y02067
Y01969
Y0187
Y01772
Y01575
Y01378
X00787
X00886Y01575
Y02657
X01083
Y02854
X01279
X01575
X01772
X0187Y02657
X01575
X01378
X0059
Y02854
X00787
X00295
X00394Y02657
X00295Y02461
Y02362
Y02264
Y02165
Y02067
Y01969
Y0187
Y01772
X00394Y01575
X00295Y01378
Y02953
Y03051
Y0315
Y03248
Y03346
Y03445
Y03543
X00394Y0374
X00295Y03937
Y04035
Y04134
Y04232
Y04331
Y04429
X0059
Y04331
Y04232
Y04134
Y04035
Y03937
X00787
Y04035
Y04134
Y04232
Y04331
Y04429
X01083
Y04331
Y04232
Y04134
Y04035
Y03937
Y0374
Y03543
Y03445
Y03346
Y03248
Y0315
Y03051
Y02953
X01279
Y03051
Y0315
Y03248
Y03346
Y03445
Y03543
X01575
Y03445
Y03346
Y03248
Y0315
Y03051
Y02953
X01772
Y03051
Y0315
Y03248
Y03346
Y03445
Y03543
X02067
Y03445
Y03346
Y03248
Y0315
Y03051
Y02953
Y0374
Y03937
Y04035
Y04134
Y04232
Y04331
Y04429
X01772
Y04331
Y04232
Y04134
Y04035
Y03937
X01575Y03937
Y04035
Y04134
Y04232
Y04331
Y04429
X01279
Y04331
Y04232
Y04134
Y04035
Y03937
X01378Y0374
X01575
X0187
X00886
X0059
Y03543
Y03445
Y03346
Y03248
Y0315
Y03051
Y02953
X00787
Y03051
Y0315
Y03248
Y03346
Y03445
Y03543
X02264
Y03445
Y03346
Y03248
Y0315
Y03051
Y02953
X02559
Y03051
Y0315
Y03248
Y03346
Y03445
Y03543
X02756
Y03445
Y03346
Y03248
Y0315
Y03051
Y02953
X03051
Y03051
Y0315
Y03248
Y03346
Y03445
Y03543
X03248
Y03445
Y03346
Y03248
Y0315
Y03051
Y02953
X03543
Y03051
Y0315
Y03248
Y03346
Y03445
Y03543
Y0374
Y03937
Y04035
Y04134
Y04232
Y04331
Y04429
X03248
Y04331
Y04232
Y04134
Y04035
Y03937
X03051
Y04035
Y04134
Y04232
Y04331
Y04429
X02756
Y04331
Y04232
Y04134
Y04035
Y03937
X02559
Y04035
Y04134
Y04232
Y04331
Y04429
X02264
Y04331
Y04232
Y04134
Y04035
Y03937
X02362Y0374
X02559
X02854
X03051
X03346
X03839
X04035
Y03937
Y04035
Y04134
Y04232
Y04331
Y04429
X04232
Y04331
Y04232
Y04134
Y04035
Y03937
X04527
Y04035
Y04134
Y04232
Y04331
Y04429
X04724
Y04331
Y04232
Y04134
Y04035
Y03937
X0502
Y04035
Y04134
Y04232
Y04331
Y04429
X05216
Y04331
Y04232
Y04134
Y04035
Y03937
Y03543
Y03445
Y03346
Y03248
Y0315
Y03051
Y02953
X0502
Y03051
Y0315
Y03248
Y03346
Y03445
Y03543
Y0374
X04823
X04724Y03543
Y03445
Y03346
Y03248
Y0315
Y03051
Y02953
X04527
Y03051
Y0315
Y03248
Y03346
Y03445
Y03543
Y0374
X04331
X04232Y03543
Y03445
Y03346
Y03248
Y0315
Y03051
Y02953
X04035
Y03051
Y0315
Y03248
Y03346
Y03445
Y03543
X0374
Y03445
Y03346
Y03248
Y0315
Y03051
Y02953
Y03937
Y04035
Y04134
Y04232
Y04331
Y04429
X05512
Y04331
Y04232
Y04134
Y04035
Y03937
X05709
Y04035
Y04134
Y04232
Y04331
Y04429
X06004
Y04331
Y04232
Y04134
Y04035
Y03937
X06201
Y04035
Y04134
Y04232
Y04331
Y04429
X06496
Y04331
Y04232
Y04134
Y04035
Y03937
X06693
Y04035
Y04134
Y04232
Y04331
Y04429
X06791Y0374
X06693Y03543
Y03445
Y03346
Y03248
Y0315
Y03051
Y02953
X06496
Y03051
Y0315
Y03248
Y03346
Y03445
Y03543
Y0374
X06299
X06201Y03543
Y03445
Y03346
Y03248
Y0315
Y03051
Y02953
X06004
Y03051
Y0315
Y03248
Y03346
Y03445
Y03543
Y0374
X05807
X05709Y03543
Y03445
Y03346
Y03248
Y0315
Y03051
Y02953
X05512
Y03051
Y0315
Y03248
Y03346
Y03445
Y03543
Y0374
X05315
X06988
Y03937
Y04035
Y04134
Y04232
Y04331
Y04429
X07185
Y04331
Y04232
Y04134
Y04035
Y03937
X0748
Y04035
Y04134
Y04232
Y04331
Y04429
X07677
Y04331
Y04232
Y04134
Y04035
Y03937
X07972
Y04035
Y04134
Y04232
Y04331
Y04429
X08268
Y04331
Y04232
Y04134
Y04035
Y03937
X08366Y0374
X08268Y03543
Y03445
Y03346
Y03248
Y0315
Y03051
Y02953
X07972
Y03051
Y0315
Y03248
Y03346
Y03445
Y03543
Y0374
X07776
X07677Y03543
Y03445
Y03346
Y03248
Y0315
Y03051
Y02953
X0748
Y03051
Y0315
Y03248
Y03346
Y03445
Y03543
Y0374
X07283
X07185Y03543
Y03445
Y03346
Y03248
Y0315
Y03051
Y02953
X06988
Y03051
Y0315
Y03248
Y03346
Y03445
Y03543
X08563
Y03445
Y03346
Y03248
Y0315
Y03051
Y02953
X08858
Y03051
Y0315
Y03248
Y03346
Y03445
Y03543
X09153
Y03445
Y03346
Y03248
Y0315
Y03051
Y02953
X09449
Y03051
Y0315
Y03248
Y03346
Y03445
Y03543
Y0374
Y03839
Y03937
Y04035
Y04134
Y04232
Y04331
Y04429
X09744
Y04331
Y04232
Y04134
Y04035
Y03937
Y03839
Y0374
Y03543
Y03445
Y03346
Y03248
Y0315
Y03051
Y02953
X09153Y03937
Y04035
Y04134
Y04232
Y04331
Y04429
X08858
Y04331
Y04232
Y04134
Y04035
Y03937
X08563
Y04035
Y04134
Y04232
Y04331
Y04429
Y0374
X10039
Y03839
Y03937
Y04035
Y04134
Y04232
Y04331
Y04429
X10335
Y04331
Y04232
Y04134
Y04035
Y03937
Y03839
Y0374
Y03543
Y03445
Y03346
Y03248
Y0315
Y03051
Y02953
X10039
Y03051
Y0315
Y03248
Y03346
Y03445
Y03543
X1063
Y03445
Y03346
Y03248
Y0315
Y03051
Y02953
X10925
Y03051
Y0315
Y03248
Y03346
Y03445
Y03543
X1122
Y03445
Y03346
Y03248
Y0315
Y03051
Y02953
Y0374
X11417
X11122Y04035
X10925
Y03937
Y04134
Y04232
Y04331
Y04429
X11122
Y04232
X1063
Y04134
Y04035
Y03937
Y04331
Y04429
X11516
Y04232
Y04035
Y03543
Y03445
Y03346
Y03248
Y0315
Y03051
Y02953
Y04626
X11122
X10925Y04626
Y04528
X1063
Y04626
X10531Y04823
X10335
Y04626
Y04528
X10039
Y04626
X10138Y04823
X10049Y05012
Y05112
Y05212
Y05312
Y05412
Y05512
Y05612
Y05712
Y05812
X10138Y05807
X10049Y05912
X10335Y0561
Y05512
Y05413
Y05315
Y05217
Y05118
Y0502
X1063
Y05118
Y05217
Y05315
Y05413
Y05512
Y0561
Y05807
X10728Y05807
X10827
X10925Y05709
Y0561
Y05512
Y05413
Y05315
Y05217
Y05118
Y0502
X1122
Y05118
Y05217
Y05315
Y05413
Y05512
Y0561
Y05709
X11024Y04823
X10827
X09941
X09744Y04626
Y04528
X09449
Y04626
X09153
Y04528
X08858
Y04626
X08563
Y04528
X08464Y04823
X08563Y0502
Y05118
Y05217
Y05315
Y05413
Y05512
Y0561
Y05709
Y05807
Y05906
X08858
Y05807
Y05709
Y0561
Y05512
Y05413
Y05315
Y05217
Y05118
Y0502
X09153
Y05118
Y05217
Y05315
Y05413
Y05512
Y0561
Y05709
Y05807
Y05906
X09449Y05912
Y05812
Y05712
Y05612
Y05512
Y05412
Y05312
Y05212
Y05112
Y05012
X09252Y04823
X09055
X08268
Y04626
Y04528
X07972
Y04626
X07677
Y04528
X0748
Y04626
Y04823
X07283
X07382Y05009
Y05109
Y05209
Y05309
Y05409
Y05509
Y05609
Y05709
Y05809
Y05909
X06998
Y05809
Y05709
Y05609
Y05509
Y05409
Y05309
Y05209
Y05109
Y05009
X06988Y04626
Y04528
X07185
Y04626
X07982Y05009
Y05109
Y05209
Y05309
Y05409
Y05509
Y05609
Y05709
Y05809
Y05909
X08268Y05906
Y05807
Y05709
Y0561
Y05512
Y05413
Y05315
Y05217
Y05118
Y0502
X06594Y04823
X06398
Y05009
Y05109
Y05209
Y05309
Y05409
Y05509
Y05609
Y05709
Y05809
Y05909
X06102Y05906
Y05807
Y05709
Y0561
Y05512
Y05413
Y05315
Y05217
Y05118
Y0502
X05807
Y05118
Y05217
Y05315
Y05413
Y05512
Y0561
Y05709
Y05807
Y05906
X05413
Y05807
Y05709
Y0561
Y05512
Y05413
Y05315
Y05217
Y05118
Y0502
X05512Y04626
Y04528
X05709
Y04626
X05807Y04823
X06004
Y04626
Y04528
X06201
Y04626
X06496
Y04528
X06693
Y04626
X05216
Y04528
X0502
Y04626
Y04823
X05216
X05118Y0502
Y05118
Y05217
Y05315
Y05413
Y05512
Y0561
Y05709
Y05807
Y05906
X04823
Y05807
Y05709
Y0561
Y05512
Y05413
Y05315
Y05217
Y05118
Y0502
X04527
Y05118
Y05217
Y05315
Y05413
Y05512
Y0561
Y05709
Y05807
Y05906
X04232
Y05807
Y05709
Y0561
Y05512
Y05413
Y05315
Y05217
Y05118
Y0502
X03937
Y05118
Y05217
Y05315
Y05413
Y05512
Y0561
Y05709
Y05807
Y05906
X04035Y04823
Y04626
Y04528
X04232
Y04626
X04527
Y04528
X04724
Y04626
X04626Y04823
X04429
X03839
X0374Y04626
Y04528
X03543
Y04626
X03445Y04823
X03248
X0315
X03061Y05005
Y05105
Y05205
Y05305
Y05405
Y05505
Y05605
Y05705
Y05805
Y05905
X03346Y05906
Y05807
Y05709
Y0561
Y05512
Y05413
Y05315
Y05217
Y05118
Y0502
X03642
Y05118
Y05217
Y05315
Y05413
Y05512
Y0561
Y05709
Y05807
Y05906
X02461Y05905
Y05805
Y05705
Y05605
Y05505
Y05405
Y05305
Y05205
Y05105
Y05005
X02559Y04823
Y04626
Y04528
X02756
Y04626
Y04823
X02362
X02165
X02264Y04626
Y04528
X03051
Y04626
X03248
Y04528
X02067
Y04626
X01772
Y04528
X01575Y04528
Y04626
X01279
Y04528
X01083Y04528
Y04626
X01181Y04823
Y04921
Y0502
Y05118
Y05217
Y05315
Y05413
Y05512
Y0561
X01083Y05807
Y05906
X00984
Y05807
X00689
X0059
X00689Y05906
X00886Y0561
Y05512
Y05413
Y05315
Y05217
Y05118
Y0502
Y04921
Y04823
X00787Y04626
Y04528
X0059
Y04626
X00738Y05315
X01476Y05305
Y05205
Y05105
Y05005
X01673Y04823
X01772
X02076Y05005
Y05105
Y05205
Y05305
Y05405
Y05505
Y05605
Y05705
Y05805
Y05905
X01476
X01378Y05906
Y05807
X01476Y05805
Y05705
Y05605
Y05505
Y05405
X01279Y04823
X00295Y04626
Y04528
X00246Y05315
X00394Y05807
X00197Y06004
Y06201
X00295Y06398
X00492
Y07185
X00295
Y07382
Y0748
X00197Y0689
X0059
X00984
Y06791
Y06693
Y06594
Y06398
X01083
Y06299
Y06201
Y06102
Y06004
X00984
Y06102
Y06201
Y06299
X00689
Y06201
Y06102
Y06004
X0059
Y06201
X00689Y06398
X01378
Y06299
Y06201
Y06102
Y06004
X01476Y06005
Y06105
Y06205
Y06305
Y06405
Y06505
Y06605
Y06705
Y06805
Y06905
X01279Y0689
Y06791
Y06693
Y06594
Y06988
Y07087
Y07185
Y07382
Y0748
X01083
Y07382
X00984Y07185
Y07087
Y06988
X00787Y07382
Y0748
X0059
Y07382
X01575
Y0748
X01772
Y07382
Y07283
Y07087
X01575
X02067
X02076Y06905
Y06805
Y06705
Y06605
Y06505
Y06405
Y06305
Y06205
Y06105
Y06005
X02067Y07283
Y07382
Y0748
X02362
Y07382
Y07283
X02264Y07087
X02461Y06905
Y06805
Y06705
Y06605
Y06505
Y06405
Y06305
Y06205
Y06105
Y06005
X03061
Y06105
Y06205
Y06305
Y06405
Y06505
Y06605
Y06705
Y06805
Y06905
X03051Y07185
X02854
X02657Y07283
Y07382
Y0748
X02953
X03248
X03445
X03346Y07185
Y07087
Y06988
Y0689
Y06791
Y06693
Y06594
Y06496
Y06398
Y06299
X03642
Y06398
Y06496
Y06594
Y06693
Y06791
Y0689
Y06988
Y07087
Y07185
X03445Y06102
X03248
X03839
X04035
X03937Y06299
Y06398
Y06496
Y06594
Y06693
Y06791
Y0689
Y06988
Y07087
Y07185
X04232
Y07087
Y06988
Y0689
Y06791
Y06693
Y06594
Y06496
Y06398
Y06299
X04527
Y06398
Y06496
Y06594
Y06693
Y06791
Y0689
Y06988
Y07087
Y07185
Y0748
X04232
X04035Y07382
X03839
X0374Y0748
X04823Y07185
Y07087
Y06988
Y0689
Y06791
Y06693
Y06594
Y06496
Y06398
Y06299
X05118
Y06398
Y06496
Y06594
Y06693
Y06791
Y0689
Y06988
Y07087
Y07185
X05216Y06102
X0502
X04626
X04429
X05413Y06299
Y06398
Y06496
Y06594
Y06693
Y06791
Y0689
Y06988
Y07087
Y07185
X06004Y07179
Y07079
Y06979
Y06879
X06102Y06693
X06299
X06398Y06309
Y06209
Y06109
Y06009
X06604Y06879
Y06979
Y07079
Y07179
Y07279
Y07379
Y07479
X06004
Y07379
Y07279
X07579Y07283
Y07185
Y07087
Y06988
Y0689
X07874
Y06988
Y07087
Y07185
Y07283
Y07382
Y0748
X07579
Y07382
X08268Y07392
Y07292
Y07192
Y07092
Y06992
Y06892
Y06792
Y06692
Y06592
Y06492
Y06392
Y06292
X07982Y06309
Y06209
Y06109
Y06009
X07382
Y06109
Y06209
Y06309
Y06594
X07185
X06998Y06309
Y06209
Y06109
Y06009
X08868Y06292
Y06392
Y06492
Y06592
Y06692
Y06792
Y06892
Y06992
Y07092
Y07192
Y07292
Y07392
X09153Y07382
Y07283
Y07185
Y07087
Y06988
Y0689
Y06791
X09449
Y0689
Y06988
Y07087
Y07185
Y07283
Y07382
Y06112
Y06012
X09153Y06398
X09941
X10236Y06398
Y06201
X10049Y06112
Y06012
X10335Y06004
X10433
X1063
X10728
Y06201
X1063Y06201
Y06398
X10728Y06398
X1063Y06594
Y06791
X10974Y06693
X11122Y06791
Y06398
Y06201
X11024Y06004
X10925
X10138Y06594
Y06791
X11122Y07382
X11516
Y07579
Y07776
Y08071
Y08169
Y08268
Y08366
Y08465
Y08563
Y08661
Y09055
X1122
Y08858
Y08661
Y08563
Y08465
Y08366
Y08268
Y08169
Y08071
X10925
Y08169
Y08268
Y08366
Y08465
Y08563
Y08661
X1063
Y08563
Y08465
Y08366
Y08268
Y08169
Y08071
Y07874
Y07677
X10335Y07776
Y07874
Y07972
Y08071
Y08169
Y08268
Y08366
X10039
Y08268
Y08169
Y08071
Y07972
Y07874
Y07776
Y08563
Y0876
Y08858
Y08957
Y09055
X10335
Y08957
Y08858
Y0876
X10236Y08563
X1063Y08858
Y09055
X10925
X10827Y08858
X11417
X11024Y07874
Y07677
X11122Y07579
Y07776
X09852Y07761
Y07861
Y07961
Y08061
Y08161
Y08261
Y08361
Y08461
Y08561
Y08661
Y08761
Y08861
Y08961
Y09061
X09252
Y08961
Y08861
Y08761
Y08661
Y08561
Y08461
Y08361
Y08261
Y08161
Y08061
Y07961
Y07861
Y07761
X09449Y07579
X09646
X08858
X08868Y07761
Y07861
Y07961
Y08061
Y08161
Y08261
Y08361
Y08461
Y08561
Y08661
Y08761
Y08861
Y08961
Y09061
X08661Y07579
X08268Y07761
Y07861
Y07961
Y08061
Y08161
Y08261
Y08361
Y08461
Y08561
Y08661
Y08761
Y08861
Y08961
Y09061
X06604Y08179
Y08079
Y07979
Y07879
Y07779
Y07679
Y07579
X06004
Y07679
Y07779
Y07879
Y07979
Y08079
Y08179
X05807Y08071
Y07972
Y07874
Y07776
X05512
X05413
Y07677
Y07874
Y07972
Y08071
Y08169
Y08268
X05512Y08071
Y07972
Y07874
X05118
X0502
Y07776
Y07677
X05118
Y07776
Y07972
X0502
Y08071
Y08169
Y08268
X05118
Y08169
Y08071
X04724
Y07972
Y07874
Y07776
Y07677
X04527
Y07776
Y07874
Y07972
Y08071
Y08169
Y08268
Y08366
X04232
Y08268
Y08169
Y08071
Y07972
Y07874
Y07776
Y07677
Y07579
X04527
X0374
Y07677
Y07776
Y07874
Y07972
Y08071
Y08169
X04724
Y08268
X03543Y08366
X03445
X03346
X03248
X0315
X03051
X02953
X02854
X02756
X02657
Y08169
Y08071
Y07972
Y07874
Y07776
Y07677
Y07579
X02953
Y07677
Y07776
Y07874
Y07972
Y08071
Y08169
X03248
Y08071
Y07972
Y07874
Y07776
Y07677
Y07579
X03445
Y07677
Y07776
Y07874
Y07972
Y08071
Y08169
X02362
Y08071
Y07972
Y07874
Y07776
Y07677
Y07579
Y08366
X02264
X02165
X02461
X02067
X01968
X0187
X01772
X01673
X01575
X01378
X01279
X01181
X01083
X00984
X00886
X00787
X00689
X0059
Y08071
Y07972
Y07874
Y07776
Y07677
Y07579
X00787
Y07677
Y07776
Y07874
Y07972
Y08071
X01083
Y07972
Y07874
Y07776
Y07677
Y07579
X01279
Y07677
Y07776
Y07874
Y07972
Y08071
X01575
Y07972
Y07874
Y07776
Y07677
Y07579
X01772
Y07677
Y07776
Y07874
Y07972
Y08071
Y08169
X02067
Y08071
Y07972
Y07874
Y07776
Y07677
Y07579
X01575Y0876
X01378
X01497Y09005
Y09105
X00492Y08366
X00295Y08071
Y07972
Y07874
Y07776
Y07677
Y07579
X01497Y09205
Y09305
Y09405
Y09505
Y09605
Y09705
Y09805
Y09905
Y10104
Y10204
Y10304
Y10404
Y10504
Y10604
X08268Y1063
Y10531
Y10433
Y10335
Y10236
Y10138
Y10039
X08169Y09941
X08268Y09843
Y09661
Y09561
Y09461
Y09361
Y09261
Y09161
X07776Y09941
X08464Y09843
X08563Y10039
Y10138
Y10236
Y10335
Y10433
Y10531
Y1063
X08957Y10632
Y10532
Y10432
Y10332
Y10232
Y10132
Y10032
X09055Y09843
X08858
X08868Y09661
Y09561
Y09461
Y09361
Y09261
Y09161
X09252
Y09261
Y09361
Y09461
Y09561
Y09661
X09852
Y09561
Y09461
Y09361
Y09261
Y09161
X09557Y10032
Y10132
Y10232
Y10332
Y10432
Y10532
Y10632
X10039Y1063
Y10531
Y10433
Y10335
Y10236
Y10138
Y10039
Y09843
Y09646
Y09547
Y09449
Y0935
Y09252
Y09154
X10335
Y09252
Y0935
Y09449
Y09547
Y09646
X1063
Y09547
Y09449
Y0935
Y09252
Y09154
X10925
Y09252
Y0935
Y09449
Y09547
Y09646
X1122
Y09547
Y09449
Y0935
Y09252
Y09154
Y09843
X11417
X11122Y10039
X10925
Y10138
Y10236
Y10335
Y10433
Y10531
Y1063
X1063
Y10531
Y10433
Y10335
Y10236
Y10138
Y10039
Y09843
X10433
X10335Y10039
Y10138
Y10236
Y10335
Y10433
Y10531
Y1063
X11122Y10433
Y10236
X10827Y09843
X11516Y09646
Y09547
Y09449
Y0935
Y09252
Y09154
Y10039
Y10236
Y10433
Y10925
Y11122
Y1122
Y11319
Y11417
Y11516
Y11614
Y11713
X1122
Y11614
Y11516
Y11417
Y11319
Y1122
Y11122
X10925
Y1122
Y11319
Y11417
Y11516
Y11614
Y11713
X11024Y11909
X1122
X10728
X10531
X10335Y11909
Y11811
Y11713
Y11614
Y11516
Y11417
Y11319
Y11122
Y10925
Y10827
Y10728
X10039
Y10827
Y10925
X10138Y11122
X10039Y11319
Y11417
Y11516
Y11614
Y11713
Y11811
Y11909
X10335Y12106
X1063
Y12205
X10925
Y12106
X1063Y11713
Y11614
Y11516
Y11417
Y11319
Y1122
Y11122
Y10827
X10827
X11122Y10925
X09941Y11122
X09744
Y11319
Y11417
Y11516
Y11614
Y11713
Y11811
Y11909
Y12106
Y12205
X09449
Y12106
Y11909
Y11811
Y11713
Y11614
Y11516
Y11417
Y11319
X09557Y11132
Y11032
Y10932
Y10832
Y10732
X08957
Y10832
Y10932
Y11032
Y11132
X08858Y11122
X08464
X08563Y10925
Y10827
Y10728
Y11319
Y11417
Y11516
Y11614
Y11713
Y11811
Y11909
Y12106
Y12205
X08858
Y12106
Y11909
X09055
X09153Y12106
Y12205
Y11713
Y11417
X08957
X0876Y11713
X09941Y12106
X08268
Y12205
Y11909
Y11811
Y11713
Y11614
Y11516
Y11417
Y11319
Y11122
Y10925
Y10827
Y10728
X08071Y11122
Y11713
X07874
X07776Y11614
Y12008
X03986Y11705
X03789
Y11504
X03986
Y11307
X03789
X01497Y11304
Y11404
Y11504
Y11604
Y11704
Y11804
Y11904
Y12004
Y12104
Y11204
X01497Y11004
Y10904
Y10804
Y10704
X08268Y12303
Y12402
Y125
Y12598
Y12697
X08563
Y12598
Y125
Y12402
Y12303
X08858
Y12402
Y125
Y12598
Y12697
X09153
Y12598
Y125
Y12402
Y12303
X09449
Y12402
Y125
Y12598
Y12697
Y12795
X09744
Y12697
Y12598
Y125
Y12402
Y12303
X09941
X09941Y125
Y12697
X10138
X10335Y125
X10335Y12303
X1063
Y12402
Y125
Y12598
Y12697
X10925
Y12598
Y125
Y12402
Y12303
X11024Y12402
X11417
T03
X04526Y00197
X04626
X11024Y0064
X11124
X08763Y01575
X08663
X08563
X08711Y01965
Y02065
Y02165
X0812Y03937
Y04037
Y04137
X08711Y03104
Y03004
Y02904
X00592Y04821
Y04921
X00492
Y04821
X05797Y09104
X05997
X05197
X04997
X04397
X04197
X03597
X03397
X02797
X02597
X01997
X01797
X01197
X00997
X00397
X00197
Y09204
Y09304
Y09404
Y09504
Y09604
Y09704
Y09804
Y09904
Y10004
Y10104
Y10204
Y10304
Y10404
Y10504
Y10604
X00397
Y10504
Y10404
Y10304
Y10204
Y10104
Y10004
Y09904
Y09804
Y09704
Y09604
Y09504
Y09404
Y09304
Y09204
X00997
Y09304
Y09404
Y09504
Y09604
Y09704
Y09804
Y09904
Y10004
Y10104
Y10204
Y10304
Y10404
Y10504
Y10604
X01197
Y10504
Y10404
Y10304
Y10204
Y10104
Y10004
Y09904
Y09804
Y09704
Y09604
Y09504
Y09404
Y09304
Y09204
X01797
Y09304
Y09404
Y09504
Y09604
Y09704
Y09804
Y09904
Y10004
Y10104
Y10204
Y10304
Y10404
Y10504
Y10604
X01997
Y10504
Y10404
Y10304
Y10204
Y10104
Y10004
Y09904
Y09804
Y09704
Y09604
Y09504
Y09404
Y09304
Y09204
X02597
Y09304
Y09404
Y09504
Y09604
Y09704
Y09804
Y09904
Y10004
Y10104
Y10204
Y10304
Y10404
Y10504
Y10604
X02797
Y10504
Y10404
Y10304
Y10204
Y10104
Y10004
Y09904
Y09804
Y09704
Y09604
Y09504
Y09404
Y09304
Y09204
X03397
Y09304
Y09404
Y09504
Y09604
Y09704
Y09804
Y09904
Y10004
Y10104
Y10204
Y10304
Y10404
Y10504
Y10604
X03597
Y10504
Y10404
Y10304
Y10204
Y10104
Y10004
Y09904
Y09804
Y09704
Y09604
Y09504
Y09404
Y09304
Y09204
X04197
Y09304
Y09404
Y09504
Y09604
Y09704
Y09804
Y09904
Y10004
Y10104
Y10204
Y10304
Y10404
Y10504
Y10604
X04397
Y10504
Y10404
Y10304
Y10204
Y10104
Y10004
Y09904
Y09804
Y09704
Y09604
Y09504
Y09404
Y09304
Y09204
X04997
Y09304
Y09404
Y09504
Y09604
Y09704
Y09804
Y09904
Y10004
Y10104
Y10204
Y10304
Y10404
Y10504
Y10604
X05197
Y10504
Y10404
Y10304
Y10204
Y10104
Y10004
Y09904
Y09804
Y09704
Y09604
Y09504
Y09404
Y09304
Y09204
X05797
Y09304
Y09404
Y09504
Y09604
Y09704
Y09804
Y09904
Y10004
Y10104
Y10204
Y10304
Y10404
Y10504
Y10604
X05997
Y10504
Y10404
Y10304
Y10204
Y10104
Y10004
Y09904
Y09804
Y09704
Y09604
Y09504
Y09404
Y09304
Y09204
X11317Y1063
X11417
X05997Y10704
Y10804
Y10904
Y11004
Y11104
Y11204
Y11304
Y11404
Y11504
Y11604
Y11704
Y11804
Y11904
Y12004
Y12104
X05797
Y12004
Y11904
Y11804
Y11704
Y11604
Y11504
Y11404
Y11304
Y11204
Y11104
Y11004
Y10904
Y10804
Y10704
X05197
Y10804
Y10904
Y11004
Y11104
Y11204
Y11304
Y11404
Y11504
Y11604
Y11704
Y11804
Y11904
Y12004
Y12104
X04997
Y12004
Y11904
Y11804
Y11704
Y11604
Y11504
Y11404
Y11304
Y11204
Y11104
Y11004
Y10904
Y10804
Y10704
X04397
Y10804
Y10904
Y11004
Y11104
Y11204
Y11304
Y11404
Y11504
Y11604
Y11704
Y11804
Y11904
Y12004
Y12104
X04197
Y12004
Y11904
Y11804
Y11704
Y11604
Y11504
Y11404
Y11304
Y11204
Y11104
Y11004
Y10904
Y10804
Y10704
X03597
Y10804
Y10904
Y11004
Y11104
Y11204
Y11304
Y11404
Y11504
Y11604
Y11704
Y11804
Y11904
Y12004
Y12104
X03397
Y12004
Y11904
Y11804
Y11704
Y11604
Y11504
Y11404
Y11304
Y11204
Y11104
Y11004
Y10904
Y10804
Y10704
X02797
Y10804
Y10904
Y11004
Y11104
Y11204
Y11304
Y11404
Y11504
Y11604
Y11704
Y11804
Y11904
Y12004
Y12104
X02597
Y12004
Y11904
Y11804
Y11704
Y11604
Y11504
Y11404
Y11304
Y11204
Y11104
Y11004
Y10904
Y10804
Y10704
X01997
Y10804
Y10904
Y11004
Y11104
Y11204
Y11304
Y11404
Y11504
Y11604
Y11704
Y11804
Y11904
Y12004
Y12104
X01797
Y12004
Y11904
Y11804
Y11704
Y11604
Y11504
Y11404
Y11304
Y11204
Y11104
Y11004
Y10904
Y10804
Y10704
X01197
Y10804
Y10904
Y11004
Y11104
Y11204
Y11304
Y11404
Y11504
Y11604
Y11704
Y11804
Y11904
Y12004
Y12104
X00997
Y12004
Y11904
Y11804
Y11704
Y11604
Y11504
Y11404
Y11304
Y11204
Y11104
Y11004
Y10904
Y10804
Y10704
X00397
Y10804
Y10904
Y11004
Y11104
Y11204
Y11304
Y11404
Y11504
Y11604
Y11704
Y11804
Y11904
Y12004
Y12104
X00197
Y12004
Y11904
Y11804
Y11704
Y11604
Y11504
Y11404
Y11304
Y11204
Y11104
Y11004
Y10904
Y10804
Y10704
X10333Y12697
X10433
X11122Y12598
X11222
T04
X10433Y07382
X10531Y0748
Y07283
X10925Y07382
X11024Y0748
Y07283
T05
X06496Y0935
Y10335
Y10531
X0748Y10465
Y10309
Y10154
Y09998
Y10621
Y10777
Y10933
Y11089
Y11245
Y11401
Y11557
Y11713
X06693
X06496Y11516
X06299Y11713
Y12697
X06693
T07
X07185Y07972
Y0876
Y12598
X07283Y125
X0748Y12598
X07677Y125
X07776Y12598
T08
X03839Y12697
T10
X01624Y00295
X05561Y00394
X0064Y06594
X05561Y06594
X11614Y06152
X0064Y12697
X11565Y12894
M30
