G04 Layer_Color=16777215*
%FSLAX23Y23*%
%MOIN*%
G70*
G01*
G75*
%ADD10C,0.010*%
%ADD55C,0.008*%
%ADD56C,0.006*%
%ADD57C,0.001*%
%ADD58C,0.012*%
%ADD59C,0.009*%
%ADD60C,0.008*%
D10*
X7677Y8169D02*
G03*
X7677Y8169I-492J0D01*
G01*
X8022Y3839D02*
X8071D01*
Y3888D01*
Y4183D02*
Y4724D01*
X8022D02*
X8071D01*
Y3199D02*
X8120D01*
X8169Y3150D01*
Y2805D02*
Y3150D01*
Y2805D02*
X8219Y2756D01*
X8563D01*
X8661Y2854D01*
X8022Y3642D02*
X8071D01*
Y2756D02*
Y3642D01*
X8022Y2756D02*
X8071D01*
Y2116D02*
X8120D01*
X8169Y2165D01*
Y2510D01*
X8219Y2559D01*
X8661D01*
X8711Y2510D01*
Y2215D02*
Y2510D01*
X8022Y1673D02*
X8071D01*
Y2559D01*
X8022D02*
X8071D01*
Y1033D02*
X8120D01*
X8169Y1083D01*
Y1427D01*
X8219Y1476D01*
X8465D01*
X8514Y1526D01*
X8022Y591D02*
X8071D01*
Y1476D01*
X8022D02*
X8071D01*
X5718Y9033D02*
Y12183D01*
Y9033D02*
X6072D01*
Y12183D01*
X5718D02*
X6072D01*
X4918Y9033D02*
Y12183D01*
Y9033D02*
X5272D01*
Y12183D01*
X4918D02*
X5272D01*
X4118Y9033D02*
Y12183D01*
Y9033D02*
X4472D01*
Y12183D01*
X4118D02*
X4472D01*
X3318Y9033D02*
Y12183D01*
Y9033D02*
X3672D01*
Y12183D01*
X3318D02*
X3672D01*
X2518Y9033D02*
Y12183D01*
Y9033D02*
X2872D01*
Y12183D01*
X2518D02*
X2872D01*
X1718Y9033D02*
Y12183D01*
Y9033D02*
X2072D01*
Y12183D01*
X1718D02*
X2072D01*
X918Y9033D02*
Y12183D01*
Y9033D02*
X1272D01*
Y12183D01*
X918D02*
X1272D01*
X118Y9033D02*
Y12183D01*
Y9033D02*
X472D01*
Y12183D01*
X118D02*
X472D01*
X10433Y295D02*
X10581D01*
X10433Y492D02*
X10581D01*
X10433Y246D02*
Y541D01*
X9892Y246D02*
X10433D01*
X9892D02*
Y541D01*
X10433D01*
X590Y5610D02*
Y5758D01*
X394Y5610D02*
Y5758D01*
X344Y5610D02*
X640D01*
Y5069D02*
Y5610D01*
X344Y5069D02*
X640D01*
X344D02*
Y5610D01*
X492Y6447D02*
Y6476D01*
X295D02*
X492D01*
X295Y6447D02*
Y6476D01*
X11220Y11959D02*
Y11988D01*
X11024D02*
X11220D01*
X11024Y11959D02*
Y11988D01*
X10276Y5768D02*
Y5846D01*
Y5768D02*
X10492D01*
Y5846D01*
X10276D02*
X10492D01*
X1378Y8681D02*
Y8711D01*
Y8681D02*
X1575D01*
Y8711D01*
X8071Y11762D02*
Y11791D01*
X7874D02*
X8071D01*
X7874Y11762D02*
Y11791D01*
X3986Y11754D02*
Y11783D01*
X3789D02*
X3986D01*
X3789Y11754D02*
Y11783D01*
X3986Y11553D02*
Y11583D01*
X3789D02*
X3986D01*
X3789Y11553D02*
Y11583D01*
X3986Y11356D02*
Y11386D01*
X3789D02*
X3986D01*
X3789Y11356D02*
Y11386D01*
X10728Y11959D02*
Y11988D01*
X10531D02*
X10728D01*
X10531Y11959D02*
Y11988D01*
X9055Y11959D02*
Y11988D01*
X8858D02*
X9055D01*
X8858Y11959D02*
Y11988D01*
X8268Y11171D02*
Y11201D01*
X8071D02*
X8268D01*
X8071Y11171D02*
Y11201D01*
X9153Y11467D02*
Y11496D01*
X8957D02*
X9153D01*
X8957Y11467D02*
Y11496D01*
X9941Y11171D02*
Y11201D01*
X9744D02*
X9941D01*
X9744Y11171D02*
Y11201D01*
X10335Y11171D02*
Y11201D01*
X10138D02*
X10335D01*
X10138Y11171D02*
Y11201D01*
X10827Y10876D02*
Y10906D01*
X10630D02*
X10827D01*
X10630Y10876D02*
Y10906D01*
X11417Y9892D02*
Y9921D01*
X11220D02*
X11417D01*
X11220Y9892D02*
Y9921D01*
X10827Y9892D02*
Y9921D01*
X10630D02*
X10827D01*
X10630Y9892D02*
Y9921D01*
X9055Y9892D02*
Y9921D01*
X8858D02*
X9055D01*
X8858Y9892D02*
Y9921D01*
X8464Y9892D02*
Y9921D01*
X8268D02*
X8464D01*
X8268Y9892D02*
Y9921D01*
X11417Y8907D02*
Y8937D01*
X11220D02*
X11417D01*
X11220Y8907D02*
Y8937D01*
X10827Y8907D02*
Y8937D01*
X10630D02*
X10827D01*
X10630Y8907D02*
Y8937D01*
X10236Y8612D02*
Y8642D01*
X10039D02*
X10236D01*
X10039Y8612D02*
Y8642D01*
X9646Y7628D02*
Y7657D01*
X9449D02*
X9646D01*
X9449Y7628D02*
Y7657D01*
X8858Y7628D02*
Y7657D01*
X8661D02*
X8858D01*
X8661Y7628D02*
Y7657D01*
X4035Y7431D02*
Y7461D01*
X3839D02*
X4035D01*
X3839Y7431D02*
Y7461D01*
X3051Y7234D02*
Y7264D01*
X2854D02*
X3051D01*
X2854Y7234D02*
Y7264D01*
X2264Y7136D02*
Y7165D01*
X2067D02*
X2264D01*
X2067Y7136D02*
Y7165D01*
X1772Y7136D02*
Y7165D01*
X1575D02*
X1772D01*
X1575Y7136D02*
Y7165D01*
X492Y7234D02*
Y7264D01*
X295D02*
X492D01*
X295Y7234D02*
Y7264D01*
X7382Y6644D02*
Y6673D01*
X7185D02*
X7382D01*
X7185Y6644D02*
Y6673D01*
X6299Y6742D02*
Y6772D01*
X6102D02*
X6299D01*
X6102Y6742D02*
Y6772D01*
X5216Y6152D02*
Y6181D01*
X5020D02*
X5216D01*
X5020Y6152D02*
Y6181D01*
X4626Y6152D02*
Y6181D01*
X4429D02*
X4626D01*
X4429Y6152D02*
Y6181D01*
X4035Y6152D02*
Y6181D01*
X3839D02*
X4035D01*
X3839Y6152D02*
Y6181D01*
X3445Y6152D02*
Y6181D01*
X3248D02*
X3445D01*
X3248Y6152D02*
Y6181D01*
X11024Y4872D02*
Y4902D01*
X10827D02*
X11024D01*
X10827Y4872D02*
Y4902D01*
X10531Y4872D02*
Y4902D01*
X10335D02*
X10531D01*
X10335Y4872D02*
Y4902D01*
X10138Y4872D02*
Y4902D01*
X9941D02*
X10138D01*
X9941Y4872D02*
Y4902D01*
X9252Y4872D02*
Y4902D01*
X9055D02*
X9252D01*
X9055Y4872D02*
Y4902D01*
X8464Y4872D02*
Y4902D01*
X8268D02*
X8464D01*
X8268Y4872D02*
Y4902D01*
X7480Y4872D02*
Y4902D01*
X7283D02*
X7480D01*
X7283Y4872D02*
Y4902D01*
X6594Y4872D02*
Y4902D01*
X6398D02*
X6594D01*
X6398Y4872D02*
Y4902D01*
X6004Y4872D02*
Y4902D01*
X5807D02*
X6004D01*
X5807Y4872D02*
Y4902D01*
X5216Y4872D02*
Y4902D01*
X5020D02*
X5216D01*
X5020Y4872D02*
Y4902D01*
X4626Y4872D02*
Y4902D01*
X4429D02*
X4626D01*
X4429Y4872D02*
Y4902D01*
X4035Y4872D02*
Y4902D01*
X3839D02*
X4035D01*
X3839Y4872D02*
Y4902D01*
X3445Y4872D02*
Y4902D01*
X3248D02*
X3445D01*
X3248Y4872D02*
Y4902D01*
X2559Y4872D02*
Y4902D01*
X2362D02*
X2559D01*
X2362Y4872D02*
Y4902D01*
X10138Y12746D02*
Y12776D01*
X9941D02*
X10138D01*
X9941Y12746D02*
Y12776D01*
X11417Y3789D02*
Y3819D01*
X11220D02*
X11417D01*
X11220Y3789D02*
Y3819D01*
X8563Y3789D02*
Y3819D01*
X8366D02*
X8563D01*
X8366Y3789D02*
Y3819D01*
X10236Y2608D02*
Y2638D01*
X10039D02*
X10236D01*
X10039Y2608D02*
Y2638D01*
X9646Y2608D02*
Y2638D01*
X9449D02*
X9646D01*
X9449Y2608D02*
Y2638D01*
X11417Y1624D02*
Y1654D01*
X11220D02*
X11417D01*
X11220Y1624D02*
Y1654D01*
X10827Y1624D02*
Y1654D01*
X10630D02*
X10827D01*
X10630Y1624D02*
Y1654D01*
X10236Y1624D02*
Y1654D01*
X10039D02*
X10236D01*
X10039Y1624D02*
Y1654D01*
X9744Y1624D02*
Y1654D01*
X9547D02*
X9744D01*
X9547Y1624D02*
Y1654D01*
X9153Y1624D02*
Y1654D01*
X8957D02*
X9153D01*
X8957Y1624D02*
Y1654D01*
X9646Y541D02*
Y571D01*
X9449D02*
X9646D01*
X9449Y541D02*
Y571D01*
X8661Y541D02*
Y571D01*
X8464D02*
X8661D01*
X8464Y541D02*
Y571D01*
X7972Y3789D02*
Y3819D01*
X7776D02*
X7972D01*
X7776Y3789D02*
Y3819D01*
X7480Y3789D02*
Y3819D01*
X7283D02*
X7480D01*
X7283Y3789D02*
Y3819D01*
X6988Y3789D02*
Y3819D01*
X6791D02*
X6988D01*
X6791Y3789D02*
Y3819D01*
X6496Y3789D02*
Y3819D01*
X6299D02*
X6496D01*
X6299Y3789D02*
Y3819D01*
X6004Y3789D02*
Y3819D01*
X5807D02*
X6004D01*
X5807Y3789D02*
Y3819D01*
X5512Y3789D02*
Y3819D01*
X5315D02*
X5512D01*
X5315Y3789D02*
Y3819D01*
X5020Y3789D02*
Y3819D01*
X4823D02*
X5020D01*
X4823Y3789D02*
Y3819D01*
X4527Y3789D02*
Y3819D01*
X4331D02*
X4527D01*
X4331Y3789D02*
Y3819D01*
X4035Y3789D02*
Y3819D01*
X3839D02*
X4035D01*
X3839Y3789D02*
Y3819D01*
X3543Y3789D02*
Y3819D01*
X3346D02*
X3543D01*
X3346Y3789D02*
Y3819D01*
X3051Y3789D02*
Y3819D01*
X2854D02*
X3051D01*
X2854Y3789D02*
Y3819D01*
X2559Y3789D02*
Y3819D01*
X2362D02*
X2559D01*
X2362Y3789D02*
Y3819D01*
X2067Y3789D02*
Y3819D01*
X1870D02*
X2067D01*
X1870Y3789D02*
Y3819D01*
X1575Y3789D02*
Y3819D01*
X1378D02*
X1575D01*
X1378Y3789D02*
Y3819D01*
X1083Y3789D02*
Y3819D01*
X886D02*
X1083D01*
X886Y3789D02*
Y3819D01*
X590Y3789D02*
Y3819D01*
X394D02*
X590D01*
X394Y3789D02*
Y3819D01*
X7972Y2707D02*
Y2736D01*
X7776D02*
X7972D01*
X7776Y2707D02*
Y2736D01*
X7480Y2707D02*
Y2736D01*
X7283D02*
X7480D01*
X7283Y2707D02*
Y2736D01*
X6988Y2707D02*
Y2736D01*
X6791D02*
X6988D01*
X6791Y2707D02*
Y2736D01*
X6496Y2707D02*
Y2736D01*
X6299D02*
X6496D01*
X6299Y2707D02*
Y2736D01*
X6004Y2707D02*
Y2736D01*
X5807D02*
X6004D01*
X5807Y2707D02*
Y2736D01*
X5512Y2707D02*
Y2736D01*
X5315D02*
X5512D01*
X5315Y2707D02*
Y2736D01*
X5020Y2707D02*
Y2736D01*
X4823D02*
X5020D01*
X4823Y2707D02*
Y2736D01*
X4527Y2707D02*
Y2736D01*
X4331D02*
X4527D01*
X4331Y2707D02*
Y2736D01*
X4035Y2707D02*
Y2736D01*
X3839D02*
X4035D01*
X3839Y2707D02*
Y2736D01*
X3543Y2707D02*
Y2736D01*
X3346D02*
X3543D01*
X3346Y2707D02*
Y2736D01*
X3051Y2707D02*
Y2736D01*
X2854D02*
X3051D01*
X2854Y2707D02*
Y2736D01*
X2559Y2707D02*
Y2736D01*
X2362D02*
X2559D01*
X2362Y2707D02*
Y2736D01*
X2067Y2707D02*
Y2736D01*
X1870D02*
X2067D01*
X1870Y2707D02*
Y2736D01*
X1575Y2707D02*
Y2736D01*
X1378D02*
X1575D01*
X1378Y2707D02*
Y2736D01*
X1083Y2707D02*
Y2736D01*
X886D02*
X1083D01*
X886Y2707D02*
Y2736D01*
X590Y2707D02*
Y2736D01*
X394D02*
X590D01*
X394Y2707D02*
Y2736D01*
X7972Y1624D02*
Y1654D01*
X7776D02*
X7972D01*
X7776Y1624D02*
Y1654D01*
X7480Y1624D02*
Y1654D01*
X7283D02*
X7480D01*
X7283Y1624D02*
Y1654D01*
X6988Y1624D02*
Y1654D01*
X6791D02*
X6988D01*
X6791Y1624D02*
Y1654D01*
X6496Y1624D02*
Y1654D01*
X6299D02*
X6496D01*
X6299Y1624D02*
Y1654D01*
X6004Y1624D02*
Y1654D01*
X5807D02*
X6004D01*
X5807Y1624D02*
Y1654D01*
X5512Y1624D02*
Y1654D01*
X5315D02*
X5512D01*
X5315Y1624D02*
Y1654D01*
X5020Y1624D02*
Y1654D01*
X4823D02*
X5020D01*
X4823Y1624D02*
Y1654D01*
X4527Y1624D02*
Y1654D01*
X4331D02*
X4527D01*
X4331Y1624D02*
Y1654D01*
X4035Y1624D02*
Y1654D01*
X3839D02*
X4035D01*
X3839Y1624D02*
Y1654D01*
X3543Y1624D02*
Y1654D01*
X3346D02*
X3543D01*
X3346Y1624D02*
Y1654D01*
X3051Y1624D02*
Y1654D01*
X2854D02*
X3051D01*
X2854Y1624D02*
Y1654D01*
X2559Y1624D02*
Y1654D01*
X2362D02*
X2559D01*
X2362Y1624D02*
Y1654D01*
X2067Y1624D02*
Y1654D01*
X1870D02*
X2067D01*
X1870Y1624D02*
Y1654D01*
X1575Y1624D02*
Y1654D01*
X1378D02*
X1575D01*
X1378Y1624D02*
Y1654D01*
X1083Y1624D02*
Y1654D01*
X886D02*
X1083D01*
X886Y1624D02*
Y1654D01*
X590Y1624D02*
Y1654D01*
X394D02*
X590D01*
X394Y1624D02*
Y1654D01*
X7972Y541D02*
Y571D01*
X7776D02*
X7972D01*
X7776Y541D02*
Y571D01*
X7480Y541D02*
Y571D01*
X7283D02*
X7480D01*
X7283Y541D02*
Y571D01*
X6988Y541D02*
Y571D01*
X6791D02*
X6988D01*
X6791Y541D02*
Y571D01*
X6594Y541D02*
Y571D01*
X6398D02*
X6594D01*
X6398Y541D02*
Y571D01*
X6201Y541D02*
Y571D01*
X6004D02*
X6201D01*
X6004Y541D02*
Y571D01*
X5413Y541D02*
Y571D01*
X5216D02*
X5413D01*
X5216Y541D02*
Y571D01*
X5020Y541D02*
Y571D01*
X4823D02*
X5020D01*
X4823Y541D02*
Y571D01*
X4527Y541D02*
Y571D01*
X4331D02*
X4527D01*
X4331Y541D02*
Y571D01*
X4035Y541D02*
Y571D01*
X3839D02*
X4035D01*
X3839Y541D02*
Y571D01*
X3543Y541D02*
Y571D01*
X3346D02*
X3543D01*
X3346Y541D02*
Y571D01*
X3051Y541D02*
Y571D01*
X2854D02*
X3051D01*
X2854Y541D02*
Y571D01*
X2559Y541D02*
Y571D01*
X2362D02*
X2559D01*
X2362Y541D02*
Y571D01*
X2067Y541D02*
Y571D01*
X1870D02*
X2067D01*
X1870Y541D02*
Y571D01*
X1575Y541D02*
Y571D01*
X1378D02*
X1575D01*
X1378Y541D02*
Y571D01*
X1181Y541D02*
Y571D01*
X984D02*
X1181D01*
X984Y541D02*
Y571D01*
X3602Y8307D02*
Y8425D01*
X2598Y8307D02*
X3602D01*
X2598D02*
Y8425D01*
X3602D01*
X1516Y8307D02*
Y8425D01*
X2520D01*
Y8307D02*
Y8425D01*
X1516Y8307D02*
X2520D01*
X433D02*
Y8425D01*
X1437D01*
Y8307D02*
Y8425D01*
X433Y8307D02*
X1437D01*
X1438Y11140D02*
Y12163D01*
Y11140D02*
X1556D01*
Y12163D01*
X1438D02*
X1556D01*
X1556Y8946D02*
Y9969D01*
X1438D02*
X1556D01*
X1438Y8946D02*
Y9969D01*
Y8946D02*
X1556D01*
X1438Y10040D02*
Y11063D01*
Y10040D02*
X1556D01*
Y11063D01*
X1438D02*
X1556D01*
X11073Y7234D02*
Y7530D01*
X10876Y7234D02*
X11073D01*
X10876D02*
Y7530D01*
X11073D01*
X10581Y7234D02*
Y7530D01*
X10384Y7234D02*
X10581D01*
X10384D02*
Y7530D01*
X10581D01*
X11368Y6644D02*
Y6742D01*
X11319Y6594D02*
X11368Y6644D01*
X10777Y6594D02*
X11319D01*
X10728Y6644D02*
X10777Y6594D01*
X10728Y6644D02*
Y6742D01*
X10827Y6841D01*
X11270D01*
X11368Y6742D01*
X5463Y8120D02*
X5856D01*
Y7726D02*
Y8120D01*
X5463Y7726D02*
X5856D01*
X5463D02*
Y8120D01*
X11516Y315D02*
Y344D01*
X11417Y315D02*
X11516D01*
X11417D02*
Y344D01*
X10728Y5856D02*
Y5886D01*
X10827D01*
Y5856D02*
Y5886D01*
X10925Y6053D02*
Y6083D01*
X11024D01*
Y6053D02*
Y6083D01*
X10630Y6053D02*
Y6083D01*
X10728D01*
Y6053D02*
Y6083D01*
X10335Y6053D02*
Y6083D01*
X10433D01*
Y6053D02*
Y6083D01*
X11516Y5955D02*
X11762Y5709D01*
X11516Y5955D02*
Y6398D01*
X11762Y6644D01*
X7342Y9920D02*
Y11791D01*
X7246Y9920D02*
Y11791D01*
Y9920D02*
X7638D01*
Y11791D01*
X7246D02*
X7638D01*
X7146Y8583D02*
X7224D01*
X7185Y8543D02*
Y8622D01*
X7047Y8858D02*
X7323D01*
X7047Y8642D02*
Y8858D01*
X7323Y8642D02*
Y8858D01*
X7742Y12070D02*
Y12130D01*
X7772D01*
X7782Y12120D01*
Y12100D01*
X7772Y12090D01*
X7742D01*
X7762D02*
X7782Y12070D01*
X7802Y12120D02*
X7812Y12130D01*
X7832D01*
X7842Y12120D01*
Y12110D01*
X7832Y12100D01*
X7822D01*
X7832D01*
X7842Y12090D01*
Y12080D01*
X7832Y12070D01*
X7812D01*
X7802Y12080D01*
X7862Y12120D02*
X7872Y12130D01*
X7892D01*
X7902Y12120D01*
Y12110D01*
X7892Y12100D01*
X7902Y12090D01*
Y12080D01*
X7892Y12070D01*
X7872D01*
X7862Y12080D01*
Y12090D01*
X7872Y12100D01*
X7862Y12110D01*
Y12120D01*
X7872Y12100D02*
X7892D01*
X7890Y11876D02*
X7880Y11886D01*
X7860D01*
X7850Y11876D01*
Y11836D01*
X7860Y11826D01*
X7880D01*
X7890Y11836D01*
X7910Y11826D02*
X7930D01*
X7920D01*
Y11886D01*
X7910Y11876D01*
X7960D02*
X7970Y11886D01*
X7990D01*
X8000Y11876D01*
Y11866D01*
X7990Y11856D01*
X7980D01*
X7990D01*
X8000Y11846D01*
Y11836D01*
X7990Y11826D01*
X7970D01*
X7960Y11836D01*
X8020Y11876D02*
X8030Y11886D01*
X8050D01*
X8060Y11876D01*
Y11866D01*
X8050Y11856D01*
X8040D01*
X8050D01*
X8060Y11846D01*
Y11836D01*
X8050Y11826D01*
X8030D01*
X8020Y11836D01*
X9957Y612D02*
Y652D01*
X9947Y662D01*
X9927D01*
X9917Y652D01*
Y612D01*
X9927Y602D01*
X9947D01*
X9937Y622D02*
X9957Y602D01*
X9947D02*
X9957Y612D01*
X10017Y602D02*
X9977D01*
X10017Y642D01*
Y652D01*
X10007Y662D01*
X9987D01*
X9977Y652D01*
X1447Y12353D02*
Y12293D01*
X1477D01*
X1487Y12303D01*
Y12343D01*
X1477Y12353D01*
X1447D01*
X1507Y12293D02*
Y12353D01*
X1537D01*
X1547Y12343D01*
Y12323D01*
X1537Y12313D01*
X1507D01*
X1527D02*
X1547Y12293D01*
X1567Y12303D02*
X1577Y12293D01*
X1597D01*
X1607Y12303D01*
Y12343D01*
X1597Y12353D01*
X1577D01*
X1567Y12343D01*
Y12333D01*
X1577Y12323D01*
X1607D01*
X1447Y12452D02*
Y12392D01*
X1477D01*
X1487Y12402D01*
Y12442D01*
X1477Y12452D01*
X1447D01*
X1507Y12392D02*
Y12452D01*
X1537D01*
X1547Y12442D01*
Y12422D01*
X1537Y12412D01*
X1507D01*
X1527D02*
X1547Y12392D01*
X1567Y12442D02*
X1577Y12452D01*
X1597D01*
X1607Y12442D01*
Y12432D01*
X1597Y12422D01*
X1607Y12412D01*
Y12402D01*
X1597Y12392D01*
X1577D01*
X1567Y12402D01*
Y12412D01*
X1577Y12422D01*
X1567Y12432D01*
Y12442D01*
X1577Y12422D02*
X1597D01*
X1447Y12550D02*
Y12490D01*
X1477D01*
X1487Y12500D01*
Y12540D01*
X1477Y12550D01*
X1447D01*
X1507Y12490D02*
Y12550D01*
X1537D01*
X1547Y12540D01*
Y12520D01*
X1537Y12510D01*
X1507D01*
X1527D02*
X1547Y12490D01*
X1567Y12550D02*
X1607D01*
Y12540D01*
X1567Y12500D01*
Y12490D01*
X1545Y8515D02*
Y8455D01*
X1575D01*
X1585Y8465D01*
Y8505D01*
X1575Y8515D01*
X1545D01*
X1605Y8455D02*
Y8515D01*
X1635D01*
X1645Y8505D01*
Y8485D01*
X1635Y8475D01*
X1605D01*
X1625D02*
X1645Y8455D01*
X1665Y8505D02*
X1675Y8515D01*
X1695D01*
X1705Y8505D01*
Y8495D01*
X1695Y8485D01*
X1685D01*
X1695D01*
X1705Y8475D01*
Y8465D01*
X1695Y8455D01*
X1675D01*
X1665Y8465D01*
X2628Y8515D02*
Y8455D01*
X2658D01*
X2668Y8465D01*
Y8505D01*
X2658Y8515D01*
X2628D01*
X2688Y8455D02*
Y8515D01*
X2718D01*
X2728Y8505D01*
Y8485D01*
X2718Y8475D01*
X2688D01*
X2708D02*
X2728Y8455D01*
X2788D02*
X2748D01*
X2788Y8495D01*
Y8505D01*
X2778Y8515D01*
X2758D01*
X2748Y8505D01*
X472Y8515D02*
Y8455D01*
X502D01*
X512Y8465D01*
Y8505D01*
X502Y8515D01*
X472D01*
X532Y8455D02*
Y8515D01*
X562D01*
X572Y8505D01*
Y8485D01*
X562Y8475D01*
X532D01*
X552D02*
X572Y8455D01*
X592D02*
X612D01*
X602D01*
Y8515D01*
X592Y8505D01*
X7185Y11871D02*
X7225Y11811D01*
Y11871D02*
X7185Y11811D01*
X7285Y11871D02*
X7245D01*
Y11841D01*
X7265Y11851D01*
X7275D01*
X7285Y11841D01*
Y11821D01*
X7275Y11811D01*
X7255D01*
X7245Y11821D01*
X7385Y11811D02*
X7365Y11831D01*
Y11851D01*
X7385Y11871D01*
X7415Y11811D02*
Y11871D01*
X7445D01*
X7455Y11861D01*
Y11841D01*
X7445Y11831D01*
X7415D01*
X7475Y11861D02*
X7485Y11871D01*
X7505D01*
X7515Y11861D01*
Y11851D01*
X7505Y11841D01*
X7515Y11831D01*
Y11821D01*
X7505Y11811D01*
X7485D01*
X7475Y11821D01*
Y11831D01*
X7485Y11841D01*
X7475Y11851D01*
Y11861D01*
X7485Y11841D02*
X7505D01*
X7535Y11811D02*
Y11871D01*
X7565D01*
X7575Y11861D01*
Y11841D01*
X7565Y11831D01*
X7535D01*
X7595Y11821D02*
X7605Y11811D01*
X7625D01*
X7635Y11821D01*
Y11861D01*
X7625Y11871D01*
X7605D01*
X7595Y11861D01*
Y11851D01*
X7605Y11841D01*
X7635D01*
X7655Y11811D02*
X7675Y11831D01*
Y11851D01*
X7655Y11871D01*
X10773Y6886D02*
Y6926D01*
X10763Y6936D01*
X10743D01*
X10733Y6926D01*
Y6886D01*
X10743Y6876D01*
X10763D01*
X10753Y6896D02*
X10773Y6876D01*
X10763D02*
X10773Y6886D01*
X10793Y6926D02*
X10803Y6936D01*
X10823D01*
X10833Y6926D01*
Y6916D01*
X10823Y6906D01*
X10813D01*
X10823D01*
X10833Y6896D01*
Y6886D01*
X10823Y6876D01*
X10803D01*
X10793Y6886D01*
X286Y5768D02*
Y5808D01*
X276Y5818D01*
X256D01*
X246Y5808D01*
Y5768D01*
X256Y5758D01*
X276D01*
X266Y5778D02*
X286Y5758D01*
X276D02*
X286Y5768D01*
X306Y5758D02*
X326D01*
X316D01*
Y5818D01*
X306Y5808D01*
X6791Y8771D02*
Y8711D01*
X6821D01*
X6831Y8721D01*
Y8731D01*
X6821Y8741D01*
X6791D01*
X6821D01*
X6831Y8751D01*
Y8761D01*
X6821Y8771D01*
X6791D01*
X6851D02*
X6891D01*
X6871D01*
Y8711D01*
X6911D02*
X6931D01*
X6921D01*
Y8771D01*
X6911Y8761D01*
X384Y6546D02*
X374Y6556D01*
X354D01*
X344Y6546D01*
Y6506D01*
X354Y6496D01*
X374D01*
X384Y6506D01*
X404Y6496D02*
X424D01*
X414D01*
Y6556D01*
X404Y6546D01*
X11335Y508D02*
X11325Y518D01*
X11305D01*
X11295Y508D01*
Y468D01*
X11305Y458D01*
X11325D01*
X11335Y468D01*
X11395Y458D02*
X11355D01*
X11395Y498D01*
Y508D01*
X11385Y518D01*
X11365D01*
X11355Y508D01*
X10749Y5749D02*
X10739Y5759D01*
X10719D01*
X10709Y5749D01*
Y5709D01*
X10719Y5699D01*
X10739D01*
X10749Y5709D01*
X10769Y5749D02*
X10779Y5759D01*
X10799D01*
X10809Y5749D01*
Y5739D01*
X10799Y5729D01*
X10789D01*
X10799D01*
X10809Y5719D01*
Y5709D01*
X10799Y5699D01*
X10779D01*
X10769Y5709D01*
X11113Y6103D02*
X11103Y6113D01*
X11083D01*
X11073Y6103D01*
Y6063D01*
X11083Y6053D01*
X11103D01*
X11113Y6063D01*
X11163Y6053D02*
Y6113D01*
X11133Y6083D01*
X11173D01*
X9169Y6580D02*
X9159Y6590D01*
X9139D01*
X9129Y6580D01*
Y6540D01*
X9139Y6530D01*
X9159D01*
X9169Y6540D01*
X9229Y6590D02*
X9189D01*
Y6560D01*
X9209Y6570D01*
X9219D01*
X9229Y6560D01*
Y6540D01*
X9219Y6530D01*
X9199D01*
X9189Y6540D01*
X10818Y6103D02*
X10808Y6113D01*
X10788D01*
X10778Y6103D01*
Y6063D01*
X10788Y6053D01*
X10808D01*
X10818Y6063D01*
X10878Y6113D02*
X10858Y6103D01*
X10838Y6083D01*
Y6063D01*
X10848Y6053D01*
X10868D01*
X10878Y6063D01*
Y6073D01*
X10868Y6083D01*
X10838D01*
X10227Y6103D02*
X10217Y6113D01*
X10197D01*
X10187Y6103D01*
Y6063D01*
X10197Y6053D01*
X10217D01*
X10227Y6063D01*
X10247Y6113D02*
X10287D01*
Y6103D01*
X10247Y6063D01*
Y6053D01*
X6349Y10335D02*
X6339Y10345D01*
X6319D01*
X6309Y10335D01*
Y10295D01*
X6319Y10285D01*
X6339D01*
X6349Y10295D01*
X6369Y10335D02*
X6379Y10345D01*
X6399D01*
X6409Y10335D01*
Y10325D01*
X6399Y10315D01*
X6409Y10305D01*
Y10295D01*
X6399Y10285D01*
X6379D01*
X6369Y10295D01*
Y10305D01*
X6379Y10315D01*
X6369Y10325D01*
Y10335D01*
X6379Y10315D02*
X6399D01*
X11054Y12107D02*
X11044Y12117D01*
X11024D01*
X11014Y12107D01*
Y12067D01*
X11024Y12057D01*
X11044D01*
X11054Y12067D01*
X11074Y12057D02*
X11094D01*
X11084D01*
Y12117D01*
X11074Y12107D01*
X11164Y12057D02*
X11124D01*
X11164Y12097D01*
Y12107D01*
X11154Y12117D01*
X11134D01*
X11124Y12107D01*
X11224Y12117D02*
X11184D01*
Y12087D01*
X11204Y12097D01*
X11214D01*
X11224Y12087D01*
Y12067D01*
X11214Y12057D01*
X11194D01*
X11184Y12067D01*
X6260Y11536D02*
X6250Y11546D01*
X6230D01*
X6220Y11536D01*
Y11496D01*
X6230Y11486D01*
X6250D01*
X6260Y11496D01*
X6280Y11486D02*
X6300D01*
X6290D01*
Y11546D01*
X6280Y11536D01*
X6370Y11486D02*
X6330D01*
X6370Y11526D01*
Y11536D01*
X6360Y11546D01*
X6340D01*
X6330Y11536D01*
X6390Y11546D02*
X6430D01*
Y11536D01*
X6390Y11496D01*
Y11486D01*
X6477Y12648D02*
X6467Y12658D01*
X6447D01*
X6437Y12648D01*
Y12608D01*
X6447Y12598D01*
X6467D01*
X6477Y12608D01*
X6497Y12598D02*
X6517D01*
X6507D01*
Y12658D01*
X6497Y12648D01*
X6587Y12598D02*
X6547D01*
X6587Y12638D01*
Y12648D01*
X6577Y12658D01*
X6557D01*
X6547Y12648D01*
X6607Y12608D02*
X6617Y12598D01*
X6637D01*
X6647Y12608D01*
Y12648D01*
X6637Y12658D01*
X6617D01*
X6607Y12648D01*
Y12638D01*
X6617Y12628D01*
X6647D01*
X6034Y12648D02*
X6024Y12658D01*
X6004D01*
X5994Y12648D01*
Y12608D01*
X6004Y12598D01*
X6024D01*
X6034Y12608D01*
X6054Y12598D02*
X6074D01*
X6064D01*
Y12658D01*
X6054Y12648D01*
X6104D02*
X6114Y12658D01*
X6134D01*
X6144Y12648D01*
Y12638D01*
X6134Y12628D01*
X6124D01*
X6134D01*
X6144Y12618D01*
Y12608D01*
X6134Y12598D01*
X6114D01*
X6104Y12608D01*
X6164Y12598D02*
X6184D01*
X6174D01*
Y12658D01*
X6164Y12648D01*
X9400Y12019D02*
Y11959D01*
X9430D01*
X9440Y11969D01*
Y12009D01*
X9430Y12019D01*
X9400D01*
X9460Y11959D02*
X9480D01*
X9470D01*
Y12019D01*
X9460Y12009D01*
X1083Y7324D02*
Y7264D01*
X1113D01*
X1123Y7274D01*
Y7314D01*
X1113Y7324D01*
X1083D01*
X1183Y7264D02*
X1143D01*
X1183Y7304D01*
Y7314D01*
X1173Y7324D01*
X1153D01*
X1143Y7314D01*
X9941Y12019D02*
Y11959D01*
X9971D01*
X9981Y11969D01*
Y12009D01*
X9971Y12019D01*
X9941D01*
X10001Y12009D02*
X10011Y12019D01*
X10031D01*
X10041Y12009D01*
Y11999D01*
X10031Y11989D01*
X10021D01*
X10031D01*
X10041Y11979D01*
Y11969D01*
X10031Y11959D01*
X10011D01*
X10001Y11969D01*
X8815Y12867D02*
Y12807D01*
X8845D01*
X8855Y12817D01*
Y12857D01*
X8845Y12867D01*
X8815D01*
X8905Y12807D02*
Y12867D01*
X8875Y12837D01*
X8915D01*
X8228Y12038D02*
Y11978D01*
X8258D01*
X8268Y11988D01*
Y12028D01*
X8258Y12038D01*
X8228D01*
X8328D02*
X8288D01*
Y12008D01*
X8308Y12018D01*
X8318D01*
X8328Y12008D01*
Y11988D01*
X8318Y11978D01*
X8298D01*
X8288Y11988D01*
X11348Y2511D02*
Y2451D01*
X11378D01*
X11388Y2461D01*
Y2501D01*
X11378Y2511D01*
X11348D01*
X11448D02*
X11428Y2501D01*
X11408Y2481D01*
Y2461D01*
X11418Y2451D01*
X11438D01*
X11448Y2461D01*
Y2471D01*
X11438Y2481D01*
X11408D01*
X10709Y12845D02*
Y12785D01*
X10739D01*
X10749Y12795D01*
Y12835D01*
X10739Y12845D01*
X10709D01*
X10769D02*
X10809D01*
Y12835D01*
X10769Y12795D01*
Y12785D01*
X252Y8214D02*
Y8154D01*
X282D01*
X292Y8164D01*
Y8204D01*
X282Y8214D01*
X252D01*
X312Y8204D02*
X322Y8214D01*
X342D01*
X352Y8204D01*
Y8194D01*
X342Y8184D01*
X352Y8174D01*
Y8164D01*
X342Y8154D01*
X322D01*
X312Y8164D01*
Y8174D01*
X322Y8184D01*
X312Y8194D01*
Y8204D01*
X322Y8184D02*
X342D01*
X9405Y12939D02*
Y12879D01*
X9435D01*
X9445Y12889D01*
Y12929D01*
X9435Y12939D01*
X9405D01*
X9465Y12889D02*
X9475Y12879D01*
X9495D01*
X9505Y12889D01*
Y12929D01*
X9495Y12939D01*
X9475D01*
X9465Y12929D01*
Y12919D01*
X9475Y12909D01*
X9505D01*
X8224Y12867D02*
Y12807D01*
X8254D01*
X8264Y12817D01*
Y12857D01*
X8254Y12867D01*
X8224D01*
X8284Y12807D02*
X8304D01*
X8294D01*
Y12867D01*
X8284Y12857D01*
X8334D02*
X8344Y12867D01*
X8364D01*
X8374Y12857D01*
Y12817D01*
X8364Y12807D01*
X8344D01*
X8334Y12817D01*
Y12857D01*
X5098Y8406D02*
Y8346D01*
X5128D01*
X5138Y8356D01*
Y8396D01*
X5128Y8406D01*
X5098D01*
X5158Y8346D02*
X5178D01*
X5168D01*
Y8406D01*
X5158Y8396D01*
X5208Y8346D02*
X5228D01*
X5218D01*
Y8406D01*
X5208Y8396D01*
X744Y8214D02*
Y8154D01*
X774D01*
X784Y8164D01*
Y8204D01*
X774Y8214D01*
X744D01*
X804Y8154D02*
X824D01*
X814D01*
Y8214D01*
X804Y8204D01*
X894Y8154D02*
X854D01*
X894Y8194D01*
Y8204D01*
X884Y8214D01*
X864D01*
X854Y8204D01*
X837Y5739D02*
Y5679D01*
X867D01*
X877Y5689D01*
Y5729D01*
X867Y5739D01*
X837D01*
X897Y5679D02*
X917D01*
X907D01*
Y5739D01*
X897Y5729D01*
X947D02*
X957Y5739D01*
X977D01*
X987Y5729D01*
Y5719D01*
X977Y5709D01*
X967D01*
X977D01*
X987Y5699D01*
Y5689D01*
X977Y5679D01*
X957D01*
X947Y5689D01*
X7535Y7651D02*
Y7591D01*
X7565D01*
X7575Y7601D01*
Y7641D01*
X7565Y7651D01*
X7535D01*
X7595Y7591D02*
X7615D01*
X7605D01*
Y7651D01*
X7595Y7641D01*
X7675Y7591D02*
Y7651D01*
X7645Y7621D01*
X7685D01*
X11181Y9784D02*
Y9724D01*
X11211D01*
X11221Y9734D01*
Y9774D01*
X11211Y9784D01*
X11181D01*
X11241Y9724D02*
X11261D01*
X11251D01*
Y9784D01*
X11241Y9774D01*
X11331Y9784D02*
X11291D01*
Y9754D01*
X11311Y9764D01*
X11321D01*
X11331Y9754D01*
Y9734D01*
X11321Y9724D01*
X11301D01*
X11291Y9734D01*
X11368Y11871D02*
Y11811D01*
X11398D01*
X11408Y11821D01*
Y11861D01*
X11398Y11871D01*
X11368D01*
X11428Y11811D02*
X11448D01*
X11438D01*
Y11871D01*
X11428Y11861D01*
X11518Y11871D02*
X11498Y11861D01*
X11478Y11841D01*
Y11821D01*
X11488Y11811D01*
X11508D01*
X11518Y11821D01*
Y11831D01*
X11508Y11841D01*
X11478D01*
X787Y6536D02*
Y6476D01*
X817D01*
X827Y6486D01*
Y6526D01*
X817Y6536D01*
X787D01*
X847Y6476D02*
X867D01*
X857D01*
Y6536D01*
X847Y6526D01*
X897Y6536D02*
X937D01*
Y6526D01*
X897Y6486D01*
Y6476D01*
X4705Y8406D02*
Y8346D01*
X4735D01*
X4745Y8356D01*
Y8396D01*
X4735Y8406D01*
X4705D01*
X4765Y8346D02*
X4785D01*
X4775D01*
Y8406D01*
X4765Y8396D01*
X4815D02*
X4825Y8406D01*
X4845D01*
X4855Y8396D01*
Y8386D01*
X4845Y8376D01*
X4855Y8366D01*
Y8356D01*
X4845Y8346D01*
X4825D01*
X4815Y8356D01*
Y8366D01*
X4825Y8376D01*
X4815Y8386D01*
Y8396D01*
X4825Y8376D02*
X4845D01*
X1014Y6527D02*
Y6467D01*
X1044D01*
X1054Y6477D01*
Y6517D01*
X1044Y6527D01*
X1014D01*
X1074Y6467D02*
X1094D01*
X1084D01*
Y6527D01*
X1074Y6517D01*
X1124Y6477D02*
X1134Y6467D01*
X1154D01*
X1164Y6477D01*
Y6517D01*
X1154Y6527D01*
X1134D01*
X1124Y6517D01*
Y6507D01*
X1134Y6497D01*
X1164D01*
X1237Y8214D02*
Y8154D01*
X1267D01*
X1277Y8164D01*
Y8204D01*
X1267Y8214D01*
X1237D01*
X1337Y8154D02*
X1297D01*
X1337Y8194D01*
Y8204D01*
X1327Y8214D01*
X1307D01*
X1297Y8204D01*
X1357D02*
X1367Y8214D01*
X1387D01*
X1397Y8204D01*
Y8164D01*
X1387Y8154D01*
X1367D01*
X1357Y8164D01*
Y8204D01*
X1395Y7035D02*
Y6975D01*
X1425D01*
X1435Y6985D01*
Y7025D01*
X1425Y7035D01*
X1395D01*
X1495Y6975D02*
X1455D01*
X1495Y7015D01*
Y7025D01*
X1485Y7035D01*
X1465D01*
X1455Y7025D01*
X1515Y6975D02*
X1535D01*
X1525D01*
Y7035D01*
X1515Y7025D01*
X2510Y7063D02*
Y7003D01*
X2540D01*
X2550Y7013D01*
Y7053D01*
X2540Y7063D01*
X2510D01*
X2610Y7003D02*
X2570D01*
X2610Y7043D01*
Y7053D01*
X2600Y7063D01*
X2580D01*
X2570Y7053D01*
X2670Y7003D02*
X2630D01*
X2670Y7043D01*
Y7053D01*
X2660Y7063D01*
X2640D01*
X2630Y7053D01*
X10020Y8505D02*
Y8445D01*
X10050D01*
X10060Y8455D01*
Y8495D01*
X10050Y8505D01*
X10020D01*
X10120Y8445D02*
X10080D01*
X10120Y8485D01*
Y8495D01*
X10110Y8505D01*
X10090D01*
X10080Y8495D01*
X10140D02*
X10150Y8505D01*
X10170D01*
X10180Y8495D01*
Y8485D01*
X10170Y8475D01*
X10160D01*
X10170D01*
X10180Y8465D01*
Y8455D01*
X10170Y8445D01*
X10150D01*
X10140Y8455D01*
X10777Y11871D02*
Y11811D01*
X10807D01*
X10817Y11821D01*
Y11861D01*
X10807Y11871D01*
X10777D01*
X10877Y11811D02*
X10837D01*
X10877Y11851D01*
Y11861D01*
X10867Y11871D01*
X10847D01*
X10837Y11861D01*
X10927Y11811D02*
Y11871D01*
X10897Y11841D01*
X10937D01*
X3303Y6049D02*
Y5989D01*
X3333D01*
X3343Y5999D01*
Y6039D01*
X3333Y6049D01*
X3303D01*
X3403Y5989D02*
X3363D01*
X3403Y6029D01*
Y6039D01*
X3393Y6049D01*
X3373D01*
X3363Y6039D01*
X3463Y6049D02*
X3423D01*
Y6019D01*
X3443Y6029D01*
X3453D01*
X3463Y6019D01*
Y5999D01*
X3453Y5989D01*
X3433D01*
X3423Y5999D01*
X3303Y7329D02*
Y7269D01*
X3333D01*
X3343Y7279D01*
Y7319D01*
X3333Y7329D01*
X3303D01*
X3403Y7269D02*
X3363D01*
X3403Y7309D01*
Y7319D01*
X3393Y7329D01*
X3373D01*
X3363Y7319D01*
X3463Y7329D02*
X3443Y7319D01*
X3423Y7299D01*
Y7279D01*
X3433Y7269D01*
X3453D01*
X3463Y7279D01*
Y7289D01*
X3453Y7299D01*
X3423D01*
X3893Y6049D02*
Y5989D01*
X3923D01*
X3933Y5999D01*
Y6039D01*
X3923Y6049D01*
X3893D01*
X3993Y5989D02*
X3953D01*
X3993Y6029D01*
Y6039D01*
X3983Y6049D01*
X3963D01*
X3953Y6039D01*
X4013Y6049D02*
X4053D01*
Y6039D01*
X4013Y5999D01*
Y5989D01*
X3893Y7329D02*
Y7269D01*
X3923D01*
X3933Y7279D01*
Y7319D01*
X3923Y7329D01*
X3893D01*
X3993Y7269D02*
X3953D01*
X3993Y7309D01*
Y7319D01*
X3983Y7329D01*
X3963D01*
X3953Y7319D01*
X4013D02*
X4023Y7329D01*
X4043D01*
X4053Y7319D01*
Y7309D01*
X4043Y7299D01*
X4053Y7289D01*
Y7279D01*
X4043Y7269D01*
X4023D01*
X4013Y7279D01*
Y7289D01*
X4023Y7299D01*
X4013Y7309D01*
Y7319D01*
X4023Y7299D02*
X4043D01*
X2244Y8278D02*
Y8219D01*
X2274D01*
X2284Y8229D01*
Y8268D01*
X2274Y8278D01*
X2244D01*
X2344Y8219D02*
X2304D01*
X2344Y8258D01*
Y8268D01*
X2334Y8278D01*
X2314D01*
X2304Y8268D01*
X2364Y8229D02*
X2374Y8219D01*
X2394D01*
X2404Y8229D01*
Y8268D01*
X2394Y8278D01*
X2374D01*
X2364Y8268D01*
Y8258D01*
X2374Y8248D01*
X2404D01*
X1663Y8278D02*
Y8219D01*
X1693D01*
X1703Y8229D01*
Y8268D01*
X1693Y8278D01*
X1663D01*
X1723Y8268D02*
X1733Y8278D01*
X1753D01*
X1763Y8268D01*
Y8258D01*
X1753Y8248D01*
X1743D01*
X1753D01*
X1763Y8238D01*
Y8229D01*
X1753Y8219D01*
X1733D01*
X1723Y8229D01*
X1783Y8268D02*
X1793Y8278D01*
X1813D01*
X1823Y8268D01*
Y8229D01*
X1813Y8219D01*
X1793D01*
X1783Y8229D01*
Y8268D01*
X10980Y1548D02*
Y1488D01*
X11010D01*
X11020Y1498D01*
Y1538D01*
X11010Y1548D01*
X10980D01*
X11040Y1538D02*
X11050Y1548D01*
X11070D01*
X11080Y1538D01*
Y1528D01*
X11070Y1518D01*
X11060D01*
X11070D01*
X11080Y1508D01*
Y1498D01*
X11070Y1488D01*
X11050D01*
X11040Y1498D01*
X11100Y1488D02*
X11120D01*
X11110D01*
Y1548D01*
X11100Y1538D01*
X3228Y8278D02*
Y8219D01*
X3258D01*
X3268Y8229D01*
Y8268D01*
X3258Y8278D01*
X3228D01*
X3288Y8268D02*
X3298Y8278D01*
X3318D01*
X3328Y8268D01*
Y8258D01*
X3318Y8248D01*
X3308D01*
X3318D01*
X3328Y8238D01*
Y8229D01*
X3318Y8219D01*
X3298D01*
X3288Y8229D01*
X3388Y8219D02*
X3348D01*
X3388Y8258D01*
Y8268D01*
X3378Y8278D01*
X3358D01*
X3348Y8268D01*
X4484Y6049D02*
Y5989D01*
X4514D01*
X4524Y5999D01*
Y6039D01*
X4514Y6049D01*
X4484D01*
X4544Y6039D02*
X4554Y6049D01*
X4574D01*
X4584Y6039D01*
Y6029D01*
X4574Y6019D01*
X4564D01*
X4574D01*
X4584Y6009D01*
Y5999D01*
X4574Y5989D01*
X4554D01*
X4544Y5999D01*
X4604Y6039D02*
X4614Y6049D01*
X4634D01*
X4644Y6039D01*
Y6029D01*
X4634Y6019D01*
X4624D01*
X4634D01*
X4644Y6009D01*
Y5999D01*
X4634Y5989D01*
X4614D01*
X4604Y5999D01*
X10600Y9784D02*
Y9724D01*
X10630D01*
X10640Y9734D01*
Y9774D01*
X10630Y9784D01*
X10600D01*
X10660Y9774D02*
X10670Y9784D01*
X10690D01*
X10700Y9774D01*
Y9764D01*
X10690Y9754D01*
X10680D01*
X10690D01*
X10700Y9744D01*
Y9734D01*
X10690Y9724D01*
X10670D01*
X10660Y9734D01*
X10750Y9724D02*
Y9784D01*
X10720Y9754D01*
X10760D01*
X10600Y8800D02*
Y8740D01*
X10630D01*
X10640Y8750D01*
Y8790D01*
X10630Y8800D01*
X10600D01*
X10660Y8790D02*
X10670Y8800D01*
X10690D01*
X10700Y8790D01*
Y8780D01*
X10690Y8770D01*
X10680D01*
X10690D01*
X10700Y8760D01*
Y8750D01*
X10690Y8740D01*
X10670D01*
X10660Y8750D01*
X10760Y8800D02*
X10720D01*
Y8770D01*
X10740Y8780D01*
X10750D01*
X10760Y8770D01*
Y8750D01*
X10750Y8740D01*
X10730D01*
X10720Y8750D01*
X11181Y8800D02*
Y8740D01*
X11211D01*
X11221Y8750D01*
Y8790D01*
X11211Y8800D01*
X11181D01*
X11241Y8790D02*
X11251Y8800D01*
X11271D01*
X11281Y8790D01*
Y8780D01*
X11271Y8770D01*
X11261D01*
X11271D01*
X11281Y8760D01*
Y8750D01*
X11271Y8740D01*
X11251D01*
X11241Y8750D01*
X11341Y8800D02*
X11321Y8790D01*
X11301Y8770D01*
Y8750D01*
X11311Y8740D01*
X11331D01*
X11341Y8750D01*
Y8760D01*
X11331Y8770D01*
X11301D01*
X10738Y10769D02*
Y10709D01*
X10768D01*
X10778Y10719D01*
Y10759D01*
X10768Y10769D01*
X10738D01*
X10798Y10759D02*
X10808Y10769D01*
X10828D01*
X10838Y10759D01*
Y10749D01*
X10828Y10739D01*
X10818D01*
X10828D01*
X10838Y10729D01*
Y10719D01*
X10828Y10709D01*
X10808D01*
X10798Y10719D01*
X10858Y10769D02*
X10898D01*
Y10759D01*
X10858Y10719D01*
Y10709D01*
X8159Y11054D02*
Y10994D01*
X8189D01*
X8199Y11004D01*
Y11044D01*
X8189Y11054D01*
X8159D01*
X8219Y11044D02*
X8229Y11054D01*
X8249D01*
X8259Y11044D01*
Y11034D01*
X8249Y11024D01*
X8239D01*
X8249D01*
X8259Y11014D01*
Y11004D01*
X8249Y10994D01*
X8229D01*
X8219Y11004D01*
X8279Y11044D02*
X8289Y11054D01*
X8309D01*
X8319Y11044D01*
Y11034D01*
X8309Y11024D01*
X8319Y11014D01*
Y11004D01*
X8309Y10994D01*
X8289D01*
X8279Y11004D01*
Y11014D01*
X8289Y11024D01*
X8279Y11034D01*
Y11044D01*
X8289Y11024D02*
X8309D01*
X11191Y3682D02*
Y3622D01*
X11221D01*
X11231Y3632D01*
Y3672D01*
X11221Y3682D01*
X11191D01*
X11251Y3672D02*
X11261Y3682D01*
X11281D01*
X11291Y3672D01*
Y3662D01*
X11281Y3652D01*
X11271D01*
X11281D01*
X11291Y3642D01*
Y3632D01*
X11281Y3622D01*
X11261D01*
X11251Y3632D01*
X11311D02*
X11321Y3622D01*
X11341D01*
X11351Y3632D01*
Y3672D01*
X11341Y3682D01*
X11321D01*
X11311Y3672D01*
Y3662D01*
X11321Y3652D01*
X11351D01*
X5960Y8323D02*
Y8263D01*
X5990D01*
X6000Y8273D01*
Y8313D01*
X5990Y8323D01*
X5960D01*
X6050Y8263D02*
Y8323D01*
X6020Y8293D01*
X6060D01*
X6080Y8313D02*
X6090Y8323D01*
X6110D01*
X6120Y8313D01*
Y8273D01*
X6110Y8263D01*
X6090D01*
X6080Y8273D01*
Y8313D01*
X4577Y7343D02*
Y7283D01*
X4607D01*
X4617Y7293D01*
Y7333D01*
X4607Y7343D01*
X4577D01*
X4667Y7283D02*
Y7343D01*
X4637Y7313D01*
X4677D01*
X4697Y7283D02*
X4717D01*
X4707D01*
Y7343D01*
X4697Y7333D01*
X9154Y7590D02*
Y7530D01*
X9184D01*
X9194Y7540D01*
Y7580D01*
X9184Y7590D01*
X9154D01*
X9244Y7530D02*
Y7590D01*
X9214Y7560D01*
X9254D01*
X9313Y7530D02*
X9274D01*
X9313Y7570D01*
Y7580D01*
X9303Y7590D01*
X9284D01*
X9274Y7580D01*
X5075Y6049D02*
Y5989D01*
X5105D01*
X5115Y5999D01*
Y6039D01*
X5105Y6049D01*
X5075D01*
X5165Y5989D02*
Y6049D01*
X5135Y6019D01*
X5174D01*
X5194Y6039D02*
X5204Y6049D01*
X5224D01*
X5234Y6039D01*
Y6029D01*
X5224Y6019D01*
X5214D01*
X5224D01*
X5234Y6009D01*
Y5999D01*
X5224Y5989D01*
X5204D01*
X5194Y5999D01*
X8913Y11276D02*
Y11216D01*
X8943D01*
X8953Y11226D01*
Y11266D01*
X8943Y11276D01*
X8913D01*
X9003Y11216D02*
Y11276D01*
X8973Y11246D01*
X9013D01*
X9063Y11216D02*
Y11276D01*
X9033Y11246D01*
X9073D01*
X8224Y9804D02*
Y9744D01*
X8254D01*
X8264Y9754D01*
Y9794D01*
X8254Y9804D01*
X8224D01*
X8314Y9744D02*
Y9804D01*
X8284Y9774D01*
X8324D01*
X8384Y9804D02*
X8344D01*
Y9774D01*
X8364Y9784D01*
X8374D01*
X8384Y9774D01*
Y9754D01*
X8374Y9744D01*
X8354D01*
X8344Y9754D01*
X9996Y11069D02*
Y11009D01*
X10026D01*
X10036Y11019D01*
Y11059D01*
X10026Y11069D01*
X9996D01*
X10086Y11009D02*
Y11069D01*
X10056Y11039D01*
X10096D01*
X10156Y11069D02*
X10136Y11059D01*
X10116Y11039D01*
Y11019D01*
X10126Y11009D01*
X10146D01*
X10156Y11019D01*
Y11029D01*
X10146Y11039D01*
X10116D01*
X9208Y9804D02*
Y9744D01*
X9238D01*
X9248Y9754D01*
Y9794D01*
X9238Y9804D01*
X9208D01*
X9298Y9744D02*
Y9804D01*
X9268Y9774D01*
X9308D01*
X9328Y9804D02*
X9368D01*
Y9794D01*
X9328Y9754D01*
Y9744D01*
X3681Y8308D02*
Y8248D01*
X3711D01*
X3721Y8258D01*
Y8298D01*
X3711Y8308D01*
X3681D01*
X3771Y8248D02*
Y8308D01*
X3741Y8278D01*
X3781D01*
X3801Y8298D02*
X3811Y8308D01*
X3831D01*
X3841Y8298D01*
Y8288D01*
X3831Y8278D01*
X3841Y8268D01*
Y8258D01*
X3831Y8248D01*
X3811D01*
X3801Y8258D01*
Y8268D01*
X3811Y8278D01*
X3801Y8288D01*
Y8298D01*
X3811Y8278D02*
X3831D01*
X8346Y7550D02*
Y7490D01*
X8376D01*
X8386Y7500D01*
Y7540D01*
X8376Y7550D01*
X8346D01*
X8436Y7490D02*
Y7550D01*
X8406Y7520D01*
X8446D01*
X8466Y7500D02*
X8476Y7490D01*
X8496D01*
X8506Y7500D01*
Y7540D01*
X8496Y7550D01*
X8476D01*
X8466Y7540D01*
Y7530D01*
X8476Y7520D01*
X8506D01*
X10187Y5719D02*
Y5659D01*
X10217D01*
X10227Y5669D01*
Y5709D01*
X10217Y5719D01*
X10187D01*
X10287D02*
X10247D01*
Y5689D01*
X10267Y5699D01*
X10277D01*
X10287Y5689D01*
Y5669D01*
X10277Y5659D01*
X10257D01*
X10247Y5669D01*
X10307Y5709D02*
X10317Y5719D01*
X10337D01*
X10347Y5709D01*
Y5669D01*
X10337Y5659D01*
X10317D01*
X10307Y5669D01*
Y5709D01*
X9980Y9775D02*
Y9715D01*
X10010D01*
X10020Y9725D01*
Y9765D01*
X10010Y9775D01*
X9980D01*
X10080D02*
X10040D01*
Y9745D01*
X10060Y9755D01*
X10070D01*
X10080Y9745D01*
Y9725D01*
X10070Y9715D01*
X10050D01*
X10040Y9725D01*
X10100Y9715D02*
X10120D01*
X10110D01*
Y9775D01*
X10100Y9765D01*
X8815Y6049D02*
Y5989D01*
X8845D01*
X8855Y5999D01*
Y6039D01*
X8845Y6049D01*
X8815D01*
X8915D02*
X8875D01*
Y6019D01*
X8895Y6029D01*
X8905D01*
X8915Y6019D01*
Y5999D01*
X8905Y5989D01*
X8885D01*
X8875Y5999D01*
X8975Y5989D02*
X8935D01*
X8975Y6029D01*
Y6039D01*
X8965Y6049D01*
X8945D01*
X8935Y6039D01*
X4189Y8510D02*
Y8450D01*
X4219D01*
X4229Y8460D01*
Y8500D01*
X4219Y8510D01*
X4189D01*
X4289D02*
X4249D01*
Y8480D01*
X4269Y8490D01*
X4279D01*
X4289Y8480D01*
Y8460D01*
X4279Y8450D01*
X4259D01*
X4249Y8460D01*
X4309Y8500D02*
X4319Y8510D01*
X4339D01*
X4349Y8500D01*
Y8490D01*
X4339Y8480D01*
X4329D01*
X4339D01*
X4349Y8470D01*
Y8460D01*
X4339Y8450D01*
X4319D01*
X4309Y8460D01*
X9405Y6256D02*
Y6196D01*
X9435D01*
X9445Y6206D01*
Y6246D01*
X9435Y6256D01*
X9405D01*
X9505D02*
X9465D01*
Y6226D01*
X9485Y6236D01*
X9495D01*
X9505Y6226D01*
Y6206D01*
X9495Y6196D01*
X9475D01*
X9465Y6206D01*
X9555Y6196D02*
Y6256D01*
X9525Y6226D01*
X9565D01*
X10984Y5847D02*
Y5787D01*
X11014D01*
X11024Y5797D01*
Y5837D01*
X11014Y5847D01*
X10984D01*
X11084D02*
X11044D01*
Y5817D01*
X11064Y5827D01*
X11074D01*
X11084Y5817D01*
Y5797D01*
X11074Y5787D01*
X11054D01*
X11044Y5797D01*
X11144Y5847D02*
X11104D01*
Y5817D01*
X11124Y5827D01*
X11134D01*
X11144Y5817D01*
Y5797D01*
X11134Y5787D01*
X11114D01*
X11104Y5797D01*
X8224Y6049D02*
Y5989D01*
X8254D01*
X8264Y5999D01*
Y6039D01*
X8254Y6049D01*
X8224D01*
X8324D02*
X8284D01*
Y6019D01*
X8304Y6029D01*
X8314D01*
X8324Y6019D01*
Y5999D01*
X8314Y5989D01*
X8294D01*
X8284Y5999D01*
X8384Y6049D02*
X8364Y6039D01*
X8344Y6019D01*
Y5999D01*
X8354Y5989D01*
X8374D01*
X8384Y5999D01*
Y6009D01*
X8374Y6019D01*
X8344D01*
X5315Y7343D02*
Y7283D01*
X5345D01*
X5355Y7293D01*
Y7333D01*
X5345Y7343D01*
X5315D01*
X5415D02*
X5375D01*
Y7313D01*
X5395Y7323D01*
X5405D01*
X5415Y7313D01*
Y7293D01*
X5405Y7283D01*
X5385D01*
X5375Y7293D01*
X5435Y7343D02*
X5475D01*
Y7333D01*
X5435Y7293D01*
Y7283D01*
X5764Y6049D02*
Y5989D01*
X5793D01*
X5803Y5999D01*
Y6039D01*
X5793Y6049D01*
X5764D01*
X5863D02*
X5823D01*
Y6019D01*
X5843Y6029D01*
X5853D01*
X5863Y6019D01*
Y5999D01*
X5853Y5989D01*
X5833D01*
X5823Y5999D01*
X5883Y6039D02*
X5893Y6049D01*
X5913D01*
X5923Y6039D01*
Y6029D01*
X5913Y6019D01*
X5923Y6009D01*
Y5999D01*
X5913Y5989D01*
X5893D01*
X5883Y5999D01*
Y6009D01*
X5893Y6019D01*
X5883Y6029D01*
Y6039D01*
X5893Y6019D02*
X5913D01*
X7431Y6517D02*
Y6457D01*
X7461D01*
X7471Y6467D01*
Y6507D01*
X7461Y6517D01*
X7431D01*
X7531D02*
X7491D01*
Y6487D01*
X7511Y6497D01*
X7521D01*
X7531Y6487D01*
Y6467D01*
X7521Y6457D01*
X7501D01*
X7491Y6467D01*
X7551D02*
X7561Y6457D01*
X7581D01*
X7591Y6467D01*
Y6507D01*
X7581Y6517D01*
X7561D01*
X7551Y6507D01*
Y6497D01*
X7561Y6487D01*
X7591D01*
X6354Y6453D02*
Y6393D01*
X6384D01*
X6394Y6403D01*
Y6443D01*
X6384Y6453D01*
X6354D01*
X6454D02*
X6434Y6443D01*
X6414Y6423D01*
Y6403D01*
X6424Y6393D01*
X6444D01*
X6454Y6403D01*
Y6413D01*
X6444Y6423D01*
X6414D01*
X6474Y6443D02*
X6484Y6453D01*
X6504D01*
X6514Y6443D01*
Y6403D01*
X6504Y6393D01*
X6484D01*
X6474Y6403D01*
Y6443D01*
X10285Y2521D02*
Y2461D01*
X10315D01*
X10325Y2471D01*
Y2511D01*
X10315Y2521D01*
X10285D01*
X10385D02*
X10365Y2511D01*
X10345Y2491D01*
Y2471D01*
X10355Y2461D01*
X10375D01*
X10385Y2471D01*
Y2481D01*
X10375Y2491D01*
X10345D01*
X10405Y2461D02*
X10425D01*
X10415D01*
Y2521D01*
X10405Y2511D01*
X10591Y1517D02*
Y1457D01*
X10621D01*
X10631Y1467D01*
Y1507D01*
X10621Y1517D01*
X10591D01*
X10691D02*
X10671Y1507D01*
X10651Y1487D01*
Y1467D01*
X10661Y1457D01*
X10681D01*
X10691Y1467D01*
Y1477D01*
X10681Y1487D01*
X10651D01*
X10750Y1457D02*
X10711D01*
X10750Y1497D01*
Y1507D01*
X10741Y1517D01*
X10721D01*
X10711Y1507D01*
X10118Y1517D02*
Y1457D01*
X10148D01*
X10158Y1467D01*
Y1507D01*
X10148Y1517D01*
X10118D01*
X10218D02*
X10198Y1507D01*
X10178Y1487D01*
Y1467D01*
X10188Y1457D01*
X10208D01*
X10218Y1467D01*
Y1477D01*
X10208Y1487D01*
X10178D01*
X10238Y1507D02*
X10248Y1517D01*
X10268D01*
X10278Y1507D01*
Y1497D01*
X10268Y1487D01*
X10258D01*
X10268D01*
X10278Y1477D01*
Y1467D01*
X10268Y1457D01*
X10248D01*
X10238Y1467D01*
X9695Y2521D02*
Y2461D01*
X9725D01*
X9735Y2471D01*
Y2511D01*
X9725Y2521D01*
X9695D01*
X9795D02*
X9775Y2511D01*
X9755Y2491D01*
Y2471D01*
X9765Y2461D01*
X9785D01*
X9795Y2471D01*
Y2481D01*
X9785Y2491D01*
X9755D01*
X9845Y2461D02*
Y2521D01*
X9815Y2491D01*
X9855D01*
X9567Y1517D02*
Y1457D01*
X9597D01*
X9607Y1467D01*
Y1507D01*
X9597Y1517D01*
X9567D01*
X9667D02*
X9647Y1507D01*
X9627Y1487D01*
Y1467D01*
X9637Y1457D01*
X9657D01*
X9667Y1467D01*
Y1477D01*
X9657Y1487D01*
X9627D01*
X9727Y1517D02*
X9687D01*
Y1487D01*
X9707Y1497D01*
X9717D01*
X9727Y1487D01*
Y1467D01*
X9717Y1457D01*
X9697D01*
X9687Y1467D01*
X10581Y2590D02*
Y2530D01*
X10611D01*
X10621Y2540D01*
Y2580D01*
X10611Y2590D01*
X10581D01*
X10681D02*
X10661Y2580D01*
X10641Y2560D01*
Y2540D01*
X10651Y2530D01*
X10671D01*
X10681Y2540D01*
Y2550D01*
X10671Y2560D01*
X10641D01*
X10741Y2590D02*
X10721Y2580D01*
X10701Y2560D01*
Y2540D01*
X10711Y2530D01*
X10731D01*
X10741Y2540D01*
Y2550D01*
X10731Y2560D01*
X10701D01*
X9996Y4769D02*
Y4709D01*
X10026D01*
X10036Y4719D01*
Y4759D01*
X10026Y4769D01*
X9996D01*
X10096D02*
X10076Y4759D01*
X10056Y4739D01*
Y4719D01*
X10066Y4709D01*
X10086D01*
X10096Y4719D01*
Y4729D01*
X10086Y4739D01*
X10056D01*
X10116Y4769D02*
X10156D01*
Y4759D01*
X10116Y4719D01*
Y4709D01*
X10586Y4769D02*
Y4709D01*
X10616D01*
X10626Y4719D01*
Y4759D01*
X10616Y4769D01*
X10586D01*
X10686D02*
X10666Y4759D01*
X10646Y4739D01*
Y4719D01*
X10656Y4709D01*
X10676D01*
X10686Y4719D01*
Y4729D01*
X10676Y4739D01*
X10646D01*
X10706Y4759D02*
X10716Y4769D01*
X10736D01*
X10746Y4759D01*
Y4749D01*
X10736Y4739D01*
X10746Y4729D01*
Y4719D01*
X10736Y4709D01*
X10716D01*
X10706Y4719D01*
Y4729D01*
X10716Y4739D01*
X10706Y4749D01*
Y4759D01*
X10716Y4739D02*
X10736D01*
X10586Y3687D02*
Y3627D01*
X10616D01*
X10626Y3637D01*
Y3677D01*
X10616Y3687D01*
X10586D01*
X10686D02*
X10666Y3677D01*
X10646Y3657D01*
Y3637D01*
X10656Y3627D01*
X10676D01*
X10686Y3637D01*
Y3647D01*
X10676Y3657D01*
X10646D01*
X10706Y3637D02*
X10716Y3627D01*
X10736D01*
X10746Y3637D01*
Y3677D01*
X10736Y3687D01*
X10716D01*
X10706Y3677D01*
Y3667D01*
X10716Y3657D01*
X10746D01*
X9990Y3672D02*
Y3612D01*
X10020D01*
X10030Y3622D01*
Y3662D01*
X10020Y3672D01*
X9990D01*
X10050D02*
X10090D01*
Y3662D01*
X10050Y3622D01*
Y3612D01*
X10110Y3662D02*
X10120Y3672D01*
X10140D01*
X10150Y3662D01*
Y3622D01*
X10140Y3612D01*
X10120D01*
X10110Y3622D01*
Y3662D01*
X9400Y3672D02*
Y3612D01*
X9430D01*
X9440Y3622D01*
Y3662D01*
X9430Y3672D01*
X9400D01*
X9460D02*
X9500D01*
Y3662D01*
X9460Y3622D01*
Y3612D01*
X9520D02*
X9540D01*
X9530D01*
Y3672D01*
X9520Y3662D01*
X8888Y1517D02*
Y1457D01*
X8918D01*
X8928Y1467D01*
Y1507D01*
X8918Y1517D01*
X8888D01*
X8948D02*
X8988D01*
Y1507D01*
X8948Y1467D01*
Y1457D01*
X9048D02*
X9008D01*
X9048Y1497D01*
Y1507D01*
X9038Y1517D01*
X9018D01*
X9008Y1507D01*
X8224Y3687D02*
Y3627D01*
X8254D01*
X8264Y3637D01*
Y3677D01*
X8254Y3687D01*
X8224D01*
X8284D02*
X8324D01*
Y3677D01*
X8284Y3637D01*
Y3627D01*
X8344Y3677D02*
X8354Y3687D01*
X8374D01*
X8384Y3677D01*
Y3667D01*
X8374Y3657D01*
X8364D01*
X8374D01*
X8384Y3647D01*
Y3637D01*
X8374Y3627D01*
X8354D01*
X8344Y3637D01*
X8224Y4769D02*
Y4709D01*
X8254D01*
X8264Y4719D01*
Y4759D01*
X8254Y4769D01*
X8224D01*
X8284D02*
X8324D01*
Y4759D01*
X8284Y4719D01*
Y4709D01*
X8374D02*
Y4769D01*
X8344Y4739D01*
X8384D01*
X8815Y2604D02*
Y2544D01*
X8845D01*
X8855Y2554D01*
Y2594D01*
X8845Y2604D01*
X8815D01*
X8875D02*
X8915D01*
Y2594D01*
X8875Y2554D01*
Y2544D01*
X8975Y2604D02*
X8935D01*
Y2574D01*
X8955Y2584D01*
X8965D01*
X8975Y2574D01*
Y2554D01*
X8965Y2544D01*
X8945D01*
X8935Y2554D01*
X8815Y4769D02*
Y4709D01*
X8845D01*
X8855Y4719D01*
Y4759D01*
X8845Y4769D01*
X8815D01*
X8875D02*
X8915D01*
Y4759D01*
X8875Y4719D01*
Y4709D01*
X8975Y4769D02*
X8955Y4759D01*
X8935Y4739D01*
Y4719D01*
X8945Y4709D01*
X8965D01*
X8975Y4719D01*
Y4729D01*
X8965Y4739D01*
X8935D01*
X9405Y4769D02*
Y4709D01*
X9435D01*
X9445Y4719D01*
Y4759D01*
X9435Y4769D01*
X9405D01*
X9465D02*
X9505D01*
Y4759D01*
X9465Y4719D01*
Y4709D01*
X9525Y4769D02*
X9565D01*
Y4759D01*
X9525Y4719D01*
Y4709D01*
X8219Y1586D02*
Y1526D01*
X8248D01*
X8258Y1536D01*
Y1576D01*
X8248Y1586D01*
X8219D01*
X8278Y1526D02*
Y1586D01*
X8308D01*
X8318Y1576D01*
Y1556D01*
X8308Y1546D01*
X8278D01*
X8298D02*
X8318Y1526D01*
X8368D02*
Y1586D01*
X8338Y1556D01*
X8378D01*
X8219Y2668D02*
Y2608D01*
X8248D01*
X8258Y2618D01*
Y2658D01*
X8248Y2668D01*
X8219D01*
X8278Y2608D02*
Y2668D01*
X8308D01*
X8318Y2658D01*
Y2638D01*
X8308Y2628D01*
X8278D01*
X8298D02*
X8318Y2608D01*
X8378Y2668D02*
X8338D01*
Y2638D01*
X8358Y2648D01*
X8368D01*
X8378Y2638D01*
Y2618D01*
X8368Y2608D01*
X8348D01*
X8338Y2618D01*
X8815Y3687D02*
Y3627D01*
X8845D01*
X8855Y3637D01*
Y3677D01*
X8845Y3687D01*
X8815D01*
X8875Y3627D02*
Y3687D01*
X8905D01*
X8915Y3677D01*
Y3657D01*
X8905Y3647D01*
X8875D01*
X8895D02*
X8915Y3627D01*
X8975Y3687D02*
X8955Y3677D01*
X8935Y3657D01*
Y3637D01*
X8945Y3627D01*
X8965D01*
X8975Y3637D01*
Y3647D01*
X8965Y3657D01*
X8935D01*
X252Y1521D02*
Y1461D01*
X282D01*
X292Y1471D01*
Y1511D01*
X282Y1521D01*
X252D01*
X352Y1511D02*
X342Y1521D01*
X322D01*
X312Y1511D01*
Y1501D01*
X322Y1491D01*
X342D01*
X352Y1481D01*
Y1471D01*
X342Y1461D01*
X322D01*
X312Y1471D01*
X372Y1461D02*
X392D01*
X382D01*
Y1521D01*
X372Y1511D01*
X1236Y1521D02*
Y1461D01*
X1266D01*
X1276Y1471D01*
Y1511D01*
X1266Y1521D01*
X1236D01*
X1336Y1511D02*
X1326Y1521D01*
X1306D01*
X1296Y1511D01*
Y1501D01*
X1306Y1491D01*
X1326D01*
X1336Y1481D01*
Y1471D01*
X1326Y1461D01*
X1306D01*
X1296Y1471D01*
X1396Y1461D02*
X1356D01*
X1396Y1501D01*
Y1511D01*
X1386Y1521D01*
X1366D01*
X1356Y1511D01*
X2313Y1536D02*
Y1476D01*
X2343D01*
X2353Y1486D01*
Y1526D01*
X2343Y1536D01*
X2313D01*
X2413Y1526D02*
X2403Y1536D01*
X2383D01*
X2373Y1526D01*
Y1516D01*
X2383Y1506D01*
X2403D01*
X2413Y1496D01*
Y1486D01*
X2403Y1476D01*
X2383D01*
X2373Y1486D01*
X2433Y1526D02*
X2443Y1536D01*
X2463D01*
X2473Y1526D01*
Y1516D01*
X2463Y1506D01*
X2453D01*
X2463D01*
X2473Y1496D01*
Y1486D01*
X2463Y1476D01*
X2443D01*
X2433Y1486D01*
X3204Y1521D02*
Y1461D01*
X3234D01*
X3244Y1471D01*
Y1511D01*
X3234Y1521D01*
X3204D01*
X3304Y1511D02*
X3294Y1521D01*
X3274D01*
X3264Y1511D01*
Y1501D01*
X3274Y1491D01*
X3294D01*
X3304Y1481D01*
Y1471D01*
X3294Y1461D01*
X3274D01*
X3264Y1471D01*
X3354Y1461D02*
Y1521D01*
X3324Y1491D01*
X3364D01*
X4189Y1521D02*
Y1461D01*
X4219D01*
X4229Y1471D01*
Y1511D01*
X4219Y1521D01*
X4189D01*
X4289Y1511D02*
X4279Y1521D01*
X4259D01*
X4249Y1511D01*
Y1501D01*
X4259Y1491D01*
X4279D01*
X4289Y1481D01*
Y1471D01*
X4279Y1461D01*
X4259D01*
X4249Y1471D01*
X4349Y1521D02*
X4309D01*
Y1491D01*
X4329Y1501D01*
X4339D01*
X4349Y1491D01*
Y1471D01*
X4339Y1461D01*
X4319D01*
X4309Y1471D01*
X5173Y1521D02*
Y1461D01*
X5203D01*
X5213Y1471D01*
Y1511D01*
X5203Y1521D01*
X5173D01*
X5273Y1511D02*
X5263Y1521D01*
X5243D01*
X5233Y1511D01*
Y1501D01*
X5243Y1491D01*
X5263D01*
X5273Y1481D01*
Y1471D01*
X5263Y1461D01*
X5243D01*
X5233Y1471D01*
X5333Y1521D02*
X5313Y1511D01*
X5293Y1491D01*
Y1471D01*
X5303Y1461D01*
X5323D01*
X5333Y1471D01*
Y1481D01*
X5323Y1491D01*
X5293D01*
X6157Y1521D02*
Y1461D01*
X6187D01*
X6197Y1471D01*
Y1511D01*
X6187Y1521D01*
X6157D01*
X6257Y1511D02*
X6247Y1521D01*
X6227D01*
X6217Y1511D01*
Y1501D01*
X6227Y1491D01*
X6247D01*
X6257Y1481D01*
Y1471D01*
X6247Y1461D01*
X6227D01*
X6217Y1471D01*
X6277Y1521D02*
X6317D01*
Y1511D01*
X6277Y1471D01*
Y1461D01*
X7141Y1521D02*
Y1461D01*
X7171D01*
X7181Y1471D01*
Y1511D01*
X7171Y1521D01*
X7141D01*
X7241Y1511D02*
X7231Y1521D01*
X7211D01*
X7201Y1511D01*
Y1501D01*
X7211Y1491D01*
X7231D01*
X7241Y1481D01*
Y1471D01*
X7231Y1461D01*
X7211D01*
X7201Y1471D01*
X7261Y1511D02*
X7271Y1521D01*
X7291D01*
X7301Y1511D01*
Y1501D01*
X7291Y1491D01*
X7301Y1481D01*
Y1471D01*
X7291Y1461D01*
X7271D01*
X7261Y1471D01*
Y1481D01*
X7271Y1491D01*
X7261Y1501D01*
Y1511D01*
X7271Y1491D02*
X7291D01*
X744Y1521D02*
Y1461D01*
X774D01*
X784Y1471D01*
Y1511D01*
X774Y1521D01*
X744D01*
X844Y1511D02*
X834Y1521D01*
X814D01*
X804Y1511D01*
Y1501D01*
X814Y1491D01*
X834D01*
X844Y1481D01*
Y1471D01*
X834Y1461D01*
X814D01*
X804Y1471D01*
X864D02*
X874Y1461D01*
X894D01*
X904Y1471D01*
Y1511D01*
X894Y1521D01*
X874D01*
X864Y1511D01*
Y1501D01*
X874Y1491D01*
X904D01*
X1728Y1521D02*
Y1461D01*
X1758D01*
X1768Y1471D01*
Y1511D01*
X1758Y1521D01*
X1728D01*
X1828Y1511D02*
X1818Y1521D01*
X1798D01*
X1788Y1511D01*
Y1501D01*
X1798Y1491D01*
X1818D01*
X1828Y1481D01*
Y1471D01*
X1818Y1461D01*
X1798D01*
X1788Y1471D01*
X1848Y1461D02*
X1868D01*
X1858D01*
Y1521D01*
X1848Y1511D01*
X1898D02*
X1908Y1521D01*
X1928D01*
X1938Y1511D01*
Y1471D01*
X1928Y1461D01*
X1908D01*
X1898Y1471D01*
Y1511D01*
X2712Y1521D02*
Y1461D01*
X2742D01*
X2752Y1471D01*
Y1511D01*
X2742Y1521D01*
X2712D01*
X2812Y1511D02*
X2802Y1521D01*
X2782D01*
X2772Y1511D01*
Y1501D01*
X2782Y1491D01*
X2802D01*
X2812Y1481D01*
Y1471D01*
X2802Y1461D01*
X2782D01*
X2772Y1471D01*
X2832Y1461D02*
X2852D01*
X2842D01*
Y1521D01*
X2832Y1511D01*
X2882Y1461D02*
X2902D01*
X2892D01*
Y1521D01*
X2882Y1511D01*
X3697Y1521D02*
Y1461D01*
X3727D01*
X3737Y1471D01*
Y1511D01*
X3727Y1521D01*
X3697D01*
X3797Y1511D02*
X3787Y1521D01*
X3767D01*
X3757Y1511D01*
Y1501D01*
X3767Y1491D01*
X3787D01*
X3797Y1481D01*
Y1471D01*
X3787Y1461D01*
X3767D01*
X3757Y1471D01*
X3817Y1461D02*
X3837D01*
X3827D01*
Y1521D01*
X3817Y1511D01*
X3907Y1461D02*
X3867D01*
X3907Y1501D01*
Y1511D01*
X3897Y1521D01*
X3877D01*
X3867Y1511D01*
X4681Y1521D02*
Y1461D01*
X4711D01*
X4721Y1471D01*
Y1511D01*
X4711Y1521D01*
X4681D01*
X4781Y1511D02*
X4771Y1521D01*
X4751D01*
X4741Y1511D01*
Y1501D01*
X4751Y1491D01*
X4771D01*
X4781Y1481D01*
Y1471D01*
X4771Y1461D01*
X4751D01*
X4741Y1471D01*
X4801Y1461D02*
X4821D01*
X4811D01*
Y1521D01*
X4801Y1511D01*
X4851D02*
X4861Y1521D01*
X4881D01*
X4891Y1511D01*
Y1501D01*
X4881Y1491D01*
X4871D01*
X4881D01*
X4891Y1481D01*
Y1471D01*
X4881Y1461D01*
X4861D01*
X4851Y1471D01*
X5665Y1521D02*
Y1461D01*
X5695D01*
X5705Y1471D01*
Y1511D01*
X5695Y1521D01*
X5665D01*
X5765Y1511D02*
X5755Y1521D01*
X5735D01*
X5725Y1511D01*
Y1501D01*
X5735Y1491D01*
X5755D01*
X5765Y1481D01*
Y1471D01*
X5755Y1461D01*
X5735D01*
X5725Y1471D01*
X5785Y1461D02*
X5805D01*
X5795D01*
Y1521D01*
X5785Y1511D01*
X5865Y1461D02*
Y1521D01*
X5835Y1491D01*
X5875D01*
X6649Y1521D02*
Y1461D01*
X6679D01*
X6689Y1471D01*
Y1511D01*
X6679Y1521D01*
X6649D01*
X6749Y1511D02*
X6739Y1521D01*
X6719D01*
X6709Y1511D01*
Y1501D01*
X6719Y1491D01*
X6739D01*
X6749Y1481D01*
Y1471D01*
X6739Y1461D01*
X6719D01*
X6709Y1471D01*
X6769Y1461D02*
X6789D01*
X6779D01*
Y1521D01*
X6769Y1511D01*
X6859Y1521D02*
X6819D01*
Y1491D01*
X6839Y1501D01*
X6849D01*
X6859Y1491D01*
Y1471D01*
X6849Y1461D01*
X6829D01*
X6819Y1471D01*
X7634Y1521D02*
Y1461D01*
X7664D01*
X7674Y1471D01*
Y1511D01*
X7664Y1521D01*
X7634D01*
X7734Y1511D02*
X7724Y1521D01*
X7704D01*
X7694Y1511D01*
Y1501D01*
X7704Y1491D01*
X7724D01*
X7734Y1481D01*
Y1471D01*
X7724Y1461D01*
X7704D01*
X7694Y1471D01*
X7754Y1461D02*
X7774D01*
X7764D01*
Y1521D01*
X7754Y1511D01*
X7844Y1521D02*
X7824Y1511D01*
X7804Y1491D01*
Y1471D01*
X7814Y1461D01*
X7834D01*
X7844Y1471D01*
Y1481D01*
X7834Y1491D01*
X7804D01*
X252Y2604D02*
Y2544D01*
X282D01*
X292Y2554D01*
Y2594D01*
X282Y2604D01*
X252D01*
X352Y2594D02*
X342Y2604D01*
X322D01*
X312Y2594D01*
Y2584D01*
X322Y2574D01*
X342D01*
X352Y2564D01*
Y2554D01*
X342Y2544D01*
X322D01*
X312Y2554D01*
X372Y2544D02*
X392D01*
X382D01*
Y2604D01*
X372Y2594D01*
X422Y2604D02*
X462D01*
Y2594D01*
X422Y2554D01*
Y2544D01*
X1236Y2604D02*
Y2544D01*
X1266D01*
X1276Y2554D01*
Y2594D01*
X1266Y2604D01*
X1236D01*
X1336Y2594D02*
X1326Y2604D01*
X1306D01*
X1296Y2594D01*
Y2584D01*
X1306Y2574D01*
X1326D01*
X1336Y2564D01*
Y2554D01*
X1326Y2544D01*
X1306D01*
X1296Y2554D01*
X1356Y2544D02*
X1376D01*
X1366D01*
Y2604D01*
X1356Y2594D01*
X1406D02*
X1416Y2604D01*
X1436D01*
X1446Y2594D01*
Y2584D01*
X1436Y2574D01*
X1446Y2564D01*
Y2554D01*
X1436Y2544D01*
X1416D01*
X1406Y2554D01*
Y2564D01*
X1416Y2574D01*
X1406Y2584D01*
Y2594D01*
X1416Y2574D02*
X1436D01*
X2220Y2604D02*
Y2544D01*
X2250D01*
X2260Y2554D01*
Y2594D01*
X2250Y2604D01*
X2220D01*
X2320Y2594D02*
X2310Y2604D01*
X2290D01*
X2280Y2594D01*
Y2584D01*
X2290Y2574D01*
X2310D01*
X2320Y2564D01*
Y2554D01*
X2310Y2544D01*
X2290D01*
X2280Y2554D01*
X2340Y2544D02*
X2360D01*
X2350D01*
Y2604D01*
X2340Y2594D01*
X2390Y2554D02*
X2400Y2544D01*
X2420D01*
X2430Y2554D01*
Y2594D01*
X2420Y2604D01*
X2400D01*
X2390Y2594D01*
Y2584D01*
X2400Y2574D01*
X2430D01*
X3204Y2604D02*
Y2544D01*
X3234D01*
X3244Y2554D01*
Y2594D01*
X3234Y2604D01*
X3204D01*
X3304Y2594D02*
X3294Y2604D01*
X3274D01*
X3264Y2594D01*
Y2584D01*
X3274Y2574D01*
X3294D01*
X3304Y2564D01*
Y2554D01*
X3294Y2544D01*
X3274D01*
X3264Y2554D01*
X3364Y2544D02*
X3324D01*
X3364Y2584D01*
Y2594D01*
X3354Y2604D01*
X3334D01*
X3324Y2594D01*
X3384D02*
X3394Y2604D01*
X3414D01*
X3424Y2594D01*
Y2554D01*
X3414Y2544D01*
X3394D01*
X3384Y2554D01*
Y2594D01*
X4189Y2604D02*
Y2544D01*
X4219D01*
X4229Y2554D01*
Y2594D01*
X4219Y2604D01*
X4189D01*
X4289Y2594D02*
X4279Y2604D01*
X4259D01*
X4249Y2594D01*
Y2584D01*
X4259Y2574D01*
X4279D01*
X4289Y2564D01*
Y2554D01*
X4279Y2544D01*
X4259D01*
X4249Y2554D01*
X4349Y2544D02*
X4309D01*
X4349Y2584D01*
Y2594D01*
X4339Y2604D01*
X4319D01*
X4309Y2594D01*
X4369Y2544D02*
X4389D01*
X4379D01*
Y2604D01*
X4369Y2594D01*
X5173Y2604D02*
Y2544D01*
X5203D01*
X5213Y2554D01*
Y2594D01*
X5203Y2604D01*
X5173D01*
X5273Y2594D02*
X5263Y2604D01*
X5243D01*
X5233Y2594D01*
Y2584D01*
X5243Y2574D01*
X5263D01*
X5273Y2564D01*
Y2554D01*
X5263Y2544D01*
X5243D01*
X5233Y2554D01*
X5333Y2544D02*
X5293D01*
X5333Y2584D01*
Y2594D01*
X5323Y2604D01*
X5303D01*
X5293Y2594D01*
X5393Y2544D02*
X5353D01*
X5393Y2584D01*
Y2594D01*
X5383Y2604D01*
X5363D01*
X5353Y2594D01*
X6157Y2604D02*
Y2544D01*
X6187D01*
X6197Y2554D01*
Y2594D01*
X6187Y2604D01*
X6157D01*
X6257Y2594D02*
X6247Y2604D01*
X6227D01*
X6217Y2594D01*
Y2584D01*
X6227Y2574D01*
X6247D01*
X6257Y2564D01*
Y2554D01*
X6247Y2544D01*
X6227D01*
X6217Y2554D01*
X6317Y2544D02*
X6277D01*
X6317Y2584D01*
Y2594D01*
X6307Y2604D01*
X6287D01*
X6277Y2594D01*
X6337D02*
X6347Y2604D01*
X6367D01*
X6377Y2594D01*
Y2584D01*
X6367Y2574D01*
X6357D01*
X6367D01*
X6377Y2564D01*
Y2554D01*
X6367Y2544D01*
X6347D01*
X6337Y2554D01*
X7141Y2604D02*
Y2544D01*
X7171D01*
X7181Y2554D01*
Y2594D01*
X7171Y2604D01*
X7141D01*
X7241Y2594D02*
X7231Y2604D01*
X7211D01*
X7201Y2594D01*
Y2584D01*
X7211Y2574D01*
X7231D01*
X7241Y2564D01*
Y2554D01*
X7231Y2544D01*
X7211D01*
X7201Y2554D01*
X7301Y2544D02*
X7261D01*
X7301Y2584D01*
Y2594D01*
X7291Y2604D01*
X7271D01*
X7261Y2594D01*
X7351Y2544D02*
Y2604D01*
X7321Y2574D01*
X7361D01*
X744Y2604D02*
Y2544D01*
X774D01*
X784Y2554D01*
Y2594D01*
X774Y2604D01*
X744D01*
X844Y2594D02*
X834Y2604D01*
X814D01*
X804Y2594D01*
Y2584D01*
X814Y2574D01*
X834D01*
X844Y2564D01*
Y2554D01*
X834Y2544D01*
X814D01*
X804Y2554D01*
X904Y2544D02*
X864D01*
X904Y2584D01*
Y2594D01*
X894Y2604D01*
X874D01*
X864Y2594D01*
X964Y2604D02*
X924D01*
Y2574D01*
X944Y2584D01*
X954D01*
X964Y2574D01*
Y2554D01*
X954Y2544D01*
X934D01*
X924Y2554D01*
X1728Y2604D02*
Y2544D01*
X1758D01*
X1768Y2554D01*
Y2594D01*
X1758Y2604D01*
X1728D01*
X1828Y2594D02*
X1818Y2604D01*
X1798D01*
X1788Y2594D01*
Y2584D01*
X1798Y2574D01*
X1818D01*
X1828Y2564D01*
Y2554D01*
X1818Y2544D01*
X1798D01*
X1788Y2554D01*
X1888Y2544D02*
X1848D01*
X1888Y2584D01*
Y2594D01*
X1878Y2604D01*
X1858D01*
X1848Y2594D01*
X1948Y2604D02*
X1928Y2594D01*
X1908Y2574D01*
Y2554D01*
X1918Y2544D01*
X1938D01*
X1948Y2554D01*
Y2564D01*
X1938Y2574D01*
X1908D01*
X2712Y2604D02*
Y2544D01*
X2742D01*
X2752Y2554D01*
Y2594D01*
X2742Y2604D01*
X2712D01*
X2812Y2594D02*
X2802Y2604D01*
X2782D01*
X2772Y2594D01*
Y2584D01*
X2782Y2574D01*
X2802D01*
X2812Y2564D01*
Y2554D01*
X2802Y2544D01*
X2782D01*
X2772Y2554D01*
X2872Y2544D02*
X2832D01*
X2872Y2584D01*
Y2594D01*
X2862Y2604D01*
X2842D01*
X2832Y2594D01*
X2892Y2604D02*
X2932D01*
Y2594D01*
X2892Y2554D01*
Y2544D01*
X3697Y2604D02*
Y2544D01*
X3727D01*
X3737Y2554D01*
Y2594D01*
X3727Y2604D01*
X3697D01*
X3797Y2594D02*
X3787Y2604D01*
X3767D01*
X3757Y2594D01*
Y2584D01*
X3767Y2574D01*
X3787D01*
X3797Y2564D01*
Y2554D01*
X3787Y2544D01*
X3767D01*
X3757Y2554D01*
X3857Y2544D02*
X3817D01*
X3857Y2584D01*
Y2594D01*
X3847Y2604D01*
X3827D01*
X3817Y2594D01*
X3877D02*
X3887Y2604D01*
X3907D01*
X3917Y2594D01*
Y2584D01*
X3907Y2574D01*
X3917Y2564D01*
Y2554D01*
X3907Y2544D01*
X3887D01*
X3877Y2554D01*
Y2564D01*
X3887Y2574D01*
X3877Y2584D01*
Y2594D01*
X3887Y2574D02*
X3907D01*
X4681Y2604D02*
Y2544D01*
X4711D01*
X4721Y2554D01*
Y2594D01*
X4711Y2604D01*
X4681D01*
X4781Y2594D02*
X4771Y2604D01*
X4751D01*
X4741Y2594D01*
Y2584D01*
X4751Y2574D01*
X4771D01*
X4781Y2564D01*
Y2554D01*
X4771Y2544D01*
X4751D01*
X4741Y2554D01*
X4841Y2544D02*
X4801D01*
X4841Y2584D01*
Y2594D01*
X4831Y2604D01*
X4811D01*
X4801Y2594D01*
X4861Y2554D02*
X4871Y2544D01*
X4891D01*
X4901Y2554D01*
Y2594D01*
X4891Y2604D01*
X4871D01*
X4861Y2594D01*
Y2584D01*
X4871Y2574D01*
X4901D01*
X5665Y2604D02*
Y2544D01*
X5695D01*
X5705Y2554D01*
Y2594D01*
X5695Y2604D01*
X5665D01*
X5765Y2594D02*
X5755Y2604D01*
X5735D01*
X5725Y2594D01*
Y2584D01*
X5735Y2574D01*
X5755D01*
X5765Y2564D01*
Y2554D01*
X5755Y2544D01*
X5735D01*
X5725Y2554D01*
X5785Y2594D02*
X5795Y2604D01*
X5815D01*
X5825Y2594D01*
Y2584D01*
X5815Y2574D01*
X5805D01*
X5815D01*
X5825Y2564D01*
Y2554D01*
X5815Y2544D01*
X5795D01*
X5785Y2554D01*
X5845Y2594D02*
X5855Y2604D01*
X5875D01*
X5885Y2594D01*
Y2554D01*
X5875Y2544D01*
X5855D01*
X5845Y2554D01*
Y2594D01*
X6649Y2604D02*
Y2544D01*
X6679D01*
X6689Y2554D01*
Y2594D01*
X6679Y2604D01*
X6649D01*
X6749Y2594D02*
X6739Y2604D01*
X6719D01*
X6709Y2594D01*
Y2584D01*
X6719Y2574D01*
X6739D01*
X6749Y2564D01*
Y2554D01*
X6739Y2544D01*
X6719D01*
X6709Y2554D01*
X6769Y2594D02*
X6779Y2604D01*
X6799D01*
X6809Y2594D01*
Y2584D01*
X6799Y2574D01*
X6789D01*
X6799D01*
X6809Y2564D01*
Y2554D01*
X6799Y2544D01*
X6779D01*
X6769Y2554D01*
X6829Y2544D02*
X6849D01*
X6839D01*
Y2604D01*
X6829Y2594D01*
X7634Y2604D02*
Y2544D01*
X7664D01*
X7674Y2554D01*
Y2594D01*
X7664Y2604D01*
X7634D01*
X7734Y2594D02*
X7724Y2604D01*
X7704D01*
X7694Y2594D01*
Y2584D01*
X7704Y2574D01*
X7724D01*
X7734Y2564D01*
Y2554D01*
X7724Y2544D01*
X7704D01*
X7694Y2554D01*
X7754Y2594D02*
X7764Y2604D01*
X7784D01*
X7794Y2594D01*
Y2584D01*
X7784Y2574D01*
X7774D01*
X7784D01*
X7794Y2564D01*
Y2554D01*
X7784Y2544D01*
X7764D01*
X7754Y2554D01*
X7854Y2544D02*
X7814D01*
X7854Y2584D01*
Y2594D01*
X7844Y2604D01*
X7824D01*
X7814Y2594D01*
X252Y3687D02*
Y3627D01*
X282D01*
X292Y3637D01*
Y3677D01*
X282Y3687D01*
X252D01*
X352Y3677D02*
X342Y3687D01*
X322D01*
X312Y3677D01*
Y3667D01*
X322Y3657D01*
X342D01*
X352Y3647D01*
Y3637D01*
X342Y3627D01*
X322D01*
X312Y3637D01*
X372Y3677D02*
X382Y3687D01*
X402D01*
X412Y3677D01*
Y3667D01*
X402Y3657D01*
X392D01*
X402D01*
X412Y3647D01*
Y3637D01*
X402Y3627D01*
X382D01*
X372Y3637D01*
X432Y3677D02*
X442Y3687D01*
X462D01*
X472Y3677D01*
Y3667D01*
X462Y3657D01*
X452D01*
X462D01*
X472Y3647D01*
Y3637D01*
X462Y3627D01*
X442D01*
X432Y3637D01*
X1236Y3687D02*
Y3627D01*
X1266D01*
X1276Y3637D01*
Y3677D01*
X1266Y3687D01*
X1236D01*
X1336Y3677D02*
X1326Y3687D01*
X1306D01*
X1296Y3677D01*
Y3667D01*
X1306Y3657D01*
X1326D01*
X1336Y3647D01*
Y3637D01*
X1326Y3627D01*
X1306D01*
X1296Y3637D01*
X1356Y3677D02*
X1366Y3687D01*
X1386D01*
X1396Y3677D01*
Y3667D01*
X1386Y3657D01*
X1376D01*
X1386D01*
X1396Y3647D01*
Y3637D01*
X1386Y3627D01*
X1366D01*
X1356Y3637D01*
X1446Y3627D02*
Y3687D01*
X1416Y3657D01*
X1456D01*
X2220Y3687D02*
Y3627D01*
X2250D01*
X2260Y3637D01*
Y3677D01*
X2250Y3687D01*
X2220D01*
X2320Y3677D02*
X2310Y3687D01*
X2290D01*
X2280Y3677D01*
Y3667D01*
X2290Y3657D01*
X2310D01*
X2320Y3647D01*
Y3637D01*
X2310Y3627D01*
X2290D01*
X2280Y3637D01*
X2340Y3677D02*
X2350Y3687D01*
X2370D01*
X2380Y3677D01*
Y3667D01*
X2370Y3657D01*
X2360D01*
X2370D01*
X2380Y3647D01*
Y3637D01*
X2370Y3627D01*
X2350D01*
X2340Y3637D01*
X2440Y3687D02*
X2400D01*
Y3657D01*
X2420Y3667D01*
X2430D01*
X2440Y3657D01*
Y3637D01*
X2430Y3627D01*
X2410D01*
X2400Y3637D01*
X3204Y3687D02*
Y3627D01*
X3234D01*
X3244Y3637D01*
Y3677D01*
X3234Y3687D01*
X3204D01*
X3304Y3677D02*
X3294Y3687D01*
X3274D01*
X3264Y3677D01*
Y3667D01*
X3274Y3657D01*
X3294D01*
X3304Y3647D01*
Y3637D01*
X3294Y3627D01*
X3274D01*
X3264Y3637D01*
X3324Y3677D02*
X3334Y3687D01*
X3354D01*
X3364Y3677D01*
Y3667D01*
X3354Y3657D01*
X3344D01*
X3354D01*
X3364Y3647D01*
Y3637D01*
X3354Y3627D01*
X3334D01*
X3324Y3637D01*
X3424Y3687D02*
X3404Y3677D01*
X3384Y3657D01*
Y3637D01*
X3394Y3627D01*
X3414D01*
X3424Y3637D01*
Y3647D01*
X3414Y3657D01*
X3384D01*
X4189Y3687D02*
Y3627D01*
X4219D01*
X4229Y3637D01*
Y3677D01*
X4219Y3687D01*
X4189D01*
X4289Y3677D02*
X4279Y3687D01*
X4259D01*
X4249Y3677D01*
Y3667D01*
X4259Y3657D01*
X4279D01*
X4289Y3647D01*
Y3637D01*
X4279Y3627D01*
X4259D01*
X4249Y3637D01*
X4309Y3677D02*
X4319Y3687D01*
X4339D01*
X4349Y3677D01*
Y3667D01*
X4339Y3657D01*
X4329D01*
X4339D01*
X4349Y3647D01*
Y3637D01*
X4339Y3627D01*
X4319D01*
X4309Y3637D01*
X4369Y3687D02*
X4409D01*
Y3677D01*
X4369Y3637D01*
Y3627D01*
X5173Y3687D02*
Y3627D01*
X5203D01*
X5213Y3637D01*
Y3677D01*
X5203Y3687D01*
X5173D01*
X5273Y3677D02*
X5263Y3687D01*
X5243D01*
X5233Y3677D01*
Y3667D01*
X5243Y3657D01*
X5263D01*
X5273Y3647D01*
Y3637D01*
X5263Y3627D01*
X5243D01*
X5233Y3637D01*
X5293Y3677D02*
X5303Y3687D01*
X5323D01*
X5333Y3677D01*
Y3667D01*
X5323Y3657D01*
X5313D01*
X5323D01*
X5333Y3647D01*
Y3637D01*
X5323Y3627D01*
X5303D01*
X5293Y3637D01*
X5353Y3677D02*
X5363Y3687D01*
X5383D01*
X5393Y3677D01*
Y3667D01*
X5383Y3657D01*
X5393Y3647D01*
Y3637D01*
X5383Y3627D01*
X5363D01*
X5353Y3637D01*
Y3647D01*
X5363Y3657D01*
X5353Y3667D01*
Y3677D01*
X5363Y3657D02*
X5383D01*
X6157Y3687D02*
Y3627D01*
X6187D01*
X6197Y3637D01*
Y3677D01*
X6187Y3687D01*
X6157D01*
X6257Y3677D02*
X6247Y3687D01*
X6227D01*
X6217Y3677D01*
Y3667D01*
X6227Y3657D01*
X6247D01*
X6257Y3647D01*
Y3637D01*
X6247Y3627D01*
X6227D01*
X6217Y3637D01*
X6277Y3677D02*
X6287Y3687D01*
X6307D01*
X6317Y3677D01*
Y3667D01*
X6307Y3657D01*
X6297D01*
X6307D01*
X6317Y3647D01*
Y3637D01*
X6307Y3627D01*
X6287D01*
X6277Y3637D01*
X6337D02*
X6347Y3627D01*
X6367D01*
X6377Y3637D01*
Y3677D01*
X6367Y3687D01*
X6347D01*
X6337Y3677D01*
Y3667D01*
X6347Y3657D01*
X6377D01*
X7141Y3687D02*
Y3627D01*
X7171D01*
X7181Y3637D01*
Y3677D01*
X7171Y3687D01*
X7141D01*
X7241Y3677D02*
X7231Y3687D01*
X7211D01*
X7201Y3677D01*
Y3667D01*
X7211Y3657D01*
X7231D01*
X7241Y3647D01*
Y3637D01*
X7231Y3627D01*
X7211D01*
X7201Y3637D01*
X7291Y3627D02*
Y3687D01*
X7261Y3657D01*
X7301D01*
X7321Y3677D02*
X7331Y3687D01*
X7351D01*
X7361Y3677D01*
Y3637D01*
X7351Y3627D01*
X7331D01*
X7321Y3637D01*
Y3677D01*
X744Y3687D02*
Y3627D01*
X774D01*
X784Y3637D01*
Y3677D01*
X774Y3687D01*
X744D01*
X844Y3677D02*
X834Y3687D01*
X814D01*
X804Y3677D01*
Y3667D01*
X814Y3657D01*
X834D01*
X844Y3647D01*
Y3637D01*
X834Y3627D01*
X814D01*
X804Y3637D01*
X894Y3627D02*
Y3687D01*
X864Y3657D01*
X904D01*
X924Y3627D02*
X944D01*
X934D01*
Y3687D01*
X924Y3677D01*
X1728Y3687D02*
Y3627D01*
X1758D01*
X1768Y3637D01*
Y3677D01*
X1758Y3687D01*
X1728D01*
X1828Y3677D02*
X1818Y3687D01*
X1798D01*
X1788Y3677D01*
Y3667D01*
X1798Y3657D01*
X1818D01*
X1828Y3647D01*
Y3637D01*
X1818Y3627D01*
X1798D01*
X1788Y3637D01*
X1878Y3627D02*
Y3687D01*
X1848Y3657D01*
X1888D01*
X1948Y3627D02*
X1908D01*
X1948Y3667D01*
Y3677D01*
X1938Y3687D01*
X1918D01*
X1908Y3677D01*
X2712Y3687D02*
Y3627D01*
X2742D01*
X2752Y3637D01*
Y3677D01*
X2742Y3687D01*
X2712D01*
X2812Y3677D02*
X2802Y3687D01*
X2782D01*
X2772Y3677D01*
Y3667D01*
X2782Y3657D01*
X2802D01*
X2812Y3647D01*
Y3637D01*
X2802Y3627D01*
X2782D01*
X2772Y3637D01*
X2862Y3627D02*
Y3687D01*
X2832Y3657D01*
X2872D01*
X2892Y3677D02*
X2902Y3687D01*
X2922D01*
X2932Y3677D01*
Y3667D01*
X2922Y3657D01*
X2912D01*
X2922D01*
X2932Y3647D01*
Y3637D01*
X2922Y3627D01*
X2902D01*
X2892Y3637D01*
X3697Y3687D02*
Y3627D01*
X3727D01*
X3737Y3637D01*
Y3677D01*
X3727Y3687D01*
X3697D01*
X3797Y3677D02*
X3787Y3687D01*
X3767D01*
X3757Y3677D01*
Y3667D01*
X3767Y3657D01*
X3787D01*
X3797Y3647D01*
Y3637D01*
X3787Y3627D01*
X3767D01*
X3757Y3637D01*
X3847Y3627D02*
Y3687D01*
X3817Y3657D01*
X3857D01*
X3907Y3627D02*
Y3687D01*
X3877Y3657D01*
X3917D01*
X4681Y3687D02*
Y3627D01*
X4711D01*
X4721Y3637D01*
Y3677D01*
X4711Y3687D01*
X4681D01*
X4781Y3677D02*
X4771Y3687D01*
X4751D01*
X4741Y3677D01*
Y3667D01*
X4751Y3657D01*
X4771D01*
X4781Y3647D01*
Y3637D01*
X4771Y3627D01*
X4751D01*
X4741Y3637D01*
X4831Y3627D02*
Y3687D01*
X4801Y3657D01*
X4841D01*
X4901Y3687D02*
X4861D01*
Y3657D01*
X4881Y3667D01*
X4891D01*
X4901Y3657D01*
Y3637D01*
X4891Y3627D01*
X4871D01*
X4861Y3637D01*
X5665Y3687D02*
Y3627D01*
X5695D01*
X5705Y3637D01*
Y3677D01*
X5695Y3687D01*
X5665D01*
X5765Y3677D02*
X5755Y3687D01*
X5735D01*
X5725Y3677D01*
Y3667D01*
X5735Y3657D01*
X5755D01*
X5765Y3647D01*
Y3637D01*
X5755Y3627D01*
X5735D01*
X5725Y3637D01*
X5815Y3627D02*
Y3687D01*
X5785Y3657D01*
X5825D01*
X5885Y3687D02*
X5865Y3677D01*
X5845Y3657D01*
Y3637D01*
X5855Y3627D01*
X5875D01*
X5885Y3637D01*
Y3647D01*
X5875Y3657D01*
X5845D01*
X6649Y3687D02*
Y3627D01*
X6679D01*
X6689Y3637D01*
Y3677D01*
X6679Y3687D01*
X6649D01*
X6749Y3677D02*
X6739Y3687D01*
X6719D01*
X6709Y3677D01*
Y3667D01*
X6719Y3657D01*
X6739D01*
X6749Y3647D01*
Y3637D01*
X6739Y3627D01*
X6719D01*
X6709Y3637D01*
X6799Y3627D02*
Y3687D01*
X6769Y3657D01*
X6809D01*
X6829Y3687D02*
X6869D01*
Y3677D01*
X6829Y3637D01*
Y3627D01*
X7634Y3687D02*
Y3627D01*
X7664D01*
X7674Y3637D01*
Y3677D01*
X7664Y3687D01*
X7634D01*
X7734Y3677D02*
X7724Y3687D01*
X7704D01*
X7694Y3677D01*
Y3667D01*
X7704Y3657D01*
X7724D01*
X7734Y3647D01*
Y3637D01*
X7724Y3627D01*
X7704D01*
X7694Y3637D01*
X7784Y3627D02*
Y3687D01*
X7754Y3657D01*
X7794D01*
X7814Y3677D02*
X7824Y3687D01*
X7844D01*
X7854Y3677D01*
Y3667D01*
X7844Y3657D01*
X7854Y3647D01*
Y3637D01*
X7844Y3627D01*
X7824D01*
X7814Y3637D01*
Y3647D01*
X7824Y3657D01*
X7814Y3667D01*
Y3677D01*
X7824Y3657D02*
X7844D01*
X193Y4753D02*
Y4693D01*
X223D01*
X233Y4703D01*
Y4743D01*
X223Y4753D01*
X193D01*
X293Y4743D02*
X283Y4753D01*
X263D01*
X253Y4743D01*
Y4733D01*
X263Y4723D01*
X283D01*
X293Y4713D01*
Y4703D01*
X283Y4693D01*
X263D01*
X253Y4703D01*
X343Y4693D02*
Y4753D01*
X313Y4723D01*
X353D01*
X373Y4703D02*
X383Y4693D01*
X403D01*
X413Y4703D01*
Y4743D01*
X403Y4753D01*
X383D01*
X373Y4743D01*
Y4733D01*
X383Y4723D01*
X413D01*
X1230Y4755D02*
Y4695D01*
X1260D01*
X1270Y4705D01*
Y4745D01*
X1260Y4755D01*
X1230D01*
X1330Y4745D02*
X1320Y4755D01*
X1300D01*
X1290Y4745D01*
Y4735D01*
X1300Y4725D01*
X1320D01*
X1330Y4715D01*
Y4705D01*
X1320Y4695D01*
X1300D01*
X1290Y4705D01*
X1390Y4755D02*
X1350D01*
Y4725D01*
X1370Y4735D01*
X1380D01*
X1390Y4725D01*
Y4705D01*
X1380Y4695D01*
X1360D01*
X1350Y4705D01*
X1410Y4745D02*
X1420Y4755D01*
X1440D01*
X1450Y4745D01*
Y4705D01*
X1440Y4695D01*
X1420D01*
X1410Y4705D01*
Y4745D01*
X2220Y4769D02*
Y4709D01*
X2250D01*
X2260Y4719D01*
Y4759D01*
X2250Y4769D01*
X2220D01*
X2320Y4759D02*
X2310Y4769D01*
X2290D01*
X2280Y4759D01*
Y4749D01*
X2290Y4739D01*
X2310D01*
X2320Y4729D01*
Y4719D01*
X2310Y4709D01*
X2290D01*
X2280Y4719D01*
X2380Y4769D02*
X2340D01*
Y4739D01*
X2360Y4749D01*
X2370D01*
X2380Y4739D01*
Y4719D01*
X2370Y4709D01*
X2350D01*
X2340Y4719D01*
X2400Y4709D02*
X2420D01*
X2410D01*
Y4769D01*
X2400Y4759D01*
X3204Y4769D02*
Y4709D01*
X3234D01*
X3244Y4719D01*
Y4759D01*
X3234Y4769D01*
X3204D01*
X3304Y4759D02*
X3294Y4769D01*
X3274D01*
X3264Y4759D01*
Y4749D01*
X3274Y4739D01*
X3294D01*
X3304Y4729D01*
Y4719D01*
X3294Y4709D01*
X3274D01*
X3264Y4719D01*
X3364Y4769D02*
X3324D01*
Y4739D01*
X3344Y4749D01*
X3354D01*
X3364Y4739D01*
Y4719D01*
X3354Y4709D01*
X3334D01*
X3324Y4719D01*
X3424Y4709D02*
X3384D01*
X3424Y4749D01*
Y4759D01*
X3414Y4769D01*
X3394D01*
X3384Y4759D01*
X4189Y4769D02*
Y4709D01*
X4219D01*
X4229Y4719D01*
Y4759D01*
X4219Y4769D01*
X4189D01*
X4289Y4759D02*
X4279Y4769D01*
X4259D01*
X4249Y4759D01*
Y4749D01*
X4259Y4739D01*
X4279D01*
X4289Y4729D01*
Y4719D01*
X4279Y4709D01*
X4259D01*
X4249Y4719D01*
X4349Y4769D02*
X4309D01*
Y4739D01*
X4329Y4749D01*
X4339D01*
X4349Y4739D01*
Y4719D01*
X4339Y4709D01*
X4319D01*
X4309Y4719D01*
X4369Y4759D02*
X4379Y4769D01*
X4399D01*
X4409Y4759D01*
Y4749D01*
X4399Y4739D01*
X4389D01*
X4399D01*
X4409Y4729D01*
Y4719D01*
X4399Y4709D01*
X4379D01*
X4369Y4719D01*
X5173Y4769D02*
Y4709D01*
X5203D01*
X5213Y4719D01*
Y4759D01*
X5203Y4769D01*
X5173D01*
X5273Y4759D02*
X5263Y4769D01*
X5243D01*
X5233Y4759D01*
Y4749D01*
X5243Y4739D01*
X5263D01*
X5273Y4729D01*
Y4719D01*
X5263Y4709D01*
X5243D01*
X5233Y4719D01*
X5333Y4769D02*
X5293D01*
Y4739D01*
X5313Y4749D01*
X5323D01*
X5333Y4739D01*
Y4719D01*
X5323Y4709D01*
X5303D01*
X5293Y4719D01*
X5383Y4709D02*
Y4769D01*
X5353Y4739D01*
X5393D01*
X6157Y4769D02*
Y4709D01*
X6187D01*
X6197Y4719D01*
Y4759D01*
X6187Y4769D01*
X6157D01*
X6257Y4759D02*
X6247Y4769D01*
X6227D01*
X6217Y4759D01*
Y4749D01*
X6227Y4739D01*
X6247D01*
X6257Y4729D01*
Y4719D01*
X6247Y4709D01*
X6227D01*
X6217Y4719D01*
X6317Y4769D02*
X6277D01*
Y4739D01*
X6297Y4749D01*
X6307D01*
X6317Y4739D01*
Y4719D01*
X6307Y4709D01*
X6287D01*
X6277Y4719D01*
X6377Y4769D02*
X6337D01*
Y4739D01*
X6357Y4749D01*
X6367D01*
X6377Y4739D01*
Y4719D01*
X6367Y4709D01*
X6347D01*
X6337Y4719D01*
X7141Y4769D02*
Y4709D01*
X7171D01*
X7181Y4719D01*
Y4759D01*
X7171Y4769D01*
X7141D01*
X7241Y4759D02*
X7231Y4769D01*
X7211D01*
X7201Y4759D01*
Y4749D01*
X7211Y4739D01*
X7231D01*
X7241Y4729D01*
Y4719D01*
X7231Y4709D01*
X7211D01*
X7201Y4719D01*
X7301Y4769D02*
X7261D01*
Y4739D01*
X7281Y4749D01*
X7291D01*
X7301Y4739D01*
Y4719D01*
X7291Y4709D01*
X7271D01*
X7261Y4719D01*
X7361Y4769D02*
X7341Y4759D01*
X7321Y4739D01*
Y4719D01*
X7331Y4709D01*
X7351D01*
X7361Y4719D01*
Y4729D01*
X7351Y4739D01*
X7321D01*
X646Y3865D02*
Y3805D01*
X676D01*
X686Y3815D01*
Y3855D01*
X676Y3865D01*
X646D01*
X746Y3855D02*
X736Y3865D01*
X716D01*
X706Y3855D01*
Y3845D01*
X716Y3835D01*
X736D01*
X746Y3825D01*
Y3815D01*
X736Y3805D01*
X716D01*
X706Y3815D01*
X806Y3865D02*
X766D01*
Y3835D01*
X786Y3845D01*
X796D01*
X806Y3835D01*
Y3815D01*
X796Y3805D01*
X776D01*
X766Y3815D01*
X826Y3865D02*
X866D01*
Y3855D01*
X826Y3815D01*
Y3805D01*
X1722Y4755D02*
Y4695D01*
X1752D01*
X1762Y4705D01*
Y4745D01*
X1752Y4755D01*
X1722D01*
X1822Y4745D02*
X1812Y4755D01*
X1792D01*
X1782Y4745D01*
Y4735D01*
X1792Y4725D01*
X1812D01*
X1822Y4715D01*
Y4705D01*
X1812Y4695D01*
X1792D01*
X1782Y4705D01*
X1882Y4755D02*
X1842D01*
Y4725D01*
X1862Y4735D01*
X1872D01*
X1882Y4725D01*
Y4705D01*
X1872Y4695D01*
X1852D01*
X1842Y4705D01*
X1902Y4745D02*
X1912Y4755D01*
X1932D01*
X1942Y4745D01*
Y4735D01*
X1932Y4725D01*
X1942Y4715D01*
Y4705D01*
X1932Y4695D01*
X1912D01*
X1902Y4705D01*
Y4715D01*
X1912Y4725D01*
X1902Y4735D01*
Y4745D01*
X1912Y4725D02*
X1932D01*
X2707Y4755D02*
Y4695D01*
X2737D01*
X2747Y4705D01*
Y4745D01*
X2737Y4755D01*
X2707D01*
X2807Y4745D02*
X2797Y4755D01*
X2777D01*
X2767Y4745D01*
Y4735D01*
X2777Y4725D01*
X2797D01*
X2807Y4715D01*
Y4705D01*
X2797Y4695D01*
X2777D01*
X2767Y4705D01*
X2867Y4755D02*
X2827D01*
Y4725D01*
X2847Y4735D01*
X2857D01*
X2867Y4725D01*
Y4705D01*
X2857Y4695D01*
X2837D01*
X2827Y4705D01*
X2887D02*
X2897Y4695D01*
X2917D01*
X2927Y4705D01*
Y4745D01*
X2917Y4755D01*
X2897D01*
X2887Y4745D01*
Y4735D01*
X2897Y4725D01*
X2927D01*
X3697Y4769D02*
Y4709D01*
X3727D01*
X3737Y4719D01*
Y4759D01*
X3727Y4769D01*
X3697D01*
X3797Y4759D02*
X3787Y4769D01*
X3767D01*
X3757Y4759D01*
Y4749D01*
X3767Y4739D01*
X3787D01*
X3797Y4729D01*
Y4719D01*
X3787Y4709D01*
X3767D01*
X3757Y4719D01*
X3857Y4769D02*
X3837Y4759D01*
X3817Y4739D01*
Y4719D01*
X3827Y4709D01*
X3847D01*
X3857Y4719D01*
Y4729D01*
X3847Y4739D01*
X3817D01*
X3877Y4759D02*
X3887Y4769D01*
X3907D01*
X3917Y4759D01*
Y4719D01*
X3907Y4709D01*
X3887D01*
X3877Y4719D01*
Y4759D01*
X4681Y4769D02*
Y4709D01*
X4711D01*
X4721Y4719D01*
Y4759D01*
X4711Y4769D01*
X4681D01*
X4781Y4759D02*
X4771Y4769D01*
X4751D01*
X4741Y4759D01*
Y4749D01*
X4751Y4739D01*
X4771D01*
X4781Y4729D01*
Y4719D01*
X4771Y4709D01*
X4751D01*
X4741Y4719D01*
X4841Y4769D02*
X4821Y4759D01*
X4801Y4739D01*
Y4719D01*
X4811Y4709D01*
X4831D01*
X4841Y4719D01*
Y4729D01*
X4831Y4739D01*
X4801D01*
X4861Y4709D02*
X4881D01*
X4871D01*
Y4769D01*
X4861Y4759D01*
X5665Y4769D02*
Y4709D01*
X5695D01*
X5705Y4719D01*
Y4759D01*
X5695Y4769D01*
X5665D01*
X5765Y4759D02*
X5755Y4769D01*
X5735D01*
X5725Y4759D01*
Y4749D01*
X5735Y4739D01*
X5755D01*
X5765Y4729D01*
Y4719D01*
X5755Y4709D01*
X5735D01*
X5725Y4719D01*
X5825Y4769D02*
X5805Y4759D01*
X5785Y4739D01*
Y4719D01*
X5795Y4709D01*
X5815D01*
X5825Y4719D01*
Y4729D01*
X5815Y4739D01*
X5785D01*
X5885Y4709D02*
X5845D01*
X5885Y4749D01*
Y4759D01*
X5875Y4769D01*
X5855D01*
X5845Y4759D01*
X6649Y4769D02*
Y4709D01*
X6679D01*
X6689Y4719D01*
Y4759D01*
X6679Y4769D01*
X6649D01*
X6749Y4759D02*
X6739Y4769D01*
X6719D01*
X6709Y4759D01*
Y4749D01*
X6719Y4739D01*
X6739D01*
X6749Y4729D01*
Y4719D01*
X6739Y4709D01*
X6719D01*
X6709Y4719D01*
X6809Y4769D02*
X6789Y4759D01*
X6769Y4739D01*
Y4719D01*
X6779Y4709D01*
X6799D01*
X6809Y4719D01*
Y4729D01*
X6799Y4739D01*
X6769D01*
X6829Y4759D02*
X6839Y4769D01*
X6859D01*
X6869Y4759D01*
Y4749D01*
X6859Y4739D01*
X6849D01*
X6859D01*
X6869Y4729D01*
Y4719D01*
X6859Y4709D01*
X6839D01*
X6829Y4719D01*
X7634Y4769D02*
Y4709D01*
X7664D01*
X7674Y4719D01*
Y4759D01*
X7664Y4769D01*
X7634D01*
X7734Y4759D02*
X7724Y4769D01*
X7704D01*
X7694Y4759D01*
Y4749D01*
X7704Y4739D01*
X7724D01*
X7734Y4729D01*
Y4719D01*
X7724Y4709D01*
X7704D01*
X7694Y4719D01*
X7794Y4769D02*
X7774Y4759D01*
X7754Y4739D01*
Y4719D01*
X7764Y4709D01*
X7784D01*
X7794Y4719D01*
Y4729D01*
X7784Y4739D01*
X7754D01*
X7844Y4709D02*
Y4769D01*
X7814Y4739D01*
X7854D01*
X8661Y1427D02*
Y1487D01*
X8691D01*
X8701Y1477D01*
Y1457D01*
X8691Y1447D01*
X8661D01*
X8721Y1427D02*
X8741D01*
X8731D01*
Y1487D01*
X8721Y1477D01*
X8661Y1821D02*
Y1881D01*
X8691D01*
X8701Y1871D01*
Y1851D01*
X8691Y1841D01*
X8661D01*
X8761Y1821D02*
X8721D01*
X8761Y1861D01*
Y1871D01*
X8751Y1881D01*
X8731D01*
X8721Y1871D01*
X8711Y3199D02*
Y3259D01*
X8741D01*
X8751Y3249D01*
Y3229D01*
X8741Y3219D01*
X8711D01*
X8771Y3249D02*
X8781Y3259D01*
X8801D01*
X8811Y3249D01*
Y3239D01*
X8801Y3229D01*
X8791D01*
X8801D01*
X8811Y3219D01*
Y3209D01*
X8801Y3199D01*
X8781D01*
X8771Y3209D01*
X8120Y4281D02*
Y4341D01*
X8150D01*
X8160Y4331D01*
Y4311D01*
X8150Y4301D01*
X8120D01*
X8210Y4281D02*
Y4341D01*
X8180Y4311D01*
X8220D01*
X11100Y2730D02*
Y2790D01*
X11130D01*
X11140Y2780D01*
Y2760D01*
X11130Y2750D01*
X11100D01*
X11120D02*
X11140Y2730D01*
X11160D02*
X11180D01*
X11170D01*
Y2790D01*
X11160Y2780D01*
X9920Y12376D02*
Y12436D01*
X9950D01*
X9960Y12426D01*
Y12406D01*
X9950Y12396D01*
X9920D01*
X9940D02*
X9960Y12376D01*
X10019D02*
X9979D01*
X10019Y12416D01*
Y12426D01*
X10009Y12436D01*
X9989D01*
X9979Y12426D01*
X175Y6274D02*
Y6334D01*
X205D01*
X215Y6324D01*
Y6304D01*
X205Y6294D01*
X175D01*
X195D02*
X215Y6274D01*
X235Y6324D02*
X245Y6334D01*
X265D01*
X275Y6324D01*
Y6314D01*
X265Y6304D01*
X255D01*
X265D01*
X275Y6294D01*
Y6284D01*
X265Y6274D01*
X245D01*
X235Y6284D01*
X8738Y11786D02*
Y11846D01*
X8768D01*
X8778Y11836D01*
Y11816D01*
X8768Y11806D01*
X8738D01*
X8758D02*
X8778Y11786D01*
X8827D02*
Y11846D01*
X8797Y11816D01*
X8837D01*
X165Y6077D02*
Y6137D01*
X195D01*
X205Y6127D01*
Y6107D01*
X195Y6097D01*
X165D01*
X185D02*
X205Y6077D01*
X265Y6137D02*
X225D01*
Y6107D01*
X245Y6117D01*
X255D01*
X265Y6107D01*
Y6087D01*
X255Y6077D01*
X235D01*
X225Y6087D01*
X175Y6963D02*
Y7023D01*
X205D01*
X215Y7013D01*
Y6993D01*
X205Y6983D01*
X175D01*
X195D02*
X215Y6963D01*
X274Y7023D02*
X254Y7013D01*
X235Y6993D01*
Y6973D01*
X244Y6963D01*
X264D01*
X274Y6973D01*
Y6983D01*
X264Y6993D01*
X235D01*
X2116Y4892D02*
Y4952D01*
X2146D01*
X2156Y4942D01*
Y4922D01*
X2146Y4912D01*
X2116D01*
X2136D02*
X2156Y4892D01*
X2176Y4952D02*
X2216D01*
Y4942D01*
X2176Y4902D01*
Y4892D01*
X2726Y4882D02*
Y4942D01*
X2756D01*
X2766Y4932D01*
Y4912D01*
X2756Y4902D01*
X2726D01*
X2746D02*
X2766Y4882D01*
X2786Y4932D02*
X2796Y4942D01*
X2816D01*
X2826Y4932D01*
Y4922D01*
X2816Y4912D01*
X2826Y4902D01*
Y4892D01*
X2816Y4882D01*
X2796D01*
X2786Y4892D01*
Y4902D01*
X2796Y4912D01*
X2786Y4922D01*
Y4932D01*
X2796Y4912D02*
X2816D01*
X1329Y4892D02*
Y4952D01*
X1359D01*
X1369Y4942D01*
Y4922D01*
X1359Y4912D01*
X1329D01*
X1349D02*
X1369Y4892D01*
X1389Y4902D02*
X1399Y4892D01*
X1419D01*
X1429Y4902D01*
Y4942D01*
X1419Y4952D01*
X1399D01*
X1389Y4942D01*
Y4932D01*
X1399Y4922D01*
X1429D01*
X11090Y10998D02*
Y11058D01*
X11120D01*
X11130Y11048D01*
Y11028D01*
X11120Y11018D01*
X11090D01*
X11110D02*
X11130Y10998D01*
X11150D02*
X11170D01*
X11160D01*
Y11058D01*
X11150Y11048D01*
X11200D02*
X11210Y11058D01*
X11230D01*
X11240Y11048D01*
Y11008D01*
X11230Y10998D01*
X11210D01*
X11200Y11008D01*
Y11048D01*
X10804Y270D02*
Y330D01*
X10834D01*
X10844Y320D01*
Y300D01*
X10834Y290D01*
X10804D01*
X10824D02*
X10844Y270D01*
X10864D02*
X10884D01*
X10874D01*
Y330D01*
X10864Y320D01*
X10914Y270D02*
X10934D01*
X10924D01*
Y330D01*
X10914Y320D01*
X11100Y10310D02*
Y10370D01*
X11130D01*
X11140Y10360D01*
Y10340D01*
X11130Y10330D01*
X11100D01*
X11120D02*
X11140Y10310D01*
X11160D02*
X11180D01*
X11170D01*
Y10370D01*
X11160Y10360D01*
X11250Y10310D02*
X11210D01*
X11250Y10350D01*
Y10360D01*
X11240Y10370D01*
X11220D01*
X11210Y10360D01*
X8622Y11191D02*
Y11251D01*
X8652D01*
X8662Y11241D01*
Y11221D01*
X8652Y11211D01*
X8622D01*
X8642D02*
X8662Y11191D01*
X8682D02*
X8702D01*
X8692D01*
Y11251D01*
X8682Y11241D01*
X8732D02*
X8742Y11251D01*
X8762D01*
X8772Y11241D01*
Y11231D01*
X8762Y11221D01*
X8752D01*
X8762D01*
X8772Y11211D01*
Y11201D01*
X8762Y11191D01*
X8742D01*
X8732Y11201D01*
X11329Y7844D02*
Y7904D01*
X11359D01*
X11369Y7894D01*
Y7874D01*
X11359Y7864D01*
X11329D01*
X11349D02*
X11369Y7844D01*
X11389D02*
X11409D01*
X11399D01*
Y7904D01*
X11389Y7894D01*
X11469Y7844D02*
Y7904D01*
X11439Y7874D01*
X11479D01*
X9909Y12573D02*
Y12633D01*
X9939D01*
X9949Y12623D01*
Y12603D01*
X9939Y12593D01*
X9909D01*
X9929D02*
X9949Y12573D01*
X9969D02*
X9989D01*
X9979D01*
Y12633D01*
X9969Y12623D01*
X10059Y12633D02*
X10019D01*
Y12603D01*
X10039Y12613D01*
X10049D01*
X10059Y12603D01*
Y12583D01*
X10049Y12573D01*
X10029D01*
X10019Y12583D01*
X10805Y467D02*
Y527D01*
X10835D01*
X10845Y517D01*
Y497D01*
X10835Y487D01*
X10805D01*
X10825D02*
X10845Y467D01*
X10865D02*
X10885D01*
X10875D01*
Y527D01*
X10865Y517D01*
X10955Y527D02*
X10935Y517D01*
X10915Y497D01*
Y477D01*
X10925Y467D01*
X10945D01*
X10955Y477D01*
Y487D01*
X10945Y497D01*
X10915D01*
X11096Y10506D02*
Y10566D01*
X11126D01*
X11136Y10556D01*
Y10536D01*
X11126Y10526D01*
X11096D01*
X11116D02*
X11136Y10506D01*
X11156D02*
X11176D01*
X11166D01*
Y10566D01*
X11156Y10556D01*
X11206Y10566D02*
X11246D01*
Y10556D01*
X11206Y10516D01*
Y10506D01*
X10608Y7751D02*
Y7811D01*
X10638D01*
X10648Y7801D01*
Y7781D01*
X10638Y7771D01*
X10608D01*
X10628D02*
X10648Y7751D01*
X10668D02*
X10688D01*
X10678D01*
Y7811D01*
X10668Y7801D01*
X10718D02*
X10728Y7811D01*
X10748D01*
X10758Y7801D01*
Y7791D01*
X10748Y7781D01*
X10758Y7771D01*
Y7761D01*
X10748Y7751D01*
X10728D01*
X10718Y7761D01*
Y7771D01*
X10728Y7781D01*
X10718Y7791D01*
Y7801D01*
X10728Y7781D02*
X10748D01*
X11100Y10113D02*
Y10173D01*
X11130D01*
X11140Y10163D01*
Y10143D01*
X11130Y10133D01*
X11100D01*
X11120D02*
X11140Y10113D01*
X11160D02*
X11180D01*
X11170D01*
Y10173D01*
X11160Y10163D01*
X11210Y10123D02*
X11220Y10113D01*
X11240D01*
X11250Y10123D01*
Y10163D01*
X11240Y10173D01*
X11220D01*
X11210Y10163D01*
Y10153D01*
X11220Y10143D01*
X11250D01*
X11329Y7648D02*
Y7708D01*
X11359D01*
X11369Y7698D01*
Y7678D01*
X11359Y7668D01*
X11329D01*
X11349D02*
X11369Y7648D01*
X11429D02*
X11389D01*
X11429Y7688D01*
Y7698D01*
X11419Y7708D01*
X11399D01*
X11389Y7698D01*
X11449D02*
X11459Y7708D01*
X11479D01*
X11489Y7698D01*
Y7658D01*
X11479Y7648D01*
X11459D01*
X11449Y7658D01*
Y7698D01*
X11329Y7451D02*
Y7511D01*
X11359D01*
X11369Y7501D01*
Y7481D01*
X11359Y7471D01*
X11329D01*
X11349D02*
X11369Y7451D01*
X11429D02*
X11389D01*
X11429Y7491D01*
Y7501D01*
X11419Y7511D01*
X11399D01*
X11389Y7501D01*
X11449Y7451D02*
X11469D01*
X11459D01*
Y7511D01*
X11449Y7501D01*
X10157Y5876D02*
Y5936D01*
X10187D01*
X10197Y5926D01*
Y5906D01*
X10187Y5896D01*
X10157D01*
X10177D02*
X10197Y5876D01*
X10257D02*
X10217D01*
X10257Y5916D01*
Y5926D01*
X10247Y5936D01*
X10227D01*
X10217Y5926D01*
X10317Y5876D02*
X10277D01*
X10317Y5916D01*
Y5926D01*
X10307Y5936D01*
X10287D01*
X10277Y5926D01*
X10000Y9902D02*
Y9962D01*
X10030D01*
X10040Y9952D01*
Y9932D01*
X10030Y9922D01*
X10000D01*
X10020D02*
X10040Y9902D01*
X10100D02*
X10060D01*
X10100Y9942D01*
Y9952D01*
X10090Y9962D01*
X10070D01*
X10060Y9952D01*
X10120D02*
X10130Y9962D01*
X10150D01*
X10160Y9952D01*
Y9942D01*
X10150Y9932D01*
X10140D01*
X10150D01*
X10160Y9922D01*
Y9912D01*
X10150Y9902D01*
X10130D01*
X10120Y9912D01*
X10707Y6274D02*
Y6334D01*
X10737D01*
X10747Y6324D01*
Y6304D01*
X10737Y6294D01*
X10707D01*
X10727D02*
X10747Y6274D01*
X10807D02*
X10767D01*
X10807Y6314D01*
Y6324D01*
X10797Y6334D01*
X10777D01*
X10767Y6324D01*
X10857Y6274D02*
Y6334D01*
X10827Y6304D01*
X10867D01*
X10600Y7933D02*
Y7993D01*
X10630D01*
X10640Y7983D01*
Y7963D01*
X10630Y7953D01*
X10600D01*
X10620D02*
X10640Y7933D01*
X10700D02*
X10660D01*
X10700Y7973D01*
Y7983D01*
X10690Y7993D01*
X10670D01*
X10660Y7983D01*
X10760Y7993D02*
X10720D01*
Y7963D01*
X10740Y7973D01*
X10750D01*
X10760Y7963D01*
Y7943D01*
X10750Y7933D01*
X10730D01*
X10720Y7943D01*
X10148Y6457D02*
Y6517D01*
X10178D01*
X10188Y6507D01*
Y6487D01*
X10178Y6477D01*
X10148D01*
X10168D02*
X10188Y6457D01*
X10248D02*
X10208D01*
X10248Y6497D01*
Y6507D01*
X10238Y6517D01*
X10218D01*
X10208Y6507D01*
X10308Y6517D02*
X10288Y6507D01*
X10268Y6487D01*
Y6467D01*
X10278Y6457D01*
X10298D01*
X10308Y6467D01*
Y6477D01*
X10298Y6487D01*
X10268D01*
X10214Y6274D02*
Y6334D01*
X10244D01*
X10254Y6324D01*
Y6304D01*
X10244Y6294D01*
X10214D01*
X10234D02*
X10254Y6274D01*
X10314D02*
X10274D01*
X10314Y6314D01*
Y6324D01*
X10304Y6334D01*
X10284D01*
X10274Y6324D01*
X10334Y6334D02*
X10374D01*
Y6324D01*
X10334Y6284D01*
Y6274D01*
X11100Y4699D02*
Y4759D01*
X11130D01*
X11140Y4749D01*
Y4729D01*
X11130Y4719D01*
X11100D01*
X11120D02*
X11140Y4699D01*
X11200D02*
X11160D01*
X11200Y4739D01*
Y4749D01*
X11190Y4759D01*
X11170D01*
X11160Y4749D01*
X11220D02*
X11230Y4759D01*
X11250D01*
X11260Y4749D01*
Y4739D01*
X11250Y4729D01*
X11260Y4719D01*
Y4709D01*
X11250Y4699D01*
X11230D01*
X11220Y4709D01*
Y4719D01*
X11230Y4729D01*
X11220Y4739D01*
Y4749D01*
X11230Y4729D02*
X11250D01*
X11100Y4109D02*
Y4169D01*
X11130D01*
X11140Y4159D01*
Y4139D01*
X11130Y4129D01*
X11100D01*
X11120D02*
X11140Y4109D01*
X11200D02*
X11160D01*
X11200Y4149D01*
Y4159D01*
X11190Y4169D01*
X11170D01*
X11160Y4159D01*
X11220Y4119D02*
X11230Y4109D01*
X11250D01*
X11260Y4119D01*
Y4159D01*
X11250Y4169D01*
X11230D01*
X11220Y4159D01*
Y4149D01*
X11230Y4139D01*
X11260D01*
X11100Y4503D02*
Y4563D01*
X11130D01*
X11140Y4553D01*
Y4533D01*
X11130Y4523D01*
X11100D01*
X11120D02*
X11140Y4503D01*
X11160Y4553D02*
X11170Y4563D01*
X11190D01*
X11200Y4553D01*
Y4543D01*
X11190Y4533D01*
X11180D01*
X11190D01*
X11200Y4523D01*
Y4513D01*
X11190Y4503D01*
X11170D01*
X11160Y4513D01*
X11220Y4553D02*
X11230Y4563D01*
X11250D01*
X11260Y4553D01*
Y4513D01*
X11250Y4503D01*
X11230D01*
X11220Y4513D01*
Y4553D01*
X11100Y4306D02*
Y4366D01*
X11130D01*
X11140Y4356D01*
Y4336D01*
X11130Y4326D01*
X11100D01*
X11120D02*
X11140Y4306D01*
X11160Y4356D02*
X11170Y4366D01*
X11190D01*
X11200Y4356D01*
Y4346D01*
X11190Y4336D01*
X11180D01*
X11190D01*
X11200Y4326D01*
Y4316D01*
X11190Y4306D01*
X11170D01*
X11160Y4316D01*
X11220Y4306D02*
X11240D01*
X11230D01*
Y4366D01*
X11220Y4356D01*
X10510Y2731D02*
Y2791D01*
X10540D01*
X10550Y2781D01*
Y2761D01*
X10540Y2751D01*
X10510D01*
X10530D02*
X10550Y2731D01*
X10570Y2781D02*
X10580Y2791D01*
X10600D01*
X10610Y2781D01*
Y2771D01*
X10600Y2761D01*
X10590D01*
X10600D01*
X10610Y2751D01*
Y2741D01*
X10600Y2731D01*
X10580D01*
X10570Y2741D01*
X10670Y2731D02*
X10630D01*
X10670Y2771D01*
Y2781D01*
X10660Y2791D01*
X10640D01*
X10630Y2781D01*
X7754Y10014D02*
Y10074D01*
X7784D01*
X7794Y10064D01*
Y10044D01*
X7784Y10034D01*
X7754D01*
X7774D02*
X7794Y10014D01*
X7814Y10064D02*
X7824Y10074D01*
X7844D01*
X7854Y10064D01*
Y10054D01*
X7844Y10044D01*
X7834D01*
X7844D01*
X7854Y10034D01*
Y10024D01*
X7844Y10014D01*
X7824D01*
X7814Y10024D01*
X7874Y10064D02*
X7884Y10074D01*
X7904D01*
X7914Y10064D01*
Y10054D01*
X7904Y10044D01*
X7894D01*
X7904D01*
X7914Y10034D01*
Y10024D01*
X7904Y10014D01*
X7884D01*
X7874Y10024D01*
X10707Y6471D02*
Y6531D01*
X10737D01*
X10747Y6521D01*
Y6501D01*
X10737Y6491D01*
X10707D01*
X10727D02*
X10747Y6471D01*
X10767Y6521D02*
X10777Y6531D01*
X10797D01*
X10807Y6521D01*
Y6511D01*
X10797Y6501D01*
X10787D01*
X10797D01*
X10807Y6491D01*
Y6481D01*
X10797Y6471D01*
X10777D01*
X10767Y6481D01*
X10856Y6471D02*
Y6531D01*
X10827Y6501D01*
X10866D01*
X11309Y12470D02*
Y12530D01*
X11339D01*
X11349Y12520D01*
Y12500D01*
X11339Y12490D01*
X11309D01*
X11329D02*
X11349Y12470D01*
X11369Y12520D02*
X11379Y12530D01*
X11399D01*
X11409Y12520D01*
Y12510D01*
X11399Y12500D01*
X11389D01*
X11399D01*
X11409Y12490D01*
Y12480D01*
X11399Y12470D01*
X11379D01*
X11369Y12480D01*
X11469Y12530D02*
X11429D01*
Y12500D01*
X11449Y12510D01*
X11459D01*
X11469Y12500D01*
Y12480D01*
X11459Y12470D01*
X11439D01*
X11429Y12480D01*
X9919Y12179D02*
Y12239D01*
X9949D01*
X9959Y12229D01*
Y12209D01*
X9949Y12199D01*
X9919D01*
X9939D02*
X9959Y12179D01*
X9979Y12229D02*
X9989Y12239D01*
X10009D01*
X10019Y12229D01*
Y12219D01*
X10009Y12209D01*
X9999D01*
X10009D01*
X10019Y12199D01*
Y12189D01*
X10009Y12179D01*
X9989D01*
X9979Y12189D01*
X10079Y12239D02*
X10059Y12229D01*
X10039Y12209D01*
Y12189D01*
X10049Y12179D01*
X10069D01*
X10079Y12189D01*
Y12199D01*
X10069Y12209D01*
X10039D01*
X5069Y295D02*
Y355D01*
X5099D01*
X5109Y345D01*
Y325D01*
X5099Y315D01*
X5069D01*
X5089D02*
X5109Y295D01*
X5129Y345D02*
X5139Y355D01*
X5159D01*
X5169Y345D01*
Y335D01*
X5159Y325D01*
X5149D01*
X5159D01*
X5169Y315D01*
Y305D01*
X5159Y295D01*
X5139D01*
X5129Y305D01*
X5189Y355D02*
X5229D01*
Y345D01*
X5189Y305D01*
Y295D01*
X5552Y8219D02*
X5542Y8229D01*
X5522D01*
X5512Y8219D01*
Y8209D01*
X5522Y8199D01*
X5542D01*
X5552Y8189D01*
Y8179D01*
X5542Y8169D01*
X5522D01*
X5512Y8179D01*
X5612Y8229D02*
X5592Y8219D01*
X5572Y8199D01*
Y8179D01*
X5582Y8169D01*
X5602D01*
X5612Y8179D01*
Y8189D01*
X5602Y8199D01*
X5572D01*
X10886Y656D02*
X10876Y666D01*
X10856D01*
X10846Y656D01*
Y646D01*
X10856Y636D01*
X10876D01*
X10886Y626D01*
Y616D01*
X10876Y606D01*
X10856D01*
X10846Y616D01*
X10906Y666D02*
X10946D01*
Y656D01*
X10906Y616D01*
Y606D01*
X9951Y6674D02*
Y6634D01*
X9971Y6614D01*
X9991Y6634D01*
Y6674D01*
X10011D02*
Y6614D01*
X10041D01*
X10051Y6624D01*
Y6664D01*
X10041Y6674D01*
X10011D01*
X10071Y6614D02*
X10091D01*
X10081D01*
Y6674D01*
X10071Y6664D01*
X9931Y6891D02*
Y6851D01*
X9951Y6831D01*
X9971Y6851D01*
Y6891D01*
X9991D02*
Y6831D01*
X10021D01*
X10031Y6841D01*
Y6881D01*
X10021Y6891D01*
X9991D01*
X10091Y6831D02*
X10051D01*
X10091Y6871D01*
Y6881D01*
X10081Y6891D01*
X10061D01*
X10051Y6881D01*
X10187Y7294D02*
Y7254D01*
X10207Y7234D01*
X10227Y7254D01*
Y7294D01*
X10247D02*
X10287D01*
X10267D01*
Y7234D01*
X10307D02*
X10327D01*
X10317D01*
Y7294D01*
X10307Y7284D01*
X10679Y7294D02*
Y7254D01*
X10699Y7234D01*
X10719Y7254D01*
Y7294D01*
X10739D02*
X10779D01*
X10759D01*
Y7234D01*
X10839D02*
X10799D01*
X10839Y7274D01*
Y7284D01*
X10829Y7294D01*
X10809D01*
X10799Y7284D01*
X10974Y12757D02*
X11014Y12697D01*
Y12757D02*
X10974Y12697D01*
X11034D02*
X11054D01*
X11044D01*
Y12757D01*
X11034Y12747D01*
X11104Y12697D02*
X11084Y12717D01*
Y12737D01*
X11104Y12757D01*
X11134Y12697D02*
Y12757D01*
X11164D01*
X11174Y12747D01*
Y12727D01*
X11164Y12717D01*
X11134D01*
X11154D02*
X11174Y12697D01*
X11234Y12757D02*
X11194D01*
Y12697D01*
X11234D01*
X11194Y12727D02*
X11214D01*
X11294Y12747D02*
X11284Y12757D01*
X11264D01*
X11254Y12747D01*
Y12737D01*
X11264Y12727D01*
X11284D01*
X11294Y12717D01*
Y12707D01*
X11284Y12697D01*
X11264D01*
X11254Y12707D01*
X11354Y12757D02*
X11314D01*
Y12697D01*
X11354D01*
X11314Y12727D02*
X11334D01*
X11374Y12757D02*
X11414D01*
X11394D01*
Y12697D01*
X11434D02*
X11454Y12717D01*
Y12737D01*
X11434Y12757D01*
X11024Y10788D02*
X11064Y10728D01*
Y10788D02*
X11024Y10728D01*
X11124D02*
X11084D01*
X11124Y10768D01*
Y10778D01*
X11114Y10788D01*
X11094D01*
X11084Y10778D01*
X11163Y10728D02*
X11144Y10748D01*
Y10768D01*
X11163Y10788D01*
X11233Y10778D02*
X11223Y10788D01*
X11203D01*
X11193Y10778D01*
Y10768D01*
X11203Y10758D01*
X11223D01*
X11233Y10748D01*
Y10738D01*
X11223Y10728D01*
X11203D01*
X11193Y10738D01*
X11253Y10728D02*
Y10788D01*
X11283D01*
X11293Y10778D01*
Y10758D01*
X11283Y10748D01*
X11253D01*
X11353Y10788D02*
X11313D01*
Y10728D01*
X11353D01*
X11313Y10758D02*
X11333D01*
X11373Y10728D02*
Y10768D01*
X11393Y10788D01*
X11413Y10768D01*
Y10728D01*
Y10758D01*
X11373D01*
X11433Y10788D02*
Y10728D01*
Y10748D01*
X11473Y10788D01*
X11443Y10758D01*
X11473Y10728D01*
X11533Y10788D02*
X11493D01*
Y10728D01*
X11533D01*
X11493Y10758D02*
X11513D01*
X11553Y10728D02*
Y10788D01*
X11583D01*
X11593Y10778D01*
Y10758D01*
X11583Y10748D01*
X11553D01*
X11573D02*
X11593Y10728D01*
X11613D02*
X11633Y10748D01*
Y10768D01*
X11613Y10788D01*
X10236Y13003D02*
X10276Y12943D01*
Y13003D02*
X10236Y12943D01*
X10296Y12993D02*
X10306Y13003D01*
X10326D01*
X10336Y12993D01*
Y12983D01*
X10326Y12973D01*
X10316D01*
X10326D01*
X10336Y12963D01*
Y12953D01*
X10326Y12943D01*
X10306D01*
X10296Y12953D01*
X10376Y12943D02*
X10356Y12963D01*
Y12983D01*
X10376Y13003D01*
X10406D02*
Y12943D01*
Y12963D01*
X10446Y13003D01*
X10416Y12973D01*
X10446Y12943D01*
X10506Y13003D02*
X10466D01*
Y12943D01*
X10506D01*
X10466Y12973D02*
X10486D01*
X10526Y13003D02*
Y12993D01*
X10546Y12973D01*
X10566Y12993D01*
Y13003D01*
X10546Y12973D02*
Y12943D01*
X10586Y13003D02*
Y12943D01*
X10616D01*
X10626Y12953D01*
Y12963D01*
X10616Y12973D01*
X10586D01*
X10616D01*
X10626Y12983D01*
Y12993D01*
X10616Y13003D01*
X10586D01*
X10646D02*
Y12943D01*
X10686D01*
X10736Y13003D02*
X10716D01*
X10706Y12993D01*
Y12953D01*
X10716Y12943D01*
X10736D01*
X10746Y12953D01*
Y12993D01*
X10736Y13003D01*
X10806Y12993D02*
X10796Y13003D01*
X10776D01*
X10766Y12993D01*
Y12953D01*
X10776Y12943D01*
X10796D01*
X10806Y12953D01*
X10826Y13003D02*
Y12943D01*
Y12963D01*
X10866Y13003D01*
X10836Y12973D01*
X10866Y12943D01*
X10886D02*
X10906Y12963D01*
Y12983D01*
X10886Y13003D01*
X123Y12278D02*
X163Y12218D01*
Y12278D02*
X123Y12218D01*
X183Y12278D02*
X223D01*
Y12268D01*
X183Y12228D01*
Y12218D01*
X923Y12278D02*
X963Y12218D01*
Y12278D02*
X923Y12218D01*
X983Y12268D02*
X993Y12278D01*
X1013D01*
X1023Y12268D01*
Y12258D01*
X1013Y12248D01*
X1023Y12238D01*
Y12228D01*
X1013Y12218D01*
X993D01*
X983Y12228D01*
Y12238D01*
X993Y12248D01*
X983Y12258D01*
Y12268D01*
X993Y12248D02*
X1013D01*
X1723Y12278D02*
X1763Y12218D01*
Y12278D02*
X1723Y12218D01*
X1783Y12228D02*
X1793Y12218D01*
X1813D01*
X1823Y12228D01*
Y12268D01*
X1813Y12278D01*
X1793D01*
X1783Y12268D01*
Y12258D01*
X1793Y12248D01*
X1823D01*
X2523Y12278D02*
X2563Y12218D01*
Y12278D02*
X2523Y12218D01*
X2583D02*
X2603D01*
X2593D01*
Y12278D01*
X2583Y12268D01*
X2633D02*
X2643Y12278D01*
X2663D01*
X2673Y12268D01*
Y12228D01*
X2663Y12218D01*
X2643D01*
X2633Y12228D01*
Y12268D01*
X3323Y12278D02*
X3363Y12218D01*
Y12278D02*
X3323Y12218D01*
X3383D02*
X3403D01*
X3393D01*
Y12278D01*
X3383Y12268D01*
X3433Y12218D02*
X3453D01*
X3443D01*
Y12278D01*
X3433Y12268D01*
X4123Y12278D02*
X4163Y12218D01*
Y12278D02*
X4123Y12218D01*
X4183D02*
X4203D01*
X4193D01*
Y12278D01*
X4183Y12268D01*
X4273Y12218D02*
X4233D01*
X4273Y12258D01*
Y12268D01*
X4263Y12278D01*
X4243D01*
X4233Y12268D01*
X4923Y12278D02*
X4963Y12218D01*
Y12278D02*
X4923Y12218D01*
X4983D02*
X5003D01*
X4993D01*
Y12278D01*
X4983Y12268D01*
X5033D02*
X5043Y12278D01*
X5063D01*
X5073Y12268D01*
Y12258D01*
X5063Y12248D01*
X5053D01*
X5063D01*
X5073Y12238D01*
Y12228D01*
X5063Y12218D01*
X5043D01*
X5033Y12228D01*
X5723Y12278D02*
X5763Y12218D01*
Y12278D02*
X5723Y12218D01*
X5783D02*
X5803D01*
X5793D01*
Y12278D01*
X5783Y12268D01*
X5863Y12218D02*
Y12278D01*
X5833Y12248D01*
X5873D01*
X4478Y295D02*
Y355D01*
X4508D01*
X4518Y345D01*
Y325D01*
X4508Y315D01*
X4478D01*
X4568Y355D02*
X4548D01*
X4538Y345D01*
Y305D01*
X4548Y295D01*
X4568D01*
X4578Y305D01*
Y345D01*
X4568Y355D01*
X4598D02*
Y295D01*
X4618Y315D01*
X4638Y295D01*
Y355D01*
X4698D02*
X4658D01*
Y295D01*
X4698D01*
X4658Y325D02*
X4678D01*
X4718Y295D02*
Y355D01*
X4748D01*
X4758Y345D01*
Y325D01*
X4748Y315D01*
X4718D01*
X4738D02*
X4758Y295D01*
X4838Y355D02*
Y295D01*
X4878D01*
X4938Y355D02*
X4898D01*
Y295D01*
X4938D01*
X4898Y325D02*
X4918D01*
X4958Y355D02*
Y295D01*
X4988D01*
X4998Y305D01*
Y345D01*
X4988Y355D01*
X4958D01*
X6791Y13003D02*
X6831Y12943D01*
Y13003D02*
X6791Y12943D01*
X6881D02*
Y13003D01*
X6851Y12973D01*
X6891D01*
X335Y5020D02*
X325Y5030D01*
X305D01*
X295Y5020D01*
Y5010D01*
X305Y5000D01*
X325D01*
X335Y4990D01*
Y4980D01*
X325Y4970D01*
X305D01*
X295Y4980D01*
X355Y4970D02*
X375D01*
X365D01*
Y5030D01*
X355Y5020D01*
X3642Y289D02*
Y249D01*
Y269D01*
X3652Y279D01*
X3662Y289D01*
X3672D01*
X3732Y249D02*
X3712D01*
X3702Y259D01*
Y279D01*
X3712Y289D01*
X3732D01*
X3742Y279D01*
Y269D01*
X3702D01*
X3762Y289D02*
X3782Y249D01*
X3802Y289D01*
X3822Y249D02*
Y259D01*
X3832D01*
Y249D01*
X3822D01*
X3932D02*
X3952D01*
X3942D01*
Y309D01*
X3932Y299D01*
X3982Y249D02*
Y259D01*
X3992D01*
Y249D01*
X3982D01*
X4032Y299D02*
X4042Y309D01*
X4062D01*
X4072Y299D01*
Y259D01*
X4062Y249D01*
X4042D01*
X4032Y259D01*
Y299D01*
X10965Y7263D02*
Y7303D01*
X10905D01*
Y7263D01*
X10935Y7303D02*
Y7283D01*
X11034Y7362D02*
X11044Y7372D01*
Y7392D01*
X11034Y7402D01*
X10994D01*
X10984Y7392D01*
Y7372D01*
X10994Y7362D01*
X10965Y7500D02*
X10905D01*
Y7470D01*
X10915Y7460D01*
X10925D01*
X10935Y7470D01*
Y7500D01*
Y7470D01*
X10945Y7460D01*
X10955D01*
X10965Y7470D01*
Y7500D01*
X10473Y7263D02*
Y7303D01*
X10413D01*
Y7263D01*
X10443Y7303D02*
Y7283D01*
X10542Y7362D02*
X10552Y7372D01*
Y7392D01*
X10542Y7402D01*
X10502D01*
X10492Y7392D01*
Y7372D01*
X10502Y7362D01*
X10473Y7500D02*
X10413D01*
Y7470D01*
X10423Y7460D01*
X10433D01*
X10443Y7470D01*
Y7500D01*
Y7470D01*
X10453Y7460D01*
X10463D01*
X10473Y7470D01*
Y7500D01*
X6260Y353D02*
X6250Y363D01*
X6230D01*
X6220Y353D01*
Y313D01*
X6230Y303D01*
X6250D01*
X6260Y313D01*
X6310Y363D02*
X6290D01*
X6280Y353D01*
Y313D01*
X6290Y303D01*
X6310D01*
X6320Y313D01*
Y353D01*
X6310Y363D01*
X6340Y303D02*
Y363D01*
X6380Y303D01*
Y363D01*
X6440D02*
X6400D01*
Y333D01*
X6420D01*
X6400D01*
Y303D01*
X6460Y363D02*
X6480D01*
X6470D01*
Y303D01*
X6460D01*
X6480D01*
X6550Y353D02*
X6540Y363D01*
X6520D01*
X6510Y353D01*
Y313D01*
X6520Y303D01*
X6540D01*
X6550Y313D01*
Y333D01*
X6530D01*
X6670Y363D02*
X6630D01*
Y333D01*
X6650D01*
X6630D01*
Y303D01*
X6720Y363D02*
X6700D01*
X6690Y353D01*
Y313D01*
X6700Y303D01*
X6720D01*
X6730Y313D01*
Y353D01*
X6720Y363D01*
X6750Y303D02*
Y363D01*
X6780D01*
X6790Y353D01*
Y333D01*
X6780Y323D01*
X6750D01*
X6770D02*
X6790Y303D01*
X6870D02*
Y363D01*
X6890Y343D01*
X6910Y363D01*
Y303D01*
X6970Y363D02*
X6930D01*
Y303D01*
X6970D01*
X6930Y333D02*
X6950D01*
X6990Y303D02*
Y363D01*
X7010Y343D01*
X7030Y363D01*
Y303D01*
X7080Y363D02*
X7060D01*
X7050Y353D01*
Y313D01*
X7060Y303D01*
X7080D01*
X7090Y313D01*
Y353D01*
X7080Y363D01*
X7110Y303D02*
Y363D01*
X7140D01*
X7150Y353D01*
Y333D01*
X7140Y323D01*
X7110D01*
X7130D02*
X7150Y303D01*
X7170Y363D02*
Y353D01*
X7190Y333D01*
X7210Y353D01*
Y363D01*
X7190Y333D02*
Y303D01*
X7290Y363D02*
Y303D01*
X7320D01*
X7330Y313D01*
Y323D01*
X7320Y333D01*
X7290D01*
X7320D01*
X7330Y343D01*
Y353D01*
X7320Y363D01*
X7290D01*
X7350Y303D02*
Y343D01*
X7370Y363D01*
X7390Y343D01*
Y303D01*
Y333D01*
X7350D01*
X7410Y303D02*
Y363D01*
X7450Y303D01*
Y363D01*
X7470D02*
Y303D01*
Y323D01*
X7510Y363D01*
X7480Y333D01*
X7510Y303D01*
X7570Y353D02*
X7560Y363D01*
X7540D01*
X7530Y353D01*
Y343D01*
X7540Y333D01*
X7560D01*
X7570Y323D01*
Y313D01*
X7560Y303D01*
X7540D01*
X7530Y313D01*
X7590Y343D02*
X7600D01*
Y333D01*
X7590D01*
Y343D01*
Y313D02*
X7600D01*
Y303D01*
X7590D01*
Y313D01*
X7700Y303D02*
Y363D01*
X7730D01*
X7740Y353D01*
Y333D01*
X7730Y323D01*
X7700D01*
X7760Y303D02*
X7780D01*
X7770D01*
Y363D01*
X7760Y353D01*
X7820Y293D02*
X7830Y303D01*
Y313D01*
X7820D01*
Y303D01*
X7830D01*
X7820Y293D01*
X7810Y283D01*
X7930Y303D02*
Y363D01*
X7960D01*
X7970Y353D01*
Y333D01*
X7960Y323D01*
X7930D01*
X8030Y303D02*
X7990D01*
X8030Y343D01*
Y353D01*
X8020Y363D01*
X8000D01*
X7990Y353D01*
X8060Y293D02*
X8070Y303D01*
Y313D01*
X8060D01*
Y303D01*
X8070D01*
X8060Y293D01*
X8050Y283D01*
X8170Y303D02*
Y363D01*
X8200D01*
X8210Y353D01*
Y333D01*
X8200Y323D01*
X8170D01*
X8230Y353D02*
X8240Y363D01*
X8260D01*
X8270Y353D01*
Y343D01*
X8260Y333D01*
X8250D01*
X8260D01*
X8270Y323D01*
Y313D01*
X8260Y303D01*
X8240D01*
X8230Y313D01*
X8300Y293D02*
X8310Y303D01*
Y313D01*
X8300D01*
Y303D01*
X8310D01*
X8300Y293D01*
X8290Y283D01*
X8410Y303D02*
Y363D01*
X8440D01*
X8450Y353D01*
Y333D01*
X8440Y323D01*
X8410D01*
X8500Y303D02*
Y363D01*
X8470Y333D01*
X8510D01*
X6890Y11693D02*
Y11753D01*
X6920D01*
X6930Y11743D01*
Y11723D01*
X6920Y11713D01*
X6890D01*
X6990Y11743D02*
X6980Y11753D01*
X6960D01*
X6950Y11743D01*
Y11703D01*
X6960Y11693D01*
X6980D01*
X6990Y11703D01*
Y11723D01*
X6970D01*
X7040Y11753D02*
X7020D01*
X7010Y11743D01*
Y11703D01*
X7020Y11693D01*
X7040D01*
X7050Y11703D01*
Y11743D01*
X7040Y11753D01*
X7100D02*
X7080D01*
X7070Y11743D01*
Y11703D01*
X7080Y11693D01*
X7100D01*
X7110Y11703D01*
Y11743D01*
X7100Y11753D01*
X7130D02*
Y11693D01*
X7160D01*
X7170Y11703D01*
Y11743D01*
X7160Y11753D01*
X7130D01*
X6890Y11565D02*
X6930D01*
X6910Y11585D02*
Y11545D01*
X6990Y11595D02*
X6950D01*
Y11565D01*
X6970Y11575D01*
X6980D01*
X6990Y11565D01*
Y11545D01*
X6980Y11535D01*
X6960D01*
X6950Y11545D01*
X7010Y11595D02*
Y11555D01*
X7030Y11535D01*
X7050Y11555D01*
Y11595D01*
X6890Y11408D02*
X6930D01*
X6910Y11428D02*
Y11388D01*
X6950Y11378D02*
X6970D01*
X6960D01*
Y11438D01*
X6950Y11428D01*
X7040Y11378D02*
X7000D01*
X7040Y11418D01*
Y11428D01*
X7030Y11438D01*
X7010D01*
X7000Y11428D01*
X7060Y11438D02*
Y11398D01*
X7080Y11378D01*
X7100Y11398D01*
Y11438D01*
X6890Y11250D02*
X6930D01*
X6950Y11220D02*
X6970D01*
X6960D01*
Y11280D01*
X6950Y11270D01*
X7040Y11220D02*
X7000D01*
X7040Y11260D01*
Y11270D01*
X7030Y11280D01*
X7010D01*
X7000Y11270D01*
X7060Y11280D02*
Y11240D01*
X7080Y11220D01*
X7100Y11240D01*
Y11280D01*
X6930Y11113D02*
X6920Y11123D01*
X6900D01*
X6890Y11113D01*
Y11073D01*
X6900Y11063D01*
X6920D01*
X6930Y11073D01*
Y11093D01*
X6910D01*
X6950Y11063D02*
Y11123D01*
X6990Y11063D01*
Y11123D01*
X7010D02*
Y11063D01*
X7040D01*
X7050Y11073D01*
Y11113D01*
X7040Y11123D01*
X7010D01*
X6930Y10955D02*
X6920Y10965D01*
X6900D01*
X6890Y10955D01*
Y10916D01*
X6900Y10906D01*
X6920D01*
X6930Y10916D01*
Y10936D01*
X6910D01*
X6950Y10906D02*
Y10965D01*
X6990Y10906D01*
Y10965D01*
X7010D02*
Y10906D01*
X7040D01*
X7050Y10916D01*
Y10955D01*
X7040Y10965D01*
X7010D01*
X6930Y10798D02*
X6920Y10808D01*
X6900D01*
X6890Y10798D01*
Y10758D01*
X6900Y10748D01*
X6920D01*
X6930Y10758D01*
Y10778D01*
X6910D01*
X6950Y10748D02*
Y10808D01*
X6990Y10748D01*
Y10808D01*
X7010D02*
Y10748D01*
X7040D01*
X7050Y10758D01*
Y10798D01*
X7040Y10808D01*
X7010D01*
X6930Y10641D02*
X6920Y10651D01*
X6900D01*
X6890Y10641D01*
Y10601D01*
X6900Y10591D01*
X6920D01*
X6930Y10601D01*
Y10621D01*
X6910D01*
X6950Y10591D02*
Y10651D01*
X6990Y10591D01*
Y10651D01*
X7010D02*
Y10591D01*
X7040D01*
X7050Y10601D01*
Y10641D01*
X7040Y10651D01*
X7010D01*
X6890Y10463D02*
X6930D01*
X6990Y10493D02*
X6950D01*
Y10463D01*
X6970Y10473D01*
X6980D01*
X6990Y10463D01*
Y10443D01*
X6980Y10433D01*
X6960D01*
X6950Y10443D01*
X7010Y10493D02*
Y10453D01*
X7030Y10433D01*
X7050Y10453D01*
Y10493D01*
X6890Y10306D02*
X6930D01*
X6910Y10326D02*
Y10286D01*
X6990Y10336D02*
X6950D01*
Y10306D01*
X6970Y10316D01*
X6980D01*
X6990Y10306D01*
Y10286D01*
X6980Y10276D01*
X6960D01*
X6950Y10286D01*
X7010Y10336D02*
Y10296D01*
X7030Y10276D01*
X7050Y10296D01*
Y10336D01*
X6890Y10148D02*
X6930D01*
X6910Y10168D02*
Y10128D01*
X6990Y10178D02*
X6950D01*
Y10148D01*
X6970Y10158D01*
X6980D01*
X6990Y10148D01*
Y10128D01*
X6980Y10118D01*
X6960D01*
X6950Y10128D01*
X7010Y10178D02*
Y10138D01*
X7030Y10118D01*
X7050Y10138D01*
Y10178D01*
X6890Y9991D02*
X6930D01*
X6910Y10011D02*
Y9971D01*
X6990Y10021D02*
X6950D01*
Y9991D01*
X6970Y10001D01*
X6980D01*
X6990Y9991D01*
Y9971D01*
X6980Y9961D01*
X6960D01*
X6950Y9971D01*
X7010Y10021D02*
Y9981D01*
X7030Y9961D01*
X7050Y9981D01*
Y10021D01*
D55*
X8391Y2510D02*
G03*
X8440Y2510I25J0D01*
G01*
X8391Y1427D02*
G03*
X8440Y1427I25J0D01*
G01*
X6668Y6358D02*
G03*
X6717Y6358I25J0D01*
G01*
X7652D02*
G03*
X7702Y6358I25J0D01*
G01*
X6275Y8229D02*
G03*
X6324Y8229I25J0D01*
G01*
X1747Y6954D02*
G03*
X1796Y6954I25J0D01*
G01*
X9523Y9710D02*
G03*
X9572Y9710I25J0D01*
G01*
X8538D02*
G03*
X8588Y9710I25J0D01*
G01*
X2731Y6954D02*
G03*
X2780Y6954I25J0D01*
G01*
X7800Y4675D02*
G03*
X7849Y4675I25J0D01*
G01*
X6816D02*
G03*
X6865Y4675I25J0D01*
G01*
X5832D02*
G03*
X5881Y4675I25J0D01*
G01*
X4847D02*
G03*
X4897Y4675I25J0D01*
G01*
X3863D02*
G03*
X3912Y4675I25J0D01*
G01*
X2879D02*
G03*
X2928Y4675I25J0D01*
G01*
X1895D02*
G03*
X1944Y4675I25J0D01*
G01*
X910D02*
G03*
X960Y4675I25J0D01*
G01*
X7308D02*
G03*
X7357Y4675I25J0D01*
G01*
X6324D02*
G03*
X6373Y4675I25J0D01*
G01*
X5339D02*
G03*
X5389Y4675I25J0D01*
G01*
X4355D02*
G03*
X4404Y4675I25J0D01*
G01*
X3371D02*
G03*
X3420Y4675I25J0D01*
G01*
X2387D02*
G03*
X2436Y4675I25J0D01*
G01*
X1402Y4675D02*
G03*
X1452Y4675I25J0D01*
G01*
X418Y4675D02*
G03*
X467Y4675I25J0D01*
G01*
X7800Y3593D02*
G03*
X7849Y3593I25J0D01*
G01*
X6816D02*
G03*
X6865Y3593I25J0D01*
G01*
X5832D02*
G03*
X5881Y3593I25J0D01*
G01*
X4847D02*
G03*
X4897Y3593I25J0D01*
G01*
X3863D02*
G03*
X3912Y3593I25J0D01*
G01*
X2879D02*
G03*
X2928Y3593I25J0D01*
G01*
X1895D02*
G03*
X1944Y3593I25J0D01*
G01*
X910D02*
G03*
X960Y3593I25J0D01*
G01*
X7308D02*
G03*
X7357Y3593I25J0D01*
G01*
X6324D02*
G03*
X6373Y3593I25J0D01*
G01*
X5339D02*
G03*
X5389Y3593I25J0D01*
G01*
X4355D02*
G03*
X4404Y3593I25J0D01*
G01*
X3371D02*
G03*
X3420Y3593I25J0D01*
G01*
X2387D02*
G03*
X2436Y3593I25J0D01*
G01*
X1402D02*
G03*
X1452Y3593I25J0D01*
G01*
X418D02*
G03*
X467Y3593I25J0D01*
G01*
X7800Y2510D02*
G03*
X7849Y2510I25J0D01*
G01*
X6816D02*
G03*
X6865Y2510I25J0D01*
G01*
X5832D02*
G03*
X5881Y2510I25J0D01*
G01*
X4847D02*
G03*
X4897Y2510I25J0D01*
G01*
X3863D02*
G03*
X3912Y2510I25J0D01*
G01*
X2879D02*
G03*
X2928Y2510I25J0D01*
G01*
X1895D02*
G03*
X1944Y2510I25J0D01*
G01*
X910D02*
G03*
X960Y2510I25J0D01*
G01*
X7308D02*
G03*
X7357Y2510I25J0D01*
G01*
X6324D02*
G03*
X6373Y2510I25J0D01*
G01*
X5339D02*
G03*
X5389Y2510I25J0D01*
G01*
X4355D02*
G03*
X4404Y2510I25J0D01*
G01*
X3371D02*
G03*
X3420Y2510I25J0D01*
G01*
X2387D02*
G03*
X2436Y2510I25J0D01*
G01*
X1402D02*
G03*
X1452Y2510I25J0D01*
G01*
X418D02*
G03*
X467Y2510I25J0D01*
G01*
X7800Y1427D02*
G03*
X7849Y1427I25J0D01*
G01*
X6816D02*
G03*
X6865Y1427I25J0D01*
G01*
X5832D02*
G03*
X5881Y1427I25J0D01*
G01*
X4847D02*
G03*
X4897Y1427I25J0D01*
G01*
X3863D02*
G03*
X3912Y1427I25J0D01*
G01*
X2879D02*
G03*
X2928Y1427I25J0D01*
G01*
X1895D02*
G03*
X1944Y1427I25J0D01*
G01*
X910D02*
G03*
X960Y1427I25J0D01*
G01*
X7308D02*
G03*
X7357Y1427I25J0D01*
G01*
X6324D02*
G03*
X6373Y1427I25J0D01*
G01*
X5339D02*
G03*
X5389Y1427I25J0D01*
G01*
X4355D02*
G03*
X4404Y1427I25J0D01*
G01*
X3371D02*
G03*
X3420Y1427I25J0D01*
G01*
X2387D02*
G03*
X2436Y1427I25J0D01*
G01*
X1402D02*
G03*
X1452Y1427I25J0D01*
G01*
X418D02*
G03*
X467Y1427I25J0D01*
G01*
X8981Y3593D02*
G03*
X9030Y3593I25J0D01*
G01*
X9572Y4675D02*
G03*
X9621Y4675I25J0D01*
G01*
X8981D02*
G03*
X9030Y4675I25J0D01*
G01*
X8981Y2510D02*
G03*
X9030Y2510I25J0D01*
G01*
X8391Y4675D02*
G03*
X8440Y4675I25J0D01*
G01*
X8391Y3593D02*
G03*
X8440Y3593I25J0D01*
G01*
X8981Y1427D02*
G03*
X9030Y1427I25J0D01*
G01*
X9572Y3593D02*
G03*
X9621Y3593I25J0D01*
G01*
X10162D02*
G03*
X10212Y3593I25J0D01*
G01*
X10753D02*
G03*
X10802Y3593I25J0D01*
G01*
X10753Y4675D02*
G03*
X10802Y4675I25J0D01*
G01*
X10162D02*
G03*
X10212Y4675I25J0D01*
G01*
X10753Y2510D02*
G03*
X10802Y2510I25J0D01*
G01*
X9572Y1427D02*
G03*
X9621Y1427I25J0D01*
G01*
X9572Y2411D02*
G03*
X9621Y2411I25J0D01*
G01*
X10162Y1427D02*
G03*
X10212Y1427I25J0D01*
G01*
X10654D02*
G03*
X10704Y1427I25J0D01*
G01*
X10162Y2411D02*
G03*
X10212Y2411I25J0D01*
G01*
X5930Y5955D02*
G03*
X5979Y5955I25J0D01*
G01*
X5241Y7234D02*
G03*
X5290Y7234I25J0D01*
G01*
X8391Y5955D02*
G03*
X8440Y5955I25J0D01*
G01*
X11048Y5758D02*
G03*
X11097Y5758I25J0D01*
G01*
X4355Y8415D02*
G03*
X4404Y8415I25J0D01*
G01*
X8981Y5955D02*
G03*
X9030Y5955I25J0D01*
G01*
X10162Y9695D02*
G03*
X10212Y9695I25J0D01*
G01*
X10458Y5659D02*
G03*
X10507Y5659I25J0D01*
G01*
X3568Y8219D02*
G03*
X3617Y8219I25J0D01*
G01*
X10162Y10974D02*
G03*
X10212Y10974I25J0D01*
G01*
X5241Y5955D02*
G03*
X5290Y5955I25J0D01*
G01*
X9276Y7431D02*
G03*
X9326Y7431I25J0D01*
G01*
X4651Y7234D02*
G03*
X4700Y7234I25J0D01*
G01*
X11343Y3593D02*
G03*
X11393Y3593I25J0D01*
G01*
X8391Y10974D02*
G03*
X8440Y10974I25J0D01*
G01*
X10753Y10679D02*
G03*
X10802Y10679I25J0D01*
G01*
X11343Y8711D02*
G03*
X11393Y8711I25J0D01*
G01*
X10753D02*
G03*
X10802Y8711I25J0D01*
G01*
X10753Y9695D02*
G03*
X10802Y9695I25J0D01*
G01*
X4651Y5955D02*
G03*
X4700Y5955I25J0D01*
G01*
X3076Y8219D02*
G03*
X3125Y8219I25J0D01*
G01*
X11147Y1427D02*
G03*
X11196Y1427I25J0D01*
G01*
X1895Y8219D02*
G03*
X1944Y8219I25J0D01*
G01*
X2485D02*
G03*
X2534Y8219I25J0D01*
G01*
X4060Y7234D02*
G03*
X4109Y7234I25J0D01*
G01*
X4060Y5955D02*
G03*
X4109Y5955I25J0D01*
G01*
X3469Y7234D02*
G03*
X3519Y7234I25J0D01*
G01*
X3469Y5955D02*
G03*
X3519Y5955I25J0D01*
G01*
X10753Y11762D02*
G03*
X10802Y11762I25J0D01*
G01*
X10162Y8415D02*
G03*
X10212Y8415I25J0D01*
G01*
X1402Y8120D02*
G03*
X1452Y8120I25J0D01*
G01*
X1206Y6447D02*
G03*
X1255Y6447I25J0D01*
G01*
X4847Y8317D02*
G03*
X4897Y8317I25J0D01*
G01*
X812Y6447D02*
G03*
X861Y6447I25J0D01*
G01*
X11343Y11762D02*
G03*
X11393Y11762I25J0D01*
G01*
X11343Y9695D02*
G03*
X11393Y9695I25J0D01*
G01*
X7702Y7530D02*
G03*
X7751Y7530I25J0D01*
G01*
X1009Y5659D02*
G03*
X1058Y5659I25J0D01*
G01*
X910Y8120D02*
G03*
X960Y8120I25J0D01*
G01*
X5241Y8317D02*
G03*
X5290Y8317I25J0D01*
G01*
X8391Y12746D02*
G03*
X8440Y12746I25J0D01*
G01*
X9572Y12844D02*
G03*
X9621Y12844I25J0D01*
G01*
X418Y8120D02*
G03*
X467Y8120I25J0D01*
G01*
X10753Y12746D02*
G03*
X10802Y12746I25J0D01*
G01*
X11343Y2411D02*
G03*
X11393Y2411I25J0D01*
G01*
X8391Y11959D02*
G03*
X8440Y11959I25J0D01*
G01*
X8981Y12746D02*
G03*
X9030Y12746I25J0D01*
G01*
X10162Y11959D02*
G03*
X10212Y11959I25J0D01*
G01*
X1107Y7234D02*
G03*
X1156Y7234I25J0D01*
G01*
X9572Y11959D02*
G03*
X9621Y11959I25J0D01*
G01*
X9227Y11181D02*
G03*
X9276Y11181I25J0D01*
G01*
X8538Y7441D02*
G03*
X8588Y7441I25J0D01*
G01*
X9719Y6162D02*
G03*
X9769Y6162I25J0D01*
G01*
X8661Y2215D02*
X8761D01*
Y1915D02*
Y2215D01*
X8661Y1915D02*
X8761D01*
X8661D02*
Y2215D01*
X8350Y1722D02*
Y2510D01*
Y1722D02*
X8481D01*
Y2510D01*
X8440D02*
X8481D01*
X8350D02*
X8391D01*
X8350Y640D02*
Y1427D01*
Y640D02*
X8481D01*
Y1427D01*
X8440D02*
X8481D01*
X8350D02*
X8391D01*
X7382Y59D02*
Y268D01*
X6480Y4980D02*
Y6358D01*
Y4980D02*
X6906D01*
Y6358D01*
X6717D02*
X6906D01*
X6480D02*
X6668D01*
X7464Y4980D02*
Y6358D01*
Y4980D02*
X7890D01*
Y6358D01*
X7702D02*
X7890D01*
X7464D02*
X7652D01*
X6086Y6851D02*
Y8229D01*
Y6851D02*
X6512D01*
Y8229D01*
X6324D02*
X6512D01*
X6086D02*
X6275D01*
X1558Y4985D02*
Y6954D01*
Y4985D02*
X1985D01*
Y6954D01*
X1796D02*
X1985D01*
X1558D02*
X1747D01*
X9334Y7741D02*
Y9710D01*
Y7741D02*
X9760D01*
Y9710D01*
X9572D02*
X9760D01*
X9334D02*
X9523D01*
X8350Y7741D02*
Y9710D01*
Y7741D02*
X8776D01*
Y9710D01*
X8588D02*
X8776D01*
X8350D02*
X8538D01*
X2543Y4985D02*
Y6954D01*
Y4985D02*
X2969D01*
Y6954D01*
X2780D02*
X2969D01*
X2543D02*
X2731D01*
X6201Y11870D02*
Y12539D01*
X6398D01*
Y11870D02*
Y12539D01*
X6302Y11870D02*
X6398D01*
X6299Y12539D02*
Y12618D01*
Y11791D02*
Y11870D01*
X6279Y11979D02*
X6319D01*
X6299Y11959D02*
Y11999D01*
X6201Y11870D02*
X6302D01*
X6594D02*
Y12539D01*
X6791D01*
Y11870D02*
Y12539D01*
X6696Y11870D02*
X6791D01*
X6693Y12539D02*
Y12618D01*
Y11791D02*
Y11870D01*
X6673Y11979D02*
X6713D01*
X6693Y11959D02*
Y11999D01*
X6594Y11870D02*
X6696D01*
X6398Y10689D02*
Y11358D01*
X6594D01*
Y10689D02*
Y11358D01*
X6499Y10689D02*
X6594D01*
X6496Y11358D02*
Y11437D01*
Y10610D02*
Y10689D01*
X6476Y10798D02*
X6516D01*
X6496Y10778D02*
Y10818D01*
X6398Y10689D02*
X6499D01*
X6594Y9508D02*
Y10177D01*
X6398Y9508D02*
X6594D01*
X6398D02*
Y10177D01*
X6493D01*
X6496Y9429D02*
Y9508D01*
Y10177D02*
Y10256D01*
X6476Y10068D02*
X6516D01*
X6496Y10048D02*
Y10088D01*
X6493Y10177D02*
X6594D01*
X9803Y6299D02*
Y6387D01*
X9291Y6299D02*
X9803D01*
X9291D02*
Y6496D01*
X9803D01*
Y6387D02*
Y6496D01*
X9203Y6398D02*
X9291D01*
X9803D02*
X9892D01*
X9724Y6378D02*
Y6418D01*
X9704Y6398D02*
X9744D01*
X7759Y3888D02*
Y4675D01*
Y3888D02*
X7890D01*
Y4675D01*
X7849D02*
X7890D01*
X7759D02*
X7800D01*
X6775Y3888D02*
Y4675D01*
Y3888D02*
X6906D01*
Y4675D01*
X6865D02*
X6906D01*
X6775D02*
X6816D01*
X5791Y3888D02*
Y4675D01*
Y3888D02*
X5922D01*
Y4675D01*
X5881D02*
X5922D01*
X5791D02*
X5832D01*
X4806Y3888D02*
Y4675D01*
Y3888D02*
X4938D01*
Y4675D01*
X4897D02*
X4938D01*
X4806D02*
X4847D01*
X3822Y3888D02*
Y4675D01*
Y3888D02*
X3953D01*
Y4675D01*
X3912D02*
X3953D01*
X3822D02*
X3863D01*
X2838Y3888D02*
Y4675D01*
Y3888D02*
X2969D01*
Y4675D01*
X2928D02*
X2969D01*
X2838D02*
X2879D01*
X1854Y3888D02*
Y4675D01*
Y3888D02*
X1985D01*
Y4675D01*
X1944D02*
X1985D01*
X1854D02*
X1895D01*
X869Y3888D02*
Y4675D01*
Y3888D02*
X1001D01*
Y4675D01*
X960D02*
X1001D01*
X869D02*
X910D01*
X7267Y3888D02*
Y4675D01*
Y3888D02*
X7398D01*
Y4675D01*
X7357D02*
X7398D01*
X7267D02*
X7308D01*
X6283Y3888D02*
Y4675D01*
Y3888D02*
X6414D01*
Y4675D01*
X6373D02*
X6414D01*
X6283D02*
X6324D01*
X5299Y3888D02*
Y4675D01*
Y3888D02*
X5430D01*
Y4675D01*
X5389D02*
X5430D01*
X5299D02*
X5339D01*
X4314Y3888D02*
Y4675D01*
Y3888D02*
X4445D01*
Y4675D01*
X4404D02*
X4445D01*
X4314D02*
X4355D01*
X3330Y3888D02*
Y4675D01*
Y3888D02*
X3461D01*
Y4675D01*
X3420D02*
X3461D01*
X3330D02*
X3371D01*
X2346Y3888D02*
Y4675D01*
Y3888D02*
X2477D01*
Y4675D01*
X2436D02*
X2477D01*
X2346D02*
X2387D01*
X1362Y3888D02*
Y4675D01*
Y3888D02*
X1493D01*
Y4675D01*
X1452D02*
X1493D01*
X1362D02*
X1402D01*
X377Y3888D02*
Y4675D01*
Y3888D02*
X508D01*
Y4675D01*
X467D02*
X508D01*
X377D02*
X418D01*
X7759Y2805D02*
Y3593D01*
Y2805D02*
X7890D01*
Y3593D01*
X7849D02*
X7890D01*
X7759D02*
X7800D01*
X6775Y2805D02*
Y3593D01*
Y2805D02*
X6906D01*
Y3593D01*
X6865D02*
X6906D01*
X6775D02*
X6816D01*
X5791Y2805D02*
Y3593D01*
Y2805D02*
X5922D01*
Y3593D01*
X5881D02*
X5922D01*
X5791D02*
X5832D01*
X4806Y2805D02*
Y3593D01*
Y2805D02*
X4938D01*
Y3593D01*
X4897D02*
X4938D01*
X4806D02*
X4847D01*
X3822Y2805D02*
Y3593D01*
Y2805D02*
X3953D01*
Y3593D01*
X3912D02*
X3953D01*
X3822D02*
X3863D01*
X2838Y2805D02*
Y3593D01*
Y2805D02*
X2969D01*
Y3593D01*
X2928D02*
X2969D01*
X2838D02*
X2879D01*
X1854Y2805D02*
Y3593D01*
Y2805D02*
X1985D01*
Y3593D01*
X1944D02*
X1985D01*
X1854D02*
X1895D01*
X869Y2805D02*
Y3593D01*
Y2805D02*
X1001D01*
Y3593D01*
X960D02*
X1001D01*
X869D02*
X910D01*
X7267Y2805D02*
Y3593D01*
Y2805D02*
X7398D01*
Y3593D01*
X7357D02*
X7398D01*
X7267D02*
X7308D01*
X6283Y2805D02*
Y3593D01*
Y2805D02*
X6414D01*
Y3593D01*
X6373D02*
X6414D01*
X6283D02*
X6324D01*
X5299Y2805D02*
Y3593D01*
Y2805D02*
X5430D01*
Y3593D01*
X5389D02*
X5430D01*
X5299D02*
X5339D01*
X4314Y2805D02*
Y3593D01*
Y2805D02*
X4445D01*
Y3593D01*
X4404D02*
X4445D01*
X4314D02*
X4355D01*
X3330Y2805D02*
Y3593D01*
Y2805D02*
X3461D01*
Y3593D01*
X3420D02*
X3461D01*
X3330D02*
X3371D01*
X2346Y2805D02*
Y3593D01*
Y2805D02*
X2477D01*
Y3593D01*
X2436D02*
X2477D01*
X2346D02*
X2387D01*
X1362Y2805D02*
Y3593D01*
Y2805D02*
X1493D01*
Y3593D01*
X1452D02*
X1493D01*
X1362D02*
X1402D01*
X377Y2805D02*
Y3593D01*
Y2805D02*
X508D01*
Y3593D01*
X467D02*
X508D01*
X377D02*
X418D01*
X7759Y1722D02*
Y2510D01*
Y1722D02*
X7890D01*
Y2510D01*
X7849D02*
X7890D01*
X7759D02*
X7800D01*
X6775Y1722D02*
Y2510D01*
Y1722D02*
X6906D01*
Y2510D01*
X6865D02*
X6906D01*
X6775D02*
X6816D01*
X5791Y1722D02*
Y2510D01*
Y1722D02*
X5922D01*
Y2510D01*
X5881D02*
X5922D01*
X5791D02*
X5832D01*
X4806Y1722D02*
Y2510D01*
Y1722D02*
X4938D01*
Y2510D01*
X4897D02*
X4938D01*
X4806D02*
X4847D01*
X3822Y1722D02*
Y2510D01*
Y1722D02*
X3953D01*
Y2510D01*
X3912D02*
X3953D01*
X3822D02*
X3863D01*
X2838Y1722D02*
Y2510D01*
Y1722D02*
X2969D01*
Y2510D01*
X2928D02*
X2969D01*
X2838D02*
X2879D01*
X1854Y1722D02*
Y2510D01*
Y1722D02*
X1985D01*
Y2510D01*
X1944D02*
X1985D01*
X1854D02*
X1895D01*
X869Y1722D02*
Y2510D01*
Y1722D02*
X1001D01*
Y2510D01*
X960D02*
X1001D01*
X869D02*
X910D01*
X7267Y1722D02*
Y2510D01*
Y1722D02*
X7398D01*
Y2510D01*
X7357D02*
X7398D01*
X7267D02*
X7308D01*
X6283Y1722D02*
Y2510D01*
Y1722D02*
X6414D01*
Y2510D01*
X6373D02*
X6414D01*
X6283D02*
X6324D01*
X5299Y1722D02*
Y2510D01*
Y1722D02*
X5430D01*
Y2510D01*
X5389D02*
X5430D01*
X5299D02*
X5339D01*
X4314Y1722D02*
Y2510D01*
Y1722D02*
X4445D01*
Y2510D01*
X4404D02*
X4445D01*
X4314D02*
X4355D01*
X3330Y1722D02*
Y2510D01*
Y1722D02*
X3461D01*
Y2510D01*
X3420D02*
X3461D01*
X3330D02*
X3371D01*
X2346Y1722D02*
Y2510D01*
Y1722D02*
X2477D01*
Y2510D01*
X2436D02*
X2477D01*
X2346D02*
X2387D01*
X1362Y1722D02*
Y2510D01*
Y1722D02*
X1493D01*
Y2510D01*
X1452D02*
X1493D01*
X1362D02*
X1402D01*
X377Y1722D02*
Y2510D01*
Y1722D02*
X508D01*
Y2510D01*
X467D02*
X508D01*
X377D02*
X418D01*
X7759Y640D02*
Y1427D01*
Y640D02*
X7890D01*
Y1427D01*
X7849D02*
X7890D01*
X7759D02*
X7800D01*
X6775Y640D02*
Y1427D01*
Y640D02*
X6906D01*
Y1427D01*
X6865D02*
X6906D01*
X6775D02*
X6816D01*
X5791Y640D02*
Y1427D01*
Y640D02*
X5922D01*
Y1427D01*
X5881D02*
X5922D01*
X5791D02*
X5832D01*
X4806Y640D02*
Y1427D01*
Y640D02*
X4938D01*
Y1427D01*
X4897D02*
X4938D01*
X4806D02*
X4847D01*
X3822Y640D02*
Y1427D01*
Y640D02*
X3953D01*
Y1427D01*
X3912D02*
X3953D01*
X3822D02*
X3863D01*
X2838Y640D02*
Y1427D01*
Y640D02*
X2969D01*
Y1427D01*
X2928D02*
X2969D01*
X2838D02*
X2879D01*
X1854Y640D02*
Y1427D01*
Y640D02*
X1985D01*
Y1427D01*
X1944D02*
X1985D01*
X1854D02*
X1895D01*
X869Y640D02*
Y1427D01*
Y640D02*
X1001D01*
Y1427D01*
X960D02*
X1001D01*
X869D02*
X910D01*
X7267Y640D02*
Y1427D01*
Y640D02*
X7398D01*
Y1427D01*
X7357D02*
X7398D01*
X7267D02*
X7308D01*
X6283Y640D02*
Y1427D01*
Y640D02*
X6414D01*
Y1427D01*
X6373D02*
X6414D01*
X6283D02*
X6324D01*
X5299Y640D02*
Y1427D01*
Y640D02*
X5430D01*
Y1427D01*
X5389D02*
X5430D01*
X5299D02*
X5339D01*
X4314Y640D02*
Y1427D01*
Y640D02*
X4445D01*
Y1427D01*
X4404D02*
X4445D01*
X4314D02*
X4355D01*
X3330Y640D02*
Y1427D01*
Y640D02*
X3461D01*
Y1427D01*
X3420D02*
X3461D01*
X3330D02*
X3371D01*
X2346Y640D02*
Y1427D01*
Y640D02*
X2477D01*
Y1427D01*
X2436D02*
X2477D01*
X2346D02*
X2387D01*
X1362Y640D02*
Y1427D01*
Y640D02*
X1493D01*
Y1427D01*
X1452D02*
X1493D01*
X1362D02*
X1402D01*
X377Y640D02*
Y1427D01*
Y640D02*
X508D01*
Y1427D01*
X467D02*
X508D01*
X377D02*
X418D01*
X8940Y2805D02*
Y3593D01*
Y2805D02*
X9071D01*
Y3593D01*
X9030D02*
X9071D01*
X8940D02*
X8981D01*
X9531Y4675D02*
X9572D01*
X9621D02*
X9662D01*
Y3691D02*
Y4675D01*
X9531Y3691D02*
X9662D01*
X9531D02*
Y4675D01*
X8940Y3888D02*
Y4675D01*
Y3888D02*
X9071D01*
Y4675D01*
X9030D02*
X9071D01*
X8940D02*
X8981D01*
X8940Y1722D02*
Y2510D01*
Y1722D02*
X9071D01*
Y2510D01*
X9030D02*
X9071D01*
X8940D02*
X8981D01*
X8350Y3888D02*
Y4675D01*
Y3888D02*
X8481D01*
Y4675D01*
X8440D02*
X8481D01*
X8350D02*
X8391D01*
X8350Y2805D02*
Y3593D01*
Y2805D02*
X8481D01*
Y3593D01*
X8440D02*
X8481D01*
X8350D02*
X8391D01*
X8940Y1427D02*
X8981D01*
X9030D02*
X9071D01*
Y443D02*
Y1427D01*
X8940Y443D02*
X9071D01*
X8940D02*
Y1427D01*
X9531Y2707D02*
Y3593D01*
Y2707D02*
X9662D01*
Y3593D01*
X9621D02*
X9662D01*
X9531D02*
X9572D01*
X10121Y2707D02*
Y3593D01*
Y2707D02*
X10252D01*
Y3593D01*
X10212D02*
X10252D01*
X10121D02*
X10162D01*
X10712Y2805D02*
Y3593D01*
Y2805D02*
X10843D01*
Y3593D01*
X10802D02*
X10843D01*
X10712D02*
X10753D01*
X10712Y3888D02*
Y4675D01*
Y3888D02*
X10843D01*
Y4675D01*
X10802D02*
X10843D01*
X10712D02*
X10753D01*
X10121D02*
X10162D01*
X10212D02*
X10252D01*
Y3691D02*
Y4675D01*
X10121Y3691D02*
X10252D01*
X10121D02*
Y4675D01*
X10712Y1722D02*
Y2510D01*
Y1722D02*
X10843D01*
Y2510D01*
X10802D02*
X10843D01*
X10712D02*
X10753D01*
X9531Y738D02*
Y1427D01*
Y738D02*
X9662D01*
Y1427D01*
X9621D02*
X9662D01*
X9531D02*
X9572D01*
X9531Y1722D02*
Y2411D01*
Y1722D02*
X9662D01*
Y2411D01*
X9621D02*
X9662D01*
X9531D02*
X9572D01*
X10121Y738D02*
Y1427D01*
Y738D02*
X10252D01*
Y1427D01*
X10212D02*
X10252D01*
X10121D02*
X10162D01*
X10614Y738D02*
Y1427D01*
Y738D02*
X10745D01*
Y1427D01*
X10704D02*
X10745D01*
X10614D02*
X10654D01*
X10121Y1722D02*
Y2411D01*
Y1722D02*
X10252D01*
Y2411D01*
X10212D02*
X10252D01*
X10121D02*
X10162D01*
X5889Y5955D02*
X5930D01*
X5979D02*
X6020D01*
Y4970D02*
Y5955D01*
X5889Y4970D02*
X6020D01*
X5889D02*
Y5955D01*
X5200Y7234D02*
X5241D01*
X5290D02*
X5331D01*
Y6250D02*
Y7234D01*
X5200Y6250D02*
X5331D01*
X5200D02*
Y7234D01*
X8350Y5955D02*
X8391D01*
X8440D02*
X8481D01*
Y4970D02*
Y5955D01*
X8350Y4970D02*
X8481D01*
X8350D02*
Y5955D01*
X11007Y4970D02*
Y5758D01*
Y4970D02*
X11138D01*
Y5758D01*
X11097D02*
X11138D01*
X11007D02*
X11048D01*
X4314Y8415D02*
X4355D01*
X4404D02*
X4445D01*
Y7431D02*
Y8415D01*
X4314Y7431D02*
X4445D01*
X4314D02*
Y8415D01*
X8940Y5955D02*
X8981D01*
X9030D02*
X9071D01*
Y4970D02*
Y5955D01*
X8940Y4970D02*
X9071D01*
X8940D02*
Y5955D01*
X10121Y9695D02*
X10162D01*
X10212D02*
X10252D01*
Y8711D02*
Y9695D01*
X10121Y8711D02*
X10252D01*
X10121D02*
Y9695D01*
X10417Y4970D02*
Y5659D01*
Y4970D02*
X10548D01*
Y5659D01*
X10507D02*
X10548D01*
X10417D02*
X10458D01*
X3527Y7431D02*
Y8219D01*
Y7431D02*
X3658D01*
Y8219D01*
X3617D02*
X3658D01*
X3527D02*
X3568D01*
X10121Y10974D02*
X10162D01*
X10212D02*
X10252D01*
Y9990D02*
Y10974D01*
X10121Y9990D02*
X10252D01*
X10121D02*
Y10974D01*
X5200Y5955D02*
X5241D01*
X5290D02*
X5331D01*
Y4970D02*
Y5955D01*
X5200Y4970D02*
X5331D01*
X5200D02*
Y5955D01*
X9236Y6742D02*
Y7431D01*
Y6742D02*
X9367D01*
Y7431D01*
X9326D02*
X9367D01*
X9236D02*
X9276D01*
X4610Y7234D02*
X4651D01*
X4700D02*
X4741D01*
Y6250D02*
Y7234D01*
X4610Y6250D02*
X4741D01*
X4610D02*
Y7234D01*
X11302Y2904D02*
Y3593D01*
Y2904D02*
X11434D01*
Y3593D01*
X11393D02*
X11434D01*
X11302D02*
X11343D01*
X8350Y10974D02*
X8391D01*
X8440D02*
X8481D01*
Y9990D02*
Y10974D01*
X8350Y9990D02*
X8481D01*
X8350D02*
Y10974D01*
X10712Y9990D02*
Y10679D01*
Y9990D02*
X10843D01*
Y10679D01*
X10802D02*
X10843D01*
X10712D02*
X10753D01*
X11302Y8022D02*
Y8711D01*
Y8022D02*
X11434D01*
Y8711D01*
X11393D02*
X11434D01*
X11302D02*
X11343D01*
X10712Y8022D02*
Y8711D01*
Y8022D02*
X10843D01*
Y8711D01*
X10802D02*
X10843D01*
X10712D02*
X10753D01*
X10712Y9006D02*
Y9695D01*
Y9006D02*
X10843D01*
Y9695D01*
X10802D02*
X10843D01*
X10712D02*
X10753D01*
X4610Y5955D02*
X4651D01*
X4700D02*
X4741D01*
Y4970D02*
Y5955D01*
X4610Y4970D02*
X4741D01*
X4610D02*
Y5955D01*
X3035Y7431D02*
Y8219D01*
Y7431D02*
X3166D01*
Y8219D01*
X3125D02*
X3166D01*
X3035D02*
X3076D01*
X11106Y738D02*
Y1427D01*
Y738D02*
X11237D01*
Y1427D01*
X11196D02*
X11237D01*
X11106D02*
X11147D01*
X1854Y8219D02*
X1895D01*
X1944D02*
X1985D01*
Y7234D02*
Y8219D01*
X1854Y7234D02*
X1985D01*
X1854D02*
Y8219D01*
X2444D02*
X2485D01*
X2534D02*
X2575D01*
Y7234D02*
Y8219D01*
X2444Y7234D02*
X2575D01*
X2444D02*
Y8219D01*
X4019Y7234D02*
X4060D01*
X4109D02*
X4150D01*
Y6250D02*
Y7234D01*
X4019Y6250D02*
X4150D01*
X4019D02*
Y7234D01*
Y5955D02*
X4060D01*
X4109D02*
X4150D01*
Y4970D02*
Y5955D01*
X4019Y4970D02*
X4150D01*
X4019D02*
Y5955D01*
X3428Y7234D02*
X3469D01*
X3519D02*
X3560D01*
Y6250D02*
Y7234D01*
X3428Y6250D02*
X3560D01*
X3428D02*
Y7234D01*
Y5955D02*
X3469D01*
X3519D02*
X3560D01*
Y4970D02*
Y5955D01*
X3428Y4970D02*
X3560D01*
X3428D02*
Y5955D01*
X10712Y11073D02*
Y11762D01*
Y11073D02*
X10843D01*
Y11762D01*
X10802D02*
X10843D01*
X10712D02*
X10753D01*
X10121Y7726D02*
Y8415D01*
Y7726D02*
X10252D01*
Y8415D01*
X10212D02*
X10252D01*
X10121D02*
X10162D01*
X1362Y7333D02*
Y8120D01*
Y7333D02*
X1493D01*
Y8120D01*
X1452D02*
X1493D01*
X1362D02*
X1402D01*
X1165Y5758D02*
Y6447D01*
Y5758D02*
X1296D01*
Y6447D01*
X1255D02*
X1296D01*
X1165D02*
X1206D01*
X4806Y7628D02*
Y8317D01*
Y7628D02*
X4938D01*
Y8317D01*
X4897D02*
X4938D01*
X4806D02*
X4847D01*
X771Y5758D02*
Y6447D01*
Y5758D02*
X902D01*
Y6447D01*
X861D02*
X902D01*
X771D02*
X812D01*
X11302Y11073D02*
Y11762D01*
Y11073D02*
X11434D01*
Y11762D01*
X11393D02*
X11434D01*
X11302D02*
X11343D01*
X11302Y9006D02*
Y9695D01*
Y9006D02*
X11434D01*
Y9695D01*
X11393D02*
X11434D01*
X11302D02*
X11343D01*
X7661Y6841D02*
Y7530D01*
Y6841D02*
X7792D01*
Y7530D01*
X7751D02*
X7792D01*
X7661D02*
X7702D01*
X968Y4774D02*
Y5659D01*
Y4774D02*
X1099D01*
Y5659D01*
X1058D02*
X1099D01*
X968D02*
X1009D01*
X869Y7333D02*
Y8120D01*
Y7333D02*
X1001D01*
Y8120D01*
X960D02*
X1001D01*
X869D02*
X910D01*
X5200Y7628D02*
Y8317D01*
Y7628D02*
X5331D01*
Y8317D01*
X5290D02*
X5331D01*
X5200D02*
X5241D01*
X8350Y12057D02*
Y12746D01*
Y12057D02*
X8481D01*
Y12746D01*
X8440D02*
X8481D01*
X8350D02*
X8391D01*
X9531Y12057D02*
Y12844D01*
Y12057D02*
X9662D01*
Y12844D01*
X9621D02*
X9662D01*
X9531D02*
X9572D01*
X377Y7333D02*
Y8120D01*
Y7333D02*
X508D01*
Y8120D01*
X467D02*
X508D01*
X377D02*
X418D01*
X10712Y12057D02*
Y12746D01*
Y12057D02*
X10843D01*
Y12746D01*
X10802D02*
X10843D01*
X10712D02*
X10753D01*
X11302Y1722D02*
Y2411D01*
Y1722D02*
X11434D01*
Y2411D01*
X11393D02*
X11434D01*
X11302D02*
X11343D01*
X8350Y11270D02*
Y11959D01*
Y11270D02*
X8481D01*
Y11959D01*
X8440D02*
X8481D01*
X8350D02*
X8391D01*
X8940Y12057D02*
Y12746D01*
Y12057D02*
X9071D01*
Y12746D01*
X9030D02*
X9071D01*
X8940D02*
X8981D01*
X10121Y11270D02*
Y11959D01*
Y11270D02*
X10252D01*
Y11959D01*
X10212D02*
X10252D01*
X10121D02*
X10162D01*
X1066Y6545D02*
Y7234D01*
Y6545D02*
X1197D01*
Y7234D01*
X1156D02*
X1197D01*
X1066D02*
X1107D01*
X9531Y11270D02*
Y11959D01*
Y11270D02*
X9662D01*
Y11959D01*
X9621D02*
X9662D01*
X9531D02*
X9572D01*
X10207Y6791D02*
X10561D01*
X10207Y6594D02*
X10561D01*
X7736Y11909D02*
X7815D01*
Y11713D02*
Y11909D01*
X7736Y11713D02*
Y11909D01*
X7776Y11713D02*
X7815D01*
X7736D02*
X7776D01*
Y11673D02*
Y11713D01*
Y11909D02*
Y11949D01*
X5118Y157D02*
Y236D01*
X4921Y157D02*
X5118D01*
X4921Y236D02*
X5118D01*
X4921Y157D02*
Y197D01*
Y236D01*
X4882Y197D02*
X4921D01*
X5118D02*
X5157D01*
X10236Y12067D02*
Y12146D01*
X10039Y12067D02*
X10236D01*
X10039Y12146D02*
X10236D01*
X10039Y12067D02*
Y12106D01*
Y12146D01*
X10000Y12106D02*
X10039D01*
X10236D02*
X10276D01*
X11122Y12362D02*
Y12441D01*
X11319D01*
X11122Y12362D02*
X11319D01*
Y12402D02*
Y12441D01*
Y12362D02*
Y12402D01*
X11358D01*
X11083D02*
X11122D01*
X11024Y6358D02*
Y6437D01*
X10827Y6358D02*
X11024D01*
X10827Y6437D02*
X11024D01*
X10827Y6358D02*
Y6398D01*
Y6437D01*
X10787Y6398D02*
X10827D01*
X11024D02*
X11063D01*
X8071Y9902D02*
Y9980D01*
X7874Y9902D02*
X8071D01*
X7874Y9980D02*
X8071D01*
X7874Y9902D02*
Y9941D01*
Y9980D01*
X7835Y9941D02*
X7874D01*
X8071D02*
X8110D01*
X10827Y2618D02*
Y2697D01*
X10630Y2618D02*
X10827D01*
X10630Y2697D02*
X10827D01*
X10630Y2618D02*
Y2657D01*
Y2697D01*
X10590Y2657D02*
X10630D01*
X10827D02*
X10866D01*
X11220Y4193D02*
Y4272D01*
X11417D01*
X11220Y4193D02*
X11417D01*
Y4232D02*
Y4272D01*
Y4193D02*
Y4232D01*
X11457D01*
X11181D02*
X11220D01*
Y4390D02*
Y4469D01*
X11417D01*
X11220Y4390D02*
X11417D01*
Y4429D02*
Y4469D01*
Y4390D02*
Y4429D01*
X11457D01*
X11181D02*
X11220D01*
Y3996D02*
Y4075D01*
X11417D01*
X11220Y3996D02*
X11417D01*
Y4035D02*
Y4075D01*
Y3996D02*
Y4035D01*
X11457D01*
X11181D02*
X11220D01*
Y4587D02*
Y4665D01*
X11417D01*
X11220Y4587D02*
X11417D01*
Y4626D02*
Y4665D01*
Y4587D02*
Y4626D01*
X11457D01*
X11181D02*
X11220D01*
X10335Y6161D02*
Y6240D01*
X10531D01*
X10335Y6161D02*
X10531D01*
Y6201D02*
Y6240D01*
Y6161D02*
Y6201D01*
X10571D01*
X10295D02*
X10335D01*
X10531Y6358D02*
Y6437D01*
X10335Y6358D02*
X10531D01*
X10335Y6437D02*
X10531D01*
X10335Y6358D02*
Y6398D01*
Y6437D01*
X10295Y6398D02*
X10335D01*
X10531D02*
X10571D01*
X10925Y7835D02*
Y7913D01*
X10728Y7835D02*
X10925D01*
X10728Y7913D02*
X10925D01*
X10728Y7835D02*
Y7874D01*
Y7913D01*
X10689Y7874D02*
X10728D01*
X10925D02*
X10964D01*
X10827Y6161D02*
Y6240D01*
X11024D01*
X10827Y6161D02*
X11024D01*
Y6201D02*
Y6240D01*
Y6161D02*
Y6201D01*
X11063D01*
X10787D02*
X10827D01*
X10335Y9803D02*
Y9882D01*
X10138Y9803D02*
X10335D01*
X10138Y9882D02*
X10335D01*
X10138Y9803D02*
Y9843D01*
Y9882D01*
X10098Y9843D02*
X10138D01*
X10335D02*
X10374D01*
X10492Y5807D02*
X10561D01*
X10207D02*
X10276D01*
X11417Y7343D02*
Y7421D01*
X11220Y7343D02*
X11417D01*
X11220Y7421D02*
X11417D01*
X11220Y7343D02*
Y7382D01*
Y7421D01*
X11181Y7382D02*
X11220D01*
X11417D02*
X11457D01*
X11417Y7539D02*
Y7618D01*
X11220Y7539D02*
X11417D01*
X11220Y7618D02*
X11417D01*
X11220Y7539D02*
Y7579D01*
Y7618D01*
X11181Y7579D02*
X11220D01*
X11417D02*
X11457D01*
X11417Y10000D02*
Y10079D01*
X11220Y10000D02*
X11417D01*
X11220Y10079D02*
X11417D01*
X11220Y10000D02*
Y10039D01*
Y10079D01*
X11181Y10039D02*
X11220D01*
X11417D02*
X11457D01*
X10728Y7638D02*
Y7717D01*
X10925D01*
X10728Y7638D02*
X10925D01*
Y7677D02*
Y7717D01*
Y7638D02*
Y7677D01*
X10964D01*
X10689D02*
X10728D01*
X11417Y10394D02*
Y10472D01*
X11220Y10394D02*
X11417D01*
X11220Y10472D02*
X11417D01*
X11220Y10394D02*
Y10433D01*
Y10472D01*
X11181Y10433D02*
X11220D01*
X11417D02*
X11457D01*
X10925Y354D02*
Y433D01*
X11122D01*
X10925Y354D02*
X11122D01*
Y394D02*
Y433D01*
Y354D02*
Y394D01*
X11161D01*
X10886D02*
X10925D01*
X10236Y12461D02*
Y12539D01*
X10039Y12461D02*
X10236D01*
X10039Y12539D02*
X10236D01*
X10039Y12461D02*
Y12500D01*
Y12539D01*
X10000Y12500D02*
X10039D01*
X10236D02*
X10276D01*
X11417Y7736D02*
Y7815D01*
X11220Y7736D02*
X11417D01*
X11220Y7815D02*
X11417D01*
X11220Y7736D02*
Y7776D01*
Y7815D01*
X11181Y7776D02*
X11220D01*
X11417D02*
X11457D01*
X8563Y11083D02*
Y11161D01*
X8760D01*
X8563Y11083D02*
X8760D01*
Y11122D02*
Y11161D01*
Y11083D02*
Y11122D01*
X8799D01*
X8524D02*
X8563D01*
X11220Y10197D02*
Y10276D01*
X11417D01*
X11220Y10197D02*
X11417D01*
Y10236D02*
Y10276D01*
Y10197D02*
Y10236D01*
X11457D01*
X11181D02*
X11220D01*
X11122Y157D02*
Y236D01*
X10925Y157D02*
X11122D01*
X10925Y236D02*
X11122D01*
X10925Y157D02*
Y197D01*
Y236D01*
X10886Y197D02*
X10925D01*
X11122D02*
X11161D01*
X11220Y10886D02*
Y10965D01*
X11417D01*
X11220Y10886D02*
X11417D01*
Y10925D02*
Y10965D01*
Y10886D02*
Y10925D01*
X11457D01*
X11181D02*
X11220D01*
X1575Y4783D02*
Y4862D01*
X1378Y4783D02*
X1575D01*
X1378Y4862D02*
X1575D01*
X1378Y4783D02*
Y4823D01*
Y4862D01*
X1339Y4823D02*
X1378D01*
X1575D02*
X1614D01*
X3051Y4783D02*
Y4862D01*
X2854Y4783D02*
X3051D01*
X2854Y4862D02*
X3051D01*
X2854Y4783D02*
Y4823D01*
Y4862D01*
X2815Y4823D02*
X2854D01*
X3051D02*
X3090D01*
X2067Y4783D02*
Y4862D01*
X1870Y4783D02*
X2067D01*
X1870Y4862D02*
X2067D01*
X1870Y4783D02*
Y4823D01*
Y4862D01*
X1831Y4823D02*
X1870D01*
X2067D02*
X2106D01*
X295Y6850D02*
Y6929D01*
X492D01*
X295Y6850D02*
X492D01*
Y6890D02*
Y6929D01*
Y6850D02*
Y6890D01*
X531D01*
X256D02*
X295D01*
Y5965D02*
Y6043D01*
X492D01*
X295Y5965D02*
X492D01*
Y6004D02*
Y6043D01*
Y5965D02*
Y6004D01*
X531D01*
X256D02*
X295D01*
X8858Y11673D02*
Y11752D01*
X9055D01*
X8858Y11673D02*
X9055D01*
Y11713D02*
Y11752D01*
Y11673D02*
Y11713D01*
X9094D01*
X8819D02*
X8858D01*
X295Y6161D02*
Y6240D01*
X492D01*
X295Y6161D02*
X492D01*
Y6201D02*
Y6240D01*
Y6161D02*
Y6201D01*
X531D01*
X256D02*
X295D01*
X10039Y12264D02*
Y12343D01*
X10236D01*
X10039Y12264D02*
X10236D01*
Y12303D02*
Y12343D01*
Y12264D02*
Y12303D01*
X10276D01*
X10000D02*
X10039D01*
X11220Y2618D02*
Y2697D01*
X11417D01*
X11220Y2618D02*
X11417D01*
Y2657D02*
Y2697D01*
Y2618D02*
Y2657D01*
X11457D01*
X11181D02*
X11220D01*
X642Y4771D02*
Y4971D01*
X442D02*
X642D01*
X442Y4771D02*
X642D01*
X442D02*
Y4971D01*
X8661Y2854D02*
X8761D01*
X8661D02*
Y3154D01*
X8761D01*
Y2854D02*
Y3154D01*
X8513Y1525D02*
Y1625D01*
X8813D01*
Y1525D02*
Y1625D01*
X8513Y1525D02*
X8813D01*
X8070Y3887D02*
X8170D01*
X8070D02*
Y4187D01*
X8170D01*
Y3887D02*
Y4187D01*
X10974Y690D02*
X11174D01*
X10974Y590D02*
Y690D01*
Y590D02*
X11174D01*
Y690D01*
X11267Y10680D02*
X11467D01*
X11267Y10580D02*
Y10680D01*
Y10580D02*
X11467D01*
Y10680D01*
X10283Y12747D02*
X10483D01*
X10283Y12647D02*
Y12747D01*
Y12647D02*
X10483D01*
Y12747D01*
X11072Y12548D02*
X11272D01*
Y12648D01*
X11072D02*
X11272D01*
X11072Y12548D02*
Y12648D01*
X4476Y247D02*
X4676D01*
X4476Y147D02*
Y247D01*
Y147D02*
X4676D01*
Y247D01*
X6122Y394D02*
X8563D01*
Y59D02*
Y394D01*
X6122Y59D02*
X8563D01*
X6122D02*
Y394D01*
X7067Y59D02*
Y268D01*
X6122Y268D02*
X8563D01*
X9039Y11181D02*
X9227D01*
X9276D02*
X9465D01*
Y10000D02*
Y11181D01*
X9039Y10000D02*
X9465D01*
X9039D02*
Y11181D01*
X8350Y7441D02*
X8538D01*
X8588D02*
X8776D01*
Y6260D02*
Y7441D01*
X8350Y6260D02*
X8776D01*
X8350D02*
Y7441D01*
X9531Y6162D02*
X9719D01*
X9769D02*
X9957D01*
Y4980D02*
Y6162D01*
X9531Y4980D02*
X9957D01*
X9531D02*
Y6162D01*
X5571Y8051D02*
X5587D01*
X5579D01*
Y8098D01*
X5571Y8091D01*
X5760Y8051D02*
X5728D01*
X5760Y8083D01*
Y8091D01*
X5752Y8098D01*
X5736D01*
X5728Y8091D01*
X5561Y8002D02*
X5569Y8010D01*
X5585D01*
X5593Y8002D01*
Y7994D01*
X5585Y7986D01*
X5577D01*
X5585D01*
X5593Y7978D01*
Y7970D01*
X5585Y7963D01*
X5569D01*
X5561Y7970D01*
X5752Y7953D02*
Y8000D01*
X5728Y7976D01*
X5760D01*
X5593Y7931D02*
X5561D01*
Y7907D01*
X5577Y7915D01*
X5585D01*
X5593Y7907D01*
Y7892D01*
X5585Y7884D01*
X5569D01*
X5561Y7892D01*
X5760Y7902D02*
X5744Y7894D01*
X5728Y7878D01*
Y7862D01*
X5736Y7854D01*
X5752D01*
X5760Y7862D01*
Y7870D01*
X5752Y7878D01*
X5728D01*
X5571Y7803D02*
X5602D01*
Y7795D01*
X5571Y7764D01*
Y7756D01*
X5728Y7795D02*
X5736Y7803D01*
X5752D01*
X5760Y7795D01*
Y7787D01*
X5752Y7780D01*
X5760Y7772D01*
Y7764D01*
X5752Y7756D01*
X5736D01*
X5728Y7764D01*
Y7772D01*
X5736Y7780D01*
X5728Y7787D01*
Y7795D01*
X5736Y7780D02*
X5752D01*
D56*
X1762Y295D02*
G03*
X1762Y295I-138J0D01*
G01*
X5699Y394D02*
G03*
X5699Y394I-138J0D01*
G01*
X778Y6594D02*
G03*
X778Y6594I-138J0D01*
G01*
X11703Y12894D02*
G03*
X11703Y12894I-138J0D01*
G01*
X778Y12697D02*
G03*
X778Y12697I-138J0D01*
G01*
D57*
X2576Y320D02*
X2577D01*
X3037D02*
X3038D01*
X2574Y319D02*
X2577D01*
X3035D02*
X3038D01*
X2350Y318D02*
X2384D01*
X2573D02*
X2577D01*
X3034D02*
X3038D01*
X2343Y317D02*
X2391D01*
X2572D02*
X2577D01*
X3033D02*
X3038D01*
X2337Y316D02*
X2396D01*
X2571D02*
X2577D01*
X3032D02*
X3038D01*
X2333Y315D02*
X2400D01*
X2569D02*
X2577D01*
X2685D02*
X2742D01*
X3030D02*
X3038D01*
X3144D02*
X3233D01*
X2080Y314D02*
X2227D01*
X2329D02*
X2403D01*
X2568D02*
X2576D01*
X2684D02*
X2742D01*
X2884D02*
X2985D01*
X3029D02*
X3037D01*
X3142D02*
X3232D01*
X3463D02*
X3516D01*
X2079Y313D02*
X2227D01*
X2326D02*
X2406D01*
X2567D02*
X2576D01*
X2683D02*
X2742D01*
X2876D02*
X2984D01*
X3028D02*
X3037D01*
X3141D02*
X3231D01*
X3461D02*
X3521D01*
X2077Y312D02*
X2227D01*
X2323D02*
X2409D01*
X2565D02*
X2576D01*
X2682D02*
X2742D01*
X2870D02*
X2982D01*
X3026D02*
X3037D01*
X3140D02*
X3229D01*
X3460D02*
X3524D01*
X2076Y311D02*
X2227D01*
X2320D02*
X2412D01*
X2564D02*
X2576D01*
X2680D02*
X2742D01*
X2865D02*
X2981D01*
X3025D02*
X3037D01*
X3138D02*
X3228D01*
X3459D02*
X3527D01*
X2075Y310D02*
X2227D01*
X2317D02*
X2414D01*
X2563D02*
X2576D01*
X2679D02*
X2741D01*
X2861D02*
X2980D01*
X3024D02*
X3037D01*
X3137D02*
X3227D01*
X3457D02*
X3530D01*
X2073Y309D02*
X2227D01*
X2315D02*
X2416D01*
X2562D02*
X2576D01*
X2678D02*
X2741D01*
X2857D02*
X2978D01*
X3023D02*
X3037D01*
X3136D02*
X3226D01*
X3456D02*
X3532D01*
X2072Y308D02*
X2226D01*
X2313D02*
X2418D01*
X2560D02*
X2575D01*
X2677D02*
X2741D01*
X2854D02*
X2977D01*
X3021D02*
X3036D01*
X3135D02*
X3225D01*
X3455D02*
X3534D01*
X2071Y307D02*
X2226D01*
X2310D02*
X2420D01*
X2559D02*
X2575D01*
X2675D02*
X2741D01*
X2850D02*
X2976D01*
X3020D02*
X3036D01*
X3133D02*
X3223D01*
X3454D02*
X3536D01*
X2070Y306D02*
X2226D01*
X2308D02*
X2422D01*
X2558D02*
X2575D01*
X2674D02*
X2741D01*
X2847D02*
X2975D01*
X3019D02*
X3036D01*
X3132D02*
X3222D01*
X3452D02*
X3538D01*
X2068Y305D02*
X2226D01*
X2306D02*
X2423D01*
X2556D02*
X2575D01*
X2673D02*
X2740D01*
X2845D02*
X2973D01*
X3017D02*
X3036D01*
X3131D02*
X3221D01*
X3451D02*
X3539D01*
X2067Y304D02*
X2226D01*
X2304D02*
X2425D01*
X2555D02*
X2575D01*
X2671D02*
X2740D01*
X2842D02*
X2972D01*
X3016D02*
X3036D01*
X3130D02*
X3220D01*
X3450D02*
X3541D01*
X2066Y303D02*
X2225D01*
X2302D02*
X2427D01*
X2554D02*
X2574D01*
X2670D02*
X2740D01*
X2839D02*
X2971D01*
X3015D02*
X3035D01*
X3128D02*
X3218D01*
X3448D02*
X3542D01*
X2064Y302D02*
X2225D01*
X2301D02*
X2428D01*
X2553D02*
X2574D01*
X2669D02*
X2740D01*
X2837D02*
X2969D01*
X3014D02*
X3035D01*
X3127D02*
X3217D01*
X3447D02*
X3543D01*
X2063Y301D02*
X2225D01*
X2299D02*
X2429D01*
X2551D02*
X2574D01*
X2668D02*
X2740D01*
X2835D02*
X2968D01*
X3012D02*
X3035D01*
X3126D02*
X3216D01*
X3446D02*
X3544D01*
X2062Y300D02*
X2225D01*
X2297D02*
X2431D01*
X2550D02*
X2574D01*
X2666D02*
X2740D01*
X2833D02*
X2967D01*
X3011D02*
X3035D01*
X3124D02*
X3215D01*
X3445D02*
X3546D01*
X2061Y299D02*
X2225D01*
X2296D02*
X2432D01*
X2549D02*
X2574D01*
X2665D02*
X2739D01*
X2830D02*
X2966D01*
X3010D02*
X3035D01*
X3123D02*
X3214D01*
X3443D02*
X3547D01*
X2059Y298D02*
X2225D01*
X2294D02*
X2433D01*
X2547D02*
X2574D01*
X2664D02*
X2739D01*
X2828D02*
X2964D01*
X3008D02*
X3035D01*
X3122D02*
X3212D01*
X3442D02*
X3548D01*
X2058Y297D02*
X2224D01*
X2293D02*
X2434D01*
X2546D02*
X2573D01*
X2662D02*
X2739D01*
X2826D02*
X2963D01*
X3007D02*
X3034D01*
X3121D02*
X3211D01*
X3441D02*
X3549D01*
X2057Y296D02*
X2224D01*
X2291D02*
X2435D01*
X2545D02*
X2573D01*
X2661D02*
X2739D01*
X2824D02*
X2962D01*
X3006D02*
X3034D01*
X3119D02*
X3210D01*
X3440D02*
X3550D01*
X2055Y295D02*
X2224D01*
X2290D02*
X2437D01*
X2544D02*
X2573D01*
X2660D02*
X2739D01*
X2823D02*
X2961D01*
X3005D02*
X3034D01*
X3118D02*
X3209D01*
X3438D02*
X3551D01*
X2054Y294D02*
X2224D01*
X2288D02*
X2438D01*
X2542D02*
X2573D01*
X2659D02*
X2739D01*
X2821D02*
X2959D01*
X3003D02*
X3034D01*
X3117D02*
X3207D01*
X3437D02*
X3552D01*
X2053Y293D02*
X2224D01*
X2287D02*
X2439D01*
X2541D02*
X2573D01*
X2657D02*
X2738D01*
X2819D02*
X2958D01*
X3002D02*
X3034D01*
X3116D02*
X3206D01*
X3436D02*
X3553D01*
X2052Y292D02*
X2223D01*
X2286D02*
X2440D01*
X2540D02*
X2572D01*
X2656D02*
X2738D01*
X2817D02*
X2957D01*
X3001D02*
X3033D01*
X3114D02*
X3205D01*
X3434D02*
X3553D01*
X2050Y291D02*
X2223D01*
X2284D02*
X2441D01*
X2538D02*
X2572D01*
X2655D02*
X2738D01*
X2816D02*
X2955D01*
X2999D02*
X3033D01*
X3113D02*
X3204D01*
X3433D02*
X3554D01*
X2049Y290D02*
X2223D01*
X2283D02*
X2441D01*
X2537D02*
X2572D01*
X2654D02*
X2738D01*
X2814D02*
X2954D01*
X2998D02*
X3033D01*
X3112D02*
X3203D01*
X3432D02*
X3555D01*
X2048Y289D02*
X2223D01*
X2282D02*
X2442D01*
X2536D02*
X2572D01*
X2652D02*
X2738D01*
X2812D02*
X2953D01*
X2997D02*
X3033D01*
X3110D02*
X3201D01*
X3431D02*
X3556D01*
X2046Y288D02*
X2223D01*
X2281D02*
X2443D01*
X2535D02*
X2572D01*
X2651D02*
X2737D01*
X2811D02*
X2952D01*
X2996D02*
X3033D01*
X3109D02*
X3200D01*
X3429D02*
X3556D01*
X2045Y287D02*
X2223D01*
X2279D02*
X2444D01*
X2533D02*
X2572D01*
X2650D02*
X2737D01*
X2809D02*
X2950D01*
X2994D02*
X3033D01*
X3108D02*
X3199D01*
X3428D02*
X3557D01*
X2044Y286D02*
X2222D01*
X2278D02*
X2445D01*
X2532D02*
X2571D01*
X2648D02*
X2737D01*
X2808D02*
X2949D01*
X2993D02*
X3032D01*
X3107D02*
X3198D01*
X3427D02*
X3558D01*
X2043Y285D02*
X2222D01*
X2277D02*
X2446D01*
X2531D02*
X2571D01*
X2647D02*
X2737D01*
X2806D02*
X2948D01*
X2992D02*
X3032D01*
X3105D02*
X3196D01*
X3425D02*
X3558D01*
X2041Y284D02*
X2222D01*
X2276D02*
X2446D01*
X2529D02*
X2571D01*
X2646D02*
X2737D01*
X2805D02*
X2946D01*
X2990D02*
X3032D01*
X3104D02*
X3195D01*
X3424D02*
X3559D01*
X2040Y283D02*
X2222D01*
X2275D02*
X2447D01*
X2528D02*
X2571D01*
X2645D02*
X2737D01*
X2804D02*
X2945D01*
X2989D02*
X3032D01*
X3103D02*
X3194D01*
X3423D02*
X3559D01*
X2039Y282D02*
X2222D01*
X2274D02*
X2448D01*
X2527D02*
X2571D01*
X2643D02*
X2736D01*
X2802D02*
X2944D01*
X2988D02*
X3032D01*
X3102D02*
X3193D01*
X3422D02*
X3560D01*
X2037Y281D02*
X2222D01*
X2273D02*
X2449D01*
X2526D02*
X2571D01*
X2642D02*
X2736D01*
X2801D02*
X2943D01*
X2987D02*
X3032D01*
X3100D02*
X3191D01*
X3420D02*
X3560D01*
X2036Y280D02*
X2221D01*
X2272D02*
X2449D01*
X2524D02*
X2570D01*
X2641D02*
X2736D01*
X2800D02*
X2941D01*
X2985D02*
X3031D01*
X3099D02*
X3190D01*
X3419D02*
X3561D01*
X2035Y279D02*
X2221D01*
X2271D02*
X2450D01*
X2523D02*
X2570D01*
X2639D02*
X2736D01*
X2798D02*
X2940D01*
X2984D02*
X3031D01*
X3098D02*
X3189D01*
X3418D02*
X3561D01*
X2034Y278D02*
X2221D01*
X2270D02*
X2450D01*
X2522D02*
X2570D01*
X2638D02*
X2736D01*
X2797D02*
X2939D01*
X2983D02*
X3031D01*
X3096D02*
X3188D01*
X3416D02*
X3562D01*
X2032Y277D02*
X2221D01*
X2269D02*
X2451D01*
X2520D02*
X2570D01*
X2637D02*
X2735D01*
X2796D02*
X2937D01*
X2981D02*
X3031D01*
X3095D02*
X3187D01*
X3415D02*
X3562D01*
X2031Y276D02*
X2221D01*
X2268D02*
X2452D01*
X2519D02*
X2570D01*
X2636D02*
X2735D01*
X2795D02*
X2936D01*
X2980D02*
X3031D01*
X3094D02*
X3185D01*
X3414D02*
X3562D01*
X2030Y275D02*
X2220D01*
X2267D02*
X2452D01*
X2518D02*
X2569D01*
X2634D02*
X2735D01*
X2793D02*
X2935D01*
X2979D02*
X3030D01*
X3093D02*
X3184D01*
X3413D02*
X3563D01*
X2028Y274D02*
X2220D01*
X2266D02*
X2453D01*
X2517D02*
X2569D01*
X2633D02*
X2735D01*
X2792D02*
X2934D01*
X2978D02*
X3030D01*
X3091D02*
X3183D01*
X3411D02*
X3563D01*
X2027Y273D02*
X2220D01*
X2265D02*
X2453D01*
X2515D02*
X2569D01*
X2632D02*
X2735D01*
X2791D02*
X2932D01*
X2976D02*
X3030D01*
X3090D02*
X3182D01*
X3410D02*
X3563D01*
X2026Y272D02*
X2220D01*
X2264D02*
X2454D01*
X2514D02*
X2569D01*
X2630D02*
X2735D01*
X2790D02*
X2931D01*
X2975D02*
X3030D01*
X3089D02*
X3180D01*
X3409D02*
X3564D01*
X2025Y271D02*
X2220D01*
X2263D02*
X2454D01*
X2513D02*
X2569D01*
X2629D02*
X2734D01*
X2789D02*
X2930D01*
X2974D02*
X3030D01*
X3087D02*
X3179D01*
X3407D02*
X3564D01*
X2023Y270D02*
X2220D01*
X2262D02*
X2455D01*
X2511D02*
X2569D01*
X2628D02*
X2734D01*
X2788D02*
X2928D01*
X2972D02*
X3030D01*
X3086D02*
X3178D01*
X3406D02*
X3564D01*
X2022Y269D02*
X2219D01*
X2262D02*
X2455D01*
X2510D02*
X2568D01*
X2627D02*
X2734D01*
X2787D02*
X2927D01*
X2971D02*
X3029D01*
X3085D02*
X3177D01*
X3405D02*
X3564D01*
X2021Y268D02*
X2219D01*
X2261D02*
X2456D01*
X2509D02*
X2568D01*
X2625D02*
X2734D01*
X2786D02*
X2926D01*
X2970D02*
X3029D01*
X3084D02*
X3176D01*
X3404D02*
X3565D01*
X2019Y267D02*
X2219D01*
X2260D02*
X2456D01*
X2507D02*
X2568D01*
X2624D02*
X2734D01*
X2785D02*
X2925D01*
X2969D02*
X3029D01*
X3082D02*
X3174D01*
X3402D02*
X3565D01*
X2018Y266D02*
X2219D01*
X2259D02*
X2457D01*
X2506D02*
X2568D01*
X2623D02*
X2734D01*
X2784D02*
X2923D01*
X2967D02*
X3029D01*
X3081D02*
X3173D01*
X3401D02*
X3565D01*
X2017Y265D02*
X2219D01*
X2258D02*
X2457D01*
X2505D02*
X2568D01*
X2622D02*
X2733D01*
X2783D02*
X2922D01*
X2966D02*
X3029D01*
X3080D02*
X3172D01*
X3400D02*
X3565D01*
X2016Y264D02*
X2218D01*
X2258D02*
X2457D01*
X2504D02*
X2567D01*
X2620D02*
X2733D01*
X2782D02*
X2921D01*
X2965D02*
X3028D01*
X3079D02*
X3171D01*
X3398D02*
X3565D01*
X2014Y263D02*
X2218D01*
X2257D02*
X2458D01*
X2502D02*
X2567D01*
X2619D02*
X2733D01*
X2781D02*
X2920D01*
X2963D02*
X3028D01*
X3077D02*
X3169D01*
X3397D02*
X3565D01*
X2013Y262D02*
X2218D01*
X2256D02*
X2458D01*
X2502D02*
X2567D01*
X2618D02*
X2733D01*
X2780D02*
X2918D01*
X2963D02*
X3028D01*
X3076D02*
X3168D01*
X3396D02*
X3566D01*
X2012Y261D02*
X2218D01*
X2256D02*
X2458D01*
X2502D02*
X2567D01*
X2616D02*
X2733D01*
X2779D02*
X2917D01*
X2963D02*
X3028D01*
X3075D02*
X3167D01*
X3395D02*
X3566D01*
X2010Y260D02*
X2218D01*
X2255D02*
X2459D01*
X2502D02*
X2567D01*
X2615D02*
X2732D01*
X2778D02*
X2916D01*
X2963D02*
X3028D01*
X3073D02*
X3166D01*
X3393D02*
X3566D01*
X2009Y259D02*
X2218D01*
X2254D02*
X2345D01*
X2367D02*
X2459D01*
X2502D02*
X2567D01*
X2614D02*
X2732D01*
X2777D02*
X2914D01*
X2963D02*
X3028D01*
X3072D02*
X3164D01*
X3392D02*
X3566D01*
X2008Y258D02*
X2217D01*
X2253D02*
X2341D01*
X2371D02*
X2459D01*
X2501D02*
X2566D01*
X2613D02*
X2732D01*
X2776D02*
X2913D01*
X2962D02*
X3027D01*
X3071D02*
X3163D01*
X3391D02*
X3566D01*
X2007Y257D02*
X2217D01*
X2253D02*
X2337D01*
X2374D02*
X2460D01*
X2501D02*
X2566D01*
X2611D02*
X2732D01*
X2775D02*
X2912D01*
X2962D02*
X3027D01*
X3070D02*
X3162D01*
X3390D02*
X3566D01*
X2006Y256D02*
X2217D01*
X2252D02*
X2335D01*
X2377D02*
X2460D01*
X2501D02*
X2566D01*
X2610D02*
X2732D01*
X2774D02*
X2910D01*
X2962D02*
X3027D01*
X3068D02*
X3161D01*
X3390D02*
X3566D01*
X2006Y255D02*
X2071D01*
X2152D02*
X2217D01*
X2251D02*
X2332D01*
X2378D02*
X2460D01*
X2501D02*
X2566D01*
X2609D02*
X2732D01*
X2774D02*
X2882D01*
X2962D02*
X3027D01*
X3067D02*
X3160D01*
X3493D02*
X3566D01*
X2006Y254D02*
X2071D01*
X2152D02*
X2217D01*
X2251D02*
X2330D01*
X2380D02*
X2461D01*
X2501D02*
X2566D01*
X2607D02*
X2731D01*
X2773D02*
X2876D01*
X2962D02*
X3027D01*
X3066D02*
X3158D01*
X3495D02*
X3566D01*
X2006Y253D02*
X2071D01*
X2151D02*
X2217D01*
X2250D02*
X2328D01*
X2382D02*
X2461D01*
X2500D02*
X2566D01*
X2606D02*
X2731D01*
X2772D02*
X2872D01*
X2961D02*
X3027D01*
X3065D02*
X3157D01*
X3496D02*
X3566D01*
X2006Y252D02*
X2071D01*
X2151D02*
X2216D01*
X2250D02*
X2327D01*
X2383D02*
X2461D01*
X2500D02*
X2565D01*
X2605D02*
X2731D01*
X2771D02*
X2868D01*
X2961D02*
X3026D01*
X3063D02*
X3156D01*
X3497D02*
X3566D01*
X2006Y251D02*
X2071D01*
X2151D02*
X2216D01*
X2249D02*
X2325D01*
X2384D02*
X2461D01*
X2500D02*
X2565D01*
X2604D02*
X2731D01*
X2770D02*
X2865D01*
X2961D02*
X3026D01*
X3062D02*
X3155D01*
X3498D02*
X3566D01*
X2005Y250D02*
X2070D01*
X2151D02*
X2216D01*
X2248D02*
X2324D01*
X2385D02*
X2461D01*
X2500D02*
X2565D01*
X2602D02*
X2731D01*
X2770D02*
X2862D01*
X2961D02*
X3026D01*
X3061D02*
X3153D01*
X3498D02*
X3566D01*
X2005Y249D02*
X2070D01*
X2151D02*
X2216D01*
X2248D02*
X2322D01*
X2386D02*
X2462D01*
X2500D02*
X2565D01*
X2601D02*
X2730D01*
X2769D02*
X2860D01*
X2961D02*
X3026D01*
X3059D02*
X3152D01*
X3499D02*
X3566D01*
X2005Y248D02*
X2070D01*
X2151D02*
X2216D01*
X2247D02*
X2321D01*
X2387D02*
X2462D01*
X2500D02*
X2565D01*
X2600D02*
X2730D01*
X2768D02*
X2857D01*
X2961D02*
X3026D01*
X3058D02*
X3151D01*
X3499D02*
X3566D01*
X2005Y247D02*
X2070D01*
X2150D02*
X2215D01*
X2247D02*
X2320D01*
X2388D02*
X2462D01*
X2499D02*
X2564D01*
X2599D02*
X2730D01*
X2767D02*
X2855D01*
X2960D02*
X3025D01*
X3057D02*
X3150D01*
X3499D02*
X3565D01*
X2005Y246D02*
X2070D01*
X2150D02*
X2215D01*
X2246D02*
X2319D01*
X2389D02*
X2462D01*
X2499D02*
X2564D01*
X2597D02*
X2730D01*
X2767D02*
X2853D01*
X2960D02*
X3025D01*
X3056D02*
X3149D01*
X3500D02*
X3565D01*
X2005Y245D02*
X2070D01*
X2150D02*
X2215D01*
X2246D02*
X2318D01*
X2390D02*
X2462D01*
X2499D02*
X2564D01*
X2596D02*
X2730D01*
X2766D02*
X2851D01*
X2960D02*
X3025D01*
X3054D02*
X3147D01*
X3500D02*
X3565D01*
X2004Y244D02*
X2069D01*
X2150D02*
X2215D01*
X2245D02*
X2317D01*
X2390D02*
X2463D01*
X2499D02*
X2564D01*
X2595D02*
X2730D01*
X2765D02*
X2849D01*
X2960D02*
X3025D01*
X3053D02*
X3146D01*
X3500D02*
X3565D01*
X2004Y243D02*
X2069D01*
X2150D02*
X2215D01*
X2245D02*
X2316D01*
X2391D02*
X2463D01*
X2499D02*
X2564D01*
X2593D02*
X2729D01*
X2765D02*
X2847D01*
X2960D02*
X3025D01*
X3052D02*
X3145D01*
X3500D02*
X3565D01*
X2004Y242D02*
X2069D01*
X2150D02*
X2215D01*
X2244D02*
X2315D01*
X2391D02*
X2463D01*
X2499D02*
X2564D01*
X2592D02*
X2729D01*
X2764D02*
X2846D01*
X2960D02*
X3025D01*
X3051D02*
X3144D01*
X3500D02*
X3565D01*
X2004Y241D02*
X2069D01*
X2149D02*
X2214D01*
X2244D02*
X2314D01*
X2392D02*
X2463D01*
X2498D02*
X2563D01*
X2591D02*
X2729D01*
X2763D02*
X2844D01*
X2959D02*
X3024D01*
X3049D02*
X3142D01*
X3500D02*
X3565D01*
X2004Y240D02*
X2069D01*
X2149D02*
X2214D01*
X2243D02*
X2313D01*
X2393D02*
X2463D01*
X2498D02*
X2563D01*
X2590D02*
X2729D01*
X2763D02*
X2843D01*
X2959D02*
X3024D01*
X3048D02*
X3141D01*
X3499D02*
X3564D01*
X2003Y239D02*
X2068D01*
X2149D02*
X2214D01*
X2243D02*
X2312D01*
X2393D02*
X2463D01*
X2498D02*
X2563D01*
X2588D02*
X2729D01*
X2762D02*
X2841D01*
X2959D02*
X3024D01*
X3047D02*
X3140D01*
X3499D02*
X3564D01*
X2003Y238D02*
X2068D01*
X2149D02*
X2214D01*
X2242D02*
X2311D01*
X2393D02*
X2463D01*
X2498D02*
X2563D01*
X2587D02*
X2729D01*
X2762D02*
X2840D01*
X2959D02*
X3024D01*
X3045D02*
X3139D01*
X3499D02*
X3564D01*
X2003Y237D02*
X2068D01*
X2149D02*
X2214D01*
X2242D02*
X2311D01*
X2394D02*
X2463D01*
X2498D02*
X2563D01*
X2586D02*
X2728D01*
X2761D02*
X2838D01*
X2959D02*
X3024D01*
X3044D02*
X3138D01*
X3499D02*
X3564D01*
X2003Y236D02*
X2068D01*
X2148D02*
X2213D01*
X2241D02*
X2310D01*
X2394D02*
X2464D01*
X2497D02*
X2562D01*
X2584D02*
X2728D01*
X2760D02*
X2837D01*
X2958D02*
X3023D01*
X3043D02*
X3136D01*
X3498D02*
X3564D01*
X2003Y235D02*
X2068D01*
X2148D02*
X2213D01*
X2241D02*
X2309D01*
X2395D02*
X2464D01*
X2497D02*
X2562D01*
X2583D02*
X2728D01*
X2760D02*
X2836D01*
X2958D02*
X3023D01*
X3042D02*
X3135D01*
X3498D02*
X3563D01*
X2003Y234D02*
X2068D01*
X2148D02*
X2213D01*
X2240D02*
X2309D01*
X2395D02*
X2464D01*
X2497D02*
X2562D01*
X2582D02*
X2728D01*
X2759D02*
X2835D01*
X2958D02*
X3023D01*
X3040D02*
X3134D01*
X3497D02*
X3563D01*
X2002Y233D02*
X2067D01*
X2148D02*
X2213D01*
X2240D02*
X2308D01*
X2395D02*
X2464D01*
X2497D02*
X2562D01*
X2581D02*
X2728D01*
X2759D02*
X2833D01*
X2958D02*
X3023D01*
X3039D02*
X3133D01*
X3497D02*
X3563D01*
X2002Y232D02*
X2067D01*
X2148D02*
X2213D01*
X2240D02*
X2307D01*
X2396D02*
X2464D01*
X2497D02*
X2562D01*
X2579D02*
X2727D01*
X2758D02*
X2832D01*
X2958D02*
X3023D01*
X3038D02*
X3131D01*
X3496D02*
X3562D01*
X2002Y231D02*
X2067D01*
X2148D02*
X2213D01*
X2239D02*
X2307D01*
X2396D02*
X2464D01*
X2497D02*
X2562D01*
X2578D02*
X2727D01*
X2758D02*
X2831D01*
X2958D02*
X3023D01*
X3037D02*
X3130D01*
X3495D02*
X3562D01*
X2002Y230D02*
X2067D01*
X2147D02*
X2212D01*
X2239D02*
X2306D01*
X2396D02*
X2464D01*
X2496D02*
X2561D01*
X2577D02*
X2727D01*
X2757D02*
X2830D01*
X2957D02*
X3022D01*
X3035D02*
X3129D01*
X3495D02*
X3562D01*
X2002Y229D02*
X2067D01*
X2147D02*
X2212D01*
X2238D02*
X2306D01*
X2396D02*
X2464D01*
X2496D02*
X2561D01*
X2575D02*
X2727D01*
X2757D02*
X2829D01*
X2957D02*
X3022D01*
X3034D02*
X3128D01*
X3494D02*
X3562D01*
X2001Y228D02*
X2067D01*
X2147D02*
X2212D01*
X2238D02*
X2305D01*
X2397D02*
X2464D01*
X2496D02*
X2561D01*
X2574D02*
X2727D01*
X2756D02*
X2828D01*
X2957D02*
X3022D01*
X3033D02*
X3126D01*
X3493D02*
X3561D01*
X2001Y227D02*
X2066D01*
X2147D02*
X2212D01*
X2238D02*
X2304D01*
X2397D02*
X2464D01*
X2496D02*
X2561D01*
X2573D02*
X2727D01*
X2756D02*
X2827D01*
X2957D02*
X3022D01*
X3031D02*
X3125D01*
X3492D02*
X3561D01*
X2001Y226D02*
X2066D01*
X2147D02*
X2212D01*
X2237D02*
X2304D01*
X2397D02*
X2464D01*
X2496D02*
X2561D01*
X2572D02*
X2726D01*
X2755D02*
X2826D01*
X2957D02*
X3022D01*
X3030D02*
X3124D01*
X3490D02*
X3560D01*
X2001Y225D02*
X2066D01*
X2146D02*
X2212D01*
X2237D02*
X2303D01*
X2397D02*
X2464D01*
X2495D02*
X2561D01*
X2570D02*
X2726D01*
X2755D02*
X2825D01*
X2956D02*
X3022D01*
X3029D02*
X3123D01*
X3489D02*
X3560D01*
X2001Y224D02*
X2066D01*
X2146D02*
X2211D01*
X2237D02*
X2303D01*
X2397D02*
X2464D01*
X2495D02*
X2560D01*
X2569D02*
X2726D01*
X2754D02*
X2825D01*
X2956D02*
X3021D01*
X3028D02*
X3122D01*
X3488D02*
X3560D01*
X2001Y223D02*
X2066D01*
X2146D02*
X2211D01*
X2236D02*
X2303D01*
X2397D02*
X2464D01*
X2495D02*
X2560D01*
X2568D02*
X2726D01*
X2754D02*
X2824D01*
X2956D02*
X3021D01*
X3026D02*
X3120D01*
X3486D02*
X3559D01*
X2000Y222D02*
X2065D01*
X2146D02*
X2211D01*
X2236D02*
X2302D01*
X2398D02*
X2464D01*
X2495D02*
X2560D01*
X2567D02*
X2726D01*
X2754D02*
X2823D01*
X2956D02*
X3021D01*
X3025D02*
X3119D01*
X3194D02*
X3357D01*
X3485D02*
X3559D01*
X2000Y221D02*
X2065D01*
X2146D02*
X2211D01*
X2236D02*
X2302D01*
X2398D02*
X2464D01*
X2495D02*
X2560D01*
X2565D02*
X2725D01*
X2753D02*
X2822D01*
X2956D02*
X3021D01*
X3024D02*
X3118D01*
X3194D02*
X3356D01*
X3484D02*
X3558D01*
X2000Y220D02*
X2065D01*
X2146D02*
X2211D01*
X2235D02*
X2301D01*
X2398D02*
X2464D01*
X2495D02*
X2560D01*
X2564D02*
X2725D01*
X2753D02*
X2821D01*
X2956D02*
X3021D01*
X3022D02*
X3117D01*
X3194D02*
X3356D01*
X3482D02*
X3558D01*
X2000Y219D02*
X2065D01*
X2145D02*
X2210D01*
X2235D02*
X2301D01*
X2398D02*
X2464D01*
X2494D02*
X2559D01*
X2563D02*
X2725D01*
X2752D02*
X2821D01*
X2955D02*
X3020D01*
X3021D02*
X3115D01*
X3194D02*
X3356D01*
X3481D02*
X3557D01*
X2000Y218D02*
X2065D01*
X2145D02*
X2210D01*
X2235D02*
X2300D01*
X2398D02*
X2464D01*
X2494D02*
X2559D01*
X2561D02*
X2659D01*
X2660D02*
X2725D01*
X2752D02*
X2820D01*
X2955D02*
X3114D01*
X3193D02*
X3356D01*
X3480D02*
X3557D01*
X2000Y217D02*
X2065D01*
X2145D02*
X2210D01*
X2234D02*
X2300D01*
X2398D02*
X2464D01*
X2494D02*
X2559D01*
X2560D02*
X2658D01*
X2660D02*
X2725D01*
X2752D02*
X2819D01*
X2955D02*
X3113D01*
X3193D02*
X3356D01*
X3478D02*
X3556D01*
X1999Y216D02*
X2064D01*
X2145D02*
X2210D01*
X2234D02*
X2300D01*
X2398D02*
X2464D01*
X2494D02*
X2657D01*
X2660D02*
X2725D01*
X2751D02*
X2819D01*
X2955D02*
X3112D01*
X3193D02*
X3356D01*
X3477D02*
X3556D01*
X1999Y215D02*
X2064D01*
X2145D02*
X2210D01*
X2234D02*
X2299D01*
X2398D02*
X2464D01*
X2494D02*
X2655D01*
X2659D02*
X2724D01*
X2751D02*
X2818D01*
X2955D02*
X3111D01*
X3193D02*
X3355D01*
X3476D02*
X3555D01*
X1999Y214D02*
X2064D01*
X2145D02*
X2210D01*
X2233D02*
X2299D01*
X2398D02*
X2464D01*
X2494D02*
X2654D01*
X2659D02*
X2724D01*
X2751D02*
X2818D01*
X2955D02*
X3109D01*
X3193D02*
X3355D01*
X3474D02*
X3555D01*
X1999Y213D02*
X2064D01*
X2144D02*
X2209D01*
X2233D02*
X2299D01*
X2398D02*
X2464D01*
X2493D02*
X2653D01*
X2659D02*
X2724D01*
X2750D02*
X2817D01*
X2954D02*
X3108D01*
X3193D02*
X3355D01*
X3473D02*
X3554D01*
X1999Y212D02*
X2064D01*
X2144D02*
X2209D01*
X2233D02*
X2298D01*
X2398D02*
X2463D01*
X2493D02*
X2652D01*
X2659D02*
X2724D01*
X2750D02*
X2817D01*
X2954D02*
X3107D01*
X3192D02*
X3355D01*
X3472D02*
X3554D01*
X1998Y211D02*
X2063D01*
X2144D02*
X2209D01*
X2233D02*
X2298D01*
X2398D02*
X2463D01*
X2493D02*
X2650D01*
X2659D02*
X2724D01*
X2750D02*
X2816D01*
X2954D02*
X3106D01*
X3192D02*
X3355D01*
X3470D02*
X3553D01*
X1998Y210D02*
X2063D01*
X2144D02*
X2209D01*
X2232D02*
X2298D01*
X2398D02*
X2463D01*
X2493D02*
X2649D01*
X2658D02*
X2724D01*
X2749D02*
X2816D01*
X2954D02*
X3104D01*
X3192D02*
X3354D01*
X3469D02*
X3553D01*
X1998Y209D02*
X2063D01*
X2144D02*
X2209D01*
X2232D02*
X2297D01*
X2398D02*
X2463D01*
X2493D02*
X2648D01*
X2658D02*
X2723D01*
X2749D02*
X2815D01*
X2954D02*
X3103D01*
X3192D02*
X3354D01*
X3468D02*
X3552D01*
X1998Y208D02*
X2063D01*
X2143D02*
X2208D01*
X2232D02*
X2297D01*
X2398D02*
X2463D01*
X2492D02*
X2646D01*
X2658D02*
X2723D01*
X2749D02*
X2815D01*
X2953D02*
X3102D01*
X3192D02*
X3354D01*
X3466D02*
X3551D01*
X1998Y207D02*
X2063D01*
X2143D02*
X2208D01*
X2232D02*
X2297D01*
X2398D02*
X2463D01*
X2492D02*
X2645D01*
X2658D02*
X2723D01*
X2748D02*
X2814D01*
X2953D02*
X3101D01*
X3191D02*
X3354D01*
X3465D02*
X3551D01*
X1998Y206D02*
X2063D01*
X2143D02*
X2208D01*
X2231D02*
X2296D01*
X2398D02*
X2463D01*
X2492D02*
X2644D01*
X2658D02*
X2723D01*
X2748D02*
X2814D01*
X2953D02*
X3100D01*
X3191D02*
X3354D01*
X3464D02*
X3550D01*
X1997Y205D02*
X2062D01*
X2143D02*
X2208D01*
X2231D02*
X2296D01*
X2398D02*
X2463D01*
X2492D02*
X2642D01*
X2658D02*
X2723D01*
X2748D02*
X2814D01*
X2953D02*
X3098D01*
X3191D02*
X3354D01*
X3462D02*
X3549D01*
X1997Y204D02*
X2062D01*
X2143D02*
X2208D01*
X2231D02*
X2296D01*
X2398D02*
X2463D01*
X2492D02*
X2641D01*
X2657D02*
X2722D01*
X2748D02*
X2813D01*
X2953D02*
X3097D01*
X3191D02*
X3353D01*
X3461D02*
X3549D01*
X1997Y203D02*
X2062D01*
X2143D02*
X2208D01*
X2231D02*
X2296D01*
X2397D02*
X2463D01*
X2492D02*
X2640D01*
X2657D02*
X2722D01*
X2747D02*
X2813D01*
X2953D02*
X3096D01*
X3191D02*
X3353D01*
X3460D02*
X3548D01*
X1997Y202D02*
X2062D01*
X2142D02*
X2207D01*
X2230D02*
X2295D01*
X2397D02*
X2462D01*
X2491D02*
X2639D01*
X2657D02*
X2722D01*
X2747D02*
X2813D01*
X2952D02*
X3095D01*
X3191D02*
X3353D01*
X3458D02*
X3547D01*
X1997Y201D02*
X2062D01*
X2142D02*
X2207D01*
X2230D02*
X2295D01*
X2397D02*
X2462D01*
X2491D02*
X2637D01*
X2657D02*
X2722D01*
X2747D02*
X2812D01*
X2952D02*
X3093D01*
X3190D02*
X3353D01*
X3457D02*
X3546D01*
X1996Y200D02*
X2062D01*
X2142D02*
X2207D01*
X2230D02*
X2295D01*
X2397D02*
X2462D01*
X2491D02*
X2636D01*
X2657D02*
X2722D01*
X2747D02*
X2812D01*
X2952D02*
X3094D01*
X3190D02*
X3353D01*
X3456D02*
X3546D01*
X1996Y199D02*
X2061D01*
X2142D02*
X2207D01*
X2230D02*
X2295D01*
X2397D02*
X2462D01*
X2491D02*
X2635D01*
X2657D02*
X2722D01*
X2746D02*
X2812D01*
X2952D02*
X3095D01*
X3190D02*
X3353D01*
X3455D02*
X3545D01*
X1996Y198D02*
X2061D01*
X2142D02*
X2207D01*
X2230D02*
X2295D01*
X2397D02*
X2462D01*
X2491D02*
X2633D01*
X2656D02*
X2721D01*
X2746D02*
X2811D01*
X2952D02*
X3096D01*
X3190D02*
X3352D01*
X3453D02*
X3544D01*
X1996Y197D02*
X2061D01*
X2141D02*
X2207D01*
X2229D02*
X2294D01*
X2397D02*
X2462D01*
X2490D02*
X2632D01*
X2656D02*
X2721D01*
X2746D02*
X2811D01*
X2951D02*
X3097D01*
X3190D02*
X3352D01*
X3452D02*
X3543D01*
X1996Y196D02*
X2061D01*
X2141D02*
X2206D01*
X2229D02*
X2294D01*
X2396D02*
X2461D01*
X2490D02*
X2631D01*
X2656D02*
X2721D01*
X2746D02*
X2811D01*
X2951D02*
X3098D01*
X3189D02*
X3352D01*
X3451D02*
X3542D01*
X1996Y195D02*
X2061D01*
X2141D02*
X2206D01*
X2229D02*
X2294D01*
X2396D02*
X2461D01*
X2490D02*
X2630D01*
X2656D02*
X2721D01*
X2746D02*
X2811D01*
X2951D02*
X3099D01*
X3189D02*
X3352D01*
X3449D02*
X3541D01*
X1995Y194D02*
X2060D01*
X2141D02*
X2206D01*
X2229D02*
X2294D01*
X2396D02*
X2461D01*
X2490D02*
X2628D01*
X2656D02*
X2721D01*
X2746D02*
X2811D01*
X2951D02*
X3100D01*
X3189D02*
X3352D01*
X3448D02*
X3540D01*
X1995Y193D02*
X2060D01*
X2141D02*
X2206D01*
X2229D02*
X2294D01*
X2396D02*
X2461D01*
X2490D02*
X2627D01*
X2655D02*
X2720D01*
X2745D02*
X2810D01*
X2951D02*
X3100D01*
X3189D02*
X3351D01*
X3447D02*
X3539D01*
X1995Y192D02*
X2060D01*
X2141D02*
X2206D01*
X2228D02*
X2293D01*
X2396D02*
X2461D01*
X2490D02*
X2626D01*
X2655D02*
X2720D01*
X2745D02*
X2810D01*
X2951D02*
X3101D01*
X3189D02*
X3351D01*
X3445D02*
X3538D01*
X1995Y191D02*
X2060D01*
X2140D02*
X2205D01*
X2228D02*
X2293D01*
X2395D02*
X2461D01*
X2489D02*
X2624D01*
X2655D02*
X2720D01*
X2745D02*
X2810D01*
X2950D02*
X3102D01*
X3189D02*
X3351D01*
X3444D02*
X3537D01*
X1995Y190D02*
X2060D01*
X2140D02*
X2205D01*
X2228D02*
X2293D01*
X2395D02*
X2460D01*
X2489D02*
X2623D01*
X2655D02*
X2720D01*
X2745D02*
X2810D01*
X2950D02*
X3103D01*
X3188D02*
X3351D01*
X3443D02*
X3536D01*
X1995Y189D02*
X2060D01*
X2140D02*
X2205D01*
X2228D02*
X2293D01*
X2395D02*
X2460D01*
X2489D02*
X2622D01*
X2655D02*
X2720D01*
X2745D02*
X2810D01*
X2950D02*
X3104D01*
X3188D02*
X3351D01*
X3441D02*
X3535D01*
X1994Y188D02*
X2059D01*
X2140D02*
X2205D01*
X2228D02*
X2293D01*
X2395D02*
X2460D01*
X2489D02*
X2620D01*
X2655D02*
X2720D01*
X2745D02*
X2810D01*
X2950D02*
X3105D01*
X3188D02*
X3351D01*
X3440D02*
X3534D01*
X1994Y187D02*
X2059D01*
X2140D02*
X2205D01*
X2228D02*
X2293D01*
X2395D02*
X2460D01*
X2489D02*
X2619D01*
X2654D02*
X2719D01*
X2744D02*
X2810D01*
X2950D02*
X3106D01*
X3188D02*
X3350D01*
X3439D02*
X3533D01*
X1994Y186D02*
X2059D01*
X2140D02*
X2205D01*
X2228D02*
X2293D01*
X2394D02*
X2459D01*
X2489D02*
X2618D01*
X2654D02*
X2719D01*
X2744D02*
X2810D01*
X2950D02*
X3107D01*
X3188D02*
X3350D01*
X3437D02*
X3532D01*
X1994Y185D02*
X2059D01*
X2139D02*
X2204D01*
X2227D02*
X2293D01*
X2394D02*
X2459D01*
X2488D02*
X2617D01*
X2654D02*
X2719D01*
X2744D02*
X2810D01*
X2949D02*
X3108D01*
X3188D02*
X3350D01*
X3436D02*
X3530D01*
X1994Y184D02*
X2059D01*
X2139D02*
X2204D01*
X2227D02*
X2292D01*
X2394D02*
X2459D01*
X2488D02*
X2615D01*
X2654D02*
X2719D01*
X2744D02*
X2810D01*
X2949D02*
X3109D01*
X3187D02*
X3350D01*
X3435D02*
X3529D01*
X1993Y183D02*
X2058D01*
X2139D02*
X2204D01*
X2227D02*
X2292D01*
X2394D02*
X2459D01*
X2488D02*
X2614D01*
X2654D02*
X2719D01*
X2744D02*
X2810D01*
X2949D02*
X3110D01*
X3187D02*
X3350D01*
X3433D02*
X3528D01*
X1993Y182D02*
X2058D01*
X2139D02*
X2204D01*
X2227D02*
X2292D01*
X2393D02*
X2459D01*
X2488D02*
X2613D01*
X2653D02*
X2719D01*
X2744D02*
X2810D01*
X2949D02*
X3110D01*
X3187D02*
X3349D01*
X3432D02*
X3526D01*
X1993Y181D02*
X2058D01*
X2139D02*
X2204D01*
X2227D02*
X2292D01*
X2393D02*
X2458D01*
X2488D02*
X2611D01*
X2653D02*
X2718D01*
X2744D02*
X2810D01*
X2949D02*
X3111D01*
X3187D02*
X3349D01*
X3431D02*
X3525D01*
X1993Y180D02*
X2058D01*
X2138D02*
X2203D01*
X2227D02*
X2292D01*
X2393D02*
X2458D01*
X2487D02*
X2610D01*
X2653D02*
X2718D01*
X2744D02*
X2810D01*
X2948D02*
X3112D01*
X3187D02*
X3349D01*
X3429D02*
X3524D01*
X1993Y179D02*
X2058D01*
X2138D02*
X2203D01*
X2227D02*
X2292D01*
X2392D02*
X2458D01*
X2487D02*
X2609D01*
X2653D02*
X2718D01*
X2744D02*
X2810D01*
X2948D02*
X3113D01*
X3186D02*
X3349D01*
X3428D02*
X3522D01*
X1993Y178D02*
X2058D01*
X2138D02*
X2203D01*
X2227D02*
X2292D01*
X2392D02*
X2458D01*
X2487D02*
X2608D01*
X2653D02*
X2718D01*
X2744D02*
X2810D01*
X2948D02*
X3114D01*
X3186D02*
X3349D01*
X3427D02*
X3521D01*
X1992Y177D02*
X2057D01*
X2138D02*
X2203D01*
X2227D02*
X2292D01*
X2392D02*
X2457D01*
X2487D02*
X2606D01*
X2653D02*
X2718D01*
X2744D02*
X2810D01*
X2948D02*
X3115D01*
X3186D02*
X3349D01*
X3425D02*
X3520D01*
X1992Y176D02*
X2057D01*
X2138D02*
X2203D01*
X2227D02*
X2292D01*
X2391D02*
X2457D01*
X2487D02*
X2605D01*
X2652D02*
X2717D01*
X2744D02*
X2810D01*
X2948D02*
X3116D01*
X3186D02*
X3348D01*
X3424D02*
X3518D01*
X1992Y175D02*
X2057D01*
X2138D02*
X2203D01*
X2226D02*
X2292D01*
X2391D02*
X2457D01*
X2487D02*
X2604D01*
X2652D02*
X2717D01*
X2744D02*
X2811D01*
X2948D02*
X3117D01*
X3186D02*
X3348D01*
X3423D02*
X3517D01*
X1992Y174D02*
X2057D01*
X2137D02*
X2202D01*
X2226D02*
X2292D01*
X2391D02*
X2456D01*
X2486D02*
X2602D01*
X2652D02*
X2717D01*
X2744D02*
X2811D01*
X2947D02*
X3118D01*
X3186D02*
X3348D01*
X3421D02*
X3516D01*
X1992Y173D02*
X2057D01*
X2137D02*
X2202D01*
X2226D02*
X2292D01*
X2390D02*
X2456D01*
X2486D02*
X2601D01*
X2652D02*
X2717D01*
X2744D02*
X2811D01*
X2947D02*
X3119D01*
X3185D02*
X3348D01*
X3420D02*
X3514D01*
X1991Y172D02*
X2057D01*
X2137D02*
X2202D01*
X2226D02*
X2292D01*
X2390D02*
X2456D01*
X2486D02*
X2600D01*
X2652D02*
X2717D01*
X2744D02*
X2811D01*
X2947D02*
X3120D01*
X3185D02*
X3348D01*
X3419D02*
X3513D01*
X1991Y171D02*
X2056D01*
X2137D02*
X2202D01*
X2226D02*
X2292D01*
X2390D02*
X2455D01*
X2486D02*
X2599D01*
X2651D02*
X2717D01*
X2744D02*
X2812D01*
X2947D02*
X3121D01*
X3185D02*
X3348D01*
X3418D02*
X3512D01*
X1991Y170D02*
X2056D01*
X2137D02*
X2202D01*
X2226D02*
X2292D01*
X2389D02*
X2455D01*
X2486D02*
X2597D01*
X2651D02*
X2716D01*
X2744D02*
X2812D01*
X2947D02*
X3121D01*
X3185D02*
X3347D01*
X3416D02*
X3510D01*
X1991Y169D02*
X2056D01*
X2136D02*
X2201D01*
X2226D02*
X2292D01*
X2389D02*
X2455D01*
X2485D02*
X2596D01*
X2651D02*
X2716D01*
X2744D02*
X2812D01*
X2946D02*
X3122D01*
X3185D02*
X3347D01*
X3415D02*
X3509D01*
X1991Y168D02*
X2056D01*
X2136D02*
X2201D01*
X2226D02*
X2292D01*
X2388D02*
X2455D01*
X2485D02*
X2595D01*
X2651D02*
X2716D01*
X2744D02*
X2813D01*
X2946D02*
X3123D01*
X3184D02*
X3347D01*
X3414D02*
X3508D01*
X1991Y167D02*
X2056D01*
X2136D02*
X2201D01*
X2226D02*
X2292D01*
X2388D02*
X2454D01*
X2485D02*
X2593D01*
X2651D02*
X2716D01*
X2744D02*
X2813D01*
X2946D02*
X3124D01*
X3184D02*
X3347D01*
X3412D02*
X3506D01*
X1990Y166D02*
X2055D01*
X2136D02*
X2201D01*
X2226D02*
X2292D01*
X2387D02*
X2454D01*
X2485D02*
X2592D01*
X2651D02*
X2716D01*
X2744D02*
X2814D01*
X2946D02*
X3125D01*
X3184D02*
X3347D01*
X3411D02*
X3505D01*
X1990Y165D02*
X2055D01*
X2136D02*
X2201D01*
X2226D02*
X2292D01*
X2387D02*
X2453D01*
X2485D02*
X2591D01*
X2650D02*
X2715D01*
X2744D02*
X2814D01*
X2946D02*
X3126D01*
X3184D02*
X3346D01*
X3410D02*
X3504D01*
X1990Y164D02*
X2055D01*
X2136D02*
X2201D01*
X2226D02*
X2293D01*
X2386D02*
X2453D01*
X2485D02*
X2589D01*
X2650D02*
X2715D01*
X2744D02*
X2815D01*
X2946D02*
X3127D01*
X3408D02*
X3502D01*
X1990Y163D02*
X2055D01*
X2135D02*
X2200D01*
X2226D02*
X2293D01*
X2386D02*
X2453D01*
X2484D02*
X2588D01*
X2650D02*
X2715D01*
X2744D02*
X2815D01*
X2945D02*
X3128D01*
X3407D02*
X3501D01*
X1990Y162D02*
X2055D01*
X2135D02*
X2200D01*
X2226D02*
X2293D01*
X2385D02*
X2452D01*
X2484D02*
X2587D01*
X2650D02*
X2715D01*
X2744D02*
X2816D01*
X2945D02*
X3129D01*
X3406D02*
X3500D01*
X1990Y161D02*
X2055D01*
X2135D02*
X2200D01*
X2226D02*
X2293D01*
X2385D02*
X2452D01*
X2484D02*
X2586D01*
X2650D02*
X2715D01*
X2744D02*
X2816D01*
X2945D02*
X3130D01*
X3404D02*
X3498D01*
X1989Y160D02*
X2054D01*
X2135D02*
X2200D01*
X2226D02*
X2293D01*
X2384D02*
X2452D01*
X2484D02*
X2584D01*
X2650D02*
X2715D01*
X2744D02*
X2817D01*
X2945D02*
X3131D01*
X3403D02*
X3497D01*
X1989Y159D02*
X2054D01*
X2135D02*
X2200D01*
X2226D02*
X2294D01*
X2384D02*
X2451D01*
X2484D02*
X2583D01*
X2649D02*
X2714D01*
X2745D02*
X2818D01*
X2945D02*
X3132D01*
X3402D02*
X3496D01*
X1989Y158D02*
X2054D01*
X2134D02*
X2200D01*
X2226D02*
X2294D01*
X2383D02*
X2451D01*
X2484D02*
X2582D01*
X2649D02*
X2714D01*
X2745D02*
X2818D01*
X2945D02*
X3132D01*
X3400D02*
X3494D01*
X1989Y157D02*
X2054D01*
X2134D02*
X2199D01*
X2226D02*
X2294D01*
X2383D02*
X2450D01*
X2483D02*
X2580D01*
X2649D02*
X2714D01*
X2745D02*
X2819D01*
X2944D02*
X3037D01*
X3039D02*
X3133D01*
X3399D02*
X3493D01*
X1989Y156D02*
X2054D01*
X2134D02*
X2199D01*
X2226D02*
X2294D01*
X2382D02*
X2450D01*
X2483D02*
X2579D01*
X2649D02*
X2714D01*
X2745D02*
X2820D01*
X2944D02*
X3035D01*
X3040D02*
X3134D01*
X3398D02*
X3492D01*
X1988Y155D02*
X2053D01*
X2134D02*
X2199D01*
X2226D02*
X2295D01*
X2381D02*
X2450D01*
X2483D02*
X2578D01*
X2649D02*
X2714D01*
X2745D02*
X2821D01*
X2944D02*
X3034D01*
X3041D02*
X3135D01*
X3396D02*
X3490D01*
X1988Y154D02*
X2053D01*
X2134D02*
X2199D01*
X2226D02*
X2295D01*
X2381D02*
X2449D01*
X2483D02*
X2577D01*
X2648D02*
X2713D01*
X2745D02*
X2822D01*
X2944D02*
X3033D01*
X3042D02*
X3136D01*
X3395D02*
X3489D01*
X1988Y153D02*
X2053D01*
X2134D02*
X2199D01*
X2227D02*
X2295D01*
X2380D02*
X2449D01*
X2483D02*
X2575D01*
X2648D02*
X2713D01*
X2746D02*
X2822D01*
X2944D02*
X3032D01*
X3043D02*
X3137D01*
X3394D02*
X3488D01*
X1988Y152D02*
X2053D01*
X2133D02*
X2198D01*
X2227D02*
X2296D01*
X2379D02*
X2448D01*
X2482D02*
X2574D01*
X2648D02*
X2713D01*
X2746D02*
X2823D01*
X2943D02*
X3030D01*
X3044D02*
X3137D01*
X3392D02*
X3486D01*
X1988Y151D02*
X2053D01*
X2133D02*
X2198D01*
X2227D02*
X2296D01*
X2378D02*
X2448D01*
X2482D02*
X2573D01*
X2648D02*
X2713D01*
X2746D02*
X2824D01*
X2943D02*
X3029D01*
X3045D02*
X3137D01*
X3391D02*
X3485D01*
X1988Y150D02*
X2053D01*
X2133D02*
X2198D01*
X2227D02*
X2297D01*
X2378D02*
X2447D01*
X2482D02*
X2571D01*
X2648D02*
X2713D01*
X2746D02*
X2825D01*
X2943D02*
X3028D01*
X3046D02*
X3137D01*
X3390D02*
X3484D01*
X1987Y149D02*
X2052D01*
X2133D02*
X2198D01*
X2227D02*
X2297D01*
X2377D02*
X2447D01*
X2482D02*
X2570D01*
X2648D02*
X2713D01*
X2747D02*
X2827D01*
X2943D02*
X3026D01*
X3046D02*
X3137D01*
X3388D02*
X3482D01*
X1987Y148D02*
X2052D01*
X2133D02*
X2198D01*
X2227D02*
X2297D01*
X2376D02*
X2446D01*
X2482D02*
X2569D01*
X2647D02*
X2712D01*
X2747D02*
X2828D01*
X2943D02*
X3025D01*
X3047D02*
X3136D01*
X3387D02*
X3481D01*
X1987Y147D02*
X2052D01*
X2133D02*
X2198D01*
X2227D02*
X2298D01*
X2375D02*
X2446D01*
X2482D02*
X2567D01*
X2647D02*
X2712D01*
X2747D02*
X2829D01*
X2943D02*
X3024D01*
X3048D02*
X3136D01*
X3386D02*
X3480D01*
X1987Y146D02*
X2052D01*
X2132D02*
X2197D01*
X2227D02*
X2299D01*
X2374D02*
X2445D01*
X2481D02*
X2566D01*
X2647D02*
X2712D01*
X2747D02*
X2830D01*
X2942D02*
X3023D01*
X3049D02*
X3136D01*
X3384D02*
X3478D01*
X1987Y145D02*
X2052D01*
X2132D02*
X2197D01*
X2228D02*
X2299D01*
X2373D02*
X2445D01*
X2481D02*
X2565D01*
X2647D02*
X2712D01*
X2748D02*
X2832D01*
X2942D02*
X3021D01*
X3050D02*
X3136D01*
X3383D02*
X3477D01*
X1986Y144D02*
X2052D01*
X2132D02*
X2197D01*
X2228D02*
X2300D01*
X2372D02*
X2444D01*
X2481D02*
X2564D01*
X2647D02*
X2712D01*
X2748D02*
X2833D01*
X2942D02*
X3020D01*
X3051D02*
X3136D01*
X3382D02*
X3476D01*
X1986Y143D02*
X2051D01*
X2132D02*
X2197D01*
X2228D02*
X2301D01*
X2371D02*
X2444D01*
X2481D02*
X2562D01*
X2646D02*
X2712D01*
X2748D02*
X2835D01*
X2942D02*
X3019D01*
X3052D02*
X3136D01*
X3381D02*
X3474D01*
X1986Y142D02*
X2051D01*
X2132D02*
X2197D01*
X2228D02*
X2301D01*
X2370D02*
X2443D01*
X2481D02*
X2561D01*
X2646D02*
X2711D01*
X2749D02*
X2837D01*
X2942D02*
X3018D01*
X3053D02*
X3135D01*
X3379D02*
X3473D01*
X1986Y141D02*
X2051D01*
X2131D02*
X2196D01*
X2228D02*
X2302D01*
X2369D02*
X2443D01*
X2480D02*
X2560D01*
X2646D02*
X2711D01*
X2749D02*
X2838D01*
X2941D02*
X3016D01*
X3054D02*
X3135D01*
X3378D02*
X3472D01*
X1986Y140D02*
X2051D01*
X2131D02*
X2196D01*
X2229D02*
X2303D01*
X2367D02*
X2442D01*
X2480D02*
X2558D01*
X2646D02*
X2711D01*
X2749D02*
X2840D01*
X2941D02*
X3015D01*
X3055D02*
X3135D01*
X3377D02*
X3470D01*
X1986Y139D02*
X2051D01*
X2131D02*
X2196D01*
X2229D02*
X2304D01*
X2366D02*
X2441D01*
X2480D02*
X2557D01*
X2646D02*
X2711D01*
X2750D02*
X2843D01*
X2941D02*
X3014D01*
X3056D02*
X3135D01*
X3375D02*
X3469D01*
X1985Y138D02*
X2050D01*
X2131D02*
X2196D01*
X2229D02*
X2305D01*
X2364D02*
X2441D01*
X2480D02*
X2556D01*
X2646D02*
X2711D01*
X2750D02*
X2845D01*
X2941D02*
X3012D01*
X3057D02*
X3135D01*
X3374D02*
X3468D01*
X1985Y137D02*
X2050D01*
X2131D02*
X2196D01*
X2229D02*
X2306D01*
X2363D02*
X2440D01*
X2480D02*
X2555D01*
X2645D02*
X2710D01*
X2751D02*
X2848D01*
X2941D02*
X3011D01*
X3058D02*
X3134D01*
X3373D02*
X3466D01*
X1985Y136D02*
X2050D01*
X2131D02*
X2196D01*
X2229D02*
X2308D01*
X2361D02*
X2440D01*
X2480D02*
X2553D01*
X2645D02*
X2710D01*
X2751D02*
X2851D01*
X2941D02*
X3010D01*
X3059D02*
X3134D01*
X3371D02*
X3465D01*
X1985Y135D02*
X2050D01*
X2130D02*
X2195D01*
X2230D02*
X2309D01*
X2359D02*
X2439D01*
X2479D02*
X2552D01*
X2645D02*
X2710D01*
X2751D02*
X2855D01*
X2940D02*
X3009D01*
X3060D02*
X3134D01*
X3370D02*
X3464D01*
X1985Y134D02*
X2050D01*
X2130D02*
X2195D01*
X2230D02*
X2311D01*
X2357D02*
X2438D01*
X2479D02*
X2551D01*
X2645D02*
X2710D01*
X2752D02*
X2861D01*
X2940D02*
X3007D01*
X3060D02*
X3134D01*
X3369D02*
X3462D01*
X1984Y133D02*
X2050D01*
X2130D02*
X2195D01*
X2230D02*
X2313D01*
X2355D02*
X2438D01*
X2479D02*
X2549D01*
X2645D02*
X2710D01*
X2752D02*
X2875D01*
X2940D02*
X3006D01*
X3061D02*
X3134D01*
X3367D02*
X3461D01*
X1984Y132D02*
X2049D01*
X2130D02*
X2195D01*
X2231D02*
X2315D01*
X2352D02*
X2437D01*
X2479D02*
X2548D01*
X2645D02*
X2710D01*
X2753D02*
X2888D01*
X2940D02*
X3005D01*
X3062D02*
X3134D01*
X3367D02*
X3545D01*
X1984Y131D02*
X2049D01*
X2130D02*
X2195D01*
X2231D02*
X2318D01*
X2349D02*
X2436D01*
X2479D02*
X2547D01*
X2644D02*
X2709D01*
X2753D02*
X2888D01*
X2940D02*
X3005D01*
X3063D02*
X3133D01*
X3367D02*
X3545D01*
X1984Y130D02*
X2049D01*
X2129D02*
X2195D01*
X2231D02*
X2322D01*
X2344D02*
X2436D01*
X2478D02*
X2545D01*
X2644D02*
X2709D01*
X2754D02*
X2888D01*
X2939D02*
X3005D01*
X3064D02*
X3133D01*
X3367D02*
X3545D01*
X1984Y129D02*
X2049D01*
X2129D02*
X2194D01*
X2232D02*
X2435D01*
X2478D02*
X2544D01*
X2644D02*
X2709D01*
X2754D02*
X2888D01*
X2939D02*
X3004D01*
X3065D02*
X3133D01*
X3366D02*
X3545D01*
X1984Y128D02*
X2049D01*
X2129D02*
X2194D01*
X2232D02*
X2434D01*
X2478D02*
X2543D01*
X2644D02*
X2709D01*
X2755D02*
X2888D01*
X2939D02*
X3004D01*
X3066D02*
X3133D01*
X3366D02*
X3544D01*
X1983Y127D02*
X2048D01*
X2129D02*
X2194D01*
X2232D02*
X2434D01*
X2478D02*
X2542D01*
X2644D02*
X2709D01*
X2755D02*
X2888D01*
X2939D02*
X3004D01*
X3067D02*
X3133D01*
X3366D02*
X3544D01*
X1983Y126D02*
X2048D01*
X2129D02*
X2194D01*
X2233D02*
X2433D01*
X2478D02*
X2540D01*
X2643D02*
X2708D01*
X2756D02*
X2887D01*
X2939D02*
X3004D01*
X3068D02*
X3132D01*
X3366D02*
X3544D01*
X1983Y125D02*
X2048D01*
X2129D02*
X2194D01*
X2233D02*
X2432D01*
X2478D02*
X2539D01*
X2643D02*
X2708D01*
X2757D02*
X2887D01*
X2939D02*
X3004D01*
X3069D02*
X3132D01*
X3366D02*
X3544D01*
X1983Y124D02*
X2048D01*
X2128D02*
X2193D01*
X2233D02*
X2431D01*
X2477D02*
X2538D01*
X2643D02*
X2708D01*
X2757D02*
X2887D01*
X2938D02*
X3003D01*
X3070D02*
X3132D01*
X3366D02*
X3544D01*
X1983Y123D02*
X2048D01*
X2128D02*
X2193D01*
X2234D02*
X2431D01*
X2477D02*
X2536D01*
X2643D02*
X2708D01*
X2758D02*
X2887D01*
X2938D02*
X3003D01*
X3071D02*
X3132D01*
X3365D02*
X3544D01*
X1983Y122D02*
X2048D01*
X2128D02*
X2193D01*
X2234D02*
X2430D01*
X2477D02*
X2535D01*
X2643D02*
X2708D01*
X2759D02*
X2887D01*
X2938D02*
X3003D01*
X3072D02*
X3132D01*
X3365D02*
X3543D01*
X1982Y121D02*
X2047D01*
X2128D02*
X2193D01*
X2235D02*
X2429D01*
X2477D02*
X2534D01*
X2643D02*
X2708D01*
X2759D02*
X2887D01*
X2938D02*
X3003D01*
X3073D02*
X3132D01*
X3365D02*
X3543D01*
X1982Y120D02*
X2047D01*
X2128D02*
X2193D01*
X2235D02*
X2428D01*
X2477D02*
X2533D01*
X2642D02*
X2707D01*
X2760D02*
X2886D01*
X2938D02*
X3003D01*
X3074D02*
X3131D01*
X3365D02*
X3543D01*
X1982Y119D02*
X2047D01*
X2128D02*
X2193D01*
X2236D02*
X2427D01*
X2477D02*
X2531D01*
X2642D02*
X2707D01*
X2761D02*
X2886D01*
X2938D02*
X3003D01*
X3074D02*
X3131D01*
X3365D02*
X3543D01*
X1982Y118D02*
X2047D01*
X2127D02*
X2192D01*
X2236D02*
X2427D01*
X2476D02*
X2530D01*
X2642D02*
X2707D01*
X2761D02*
X2886D01*
X2937D02*
X3002D01*
X3075D02*
X3131D01*
X3365D02*
X3543D01*
X1982Y117D02*
X2047D01*
X2127D02*
X2192D01*
X2237D02*
X2426D01*
X2476D02*
X2529D01*
X2642D02*
X2707D01*
X2762D02*
X2886D01*
X2937D02*
X3002D01*
X3076D02*
X3131D01*
X3364D02*
X3542D01*
X1981Y116D02*
X2046D01*
X2127D02*
X2192D01*
X2237D02*
X2425D01*
X2476D02*
X2527D01*
X2642D02*
X2707D01*
X2763D02*
X2886D01*
X2937D02*
X3002D01*
X3077D02*
X3131D01*
X3364D02*
X3542D01*
X1981Y115D02*
X2046D01*
X2127D02*
X2192D01*
X2238D02*
X2424D01*
X2476D02*
X2526D01*
X2641D02*
X2707D01*
X2764D02*
X2885D01*
X2937D02*
X3002D01*
X3078D02*
X3130D01*
X3364D02*
X3542D01*
X1981Y114D02*
X2046D01*
X2127D02*
X2192D01*
X2238D02*
X2423D01*
X2476D02*
X2525D01*
X2641D02*
X2706D01*
X2764D02*
X2885D01*
X2937D02*
X3002D01*
X3079D02*
X3130D01*
X3364D02*
X3542D01*
X1981Y113D02*
X2046D01*
X2126D02*
X2191D01*
X2239D02*
X2422D01*
X2475D02*
X2523D01*
X2641D02*
X2706D01*
X2765D02*
X2885D01*
X2936D02*
X3001D01*
X3080D02*
X3130D01*
X3364D02*
X3542D01*
X1981Y112D02*
X2046D01*
X2126D02*
X2191D01*
X2239D02*
X2421D01*
X2475D02*
X2522D01*
X2641D02*
X2706D01*
X2766D02*
X2885D01*
X2936D02*
X3001D01*
X3081D02*
X3130D01*
X3363D02*
X3542D01*
X1981Y111D02*
X2046D01*
X2126D02*
X2191D01*
X2240D02*
X2420D01*
X2475D02*
X2521D01*
X2641D02*
X2706D01*
X2767D02*
X2885D01*
X2936D02*
X3001D01*
X3082D02*
X3130D01*
X3363D02*
X3541D01*
X1980Y110D02*
X2045D01*
X2126D02*
X2191D01*
X2241D02*
X2419D01*
X2475D02*
X2520D01*
X2641D02*
X2706D01*
X2768D02*
X2885D01*
X2936D02*
X3001D01*
X3083D02*
X3130D01*
X3363D02*
X3541D01*
X1980Y109D02*
X2045D01*
X2126D02*
X2191D01*
X2241D02*
X2418D01*
X2475D02*
X2518D01*
X2640D02*
X2705D01*
X2769D02*
X2884D01*
X2936D02*
X3001D01*
X3084D02*
X3129D01*
X3363D02*
X3541D01*
X1980Y108D02*
X2045D01*
X2126D02*
X2191D01*
X2242D02*
X2417D01*
X2475D02*
X2517D01*
X2640D02*
X2705D01*
X2770D02*
X2884D01*
X2936D02*
X3001D01*
X3085D02*
X3129D01*
X3363D02*
X3541D01*
X1980Y107D02*
X2045D01*
X2125D02*
X2190D01*
X2243D02*
X2416D01*
X2474D02*
X2516D01*
X2640D02*
X2705D01*
X2771D02*
X2884D01*
X2935D02*
X3000D01*
X3086D02*
X3129D01*
X3363D02*
X3541D01*
X1980Y106D02*
X2045D01*
X2125D02*
X2190D01*
X2243D02*
X2415D01*
X2474D02*
X2514D01*
X2640D02*
X2705D01*
X2772D02*
X2884D01*
X2935D02*
X3000D01*
X3087D02*
X3129D01*
X3362D02*
X3540D01*
X1979Y105D02*
X2045D01*
X2125D02*
X2190D01*
X2244D02*
X2414D01*
X2474D02*
X2513D01*
X2640D02*
X2705D01*
X2773D02*
X2884D01*
X2935D02*
X3000D01*
X3088D02*
X3129D01*
X3362D02*
X3540D01*
X1979Y104D02*
X2044D01*
X2125D02*
X2190D01*
X2245D02*
X2413D01*
X2474D02*
X2512D01*
X2640D02*
X2705D01*
X2774D02*
X2883D01*
X2935D02*
X3000D01*
X3089D02*
X3129D01*
X3362D02*
X3540D01*
X1979Y103D02*
X2044D01*
X2125D02*
X2190D01*
X2246D02*
X2412D01*
X2474D02*
X2511D01*
X2639D02*
X2704D01*
X2775D02*
X2883D01*
X2935D02*
X3000D01*
X3089D02*
X3128D01*
X3362D02*
X3540D01*
X1979Y102D02*
X2044D01*
X2124D02*
X2190D01*
X2246D02*
X2410D01*
X2473D02*
X2509D01*
X2639D02*
X2704D01*
X2776D02*
X2883D01*
X2934D02*
X3000D01*
X3090D02*
X3128D01*
X3362D02*
X3540D01*
X1979Y101D02*
X2044D01*
X2124D02*
X2189D01*
X2247D02*
X2409D01*
X2473D02*
X2508D01*
X2639D02*
X2704D01*
X2777D02*
X2883D01*
X2934D02*
X2999D01*
X3091D02*
X3128D01*
X3361D02*
X3540D01*
X1979Y100D02*
X2044D01*
X2124D02*
X2189D01*
X2248D02*
X2408D01*
X2473D02*
X2507D01*
X2639D02*
X2704D01*
X2778D02*
X2883D01*
X2934D02*
X2999D01*
X3092D02*
X3128D01*
X3361D02*
X3539D01*
X1978Y99D02*
X2043D01*
X2124D02*
X2189D01*
X2249D02*
X2407D01*
X2473D02*
X2505D01*
X2639D02*
X2704D01*
X2780D02*
X2883D01*
X2934D02*
X2999D01*
X3093D02*
X3128D01*
X3361D02*
X3539D01*
X1978Y98D02*
X2043D01*
X2124D02*
X2189D01*
X2250D02*
X2406D01*
X2473D02*
X2504D01*
X2638D02*
X2703D01*
X2781D02*
X2882D01*
X2934D02*
X2999D01*
X3094D02*
X3127D01*
X3361D02*
X3539D01*
X1978Y97D02*
X2043D01*
X2124D02*
X2189D01*
X2251D02*
X2404D01*
X2473D02*
X2503D01*
X2638D02*
X2703D01*
X2782D02*
X2882D01*
X2934D02*
X2999D01*
X3095D02*
X3127D01*
X3361D02*
X3539D01*
X1978Y96D02*
X2043D01*
X2123D02*
X2188D01*
X2252D02*
X2403D01*
X2472D02*
X2501D01*
X2638D02*
X2703D01*
X2784D02*
X2882D01*
X2933D02*
X2998D01*
X3096D02*
X3127D01*
X3361D02*
X3539D01*
X1978Y95D02*
X2043D01*
X2123D02*
X2188D01*
X2253D02*
X2402D01*
X2472D02*
X2500D01*
X2638D02*
X2703D01*
X2785D02*
X2882D01*
X2933D02*
X2998D01*
X3097D02*
X3127D01*
X3360D02*
X3539D01*
X1978Y94D02*
X2043D01*
X2123D02*
X2188D01*
X2254D02*
X2400D01*
X2472D02*
X2499D01*
X2638D02*
X2703D01*
X2786D02*
X2882D01*
X2933D02*
X2998D01*
X3098D02*
X3127D01*
X3360D02*
X3538D01*
X1977Y93D02*
X2042D01*
X2123D02*
X2188D01*
X2255D02*
X2399D01*
X2472D02*
X2498D01*
X2638D02*
X2703D01*
X2788D02*
X2881D01*
X2933D02*
X2998D01*
X3099D02*
X3127D01*
X3360D02*
X3538D01*
X1977Y92D02*
X2042D01*
X2123D02*
X2188D01*
X2256D02*
X2397D01*
X2472D02*
X2496D01*
X2637D02*
X2702D01*
X2789D02*
X2881D01*
X2933D02*
X2998D01*
X3100D02*
X3126D01*
X3360D02*
X3538D01*
X1977Y91D02*
X2042D01*
X2123D02*
X2188D01*
X2257D02*
X2396D01*
X2472D02*
X2495D01*
X2637D02*
X2702D01*
X2791D02*
X2881D01*
X2933D02*
X2998D01*
X3101D02*
X3126D01*
X3360D02*
X3538D01*
X1977Y90D02*
X2042D01*
X2122D02*
X2187D01*
X2258D02*
X2394D01*
X2471D02*
X2494D01*
X2637D02*
X2702D01*
X2793D02*
X2881D01*
X2932D02*
X2997D01*
X3102D02*
X3126D01*
X3360D02*
X3538D01*
X1977Y89D02*
X2042D01*
X2122D02*
X2187D01*
X2260D02*
X2393D01*
X2471D02*
X2492D01*
X2637D02*
X2702D01*
X2795D02*
X2881D01*
X2932D02*
X2997D01*
X3103D02*
X3126D01*
X3359D02*
X3537D01*
X1976Y88D02*
X2041D01*
X2122D02*
X2187D01*
X2261D02*
X2391D01*
X2471D02*
X2491D01*
X2637D02*
X2702D01*
X2796D02*
X2881D01*
X2932D02*
X2997D01*
X3103D02*
X3126D01*
X3359D02*
X3537D01*
X1976Y87D02*
X2041D01*
X2122D02*
X2187D01*
X2262D02*
X2389D01*
X2471D02*
X2490D01*
X2636D02*
X2702D01*
X2798D02*
X2880D01*
X2932D02*
X2997D01*
X3104D02*
X3125D01*
X3359D02*
X3537D01*
X1976Y86D02*
X2041D01*
X2122D02*
X2187D01*
X2264D02*
X2387D01*
X2471D02*
X2489D01*
X2636D02*
X2701D01*
X2800D02*
X2880D01*
X2932D02*
X2997D01*
X3105D02*
X3125D01*
X3359D02*
X3537D01*
X1976Y85D02*
X2041D01*
X2121D02*
X2186D01*
X2265D02*
X2385D01*
X2470D02*
X2487D01*
X2636D02*
X2701D01*
X2803D02*
X2880D01*
X2931D02*
X2996D01*
X3106D02*
X3125D01*
X3359D02*
X3537D01*
X1976Y84D02*
X2041D01*
X2121D02*
X2186D01*
X2267D02*
X2383D01*
X2470D02*
X2486D01*
X2636D02*
X2701D01*
X2805D02*
X2880D01*
X2931D02*
X2996D01*
X3107D02*
X3125D01*
X3358D02*
X3537D01*
X1976Y83D02*
X2041D01*
X2121D02*
X2186D01*
X2268D02*
X2382D01*
X2470D02*
X2485D01*
X2636D02*
X2701D01*
X2807D02*
X2880D01*
X2931D02*
X2996D01*
X3108D02*
X3125D01*
X3358D02*
X3536D01*
X1975Y82D02*
X2040D01*
X2121D02*
X2186D01*
X2270D02*
X2379D01*
X2470D02*
X2483D01*
X2636D02*
X2701D01*
X2810D02*
X2880D01*
X2931D02*
X2996D01*
X3109D02*
X3125D01*
X3358D02*
X3536D01*
X1975Y81D02*
X2040D01*
X2121D02*
X2186D01*
X2272D02*
X2377D01*
X2470D02*
X2482D01*
X2635D02*
X2700D01*
X2813D02*
X2879D01*
X2931D02*
X2996D01*
X3110D02*
X3124D01*
X3358D02*
X3536D01*
X1975Y80D02*
X2040D01*
X2121D02*
X2186D01*
X2274D02*
X2375D01*
X2470D02*
X2481D01*
X2635D02*
X2700D01*
X2816D02*
X2879D01*
X2931D02*
X2996D01*
X3111D02*
X3124D01*
X3358D02*
X3536D01*
X1975Y79D02*
X2040D01*
X2120D02*
X2185D01*
X2276D02*
X2372D01*
X2469D02*
X2479D01*
X2635D02*
X2700D01*
X2819D02*
X2879D01*
X2930D02*
X2995D01*
X3112D02*
X3124D01*
X3358D02*
X3536D01*
X1975Y78D02*
X2040D01*
X2120D02*
X2185D01*
X2278D02*
X2370D01*
X2469D02*
X2478D01*
X2635D02*
X2700D01*
X2824D02*
X2879D01*
X2930D02*
X2995D01*
X3113D02*
X3124D01*
X3357D02*
X3535D01*
X1974Y77D02*
X2040D01*
X2120D02*
X2185D01*
X2281D02*
X2367D01*
X2469D02*
X2477D01*
X2635D02*
X2700D01*
X2828D02*
X2879D01*
X2930D02*
X2995D01*
X3114D02*
X3124D01*
X3357D02*
X3535D01*
X1974Y76D02*
X2039D01*
X2120D02*
X2185D01*
X2284D02*
X2364D01*
X2469D02*
X2476D01*
X2635D02*
X2700D01*
X2834D02*
X2878D01*
X2930D02*
X2995D01*
X3115D02*
X3124D01*
X3357D02*
X3535D01*
X1974Y75D02*
X2039D01*
X2120D02*
X2185D01*
X2287D02*
X2360D01*
X2469D02*
X2474D01*
X2634D02*
X2699D01*
X2841D02*
X2878D01*
X2930D02*
X2995D01*
X3116D02*
X3123D01*
X3357D02*
X3535D01*
X1974Y74D02*
X2039D01*
X2120D02*
X2184D01*
X2290D02*
X2356D01*
X2468D02*
X2473D01*
X2860D02*
X2878D01*
X3117D02*
X3123D01*
X3357D02*
X3413D01*
X2294Y73D02*
X2352D01*
X2468D02*
X2472D01*
X3117D02*
X3123D01*
X2299Y72D02*
X2347D01*
X2468D02*
X2470D01*
X3118D02*
X3123D01*
X2306Y71D02*
X2340D01*
X2468D02*
X2469D01*
X3119D02*
X3123D01*
X3120Y70D02*
X3122D01*
X3121Y69D02*
X3122D01*
D58*
X6939Y12254D02*
Y13091D01*
Y12254D02*
X8022D01*
Y13091D01*
X6939D02*
X8022D01*
X10354Y6850D02*
X10413Y6791D01*
Y6732D02*
Y6850D01*
X10354Y6732D02*
Y6850D01*
Y6732D02*
X10413Y6791D01*
X10354Y6594D02*
X10413Y6654D01*
Y6535D02*
Y6654D01*
X10354Y6535D02*
Y6654D01*
Y6594D02*
X10413Y6535D01*
D59*
X7974Y214D02*
X8014D01*
X7609Y100D02*
Y150D01*
Y130D01*
X7599D01*
X7619D01*
X7609D01*
Y150D01*
X7619Y160D01*
X7659Y100D02*
X7679D01*
X7689Y110D01*
Y130D01*
X7679Y140D01*
X7659D01*
X7649Y130D01*
Y110D01*
X7659Y100D01*
X7709Y140D02*
Y100D01*
Y120D01*
X7719Y130D01*
X7729Y140D01*
X7739D01*
X7859Y100D02*
X7839D01*
X7829Y110D01*
Y130D01*
X7839Y140D01*
X7859D01*
X7869Y130D01*
Y120D01*
X7829D01*
X7889Y100D02*
Y140D01*
X7899D01*
X7909Y130D01*
Y100D01*
Y130D01*
X7919Y140D01*
X7929Y130D01*
Y100D01*
X7949Y80D02*
Y140D01*
X7979D01*
X7989Y130D01*
Y110D01*
X7979Y100D01*
X7949D01*
X8019Y150D02*
Y140D01*
X8009D01*
X8029D01*
X8019D01*
Y110D01*
X8029Y100D01*
X8059Y140D02*
Y110D01*
X8069Y100D01*
X8099D01*
Y90D01*
X8089Y80D01*
X8079D01*
X8099Y100D02*
Y140D01*
X8179Y160D02*
Y100D01*
X8209D01*
X8219Y110D01*
Y120D01*
Y130D01*
X8209Y140D01*
X8179D01*
X8249D02*
X8269D01*
X8279Y130D01*
Y100D01*
X8249D01*
X8239Y110D01*
X8249Y120D01*
X8279D01*
X8299Y100D02*
Y140D01*
X8329D01*
X8339Y130D01*
Y100D01*
X8359D02*
Y160D01*
Y120D02*
X8389Y140D01*
X8359Y120D02*
X8389Y100D01*
X4724Y98D02*
X4743D01*
X4734D01*
Y154D01*
X4724Y144D01*
X8197Y3909D02*
X8215D01*
X8206D01*
Y3965D01*
X8197Y3955D01*
X8787Y2819D02*
X8806D01*
X8797D01*
Y2874D01*
X8787Y2865D01*
Y2146D02*
X8806D01*
X8797D01*
Y2201D01*
X8787Y2192D01*
X8461Y1543D02*
X8479D01*
X8470D01*
Y1598D01*
X8461Y1589D01*
X6201Y181D02*
X6221D01*
X6211D01*
Y241D01*
X6201Y231D01*
X6291Y181D02*
X6251D01*
X6291Y221D01*
Y231D01*
X6281Y241D01*
X6261D01*
X6251Y231D01*
X6311D02*
X6321Y241D01*
X6341D01*
X6351Y231D01*
Y221D01*
X6341Y211D01*
X6351Y201D01*
Y191D01*
X6341Y181D01*
X6321D01*
X6311Y191D01*
Y201D01*
X6321Y211D01*
X6311Y221D01*
Y231D01*
X6321Y211D02*
X6341D01*
X6431Y241D02*
Y181D01*
Y201D01*
X6471Y241D01*
X6441Y211D01*
X6471Y181D01*
X6491Y241D02*
Y181D01*
X6521D01*
X6531Y191D01*
Y201D01*
Y211D01*
X6521Y221D01*
X6491D01*
X6611Y181D02*
X6631D01*
X6621D01*
Y221D01*
X6611D01*
X6661Y181D02*
Y221D01*
X6691D01*
X6701Y211D01*
Y181D01*
X6781Y241D02*
Y181D01*
X6811D01*
X6821Y191D01*
Y201D01*
Y211D01*
X6811Y221D01*
X6781D01*
X6850D02*
X6870D01*
X6880Y211D01*
Y181D01*
X6850D01*
X6841Y191D01*
X6850Y201D01*
X6880D01*
X6900Y181D02*
Y221D01*
X6930D01*
X6940Y211D01*
Y181D01*
X6960D02*
Y241D01*
Y201D02*
X6990Y221D01*
X6960Y201D02*
X6990Y181D01*
X6241Y143D02*
X6201D01*
Y113D01*
X6221Y123D01*
X6231D01*
X6241Y113D01*
Y93D01*
X6231Y83D01*
X6211D01*
X6201Y93D01*
X6261Y83D02*
X6281D01*
X6271D01*
Y143D01*
X6261Y133D01*
X6351Y83D02*
X6311D01*
X6351Y123D01*
Y133D01*
X6341Y143D01*
X6321D01*
X6311Y133D01*
X6431Y143D02*
Y83D01*
Y103D01*
X6471Y143D01*
X6441Y113D01*
X6471Y83D01*
X6491Y143D02*
Y83D01*
X6521D01*
X6531Y93D01*
Y103D01*
Y113D01*
X6521Y123D01*
X6491D01*
X6611Y83D02*
X6631D01*
X6621D01*
Y123D01*
X6611D01*
X6661Y83D02*
Y123D01*
X6691D01*
X6701Y113D01*
Y83D01*
X6781Y143D02*
Y83D01*
X6811D01*
X6821Y93D01*
Y103D01*
Y113D01*
X6811Y123D01*
X6781D01*
X6850D02*
X6870D01*
X6880Y113D01*
Y83D01*
X6850D01*
X6841Y93D01*
X6850Y103D01*
X6880D01*
X6900Y83D02*
Y123D01*
X6930D01*
X6940Y113D01*
Y83D01*
X6960D02*
Y143D01*
Y103D02*
X6990Y123D01*
X6960Y103D02*
X6990Y83D01*
X7161Y181D02*
X7181D01*
X7171D01*
Y241D01*
X7161Y231D01*
X7211Y211D02*
X7251D01*
X7311Y181D02*
X7271D01*
X7311Y221D01*
Y231D01*
X7301Y241D01*
X7281D01*
X7271Y231D01*
X7194Y83D02*
X7154D01*
X7194Y123D01*
Y133D01*
X7184Y143D01*
X7164D01*
X7154Y133D01*
X7214Y113D02*
X7254D01*
X7274Y133D02*
X7284Y143D01*
X7303D01*
X7313Y133D01*
Y123D01*
X7303Y113D01*
X7293D01*
X7303D01*
X7313Y103D01*
Y93D01*
X7303Y83D01*
X7284D01*
X7274Y93D01*
D60*
X394Y4902D02*
X410D01*
X402D01*
Y4952D01*
X394Y4943D01*
X703Y4902D02*
X669D01*
X703Y4935D01*
Y4943D01*
X694Y4952D01*
X678D01*
X669Y4943D01*
X694Y4793D02*
Y4843D01*
X669Y4818D01*
X703D01*
X384Y4835D02*
X392Y4843D01*
X409D01*
X417Y4835D01*
Y4827D01*
X409Y4818D01*
X401D01*
X409D01*
X417Y4810D01*
Y4802D01*
X409Y4793D01*
X392D01*
X384Y4802D01*
M02*
