G04 Layer_Color=16711935*
%FSLAX23Y23*%
%MOIN*%
G70*
G01*
G75*
%ADD10C,0.010*%
D10*
X8386Y2441D02*
X8446D01*
X8386Y2401D01*
X8446D01*
X8386Y2381D02*
X8446D01*
Y2351D01*
X8436Y2341D01*
X8416D01*
X8406Y2351D01*
Y2381D01*
Y2361D02*
X8386Y2341D01*
Y2321D02*
Y2301D01*
Y2311D01*
X8446D01*
X8436Y2321D01*
X8416Y2271D02*
Y2231D01*
X8386Y2211D02*
Y2191D01*
Y2201D01*
X8446D01*
X8436Y2211D01*
X8416Y2161D02*
Y2121D01*
X8386Y2101D02*
Y2081D01*
Y2091D01*
X8446D01*
X8436Y2101D01*
X8416Y2051D02*
Y2011D01*
X8436Y1991D02*
X8446Y1981D01*
Y1961D01*
X8436Y1951D01*
X8426D01*
X8416Y1961D01*
X8406Y1951D01*
X8396D01*
X8386Y1961D01*
Y1981D01*
X8396Y1991D01*
X8406D01*
X8416Y1981D01*
X8426Y1991D01*
X8436D01*
X8416Y1981D02*
Y1961D01*
X8386Y1358D02*
X8446D01*
X8386Y1318D01*
X8446D01*
X8386Y1298D02*
X8446D01*
Y1268D01*
X8436Y1258D01*
X8416D01*
X8406Y1268D01*
Y1298D01*
Y1278D02*
X8386Y1258D01*
Y1238D02*
Y1218D01*
Y1228D01*
X8446D01*
X8436Y1238D01*
X8416Y1188D02*
Y1148D01*
X8386Y1128D02*
Y1108D01*
Y1118D01*
X8446D01*
X8436Y1128D01*
X8416Y1078D02*
Y1038D01*
X8386Y1018D02*
Y998D01*
Y1008D01*
X8446D01*
X8436Y1018D01*
X8416Y968D02*
Y928D01*
X8436Y908D02*
X8446Y898D01*
Y878D01*
X8436Y868D01*
X8426D01*
X8416Y878D01*
X8406Y868D01*
X8396D01*
X8386Y878D01*
Y898D01*
X8396Y908D01*
X8406D01*
X8416Y898D01*
X8426Y908D01*
X8436D01*
X8416Y898D02*
Y878D01*
X6673Y5876D02*
Y5916D01*
X6713Y5876D01*
X6723D01*
X6733Y5886D01*
Y5906D01*
X6723Y5916D01*
X6733Y5856D02*
Y5816D01*
X6723D01*
X6683Y5856D01*
X6673D01*
Y5756D02*
Y5796D01*
X6713Y5756D01*
X6723D01*
X6733Y5766D01*
Y5786D01*
X6723Y5796D01*
X6733Y5696D02*
Y5736D01*
X6703D01*
X6713Y5716D01*
Y5706D01*
X6703Y5696D01*
X6683D01*
X6673Y5706D01*
Y5726D01*
X6683Y5736D01*
X6733Y5636D02*
X6723Y5656D01*
X6703Y5676D01*
X6683D01*
X6673Y5666D01*
Y5646D01*
X6683Y5636D01*
X6693D01*
X6703Y5646D01*
Y5676D01*
X7657Y5876D02*
Y5916D01*
X7697Y5876D01*
X7707D01*
X7717Y5886D01*
Y5906D01*
X7707Y5916D01*
X7717Y5856D02*
Y5816D01*
X7707D01*
X7667Y5856D01*
X7657D01*
Y5756D02*
Y5796D01*
X7697Y5756D01*
X7707D01*
X7717Y5766D01*
Y5786D01*
X7707Y5796D01*
X7717Y5696D02*
Y5736D01*
X7687D01*
X7697Y5716D01*
Y5706D01*
X7687Y5696D01*
X7667D01*
X7657Y5706D01*
Y5726D01*
X7667Y5736D01*
X7717Y5636D02*
X7707Y5656D01*
X7687Y5676D01*
X7667D01*
X7657Y5666D01*
Y5646D01*
X7667Y5636D01*
X7677D01*
X7687Y5646D01*
Y5676D01*
X6339Y7786D02*
X6279D01*
X6299D01*
X6339Y7746D01*
X6309Y7776D01*
X6279Y7746D01*
Y7726D02*
X6339D01*
Y7696D01*
X6329Y7686D01*
X6309D01*
X6299Y7696D01*
Y7726D01*
Y7706D02*
X6279Y7686D01*
Y7666D02*
Y7646D01*
Y7656D01*
X6339D01*
X6329Y7666D01*
Y7616D02*
X6339Y7606D01*
Y7586D01*
X6329Y7576D01*
X6319D01*
X6309Y7586D01*
X6299Y7576D01*
X6289D01*
X6279Y7586D01*
Y7606D01*
X6289Y7616D01*
X6299D01*
X6309Y7606D01*
X6319Y7616D01*
X6329D01*
X6309Y7606D02*
Y7586D01*
X6279Y7556D02*
Y7536D01*
Y7546D01*
X6339D01*
X6329Y7556D01*
Y7506D02*
X6339Y7496D01*
Y7476D01*
X6329Y7466D01*
X6289D01*
X6279Y7476D01*
Y7496D01*
X6289Y7506D01*
X6329D01*
X6339Y7446D02*
X6299D01*
X6279Y7426D01*
X6299Y7406D01*
X6339D01*
X6279Y7386D02*
X6339D01*
X6279Y7346D01*
X6339D01*
Y7286D02*
Y7326D01*
X6309D01*
X6319Y7306D01*
Y7296D01*
X6309Y7286D01*
X6289D01*
X6279Y7296D01*
Y7316D01*
X6289Y7326D01*
Y7266D02*
X6279Y7256D01*
Y7236D01*
X6289Y7226D01*
X6329D01*
X6339Y7236D01*
Y7256D01*
X6329Y7266D01*
X6319D01*
X6309Y7256D01*
Y7226D01*
X6279Y7206D02*
X6319D01*
X6339Y7186D01*
X6319Y7166D01*
X6279D01*
X6309D01*
Y7206D01*
X1812Y6196D02*
X1752D01*
X1772D01*
X1812Y6156D01*
X1782Y6186D01*
X1752Y6156D01*
Y6136D02*
X1812D01*
Y6106D01*
X1802Y6096D01*
X1782D01*
X1772Y6106D01*
Y6136D01*
Y6116D02*
X1752Y6096D01*
Y6076D02*
Y6056D01*
Y6066D01*
X1812D01*
X1802Y6076D01*
Y6026D02*
X1812Y6016D01*
Y5996D01*
X1802Y5986D01*
X1792D01*
X1782Y5996D01*
X1772Y5986D01*
X1762D01*
X1752Y5996D01*
Y6016D01*
X1762Y6026D01*
X1772D01*
X1782Y6016D01*
X1792Y6026D01*
X1802D01*
X1782Y6016D02*
Y5996D01*
X1752Y5966D02*
Y5946D01*
Y5956D01*
X1812D01*
X1802Y5966D01*
Y5916D02*
X1812Y5906D01*
Y5886D01*
X1802Y5876D01*
X1762D01*
X1752Y5886D01*
Y5906D01*
X1762Y5916D01*
X1802D01*
X1812Y5856D02*
X1772D01*
X1752Y5836D01*
X1772Y5816D01*
X1812D01*
X1752Y5796D02*
X1812D01*
X1792Y5776D01*
X1812Y5756D01*
X1752D01*
X1802Y5736D02*
X1812Y5726D01*
Y5706D01*
X1802Y5696D01*
X1792D01*
X1782Y5706D01*
X1772Y5696D01*
X1762D01*
X1752Y5706D01*
Y5726D01*
X1762Y5736D01*
X1772D01*
X1782Y5726D01*
X1792Y5736D01*
X1802D01*
X1782Y5726D02*
Y5706D01*
X1812Y5636D02*
X1802Y5656D01*
X1782Y5676D01*
X1762D01*
X1752Y5666D01*
Y5646D01*
X1762Y5636D01*
X1772D01*
X1782Y5646D01*
Y5676D01*
X1752Y5616D02*
X1812D01*
X1792Y5596D01*
X1812Y5576D01*
X1752D01*
X9587Y8952D02*
X9527D01*
X9547D01*
X9587Y8912D01*
X9557Y8942D01*
X9527Y8912D01*
Y8892D02*
X9587D01*
Y8862D01*
X9577Y8852D01*
X9557D01*
X9547Y8862D01*
Y8892D01*
Y8872D02*
X9527Y8852D01*
Y8832D02*
Y8812D01*
Y8822D01*
X9587D01*
X9577Y8832D01*
Y8782D02*
X9587Y8772D01*
Y8752D01*
X9577Y8742D01*
X9567D01*
X9557Y8752D01*
X9547Y8742D01*
X9537D01*
X9527Y8752D01*
Y8772D01*
X9537Y8782D01*
X9547D01*
X9557Y8772D01*
X9567Y8782D01*
X9577D01*
X9557Y8772D02*
Y8752D01*
X9527Y8722D02*
Y8702D01*
Y8712D01*
X9587D01*
X9577Y8722D01*
Y8672D02*
X9587Y8662D01*
Y8642D01*
X9577Y8632D01*
X9537D01*
X9527Y8642D01*
Y8662D01*
X9537Y8672D01*
X9577D01*
X9587Y8612D02*
X9547D01*
X9527Y8592D01*
X9547Y8572D01*
X9587D01*
Y8552D02*
Y8512D01*
Y8532D01*
X9527D01*
X9577Y8492D02*
X9587Y8482D01*
Y8462D01*
X9577Y8452D01*
X9567D01*
X9557Y8462D01*
Y8472D01*
Y8462D01*
X9547Y8452D01*
X9537D01*
X9527Y8462D01*
Y8482D01*
X9537Y8492D01*
X9587Y8432D02*
Y8392D01*
X9577D01*
X9537Y8432D01*
X9527D01*
X8603Y8952D02*
X8543D01*
X8563D01*
X8603Y8912D01*
X8573Y8942D01*
X8543Y8912D01*
Y8892D02*
X8603D01*
Y8862D01*
X8593Y8852D01*
X8573D01*
X8563Y8862D01*
Y8892D01*
Y8872D02*
X8543Y8852D01*
X8603Y8792D02*
Y8832D01*
X8573D01*
X8583Y8812D01*
Y8802D01*
X8573Y8792D01*
X8553D01*
X8543Y8802D01*
Y8822D01*
X8553Y8832D01*
X8593Y8772D02*
X8603Y8762D01*
Y8742D01*
X8593Y8732D01*
X8583D01*
X8573Y8742D01*
X8563Y8732D01*
X8553D01*
X8543Y8742D01*
Y8762D01*
X8553Y8772D01*
X8563D01*
X8573Y8762D01*
X8583Y8772D01*
X8593D01*
X8573Y8762D02*
Y8742D01*
X8593Y8712D02*
X8603Y8702D01*
Y8682D01*
X8593Y8672D01*
X8553D01*
X8543Y8682D01*
Y8702D01*
X8553Y8712D01*
X8593D01*
X8603Y8652D02*
X8563D01*
X8543Y8632D01*
X8563Y8612D01*
X8603D01*
Y8592D02*
X8563D01*
X8543Y8572D01*
X8563Y8552D01*
X8603D01*
Y8492D02*
Y8532D01*
X8573D01*
X8583Y8512D01*
Y8502D01*
X8573Y8492D01*
X8553D01*
X8543Y8502D01*
Y8522D01*
X8553Y8532D01*
X8603Y8432D02*
Y8472D01*
X8573D01*
X8583Y8452D01*
Y8442D01*
X8573Y8432D01*
X8553D01*
X8543Y8442D01*
Y8462D01*
X8553Y8472D01*
X8543Y8412D02*
X8583D01*
X8603Y8392D01*
X8583Y8372D01*
X8543D01*
X8573D01*
Y8412D01*
X2796Y6196D02*
X2736D01*
X2756D01*
X2796Y6156D01*
X2766Y6186D01*
X2736Y6156D01*
Y6136D02*
X2796D01*
Y6106D01*
X2786Y6096D01*
X2766D01*
X2756Y6106D01*
Y6136D01*
Y6116D02*
X2736Y6096D01*
Y6076D02*
Y6056D01*
Y6066D01*
X2796D01*
X2786Y6076D01*
Y6026D02*
X2796Y6016D01*
Y5996D01*
X2786Y5986D01*
X2776D01*
X2766Y5996D01*
X2756Y5986D01*
X2746D01*
X2736Y5996D01*
Y6016D01*
X2746Y6026D01*
X2756D01*
X2766Y6016D01*
X2776Y6026D01*
X2786D01*
X2766Y6016D02*
Y5996D01*
X2736Y5966D02*
Y5946D01*
Y5956D01*
X2796D01*
X2786Y5966D01*
Y5916D02*
X2796Y5906D01*
Y5886D01*
X2786Y5876D01*
X2746D01*
X2736Y5886D01*
Y5906D01*
X2746Y5916D01*
X2786D01*
X2796Y5856D02*
X2756D01*
X2736Y5836D01*
X2756Y5816D01*
X2796D01*
X2736Y5796D02*
X2796D01*
X2776Y5776D01*
X2796Y5756D01*
X2736D01*
X2786Y5736D02*
X2796Y5726D01*
Y5706D01*
X2786Y5696D01*
X2776D01*
X2766Y5706D01*
X2756Y5696D01*
X2746D01*
X2736Y5706D01*
Y5726D01*
X2746Y5736D01*
X2756D01*
X2766Y5726D01*
X2776Y5736D01*
X2786D01*
X2766Y5726D02*
Y5706D01*
X2796Y5676D02*
Y5636D01*
X2786D01*
X2746Y5676D01*
X2736D01*
X5935Y10805D02*
Y10785D01*
Y10795D01*
X5876D01*
Y10805D01*
Y10785D01*
X5925Y10715D02*
X5935Y10725D01*
Y10745D01*
X5925Y10755D01*
X5915D01*
X5906Y10745D01*
Y10725D01*
X5896Y10715D01*
X5886D01*
X5876Y10725D01*
Y10745D01*
X5886Y10755D01*
X5876Y10695D02*
X5915D01*
X5935Y10675D01*
X5915Y10655D01*
X5876D01*
X5906D01*
Y10695D01*
Y10635D02*
Y10595D01*
X5925Y10575D02*
X5935Y10565D01*
Y10545D01*
X5925Y10535D01*
X5915D01*
X5906Y10545D01*
X5896Y10535D01*
X5886D01*
X5876Y10545D01*
Y10565D01*
X5886Y10575D01*
X5896D01*
X5906Y10565D01*
X5915Y10575D01*
X5925D01*
X5906Y10565D02*
Y10545D01*
X5925Y10415D02*
X5935Y10425D01*
Y10445D01*
X5925Y10455D01*
X5915D01*
X5906Y10445D01*
Y10425D01*
X5896Y10415D01*
X5886D01*
X5876Y10425D01*
Y10445D01*
X5886Y10455D01*
X5935Y10395D02*
X5876D01*
Y10355D01*
X5935Y10305D02*
Y10325D01*
X5925Y10335D01*
X5886D01*
X5876Y10325D01*
Y10305D01*
X5886Y10295D01*
X5925D01*
X5935Y10305D01*
Y10275D02*
Y10235D01*
Y10255D01*
X5876D01*
X5135Y10805D02*
Y10785D01*
Y10795D01*
X5076D01*
Y10805D01*
Y10785D01*
X5125Y10715D02*
X5135Y10725D01*
Y10745D01*
X5125Y10755D01*
X5115D01*
X5106Y10745D01*
Y10725D01*
X5096Y10715D01*
X5086D01*
X5076Y10725D01*
Y10745D01*
X5086Y10755D01*
X5076Y10695D02*
X5115D01*
X5135Y10675D01*
X5115Y10655D01*
X5076D01*
X5106D01*
Y10695D01*
Y10635D02*
Y10595D01*
X5125Y10575D02*
X5135Y10565D01*
Y10545D01*
X5125Y10535D01*
X5115D01*
X5106Y10545D01*
X5096Y10535D01*
X5086D01*
X5076Y10545D01*
Y10565D01*
X5086Y10575D01*
X5096D01*
X5106Y10565D01*
X5115Y10575D01*
X5125D01*
X5106Y10565D02*
Y10545D01*
X5125Y10415D02*
X5135Y10425D01*
Y10445D01*
X5125Y10455D01*
X5115D01*
X5106Y10445D01*
Y10425D01*
X5096Y10415D01*
X5086D01*
X5076Y10425D01*
Y10445D01*
X5086Y10455D01*
X5135Y10395D02*
X5076D01*
Y10355D01*
X5135Y10305D02*
Y10325D01*
X5125Y10335D01*
X5086D01*
X5076Y10325D01*
Y10305D01*
X5086Y10295D01*
X5125D01*
X5135Y10305D01*
Y10275D02*
Y10235D01*
Y10255D01*
X5076D01*
X4335Y10805D02*
Y10785D01*
Y10795D01*
X4276D01*
Y10805D01*
Y10785D01*
X4325Y10715D02*
X4335Y10725D01*
Y10745D01*
X4325Y10755D01*
X4315D01*
X4306Y10745D01*
Y10725D01*
X4296Y10715D01*
X4286D01*
X4276Y10725D01*
Y10745D01*
X4286Y10755D01*
X4276Y10695D02*
X4315D01*
X4335Y10675D01*
X4315Y10655D01*
X4276D01*
X4306D01*
Y10695D01*
Y10635D02*
Y10595D01*
X4325Y10575D02*
X4335Y10565D01*
Y10545D01*
X4325Y10535D01*
X4315D01*
X4306Y10545D01*
X4296Y10535D01*
X4286D01*
X4276Y10545D01*
Y10565D01*
X4286Y10575D01*
X4296D01*
X4306Y10565D01*
X4315Y10575D01*
X4325D01*
X4306Y10565D02*
Y10545D01*
X4325Y10415D02*
X4335Y10425D01*
Y10445D01*
X4325Y10455D01*
X4315D01*
X4306Y10445D01*
Y10425D01*
X4296Y10415D01*
X4286D01*
X4276Y10425D01*
Y10445D01*
X4286Y10455D01*
X4335Y10395D02*
X4276D01*
Y10355D01*
X4335Y10305D02*
Y10325D01*
X4325Y10335D01*
X4286D01*
X4276Y10325D01*
Y10305D01*
X4286Y10295D01*
X4325D01*
X4335Y10305D01*
Y10275D02*
Y10235D01*
Y10255D01*
X4276D01*
X3535Y10805D02*
Y10785D01*
Y10795D01*
X3476D01*
Y10805D01*
Y10785D01*
X3525Y10715D02*
X3535Y10725D01*
Y10745D01*
X3525Y10755D01*
X3515D01*
X3506Y10745D01*
Y10725D01*
X3496Y10715D01*
X3486D01*
X3476Y10725D01*
Y10745D01*
X3486Y10755D01*
X3476Y10695D02*
X3515D01*
X3535Y10675D01*
X3515Y10655D01*
X3476D01*
X3506D01*
Y10695D01*
Y10635D02*
Y10595D01*
X3525Y10575D02*
X3535Y10565D01*
Y10545D01*
X3525Y10535D01*
X3515D01*
X3506Y10545D01*
X3496Y10535D01*
X3486D01*
X3476Y10545D01*
Y10565D01*
X3486Y10575D01*
X3496D01*
X3506Y10565D01*
X3515Y10575D01*
X3525D01*
X3506Y10565D02*
Y10545D01*
X3525Y10415D02*
X3535Y10425D01*
Y10445D01*
X3525Y10455D01*
X3515D01*
X3506Y10445D01*
Y10425D01*
X3496Y10415D01*
X3486D01*
X3476Y10425D01*
Y10445D01*
X3486Y10455D01*
X3535Y10395D02*
X3476D01*
Y10355D01*
X3535Y10305D02*
Y10325D01*
X3525Y10335D01*
X3486D01*
X3476Y10325D01*
Y10305D01*
X3486Y10295D01*
X3525D01*
X3535Y10305D01*
Y10275D02*
Y10235D01*
Y10255D01*
X3476D01*
X2735Y10805D02*
Y10785D01*
Y10795D01*
X2676D01*
Y10805D01*
Y10785D01*
X2725Y10715D02*
X2735Y10725D01*
Y10745D01*
X2725Y10755D01*
X2715D01*
X2706Y10745D01*
Y10725D01*
X2696Y10715D01*
X2686D01*
X2676Y10725D01*
Y10745D01*
X2686Y10755D01*
X2676Y10695D02*
X2715D01*
X2735Y10675D01*
X2715Y10655D01*
X2676D01*
X2706D01*
Y10695D01*
Y10635D02*
Y10595D01*
X2725Y10575D02*
X2735Y10565D01*
Y10545D01*
X2725Y10535D01*
X2715D01*
X2706Y10545D01*
X2696Y10535D01*
X2686D01*
X2676Y10545D01*
Y10565D01*
X2686Y10575D01*
X2696D01*
X2706Y10565D01*
X2715Y10575D01*
X2725D01*
X2706Y10565D02*
Y10545D01*
X2725Y10415D02*
X2735Y10425D01*
Y10445D01*
X2725Y10455D01*
X2715D01*
X2706Y10445D01*
Y10425D01*
X2696Y10415D01*
X2686D01*
X2676Y10425D01*
Y10445D01*
X2686Y10455D01*
X2735Y10395D02*
X2676D01*
Y10355D01*
X2735Y10305D02*
Y10325D01*
X2725Y10335D01*
X2686D01*
X2676Y10325D01*
Y10305D01*
X2686Y10295D01*
X2725D01*
X2735Y10305D01*
Y10275D02*
Y10235D01*
Y10255D01*
X2676D01*
X1935Y10805D02*
Y10785D01*
Y10795D01*
X1876D01*
Y10805D01*
Y10785D01*
X1925Y10715D02*
X1935Y10725D01*
Y10745D01*
X1925Y10755D01*
X1915D01*
X1906Y10745D01*
Y10725D01*
X1896Y10715D01*
X1886D01*
X1876Y10725D01*
Y10745D01*
X1886Y10755D01*
X1876Y10695D02*
X1915D01*
X1935Y10675D01*
X1915Y10655D01*
X1876D01*
X1906D01*
Y10695D01*
Y10635D02*
Y10595D01*
X1925Y10575D02*
X1935Y10565D01*
Y10545D01*
X1925Y10535D01*
X1915D01*
X1906Y10545D01*
X1896Y10535D01*
X1886D01*
X1876Y10545D01*
Y10565D01*
X1886Y10575D01*
X1896D01*
X1906Y10565D01*
X1915Y10575D01*
X1925D01*
X1906Y10565D02*
Y10545D01*
X1925Y10415D02*
X1935Y10425D01*
Y10445D01*
X1925Y10455D01*
X1915D01*
X1906Y10445D01*
Y10425D01*
X1896Y10415D01*
X1886D01*
X1876Y10425D01*
Y10445D01*
X1886Y10455D01*
X1935Y10395D02*
X1876D01*
Y10355D01*
X1935Y10305D02*
Y10325D01*
X1925Y10335D01*
X1886D01*
X1876Y10325D01*
Y10305D01*
X1886Y10295D01*
X1925D01*
X1935Y10305D01*
Y10275D02*
Y10235D01*
Y10255D01*
X1876D01*
X1135Y10805D02*
Y10785D01*
Y10795D01*
X1076D01*
Y10805D01*
Y10785D01*
X1125Y10715D02*
X1135Y10725D01*
Y10745D01*
X1125Y10755D01*
X1115D01*
X1106Y10745D01*
Y10725D01*
X1096Y10715D01*
X1086D01*
X1076Y10725D01*
Y10745D01*
X1086Y10755D01*
X1076Y10695D02*
X1115D01*
X1135Y10675D01*
X1115Y10655D01*
X1076D01*
X1106D01*
Y10695D01*
Y10635D02*
Y10595D01*
X1125Y10575D02*
X1135Y10565D01*
Y10545D01*
X1125Y10535D01*
X1115D01*
X1106Y10545D01*
X1096Y10535D01*
X1086D01*
X1076Y10545D01*
Y10565D01*
X1086Y10575D01*
X1096D01*
X1106Y10565D01*
X1115Y10575D01*
X1125D01*
X1106Y10565D02*
Y10545D01*
X1125Y10415D02*
X1135Y10425D01*
Y10445D01*
X1125Y10455D01*
X1115D01*
X1106Y10445D01*
Y10425D01*
X1096Y10415D01*
X1086D01*
X1076Y10425D01*
Y10445D01*
X1086Y10455D01*
X1135Y10395D02*
X1076D01*
Y10355D01*
X1135Y10305D02*
Y10325D01*
X1125Y10335D01*
X1086D01*
X1076Y10325D01*
Y10305D01*
X1086Y10295D01*
X1125D01*
X1135Y10305D01*
Y10275D02*
Y10235D01*
Y10255D01*
X1076D01*
X335Y10805D02*
Y10785D01*
Y10795D01*
X276D01*
Y10805D01*
Y10785D01*
X325Y10715D02*
X335Y10725D01*
Y10745D01*
X325Y10755D01*
X315D01*
X306Y10745D01*
Y10725D01*
X296Y10715D01*
X286D01*
X276Y10725D01*
Y10745D01*
X286Y10755D01*
X276Y10695D02*
X315D01*
X335Y10675D01*
X315Y10655D01*
X276D01*
X306D01*
Y10695D01*
Y10635D02*
Y10595D01*
X325Y10575D02*
X335Y10565D01*
Y10545D01*
X325Y10535D01*
X315D01*
X306Y10545D01*
X296Y10535D01*
X286D01*
X276Y10545D01*
Y10565D01*
X286Y10575D01*
X296D01*
X306Y10565D01*
X315Y10575D01*
X325D01*
X306Y10565D02*
Y10545D01*
X325Y10415D02*
X335Y10425D01*
Y10445D01*
X325Y10455D01*
X315D01*
X306Y10445D01*
Y10425D01*
X296Y10415D01*
X286D01*
X276Y10425D01*
Y10445D01*
X286Y10455D01*
X335Y10395D02*
X276D01*
Y10355D01*
X335Y10305D02*
Y10325D01*
X325Y10335D01*
X286D01*
X276Y10325D01*
Y10305D01*
X286Y10295D01*
X325D01*
X335Y10305D01*
Y10275D02*
Y10235D01*
Y10255D01*
X276D01*
X9941Y404D02*
X9981Y344D01*
Y404D02*
X9941Y344D01*
X10001Y404D02*
X10041D01*
X10021D01*
Y344D01*
X10061D02*
Y384D01*
X10081Y404D01*
X10101Y384D01*
Y344D01*
Y374D01*
X10061D01*
X10121Y404D02*
Y344D01*
X10161D01*
X10181Y334D02*
X10221D01*
X10241Y344D02*
X10261D01*
X10251D01*
Y404D01*
X10241Y394D01*
X10321Y344D02*
Y404D01*
X10291Y374D01*
X10331D01*
X10351Y394D02*
X10361Y404D01*
X10381D01*
X10391Y394D01*
Y384D01*
X10381Y374D01*
X10371D01*
X10381D01*
X10391Y364D01*
Y354D01*
X10381Y344D01*
X10361D01*
X10351Y354D01*
X10411Y344D02*
X10431D01*
X10421D01*
Y404D01*
X10411Y394D01*
X10461D02*
X10471Y404D01*
X10491D01*
X10501Y394D01*
Y384D01*
X10491Y374D01*
X10501Y364D01*
Y354D01*
X10491Y344D01*
X10471D01*
X10461Y354D01*
Y364D01*
X10471Y374D01*
X10461Y384D01*
Y394D01*
X10471Y374D02*
X10491D01*
X503Y5807D02*
X443Y5767D01*
X503D02*
X443Y5807D01*
X503Y5747D02*
Y5707D01*
Y5727D01*
X443D01*
Y5687D02*
X483D01*
X503Y5667D01*
X483Y5647D01*
X443D01*
X473D01*
Y5687D01*
X503Y5627D02*
X443D01*
Y5587D01*
X433Y5567D02*
Y5527D01*
X443Y5467D02*
Y5507D01*
X483Y5467D01*
X493D01*
X503Y5477D01*
Y5497D01*
X493Y5507D01*
X443Y5417D02*
X503D01*
X473Y5447D01*
Y5407D01*
X443Y5387D02*
X503D01*
X483Y5367D01*
X503Y5347D01*
X443D01*
X503Y5327D02*
X443D01*
X473D01*
Y5287D01*
X503D01*
X443D01*
X503Y5267D02*
Y5227D01*
X493D01*
X453Y5267D01*
X443D01*
Y5227D01*
X6152Y12460D02*
X6162Y12470D01*
Y12490D01*
X6152Y12500D01*
X6112D01*
X6102Y12490D01*
Y12470D01*
X6112Y12460D01*
X6102Y12440D02*
X6142D01*
X6162Y12420D01*
X6142Y12400D01*
X6102D01*
X6132D01*
Y12440D01*
X6102Y12380D02*
X6162D01*
Y12350D01*
X6152Y12340D01*
X6132D01*
X6122Y12350D01*
Y12380D01*
X6092Y12320D02*
Y12280D01*
X6102Y12230D02*
X6162D01*
X6132Y12260D01*
Y12220D01*
X6162Y12200D02*
Y12160D01*
X6152D01*
X6112Y12200D01*
X6102D01*
Y12140D02*
X6162D01*
X6142Y12120D01*
X6162Y12100D01*
X6102D01*
X6162Y12080D02*
X6102D01*
X6122D01*
X6162Y12040D01*
X6132Y12070D01*
X6102Y12040D01*
X6162Y11980D02*
Y12020D01*
X6132D01*
Y12000D01*
Y12020D01*
X6102D01*
X6546Y12460D02*
X6556Y12470D01*
Y12490D01*
X6546Y12500D01*
X6506D01*
X6496Y12490D01*
Y12470D01*
X6506Y12460D01*
X6496Y12440D02*
X6536D01*
X6556Y12420D01*
X6536Y12400D01*
X6496D01*
X6526D01*
Y12440D01*
X6496Y12380D02*
X6556D01*
Y12350D01*
X6546Y12340D01*
X6526D01*
X6516Y12350D01*
Y12380D01*
X6486Y12320D02*
Y12280D01*
X6496Y12230D02*
X6556D01*
X6526Y12260D01*
Y12220D01*
X6556Y12200D02*
Y12160D01*
X6546D01*
X6506Y12200D01*
X6496D01*
Y12140D02*
X6556D01*
X6536Y12120D01*
X6556Y12100D01*
X6496D01*
X6556Y12080D02*
X6496D01*
X6516D01*
X6556Y12040D01*
X6526Y12070D01*
X6496Y12040D01*
X6556Y11980D02*
Y12020D01*
X6526D01*
Y12000D01*
Y12020D01*
X6496D01*
X6349Y11279D02*
X6359Y11289D01*
Y11309D01*
X6349Y11319D01*
X6309D01*
X6299Y11309D01*
Y11289D01*
X6309Y11279D01*
X6299Y11259D02*
X6339D01*
X6359Y11239D01*
X6339Y11219D01*
X6299D01*
X6329D01*
Y11259D01*
X6299Y11199D02*
X6359D01*
Y11169D01*
X6349Y11159D01*
X6329D01*
X6319Y11169D01*
Y11199D01*
X6289Y11139D02*
Y11099D01*
X6299Y11049D02*
X6359D01*
X6329Y11079D01*
Y11039D01*
X6359Y11019D02*
Y10979D01*
X6349D01*
X6309Y11019D01*
X6299D01*
Y10959D02*
X6359D01*
X6339Y10939D01*
X6359Y10919D01*
X6299D01*
X6359Y10899D02*
X6299D01*
X6319D01*
X6359Y10859D01*
X6329Y10889D01*
X6299Y10859D01*
X6359Y10799D02*
Y10839D01*
X6329D01*
Y10819D01*
Y10839D01*
X6299D01*
X6349Y9999D02*
X6359Y10009D01*
Y10029D01*
X6349Y10039D01*
X6309D01*
X6299Y10029D01*
Y10009D01*
X6309Y9999D01*
X6299Y9979D02*
X6339D01*
X6359Y9959D01*
X6339Y9939D01*
X6299D01*
X6329D01*
Y9979D01*
X6299Y9919D02*
X6359D01*
Y9889D01*
X6349Y9879D01*
X6329D01*
X6319Y9889D01*
Y9919D01*
X6289Y9859D02*
Y9819D01*
X6299Y9769D02*
X6359D01*
X6329Y9799D01*
Y9759D01*
X6359Y9739D02*
Y9699D01*
X6349D01*
X6309Y9739D01*
X6299D01*
Y9679D02*
X6359D01*
X6339Y9659D01*
X6359Y9639D01*
X6299D01*
X6359Y9620D02*
X6299D01*
X6319D01*
X6359Y9580D01*
X6329Y9610D01*
X6299Y9580D01*
X6359Y9520D02*
Y9560D01*
X6329D01*
Y9540D01*
Y9560D01*
X6299D01*
X9625Y6367D02*
X9635Y6357D01*
X9655D01*
X9665Y6367D01*
Y6407D01*
X9655Y6417D01*
X9635D01*
X9625Y6407D01*
X9605Y6417D02*
Y6377D01*
X9585Y6357D01*
X9565Y6377D01*
Y6417D01*
Y6387D01*
X9605D01*
X9545Y6417D02*
Y6357D01*
X9515D01*
X9505Y6367D01*
Y6387D01*
X9515Y6397D01*
X9545D01*
X9485Y6427D02*
X9445D01*
X9425Y6417D02*
X9405D01*
X9415D01*
Y6357D01*
X9425Y6367D01*
X9375D02*
X9365Y6357D01*
X9345D01*
X9335Y6367D01*
Y6407D01*
X9345Y6417D01*
X9365D01*
X9375Y6407D01*
Y6367D01*
X9315Y6417D02*
Y6357D01*
X9295Y6377D01*
X9275Y6357D01*
Y6417D01*
X9255Y6357D02*
Y6417D01*
Y6397D01*
X9215Y6357D01*
X9245Y6387D01*
X9215Y6417D01*
X9155Y6357D02*
X9195D01*
Y6387D01*
X9175D01*
X9195D01*
Y6417D01*
X7855Y4606D02*
X7795D01*
X7815D01*
X7855Y4566D01*
X7825Y4596D01*
X7795Y4566D01*
Y4546D02*
X7855D01*
Y4516D01*
X7845Y4506D01*
X7825D01*
X7815Y4516D01*
Y4546D01*
Y4526D02*
X7795Y4506D01*
X7855Y4446D02*
Y4486D01*
X7825D01*
X7835Y4466D01*
Y4456D01*
X7825Y4446D01*
X7805D01*
X7795Y4456D01*
Y4476D01*
X7805Y4486D01*
X7855Y4386D02*
X7845Y4406D01*
X7825Y4426D01*
X7805D01*
X7795Y4416D01*
Y4396D01*
X7805Y4386D01*
X7815D01*
X7825Y4396D01*
Y4426D01*
X7855Y4326D02*
Y4366D01*
X7825D01*
X7835Y4346D01*
Y4336D01*
X7825Y4326D01*
X7805D01*
X7795Y4336D01*
Y4356D01*
X7805Y4366D01*
X7795Y4306D02*
X7855D01*
Y4276D01*
X7845Y4266D01*
X7825D01*
X7815Y4276D01*
Y4306D01*
Y4286D02*
X7795Y4266D01*
X7855Y4246D02*
X7805D01*
X7795Y4236D01*
Y4216D01*
X7805Y4206D01*
X7855D01*
Y4186D02*
Y4146D01*
X7845D01*
X7805Y4186D01*
X7795D01*
X6871Y4606D02*
X6811D01*
X6831D01*
X6871Y4566D01*
X6841Y4596D01*
X6811Y4566D01*
Y4546D02*
X6871D01*
Y4516D01*
X6861Y4506D01*
X6841D01*
X6831Y4516D01*
Y4546D01*
Y4526D02*
X6811Y4506D01*
X6871Y4446D02*
Y4486D01*
X6841D01*
X6851Y4466D01*
Y4456D01*
X6841Y4446D01*
X6821D01*
X6811Y4456D01*
Y4476D01*
X6821Y4486D01*
X6871Y4386D02*
X6861Y4406D01*
X6841Y4426D01*
X6821D01*
X6811Y4416D01*
Y4396D01*
X6821Y4386D01*
X6831D01*
X6841Y4396D01*
Y4426D01*
X6871Y4326D02*
Y4366D01*
X6841D01*
X6851Y4346D01*
Y4336D01*
X6841Y4326D01*
X6821D01*
X6811Y4336D01*
Y4356D01*
X6821Y4366D01*
X6811Y4306D02*
X6871D01*
Y4276D01*
X6861Y4266D01*
X6841D01*
X6831Y4276D01*
Y4306D01*
Y4286D02*
X6811Y4266D01*
X6871Y4246D02*
X6821D01*
X6811Y4236D01*
Y4216D01*
X6821Y4206D01*
X6871D01*
Y4186D02*
Y4146D01*
X6861D01*
X6821Y4186D01*
X6811D01*
X5887Y4606D02*
X5827D01*
X5847D01*
X5887Y4566D01*
X5857Y4596D01*
X5827Y4566D01*
Y4546D02*
X5887D01*
Y4516D01*
X5877Y4506D01*
X5857D01*
X5847Y4516D01*
Y4546D01*
Y4526D02*
X5827Y4506D01*
X5887Y4446D02*
Y4486D01*
X5857D01*
X5867Y4466D01*
Y4456D01*
X5857Y4446D01*
X5837D01*
X5827Y4456D01*
Y4476D01*
X5837Y4486D01*
X5887Y4386D02*
X5877Y4406D01*
X5857Y4426D01*
X5837D01*
X5827Y4416D01*
Y4396D01*
X5837Y4386D01*
X5847D01*
X5857Y4396D01*
Y4426D01*
X5887Y4326D02*
Y4366D01*
X5857D01*
X5867Y4346D01*
Y4336D01*
X5857Y4326D01*
X5837D01*
X5827Y4336D01*
Y4356D01*
X5837Y4366D01*
X5827Y4306D02*
X5887D01*
Y4276D01*
X5877Y4266D01*
X5857D01*
X5847Y4276D01*
Y4306D01*
Y4286D02*
X5827Y4266D01*
X5887Y4246D02*
X5837D01*
X5827Y4236D01*
Y4216D01*
X5837Y4206D01*
X5887D01*
Y4186D02*
Y4146D01*
X5877D01*
X5837Y4186D01*
X5827D01*
X4902Y4606D02*
X4842D01*
X4862D01*
X4902Y4566D01*
X4872Y4596D01*
X4842Y4566D01*
Y4546D02*
X4902D01*
Y4516D01*
X4892Y4506D01*
X4872D01*
X4862Y4516D01*
Y4546D01*
Y4526D02*
X4842Y4506D01*
X4902Y4446D02*
Y4486D01*
X4872D01*
X4882Y4466D01*
Y4456D01*
X4872Y4446D01*
X4852D01*
X4842Y4456D01*
Y4476D01*
X4852Y4486D01*
X4902Y4386D02*
X4892Y4406D01*
X4872Y4426D01*
X4852D01*
X4842Y4416D01*
Y4396D01*
X4852Y4386D01*
X4862D01*
X4872Y4396D01*
Y4426D01*
X4902Y4326D02*
Y4366D01*
X4872D01*
X4882Y4346D01*
Y4336D01*
X4872Y4326D01*
X4852D01*
X4842Y4336D01*
Y4356D01*
X4852Y4366D01*
X4842Y4306D02*
X4902D01*
Y4276D01*
X4892Y4266D01*
X4872D01*
X4862Y4276D01*
Y4306D01*
Y4286D02*
X4842Y4266D01*
X4902Y4246D02*
X4852D01*
X4842Y4236D01*
Y4216D01*
X4852Y4206D01*
X4902D01*
Y4186D02*
Y4146D01*
X4892D01*
X4852Y4186D01*
X4842D01*
X3918Y4606D02*
X3858D01*
X3878D01*
X3918Y4566D01*
X3888Y4596D01*
X3858Y4566D01*
Y4546D02*
X3918D01*
Y4516D01*
X3908Y4506D01*
X3888D01*
X3878Y4516D01*
Y4546D01*
Y4526D02*
X3858Y4506D01*
X3918Y4446D02*
Y4486D01*
X3888D01*
X3898Y4466D01*
Y4456D01*
X3888Y4446D01*
X3868D01*
X3858Y4456D01*
Y4476D01*
X3868Y4486D01*
X3918Y4386D02*
X3908Y4406D01*
X3888Y4426D01*
X3868D01*
X3858Y4416D01*
Y4396D01*
X3868Y4386D01*
X3878D01*
X3888Y4396D01*
Y4426D01*
X3918Y4326D02*
Y4366D01*
X3888D01*
X3898Y4346D01*
Y4336D01*
X3888Y4326D01*
X3868D01*
X3858Y4336D01*
Y4356D01*
X3868Y4366D01*
X3858Y4306D02*
X3918D01*
Y4276D01*
X3908Y4266D01*
X3888D01*
X3878Y4276D01*
Y4306D01*
Y4286D02*
X3858Y4266D01*
X3918Y4246D02*
X3868D01*
X3858Y4236D01*
Y4216D01*
X3868Y4206D01*
X3918D01*
Y4186D02*
Y4146D01*
X3908D01*
X3868Y4186D01*
X3858D01*
X2934Y4606D02*
X2874D01*
X2894D01*
X2934Y4566D01*
X2904Y4596D01*
X2874Y4566D01*
Y4546D02*
X2934D01*
Y4516D01*
X2924Y4506D01*
X2904D01*
X2894Y4516D01*
Y4546D01*
Y4526D02*
X2874Y4506D01*
X2934Y4446D02*
Y4486D01*
X2904D01*
X2914Y4466D01*
Y4456D01*
X2904Y4446D01*
X2884D01*
X2874Y4456D01*
Y4476D01*
X2884Y4486D01*
X2934Y4386D02*
X2924Y4406D01*
X2904Y4426D01*
X2884D01*
X2874Y4416D01*
Y4396D01*
X2884Y4386D01*
X2894D01*
X2904Y4396D01*
Y4426D01*
X2934Y4326D02*
Y4366D01*
X2904D01*
X2914Y4346D01*
Y4336D01*
X2904Y4326D01*
X2884D01*
X2874Y4336D01*
Y4356D01*
X2884Y4366D01*
X2874Y4306D02*
X2934D01*
Y4276D01*
X2924Y4266D01*
X2904D01*
X2894Y4276D01*
Y4306D01*
Y4286D02*
X2874Y4266D01*
X2934Y4246D02*
X2884D01*
X2874Y4236D01*
Y4216D01*
X2884Y4206D01*
X2934D01*
Y4186D02*
Y4146D01*
X2924D01*
X2884Y4186D01*
X2874D01*
X1950Y4606D02*
X1890D01*
X1910D01*
X1950Y4566D01*
X1920Y4596D01*
X1890Y4566D01*
Y4546D02*
X1950D01*
Y4516D01*
X1940Y4506D01*
X1920D01*
X1910Y4516D01*
Y4546D01*
Y4526D02*
X1890Y4506D01*
X1950Y4446D02*
Y4486D01*
X1920D01*
X1930Y4466D01*
Y4456D01*
X1920Y4446D01*
X1900D01*
X1890Y4456D01*
Y4476D01*
X1900Y4486D01*
X1950Y4386D02*
X1940Y4406D01*
X1920Y4426D01*
X1900D01*
X1890Y4416D01*
Y4396D01*
X1900Y4386D01*
X1910D01*
X1920Y4396D01*
Y4426D01*
X1950Y4326D02*
Y4366D01*
X1920D01*
X1930Y4346D01*
Y4336D01*
X1920Y4326D01*
X1900D01*
X1890Y4336D01*
Y4356D01*
X1900Y4366D01*
X1890Y4306D02*
X1950D01*
Y4276D01*
X1940Y4266D01*
X1920D01*
X1910Y4276D01*
Y4306D01*
Y4286D02*
X1890Y4266D01*
X1950Y4246D02*
X1900D01*
X1890Y4236D01*
Y4216D01*
X1900Y4206D01*
X1950D01*
Y4186D02*
Y4146D01*
X1940D01*
X1900Y4186D01*
X1890D01*
X965Y4606D02*
X905D01*
X925D01*
X965Y4566D01*
X935Y4596D01*
X905Y4566D01*
Y4546D02*
X965D01*
Y4516D01*
X955Y4506D01*
X935D01*
X925Y4516D01*
Y4546D01*
Y4526D02*
X905Y4506D01*
X965Y4446D02*
Y4486D01*
X935D01*
X945Y4466D01*
Y4456D01*
X935Y4446D01*
X915D01*
X905Y4456D01*
Y4476D01*
X915Y4486D01*
X965Y4386D02*
X955Y4406D01*
X935Y4426D01*
X915D01*
X905Y4416D01*
Y4396D01*
X915Y4386D01*
X925D01*
X935Y4396D01*
Y4426D01*
X965Y4326D02*
Y4366D01*
X935D01*
X945Y4346D01*
Y4336D01*
X935Y4326D01*
X915D01*
X905Y4336D01*
Y4356D01*
X915Y4366D01*
X905Y4306D02*
X965D01*
Y4276D01*
X955Y4266D01*
X935D01*
X925Y4276D01*
Y4306D01*
Y4286D02*
X905Y4266D01*
X965Y4246D02*
X915D01*
X905Y4236D01*
Y4216D01*
X915Y4206D01*
X965D01*
Y4186D02*
Y4146D01*
X955D01*
X915Y4186D01*
X905D01*
X7363Y4606D02*
X7303D01*
X7323D01*
X7363Y4566D01*
X7333Y4596D01*
X7303Y4566D01*
Y4546D02*
X7363D01*
Y4516D01*
X7353Y4506D01*
X7333D01*
X7323Y4516D01*
Y4546D01*
Y4526D02*
X7303Y4506D01*
X7363Y4446D02*
Y4486D01*
X7333D01*
X7343Y4466D01*
Y4456D01*
X7333Y4446D01*
X7313D01*
X7303Y4456D01*
Y4476D01*
X7313Y4486D01*
X7363Y4386D02*
X7353Y4406D01*
X7333Y4426D01*
X7313D01*
X7303Y4416D01*
Y4396D01*
X7313Y4386D01*
X7323D01*
X7333Y4396D01*
Y4426D01*
X7363Y4326D02*
Y4366D01*
X7333D01*
X7343Y4346D01*
Y4336D01*
X7333Y4326D01*
X7313D01*
X7303Y4336D01*
Y4356D01*
X7313Y4366D01*
X7303Y4306D02*
X7363D01*
Y4276D01*
X7353Y4266D01*
X7333D01*
X7323Y4276D01*
Y4306D01*
Y4286D02*
X7303Y4266D01*
X7363Y4246D02*
X7313D01*
X7303Y4236D01*
Y4216D01*
X7313Y4206D01*
X7363D01*
Y4186D02*
Y4146D01*
X7353D01*
X7313Y4186D01*
X7303D01*
X6379Y4606D02*
X6319D01*
X6339D01*
X6379Y4566D01*
X6349Y4596D01*
X6319Y4566D01*
Y4546D02*
X6379D01*
Y4516D01*
X6369Y4506D01*
X6349D01*
X6339Y4516D01*
Y4546D01*
Y4526D02*
X6319Y4506D01*
X6379Y4446D02*
Y4486D01*
X6349D01*
X6359Y4466D01*
Y4456D01*
X6349Y4446D01*
X6329D01*
X6319Y4456D01*
Y4476D01*
X6329Y4486D01*
X6379Y4386D02*
X6369Y4406D01*
X6349Y4426D01*
X6329D01*
X6319Y4416D01*
Y4396D01*
X6329Y4386D01*
X6339D01*
X6349Y4396D01*
Y4426D01*
X6379Y4326D02*
Y4366D01*
X6349D01*
X6359Y4346D01*
Y4336D01*
X6349Y4326D01*
X6329D01*
X6319Y4336D01*
Y4356D01*
X6329Y4366D01*
X6319Y4306D02*
X6379D01*
Y4276D01*
X6369Y4266D01*
X6349D01*
X6339Y4276D01*
Y4306D01*
Y4286D02*
X6319Y4266D01*
X6379Y4246D02*
X6329D01*
X6319Y4236D01*
Y4216D01*
X6329Y4206D01*
X6379D01*
Y4186D02*
Y4146D01*
X6369D01*
X6329Y4186D01*
X6319D01*
X5395Y4606D02*
X5335D01*
X5355D01*
X5395Y4566D01*
X5365Y4596D01*
X5335Y4566D01*
Y4546D02*
X5395D01*
Y4516D01*
X5385Y4506D01*
X5365D01*
X5355Y4516D01*
Y4546D01*
Y4526D02*
X5335Y4506D01*
X5395Y4446D02*
Y4486D01*
X5365D01*
X5375Y4466D01*
Y4456D01*
X5365Y4446D01*
X5345D01*
X5335Y4456D01*
Y4476D01*
X5345Y4486D01*
X5395Y4386D02*
X5385Y4406D01*
X5365Y4426D01*
X5345D01*
X5335Y4416D01*
Y4396D01*
X5345Y4386D01*
X5355D01*
X5365Y4396D01*
Y4426D01*
X5395Y4326D02*
Y4366D01*
X5365D01*
X5375Y4346D01*
Y4336D01*
X5365Y4326D01*
X5345D01*
X5335Y4336D01*
Y4356D01*
X5345Y4366D01*
X5335Y4306D02*
X5395D01*
Y4276D01*
X5385Y4266D01*
X5365D01*
X5355Y4276D01*
Y4306D01*
Y4286D02*
X5335Y4266D01*
X5395Y4246D02*
X5345D01*
X5335Y4236D01*
Y4216D01*
X5345Y4206D01*
X5395D01*
Y4186D02*
Y4146D01*
X5385D01*
X5345Y4186D01*
X5335D01*
X4410Y4606D02*
X4350D01*
X4370D01*
X4410Y4566D01*
X4380Y4596D01*
X4350Y4566D01*
Y4546D02*
X4410D01*
Y4516D01*
X4400Y4506D01*
X4380D01*
X4370Y4516D01*
Y4546D01*
Y4526D02*
X4350Y4506D01*
X4410Y4446D02*
Y4486D01*
X4380D01*
X4390Y4466D01*
Y4456D01*
X4380Y4446D01*
X4360D01*
X4350Y4456D01*
Y4476D01*
X4360Y4486D01*
X4410Y4386D02*
X4400Y4406D01*
X4380Y4426D01*
X4360D01*
X4350Y4416D01*
Y4396D01*
X4360Y4386D01*
X4370D01*
X4380Y4396D01*
Y4426D01*
X4410Y4326D02*
Y4366D01*
X4380D01*
X4390Y4346D01*
Y4336D01*
X4380Y4326D01*
X4360D01*
X4350Y4336D01*
Y4356D01*
X4360Y4366D01*
X4350Y4306D02*
X4410D01*
Y4276D01*
X4400Y4266D01*
X4380D01*
X4370Y4276D01*
Y4306D01*
Y4286D02*
X4350Y4266D01*
X4410Y4246D02*
X4360D01*
X4350Y4236D01*
Y4216D01*
X4360Y4206D01*
X4410D01*
Y4186D02*
Y4146D01*
X4400D01*
X4360Y4186D01*
X4350D01*
X3426Y4606D02*
X3366D01*
X3386D01*
X3426Y4566D01*
X3396Y4596D01*
X3366Y4566D01*
Y4546D02*
X3426D01*
Y4516D01*
X3416Y4506D01*
X3396D01*
X3386Y4516D01*
Y4546D01*
Y4526D02*
X3366Y4506D01*
X3426Y4446D02*
Y4486D01*
X3396D01*
X3406Y4466D01*
Y4456D01*
X3396Y4446D01*
X3376D01*
X3366Y4456D01*
Y4476D01*
X3376Y4486D01*
X3426Y4386D02*
X3416Y4406D01*
X3396Y4426D01*
X3376D01*
X3366Y4416D01*
Y4396D01*
X3376Y4386D01*
X3386D01*
X3396Y4396D01*
Y4426D01*
X3426Y4326D02*
Y4366D01*
X3396D01*
X3406Y4346D01*
Y4336D01*
X3396Y4326D01*
X3376D01*
X3366Y4336D01*
Y4356D01*
X3376Y4366D01*
X3366Y4306D02*
X3426D01*
Y4276D01*
X3416Y4266D01*
X3396D01*
X3386Y4276D01*
Y4306D01*
Y4286D02*
X3366Y4266D01*
X3426Y4246D02*
X3376D01*
X3366Y4236D01*
Y4216D01*
X3376Y4206D01*
X3426D01*
Y4186D02*
Y4146D01*
X3416D01*
X3376Y4186D01*
X3366D01*
X2442Y4606D02*
X2382D01*
X2402D01*
X2442Y4566D01*
X2412Y4596D01*
X2382Y4566D01*
Y4546D02*
X2442D01*
Y4516D01*
X2432Y4506D01*
X2412D01*
X2402Y4516D01*
Y4546D01*
Y4526D02*
X2382Y4506D01*
X2442Y4446D02*
Y4486D01*
X2412D01*
X2422Y4466D01*
Y4456D01*
X2412Y4446D01*
X2392D01*
X2382Y4456D01*
Y4476D01*
X2392Y4486D01*
X2442Y4386D02*
X2432Y4406D01*
X2412Y4426D01*
X2392D01*
X2382Y4416D01*
Y4396D01*
X2392Y4386D01*
X2402D01*
X2412Y4396D01*
Y4426D01*
X2442Y4326D02*
Y4366D01*
X2412D01*
X2422Y4346D01*
Y4336D01*
X2412Y4326D01*
X2392D01*
X2382Y4336D01*
Y4356D01*
X2392Y4366D01*
X2382Y4306D02*
X2442D01*
Y4276D01*
X2432Y4266D01*
X2412D01*
X2402Y4276D01*
Y4306D01*
Y4286D02*
X2382Y4266D01*
X2442Y4246D02*
X2392D01*
X2382Y4236D01*
Y4216D01*
X2392Y4206D01*
X2442D01*
Y4186D02*
Y4146D01*
X2432D01*
X2392Y4186D01*
X2382D01*
X1458Y4606D02*
X1398D01*
X1418D01*
X1458Y4566D01*
X1428Y4596D01*
X1398Y4566D01*
Y4546D02*
X1458D01*
Y4516D01*
X1448Y4506D01*
X1428D01*
X1418Y4516D01*
Y4546D01*
Y4526D02*
X1398Y4506D01*
X1458Y4446D02*
Y4486D01*
X1428D01*
X1438Y4466D01*
Y4456D01*
X1428Y4446D01*
X1408D01*
X1398Y4456D01*
Y4476D01*
X1408Y4486D01*
X1458Y4386D02*
X1448Y4406D01*
X1428Y4426D01*
X1408D01*
X1398Y4416D01*
Y4396D01*
X1408Y4386D01*
X1418D01*
X1428Y4396D01*
Y4426D01*
X1458Y4326D02*
Y4366D01*
X1428D01*
X1438Y4346D01*
Y4336D01*
X1428Y4326D01*
X1408D01*
X1398Y4336D01*
Y4356D01*
X1408Y4366D01*
X1398Y4306D02*
X1458D01*
Y4276D01*
X1448Y4266D01*
X1428D01*
X1418Y4276D01*
Y4306D01*
Y4286D02*
X1398Y4266D01*
X1458Y4246D02*
X1408D01*
X1398Y4236D01*
Y4216D01*
X1408Y4206D01*
X1458D01*
Y4186D02*
Y4146D01*
X1448D01*
X1408Y4186D01*
X1398D01*
X473Y4606D02*
X413D01*
X433D01*
X473Y4566D01*
X443Y4596D01*
X413Y4566D01*
Y4546D02*
X473D01*
Y4516D01*
X463Y4506D01*
X443D01*
X433Y4516D01*
Y4546D01*
Y4526D02*
X413Y4506D01*
X473Y4446D02*
Y4486D01*
X443D01*
X453Y4466D01*
Y4456D01*
X443Y4446D01*
X423D01*
X413Y4456D01*
Y4476D01*
X423Y4486D01*
X473Y4386D02*
X463Y4406D01*
X443Y4426D01*
X423D01*
X413Y4416D01*
Y4396D01*
X423Y4386D01*
X433D01*
X443Y4396D01*
Y4426D01*
X473Y4326D02*
Y4366D01*
X443D01*
X453Y4346D01*
Y4336D01*
X443Y4326D01*
X423D01*
X413Y4336D01*
Y4356D01*
X423Y4366D01*
X413Y4306D02*
X473D01*
Y4276D01*
X463Y4266D01*
X443D01*
X433Y4276D01*
Y4306D01*
Y4286D02*
X413Y4266D01*
X473Y4246D02*
X423D01*
X413Y4236D01*
Y4216D01*
X423Y4206D01*
X473D01*
Y4186D02*
Y4146D01*
X463D01*
X423Y4186D01*
X413D01*
X7855Y3524D02*
X7795D01*
X7815D01*
X7855Y3484D01*
X7825Y3514D01*
X7795Y3484D01*
Y3464D02*
X7855D01*
Y3434D01*
X7845Y3424D01*
X7825D01*
X7815Y3434D01*
Y3464D01*
Y3444D02*
X7795Y3424D01*
X7855Y3364D02*
Y3404D01*
X7825D01*
X7835Y3384D01*
Y3374D01*
X7825Y3364D01*
X7805D01*
X7795Y3374D01*
Y3394D01*
X7805Y3404D01*
X7855Y3304D02*
X7845Y3324D01*
X7825Y3344D01*
X7805D01*
X7795Y3334D01*
Y3314D01*
X7805Y3304D01*
X7815D01*
X7825Y3314D01*
Y3344D01*
X7855Y3244D02*
Y3284D01*
X7825D01*
X7835Y3264D01*
Y3254D01*
X7825Y3244D01*
X7805D01*
X7795Y3254D01*
Y3274D01*
X7805Y3284D01*
X7795Y3224D02*
X7855D01*
Y3194D01*
X7845Y3184D01*
X7825D01*
X7815Y3194D01*
Y3224D01*
Y3204D02*
X7795Y3184D01*
X7855Y3164D02*
X7805D01*
X7795Y3154D01*
Y3134D01*
X7805Y3124D01*
X7855D01*
Y3104D02*
Y3064D01*
X7845D01*
X7805Y3104D01*
X7795D01*
X6871Y3524D02*
X6811D01*
X6831D01*
X6871Y3484D01*
X6841Y3514D01*
X6811Y3484D01*
Y3464D02*
X6871D01*
Y3434D01*
X6861Y3424D01*
X6841D01*
X6831Y3434D01*
Y3464D01*
Y3444D02*
X6811Y3424D01*
X6871Y3364D02*
Y3404D01*
X6841D01*
X6851Y3384D01*
Y3374D01*
X6841Y3364D01*
X6821D01*
X6811Y3374D01*
Y3394D01*
X6821Y3404D01*
X6871Y3304D02*
X6861Y3324D01*
X6841Y3344D01*
X6821D01*
X6811Y3334D01*
Y3314D01*
X6821Y3304D01*
X6831D01*
X6841Y3314D01*
Y3344D01*
X6871Y3244D02*
Y3284D01*
X6841D01*
X6851Y3264D01*
Y3254D01*
X6841Y3244D01*
X6821D01*
X6811Y3254D01*
Y3274D01*
X6821Y3284D01*
X6811Y3224D02*
X6871D01*
Y3194D01*
X6861Y3184D01*
X6841D01*
X6831Y3194D01*
Y3224D01*
Y3204D02*
X6811Y3184D01*
X6871Y3164D02*
X6821D01*
X6811Y3154D01*
Y3134D01*
X6821Y3124D01*
X6871D01*
Y3104D02*
Y3064D01*
X6861D01*
X6821Y3104D01*
X6811D01*
X5887Y3524D02*
X5827D01*
X5847D01*
X5887Y3484D01*
X5857Y3514D01*
X5827Y3484D01*
Y3464D02*
X5887D01*
Y3434D01*
X5877Y3424D01*
X5857D01*
X5847Y3434D01*
Y3464D01*
Y3444D02*
X5827Y3424D01*
X5887Y3364D02*
Y3404D01*
X5857D01*
X5867Y3384D01*
Y3374D01*
X5857Y3364D01*
X5837D01*
X5827Y3374D01*
Y3394D01*
X5837Y3404D01*
X5887Y3304D02*
X5877Y3324D01*
X5857Y3344D01*
X5837D01*
X5827Y3334D01*
Y3314D01*
X5837Y3304D01*
X5847D01*
X5857Y3314D01*
Y3344D01*
X5887Y3244D02*
Y3284D01*
X5857D01*
X5867Y3264D01*
Y3254D01*
X5857Y3244D01*
X5837D01*
X5827Y3254D01*
Y3274D01*
X5837Y3284D01*
X5827Y3224D02*
X5887D01*
Y3194D01*
X5877Y3184D01*
X5857D01*
X5847Y3194D01*
Y3224D01*
Y3204D02*
X5827Y3184D01*
X5887Y3164D02*
X5837D01*
X5827Y3154D01*
Y3134D01*
X5837Y3124D01*
X5887D01*
Y3104D02*
Y3064D01*
X5877D01*
X5837Y3104D01*
X5827D01*
X4902Y3524D02*
X4842D01*
X4862D01*
X4902Y3484D01*
X4872Y3514D01*
X4842Y3484D01*
Y3464D02*
X4902D01*
Y3434D01*
X4892Y3424D01*
X4872D01*
X4862Y3434D01*
Y3464D01*
Y3444D02*
X4842Y3424D01*
X4902Y3364D02*
Y3404D01*
X4872D01*
X4882Y3384D01*
Y3374D01*
X4872Y3364D01*
X4852D01*
X4842Y3374D01*
Y3394D01*
X4852Y3404D01*
X4902Y3304D02*
X4892Y3324D01*
X4872Y3344D01*
X4852D01*
X4842Y3334D01*
Y3314D01*
X4852Y3304D01*
X4862D01*
X4872Y3314D01*
Y3344D01*
X4902Y3244D02*
Y3284D01*
X4872D01*
X4882Y3264D01*
Y3254D01*
X4872Y3244D01*
X4852D01*
X4842Y3254D01*
Y3274D01*
X4852Y3284D01*
X4842Y3224D02*
X4902D01*
Y3194D01*
X4892Y3184D01*
X4872D01*
X4862Y3194D01*
Y3224D01*
Y3204D02*
X4842Y3184D01*
X4902Y3164D02*
X4852D01*
X4842Y3154D01*
Y3134D01*
X4852Y3124D01*
X4902D01*
Y3104D02*
Y3064D01*
X4892D01*
X4852Y3104D01*
X4842D01*
X3918Y3524D02*
X3858D01*
X3878D01*
X3918Y3484D01*
X3888Y3514D01*
X3858Y3484D01*
Y3464D02*
X3918D01*
Y3434D01*
X3908Y3424D01*
X3888D01*
X3878Y3434D01*
Y3464D01*
Y3444D02*
X3858Y3424D01*
X3918Y3364D02*
Y3404D01*
X3888D01*
X3898Y3384D01*
Y3374D01*
X3888Y3364D01*
X3868D01*
X3858Y3374D01*
Y3394D01*
X3868Y3404D01*
X3918Y3304D02*
X3908Y3324D01*
X3888Y3344D01*
X3868D01*
X3858Y3334D01*
Y3314D01*
X3868Y3304D01*
X3878D01*
X3888Y3314D01*
Y3344D01*
X3918Y3244D02*
Y3284D01*
X3888D01*
X3898Y3264D01*
Y3254D01*
X3888Y3244D01*
X3868D01*
X3858Y3254D01*
Y3274D01*
X3868Y3284D01*
X3858Y3224D02*
X3918D01*
Y3194D01*
X3908Y3184D01*
X3888D01*
X3878Y3194D01*
Y3224D01*
Y3204D02*
X3858Y3184D01*
X3918Y3164D02*
X3868D01*
X3858Y3154D01*
Y3134D01*
X3868Y3124D01*
X3918D01*
Y3104D02*
Y3064D01*
X3908D01*
X3868Y3104D01*
X3858D01*
X2934Y3524D02*
X2874D01*
X2894D01*
X2934Y3484D01*
X2904Y3514D01*
X2874Y3484D01*
Y3464D02*
X2934D01*
Y3434D01*
X2924Y3424D01*
X2904D01*
X2894Y3434D01*
Y3464D01*
Y3444D02*
X2874Y3424D01*
X2934Y3364D02*
Y3404D01*
X2904D01*
X2914Y3384D01*
Y3374D01*
X2904Y3364D01*
X2884D01*
X2874Y3374D01*
Y3394D01*
X2884Y3404D01*
X2934Y3304D02*
X2924Y3324D01*
X2904Y3344D01*
X2884D01*
X2874Y3334D01*
Y3314D01*
X2884Y3304D01*
X2894D01*
X2904Y3314D01*
Y3344D01*
X2934Y3244D02*
Y3284D01*
X2904D01*
X2914Y3264D01*
Y3254D01*
X2904Y3244D01*
X2884D01*
X2874Y3254D01*
Y3274D01*
X2884Y3284D01*
X2874Y3224D02*
X2934D01*
Y3194D01*
X2924Y3184D01*
X2904D01*
X2894Y3194D01*
Y3224D01*
Y3204D02*
X2874Y3184D01*
X2934Y3164D02*
X2884D01*
X2874Y3154D01*
Y3134D01*
X2884Y3124D01*
X2934D01*
Y3104D02*
Y3064D01*
X2924D01*
X2884Y3104D01*
X2874D01*
X1950Y3524D02*
X1890D01*
X1910D01*
X1950Y3484D01*
X1920Y3514D01*
X1890Y3484D01*
Y3464D02*
X1950D01*
Y3434D01*
X1940Y3424D01*
X1920D01*
X1910Y3434D01*
Y3464D01*
Y3444D02*
X1890Y3424D01*
X1950Y3364D02*
Y3404D01*
X1920D01*
X1930Y3384D01*
Y3374D01*
X1920Y3364D01*
X1900D01*
X1890Y3374D01*
Y3394D01*
X1900Y3404D01*
X1950Y3304D02*
X1940Y3324D01*
X1920Y3344D01*
X1900D01*
X1890Y3334D01*
Y3314D01*
X1900Y3304D01*
X1910D01*
X1920Y3314D01*
Y3344D01*
X1950Y3244D02*
Y3284D01*
X1920D01*
X1930Y3264D01*
Y3254D01*
X1920Y3244D01*
X1900D01*
X1890Y3254D01*
Y3274D01*
X1900Y3284D01*
X1890Y3224D02*
X1950D01*
Y3194D01*
X1940Y3184D01*
X1920D01*
X1910Y3194D01*
Y3224D01*
Y3204D02*
X1890Y3184D01*
X1950Y3164D02*
X1900D01*
X1890Y3154D01*
Y3134D01*
X1900Y3124D01*
X1950D01*
Y3104D02*
Y3064D01*
X1940D01*
X1900Y3104D01*
X1890D01*
X965Y3524D02*
X905D01*
X925D01*
X965Y3484D01*
X935Y3514D01*
X905Y3484D01*
Y3464D02*
X965D01*
Y3434D01*
X955Y3424D01*
X935D01*
X925Y3434D01*
Y3464D01*
Y3444D02*
X905Y3424D01*
X965Y3364D02*
Y3404D01*
X935D01*
X945Y3384D01*
Y3374D01*
X935Y3364D01*
X915D01*
X905Y3374D01*
Y3394D01*
X915Y3404D01*
X965Y3304D02*
X955Y3324D01*
X935Y3344D01*
X915D01*
X905Y3334D01*
Y3314D01*
X915Y3304D01*
X925D01*
X935Y3314D01*
Y3344D01*
X965Y3244D02*
Y3284D01*
X935D01*
X945Y3264D01*
Y3254D01*
X935Y3244D01*
X915D01*
X905Y3254D01*
Y3274D01*
X915Y3284D01*
X905Y3224D02*
X965D01*
Y3194D01*
X955Y3184D01*
X935D01*
X925Y3194D01*
Y3224D01*
Y3204D02*
X905Y3184D01*
X965Y3164D02*
X915D01*
X905Y3154D01*
Y3134D01*
X915Y3124D01*
X965D01*
Y3104D02*
Y3064D01*
X955D01*
X915Y3104D01*
X905D01*
X7363Y3524D02*
X7303D01*
X7323D01*
X7363Y3484D01*
X7333Y3514D01*
X7303Y3484D01*
Y3464D02*
X7363D01*
Y3434D01*
X7353Y3424D01*
X7333D01*
X7323Y3434D01*
Y3464D01*
Y3444D02*
X7303Y3424D01*
X7363Y3364D02*
Y3404D01*
X7333D01*
X7343Y3384D01*
Y3374D01*
X7333Y3364D01*
X7313D01*
X7303Y3374D01*
Y3394D01*
X7313Y3404D01*
X7363Y3304D02*
X7353Y3324D01*
X7333Y3344D01*
X7313D01*
X7303Y3334D01*
Y3314D01*
X7313Y3304D01*
X7323D01*
X7333Y3314D01*
Y3344D01*
X7363Y3244D02*
Y3284D01*
X7333D01*
X7343Y3264D01*
Y3254D01*
X7333Y3244D01*
X7313D01*
X7303Y3254D01*
Y3274D01*
X7313Y3284D01*
X7303Y3224D02*
X7363D01*
Y3194D01*
X7353Y3184D01*
X7333D01*
X7323Y3194D01*
Y3224D01*
Y3204D02*
X7303Y3184D01*
X7363Y3164D02*
X7313D01*
X7303Y3154D01*
Y3134D01*
X7313Y3124D01*
X7363D01*
Y3104D02*
Y3064D01*
X7353D01*
X7313Y3104D01*
X7303D01*
X6379Y3524D02*
X6319D01*
X6339D01*
X6379Y3484D01*
X6349Y3514D01*
X6319Y3484D01*
Y3464D02*
X6379D01*
Y3434D01*
X6369Y3424D01*
X6349D01*
X6339Y3434D01*
Y3464D01*
Y3444D02*
X6319Y3424D01*
X6379Y3364D02*
Y3404D01*
X6349D01*
X6359Y3384D01*
Y3374D01*
X6349Y3364D01*
X6329D01*
X6319Y3374D01*
Y3394D01*
X6329Y3404D01*
X6379Y3304D02*
X6369Y3324D01*
X6349Y3344D01*
X6329D01*
X6319Y3334D01*
Y3314D01*
X6329Y3304D01*
X6339D01*
X6349Y3314D01*
Y3344D01*
X6379Y3244D02*
Y3284D01*
X6349D01*
X6359Y3264D01*
Y3254D01*
X6349Y3244D01*
X6329D01*
X6319Y3254D01*
Y3274D01*
X6329Y3284D01*
X6319Y3224D02*
X6379D01*
Y3194D01*
X6369Y3184D01*
X6349D01*
X6339Y3194D01*
Y3224D01*
Y3204D02*
X6319Y3184D01*
X6379Y3164D02*
X6329D01*
X6319Y3154D01*
Y3134D01*
X6329Y3124D01*
X6379D01*
Y3104D02*
Y3064D01*
X6369D01*
X6329Y3104D01*
X6319D01*
X5395Y3524D02*
X5335D01*
X5355D01*
X5395Y3484D01*
X5365Y3514D01*
X5335Y3484D01*
Y3464D02*
X5395D01*
Y3434D01*
X5385Y3424D01*
X5365D01*
X5355Y3434D01*
Y3464D01*
Y3444D02*
X5335Y3424D01*
X5395Y3364D02*
Y3404D01*
X5365D01*
X5375Y3384D01*
Y3374D01*
X5365Y3364D01*
X5345D01*
X5335Y3374D01*
Y3394D01*
X5345Y3404D01*
X5395Y3304D02*
X5385Y3324D01*
X5365Y3344D01*
X5345D01*
X5335Y3334D01*
Y3314D01*
X5345Y3304D01*
X5355D01*
X5365Y3314D01*
Y3344D01*
X5395Y3244D02*
Y3284D01*
X5365D01*
X5375Y3264D01*
Y3254D01*
X5365Y3244D01*
X5345D01*
X5335Y3254D01*
Y3274D01*
X5345Y3284D01*
X5335Y3224D02*
X5395D01*
Y3194D01*
X5385Y3184D01*
X5365D01*
X5355Y3194D01*
Y3224D01*
Y3204D02*
X5335Y3184D01*
X5395Y3164D02*
X5345D01*
X5335Y3154D01*
Y3134D01*
X5345Y3124D01*
X5395D01*
Y3104D02*
Y3064D01*
X5385D01*
X5345Y3104D01*
X5335D01*
X4410Y3524D02*
X4350D01*
X4370D01*
X4410Y3484D01*
X4380Y3514D01*
X4350Y3484D01*
Y3464D02*
X4410D01*
Y3434D01*
X4400Y3424D01*
X4380D01*
X4370Y3434D01*
Y3464D01*
Y3444D02*
X4350Y3424D01*
X4410Y3364D02*
Y3404D01*
X4380D01*
X4390Y3384D01*
Y3374D01*
X4380Y3364D01*
X4360D01*
X4350Y3374D01*
Y3394D01*
X4360Y3404D01*
X4410Y3304D02*
X4400Y3324D01*
X4380Y3344D01*
X4360D01*
X4350Y3334D01*
Y3314D01*
X4360Y3304D01*
X4370D01*
X4380Y3314D01*
Y3344D01*
X4410Y3244D02*
Y3284D01*
X4380D01*
X4390Y3264D01*
Y3254D01*
X4380Y3244D01*
X4360D01*
X4350Y3254D01*
Y3274D01*
X4360Y3284D01*
X4350Y3224D02*
X4410D01*
Y3194D01*
X4400Y3184D01*
X4380D01*
X4370Y3194D01*
Y3224D01*
Y3204D02*
X4350Y3184D01*
X4410Y3164D02*
X4360D01*
X4350Y3154D01*
Y3134D01*
X4360Y3124D01*
X4410D01*
Y3104D02*
Y3064D01*
X4400D01*
X4360Y3104D01*
X4350D01*
X3426Y3524D02*
X3366D01*
X3386D01*
X3426Y3484D01*
X3396Y3514D01*
X3366Y3484D01*
Y3464D02*
X3426D01*
Y3434D01*
X3416Y3424D01*
X3396D01*
X3386Y3434D01*
Y3464D01*
Y3444D02*
X3366Y3424D01*
X3426Y3364D02*
Y3404D01*
X3396D01*
X3406Y3384D01*
Y3374D01*
X3396Y3364D01*
X3376D01*
X3366Y3374D01*
Y3394D01*
X3376Y3404D01*
X3426Y3304D02*
X3416Y3324D01*
X3396Y3344D01*
X3376D01*
X3366Y3334D01*
Y3314D01*
X3376Y3304D01*
X3386D01*
X3396Y3314D01*
Y3344D01*
X3426Y3244D02*
Y3284D01*
X3396D01*
X3406Y3264D01*
Y3254D01*
X3396Y3244D01*
X3376D01*
X3366Y3254D01*
Y3274D01*
X3376Y3284D01*
X3366Y3224D02*
X3426D01*
Y3194D01*
X3416Y3184D01*
X3396D01*
X3386Y3194D01*
Y3224D01*
Y3204D02*
X3366Y3184D01*
X3426Y3164D02*
X3376D01*
X3366Y3154D01*
Y3134D01*
X3376Y3124D01*
X3426D01*
Y3104D02*
Y3064D01*
X3416D01*
X3376Y3104D01*
X3366D01*
X2442Y3524D02*
X2382D01*
X2402D01*
X2442Y3484D01*
X2412Y3514D01*
X2382Y3484D01*
Y3464D02*
X2442D01*
Y3434D01*
X2432Y3424D01*
X2412D01*
X2402Y3434D01*
Y3464D01*
Y3444D02*
X2382Y3424D01*
X2442Y3364D02*
Y3404D01*
X2412D01*
X2422Y3384D01*
Y3374D01*
X2412Y3364D01*
X2392D01*
X2382Y3374D01*
Y3394D01*
X2392Y3404D01*
X2442Y3304D02*
X2432Y3324D01*
X2412Y3344D01*
X2392D01*
X2382Y3334D01*
Y3314D01*
X2392Y3304D01*
X2402D01*
X2412Y3314D01*
Y3344D01*
X2442Y3244D02*
Y3284D01*
X2412D01*
X2422Y3264D01*
Y3254D01*
X2412Y3244D01*
X2392D01*
X2382Y3254D01*
Y3274D01*
X2392Y3284D01*
X2382Y3224D02*
X2442D01*
Y3194D01*
X2432Y3184D01*
X2412D01*
X2402Y3194D01*
Y3224D01*
Y3204D02*
X2382Y3184D01*
X2442Y3164D02*
X2392D01*
X2382Y3154D01*
Y3134D01*
X2392Y3124D01*
X2442D01*
Y3104D02*
Y3064D01*
X2432D01*
X2392Y3104D01*
X2382D01*
X1458Y3524D02*
X1398D01*
X1418D01*
X1458Y3484D01*
X1428Y3514D01*
X1398Y3484D01*
Y3464D02*
X1458D01*
Y3434D01*
X1448Y3424D01*
X1428D01*
X1418Y3434D01*
Y3464D01*
Y3444D02*
X1398Y3424D01*
X1458Y3364D02*
Y3404D01*
X1428D01*
X1438Y3384D01*
Y3374D01*
X1428Y3364D01*
X1408D01*
X1398Y3374D01*
Y3394D01*
X1408Y3404D01*
X1458Y3304D02*
X1448Y3324D01*
X1428Y3344D01*
X1408D01*
X1398Y3334D01*
Y3314D01*
X1408Y3304D01*
X1418D01*
X1428Y3314D01*
Y3344D01*
X1458Y3244D02*
Y3284D01*
X1428D01*
X1438Y3264D01*
Y3254D01*
X1428Y3244D01*
X1408D01*
X1398Y3254D01*
Y3274D01*
X1408Y3284D01*
X1398Y3224D02*
X1458D01*
Y3194D01*
X1448Y3184D01*
X1428D01*
X1418Y3194D01*
Y3224D01*
Y3204D02*
X1398Y3184D01*
X1458Y3164D02*
X1408D01*
X1398Y3154D01*
Y3134D01*
X1408Y3124D01*
X1458D01*
Y3104D02*
Y3064D01*
X1448D01*
X1408Y3104D01*
X1398D01*
X473Y3524D02*
X413D01*
X433D01*
X473Y3484D01*
X443Y3514D01*
X413Y3484D01*
Y3464D02*
X473D01*
Y3434D01*
X463Y3424D01*
X443D01*
X433Y3434D01*
Y3464D01*
Y3444D02*
X413Y3424D01*
X473Y3364D02*
Y3404D01*
X443D01*
X453Y3384D01*
Y3374D01*
X443Y3364D01*
X423D01*
X413Y3374D01*
Y3394D01*
X423Y3404D01*
X473Y3304D02*
X463Y3324D01*
X443Y3344D01*
X423D01*
X413Y3334D01*
Y3314D01*
X423Y3304D01*
X433D01*
X443Y3314D01*
Y3344D01*
X473Y3244D02*
Y3284D01*
X443D01*
X453Y3264D01*
Y3254D01*
X443Y3244D01*
X423D01*
X413Y3254D01*
Y3274D01*
X423Y3284D01*
X413Y3224D02*
X473D01*
Y3194D01*
X463Y3184D01*
X443D01*
X433Y3194D01*
Y3224D01*
Y3204D02*
X413Y3184D01*
X473Y3164D02*
X423D01*
X413Y3154D01*
Y3134D01*
X423Y3124D01*
X473D01*
Y3104D02*
Y3064D01*
X463D01*
X423Y3104D01*
X413D01*
X7855Y2441D02*
X7795D01*
X7815D01*
X7855Y2401D01*
X7825Y2431D01*
X7795Y2401D01*
Y2381D02*
X7855D01*
Y2351D01*
X7845Y2341D01*
X7825D01*
X7815Y2351D01*
Y2381D01*
Y2361D02*
X7795Y2341D01*
X7855Y2281D02*
Y2321D01*
X7825D01*
X7835Y2301D01*
Y2291D01*
X7825Y2281D01*
X7805D01*
X7795Y2291D01*
Y2311D01*
X7805Y2321D01*
X7855Y2221D02*
X7845Y2241D01*
X7825Y2261D01*
X7805D01*
X7795Y2251D01*
Y2231D01*
X7805Y2221D01*
X7815D01*
X7825Y2231D01*
Y2261D01*
X7855Y2161D02*
Y2201D01*
X7825D01*
X7835Y2181D01*
Y2171D01*
X7825Y2161D01*
X7805D01*
X7795Y2171D01*
Y2191D01*
X7805Y2201D01*
X7795Y2141D02*
X7855D01*
Y2111D01*
X7845Y2101D01*
X7825D01*
X7815Y2111D01*
Y2141D01*
Y2121D02*
X7795Y2101D01*
X7855Y2081D02*
X7805D01*
X7795Y2071D01*
Y2051D01*
X7805Y2041D01*
X7855D01*
Y2021D02*
Y1981D01*
X7845D01*
X7805Y2021D01*
X7795D01*
X6871Y2441D02*
X6811D01*
X6831D01*
X6871Y2401D01*
X6841Y2431D01*
X6811Y2401D01*
Y2381D02*
X6871D01*
Y2351D01*
X6861Y2341D01*
X6841D01*
X6831Y2351D01*
Y2381D01*
Y2361D02*
X6811Y2341D01*
X6871Y2281D02*
Y2321D01*
X6841D01*
X6851Y2301D01*
Y2291D01*
X6841Y2281D01*
X6821D01*
X6811Y2291D01*
Y2311D01*
X6821Y2321D01*
X6871Y2221D02*
X6861Y2241D01*
X6841Y2261D01*
X6821D01*
X6811Y2251D01*
Y2231D01*
X6821Y2221D01*
X6831D01*
X6841Y2231D01*
Y2261D01*
X6871Y2161D02*
Y2201D01*
X6841D01*
X6851Y2181D01*
Y2171D01*
X6841Y2161D01*
X6821D01*
X6811Y2171D01*
Y2191D01*
X6821Y2201D01*
X6811Y2141D02*
X6871D01*
Y2111D01*
X6861Y2101D01*
X6841D01*
X6831Y2111D01*
Y2141D01*
Y2121D02*
X6811Y2101D01*
X6871Y2081D02*
X6821D01*
X6811Y2071D01*
Y2051D01*
X6821Y2041D01*
X6871D01*
Y2021D02*
Y1981D01*
X6861D01*
X6821Y2021D01*
X6811D01*
X5887Y2441D02*
X5827D01*
X5847D01*
X5887Y2401D01*
X5857Y2431D01*
X5827Y2401D01*
Y2381D02*
X5887D01*
Y2351D01*
X5877Y2341D01*
X5857D01*
X5847Y2351D01*
Y2381D01*
Y2361D02*
X5827Y2341D01*
X5887Y2281D02*
Y2321D01*
X5857D01*
X5867Y2301D01*
Y2291D01*
X5857Y2281D01*
X5837D01*
X5827Y2291D01*
Y2311D01*
X5837Y2321D01*
X5887Y2221D02*
X5877Y2241D01*
X5857Y2261D01*
X5837D01*
X5827Y2251D01*
Y2231D01*
X5837Y2221D01*
X5847D01*
X5857Y2231D01*
Y2261D01*
X5887Y2161D02*
Y2201D01*
X5857D01*
X5867Y2181D01*
Y2171D01*
X5857Y2161D01*
X5837D01*
X5827Y2171D01*
Y2191D01*
X5837Y2201D01*
X5827Y2141D02*
X5887D01*
Y2111D01*
X5877Y2101D01*
X5857D01*
X5847Y2111D01*
Y2141D01*
Y2121D02*
X5827Y2101D01*
X5887Y2081D02*
X5837D01*
X5827Y2071D01*
Y2051D01*
X5837Y2041D01*
X5887D01*
Y2021D02*
Y1981D01*
X5877D01*
X5837Y2021D01*
X5827D01*
X4902Y2441D02*
X4842D01*
X4862D01*
X4902Y2401D01*
X4872Y2431D01*
X4842Y2401D01*
Y2381D02*
X4902D01*
Y2351D01*
X4892Y2341D01*
X4872D01*
X4862Y2351D01*
Y2381D01*
Y2361D02*
X4842Y2341D01*
X4902Y2281D02*
Y2321D01*
X4872D01*
X4882Y2301D01*
Y2291D01*
X4872Y2281D01*
X4852D01*
X4842Y2291D01*
Y2311D01*
X4852Y2321D01*
X4902Y2221D02*
X4892Y2241D01*
X4872Y2261D01*
X4852D01*
X4842Y2251D01*
Y2231D01*
X4852Y2221D01*
X4862D01*
X4872Y2231D01*
Y2261D01*
X4902Y2161D02*
Y2201D01*
X4872D01*
X4882Y2181D01*
Y2171D01*
X4872Y2161D01*
X4852D01*
X4842Y2171D01*
Y2191D01*
X4852Y2201D01*
X4842Y2141D02*
X4902D01*
Y2111D01*
X4892Y2101D01*
X4872D01*
X4862Y2111D01*
Y2141D01*
Y2121D02*
X4842Y2101D01*
X4902Y2081D02*
X4852D01*
X4842Y2071D01*
Y2051D01*
X4852Y2041D01*
X4902D01*
Y2021D02*
Y1981D01*
X4892D01*
X4852Y2021D01*
X4842D01*
X3918Y2441D02*
X3858D01*
X3878D01*
X3918Y2401D01*
X3888Y2431D01*
X3858Y2401D01*
Y2381D02*
X3918D01*
Y2351D01*
X3908Y2341D01*
X3888D01*
X3878Y2351D01*
Y2381D01*
Y2361D02*
X3858Y2341D01*
X3918Y2281D02*
Y2321D01*
X3888D01*
X3898Y2301D01*
Y2291D01*
X3888Y2281D01*
X3868D01*
X3858Y2291D01*
Y2311D01*
X3868Y2321D01*
X3918Y2221D02*
X3908Y2241D01*
X3888Y2261D01*
X3868D01*
X3858Y2251D01*
Y2231D01*
X3868Y2221D01*
X3878D01*
X3888Y2231D01*
Y2261D01*
X3918Y2161D02*
Y2201D01*
X3888D01*
X3898Y2181D01*
Y2171D01*
X3888Y2161D01*
X3868D01*
X3858Y2171D01*
Y2191D01*
X3868Y2201D01*
X3858Y2141D02*
X3918D01*
Y2111D01*
X3908Y2101D01*
X3888D01*
X3878Y2111D01*
Y2141D01*
Y2121D02*
X3858Y2101D01*
X3918Y2081D02*
X3868D01*
X3858Y2071D01*
Y2051D01*
X3868Y2041D01*
X3918D01*
Y2021D02*
Y1981D01*
X3908D01*
X3868Y2021D01*
X3858D01*
X2934Y2441D02*
X2874D01*
X2894D01*
X2934Y2401D01*
X2904Y2431D01*
X2874Y2401D01*
Y2381D02*
X2934D01*
Y2351D01*
X2924Y2341D01*
X2904D01*
X2894Y2351D01*
Y2381D01*
Y2361D02*
X2874Y2341D01*
X2934Y2281D02*
Y2321D01*
X2904D01*
X2914Y2301D01*
Y2291D01*
X2904Y2281D01*
X2884D01*
X2874Y2291D01*
Y2311D01*
X2884Y2321D01*
X2934Y2221D02*
X2924Y2241D01*
X2904Y2261D01*
X2884D01*
X2874Y2251D01*
Y2231D01*
X2884Y2221D01*
X2894D01*
X2904Y2231D01*
Y2261D01*
X2934Y2161D02*
Y2201D01*
X2904D01*
X2914Y2181D01*
Y2171D01*
X2904Y2161D01*
X2884D01*
X2874Y2171D01*
Y2191D01*
X2884Y2201D01*
X2874Y2141D02*
X2934D01*
Y2111D01*
X2924Y2101D01*
X2904D01*
X2894Y2111D01*
Y2141D01*
Y2121D02*
X2874Y2101D01*
X2934Y2081D02*
X2884D01*
X2874Y2071D01*
Y2051D01*
X2884Y2041D01*
X2934D01*
Y2021D02*
Y1981D01*
X2924D01*
X2884Y2021D01*
X2874D01*
X1950Y2441D02*
X1890D01*
X1910D01*
X1950Y2401D01*
X1920Y2431D01*
X1890Y2401D01*
Y2381D02*
X1950D01*
Y2351D01*
X1940Y2341D01*
X1920D01*
X1910Y2351D01*
Y2381D01*
Y2361D02*
X1890Y2341D01*
X1950Y2281D02*
Y2321D01*
X1920D01*
X1930Y2301D01*
Y2291D01*
X1920Y2281D01*
X1900D01*
X1890Y2291D01*
Y2311D01*
X1900Y2321D01*
X1950Y2221D02*
X1940Y2241D01*
X1920Y2261D01*
X1900D01*
X1890Y2251D01*
Y2231D01*
X1900Y2221D01*
X1910D01*
X1920Y2231D01*
Y2261D01*
X1950Y2161D02*
Y2201D01*
X1920D01*
X1930Y2181D01*
Y2171D01*
X1920Y2161D01*
X1900D01*
X1890Y2171D01*
Y2191D01*
X1900Y2201D01*
X1890Y2141D02*
X1950D01*
Y2111D01*
X1940Y2101D01*
X1920D01*
X1910Y2111D01*
Y2141D01*
Y2121D02*
X1890Y2101D01*
X1950Y2081D02*
X1900D01*
X1890Y2071D01*
Y2051D01*
X1900Y2041D01*
X1950D01*
Y2021D02*
Y1981D01*
X1940D01*
X1900Y2021D01*
X1890D01*
X965Y2441D02*
X905D01*
X925D01*
X965Y2401D01*
X935Y2431D01*
X905Y2401D01*
Y2381D02*
X965D01*
Y2351D01*
X955Y2341D01*
X935D01*
X925Y2351D01*
Y2381D01*
Y2361D02*
X905Y2341D01*
X965Y2281D02*
Y2321D01*
X935D01*
X945Y2301D01*
Y2291D01*
X935Y2281D01*
X915D01*
X905Y2291D01*
Y2311D01*
X915Y2321D01*
X965Y2221D02*
X955Y2241D01*
X935Y2261D01*
X915D01*
X905Y2251D01*
Y2231D01*
X915Y2221D01*
X925D01*
X935Y2231D01*
Y2261D01*
X965Y2161D02*
Y2201D01*
X935D01*
X945Y2181D01*
Y2171D01*
X935Y2161D01*
X915D01*
X905Y2171D01*
Y2191D01*
X915Y2201D01*
X905Y2141D02*
X965D01*
Y2111D01*
X955Y2101D01*
X935D01*
X925Y2111D01*
Y2141D01*
Y2121D02*
X905Y2101D01*
X965Y2081D02*
X915D01*
X905Y2071D01*
Y2051D01*
X915Y2041D01*
X965D01*
Y2021D02*
Y1981D01*
X955D01*
X915Y2021D01*
X905D01*
X7363Y2441D02*
X7303D01*
X7323D01*
X7363Y2401D01*
X7333Y2431D01*
X7303Y2401D01*
Y2381D02*
X7363D01*
Y2351D01*
X7353Y2341D01*
X7333D01*
X7323Y2351D01*
Y2381D01*
Y2361D02*
X7303Y2341D01*
X7363Y2281D02*
Y2321D01*
X7333D01*
X7343Y2301D01*
Y2291D01*
X7333Y2281D01*
X7313D01*
X7303Y2291D01*
Y2311D01*
X7313Y2321D01*
X7363Y2221D02*
X7353Y2241D01*
X7333Y2261D01*
X7313D01*
X7303Y2251D01*
Y2231D01*
X7313Y2221D01*
X7323D01*
X7333Y2231D01*
Y2261D01*
X7363Y2161D02*
Y2201D01*
X7333D01*
X7343Y2181D01*
Y2171D01*
X7333Y2161D01*
X7313D01*
X7303Y2171D01*
Y2191D01*
X7313Y2201D01*
X7303Y2141D02*
X7363D01*
Y2111D01*
X7353Y2101D01*
X7333D01*
X7323Y2111D01*
Y2141D01*
Y2121D02*
X7303Y2101D01*
X7363Y2081D02*
X7313D01*
X7303Y2071D01*
Y2051D01*
X7313Y2041D01*
X7363D01*
Y2021D02*
Y1981D01*
X7353D01*
X7313Y2021D01*
X7303D01*
X6379Y2441D02*
X6319D01*
X6339D01*
X6379Y2401D01*
X6349Y2431D01*
X6319Y2401D01*
Y2381D02*
X6379D01*
Y2351D01*
X6369Y2341D01*
X6349D01*
X6339Y2351D01*
Y2381D01*
Y2361D02*
X6319Y2341D01*
X6379Y2281D02*
Y2321D01*
X6349D01*
X6359Y2301D01*
Y2291D01*
X6349Y2281D01*
X6329D01*
X6319Y2291D01*
Y2311D01*
X6329Y2321D01*
X6379Y2221D02*
X6369Y2241D01*
X6349Y2261D01*
X6329D01*
X6319Y2251D01*
Y2231D01*
X6329Y2221D01*
X6339D01*
X6349Y2231D01*
Y2261D01*
X6379Y2161D02*
Y2201D01*
X6349D01*
X6359Y2181D01*
Y2171D01*
X6349Y2161D01*
X6329D01*
X6319Y2171D01*
Y2191D01*
X6329Y2201D01*
X6319Y2141D02*
X6379D01*
Y2111D01*
X6369Y2101D01*
X6349D01*
X6339Y2111D01*
Y2141D01*
Y2121D02*
X6319Y2101D01*
X6379Y2081D02*
X6329D01*
X6319Y2071D01*
Y2051D01*
X6329Y2041D01*
X6379D01*
Y2021D02*
Y1981D01*
X6369D01*
X6329Y2021D01*
X6319D01*
X5395Y2441D02*
X5335D01*
X5355D01*
X5395Y2401D01*
X5365Y2431D01*
X5335Y2401D01*
Y2381D02*
X5395D01*
Y2351D01*
X5385Y2341D01*
X5365D01*
X5355Y2351D01*
Y2381D01*
Y2361D02*
X5335Y2341D01*
X5395Y2281D02*
Y2321D01*
X5365D01*
X5375Y2301D01*
Y2291D01*
X5365Y2281D01*
X5345D01*
X5335Y2291D01*
Y2311D01*
X5345Y2321D01*
X5395Y2221D02*
X5385Y2241D01*
X5365Y2261D01*
X5345D01*
X5335Y2251D01*
Y2231D01*
X5345Y2221D01*
X5355D01*
X5365Y2231D01*
Y2261D01*
X5395Y2161D02*
Y2201D01*
X5365D01*
X5375Y2181D01*
Y2171D01*
X5365Y2161D01*
X5345D01*
X5335Y2171D01*
Y2191D01*
X5345Y2201D01*
X5335Y2141D02*
X5395D01*
Y2111D01*
X5385Y2101D01*
X5365D01*
X5355Y2111D01*
Y2141D01*
Y2121D02*
X5335Y2101D01*
X5395Y2081D02*
X5345D01*
X5335Y2071D01*
Y2051D01*
X5345Y2041D01*
X5395D01*
Y2021D02*
Y1981D01*
X5385D01*
X5345Y2021D01*
X5335D01*
X4410Y2441D02*
X4350D01*
X4370D01*
X4410Y2401D01*
X4380Y2431D01*
X4350Y2401D01*
Y2381D02*
X4410D01*
Y2351D01*
X4400Y2341D01*
X4380D01*
X4370Y2351D01*
Y2381D01*
Y2361D02*
X4350Y2341D01*
X4410Y2281D02*
Y2321D01*
X4380D01*
X4390Y2301D01*
Y2291D01*
X4380Y2281D01*
X4360D01*
X4350Y2291D01*
Y2311D01*
X4360Y2321D01*
X4410Y2221D02*
X4400Y2241D01*
X4380Y2261D01*
X4360D01*
X4350Y2251D01*
Y2231D01*
X4360Y2221D01*
X4370D01*
X4380Y2231D01*
Y2261D01*
X4410Y2161D02*
Y2201D01*
X4380D01*
X4390Y2181D01*
Y2171D01*
X4380Y2161D01*
X4360D01*
X4350Y2171D01*
Y2191D01*
X4360Y2201D01*
X4350Y2141D02*
X4410D01*
Y2111D01*
X4400Y2101D01*
X4380D01*
X4370Y2111D01*
Y2141D01*
Y2121D02*
X4350Y2101D01*
X4410Y2081D02*
X4360D01*
X4350Y2071D01*
Y2051D01*
X4360Y2041D01*
X4410D01*
Y2021D02*
Y1981D01*
X4400D01*
X4360Y2021D01*
X4350D01*
X3426Y2441D02*
X3366D01*
X3386D01*
X3426Y2401D01*
X3396Y2431D01*
X3366Y2401D01*
Y2381D02*
X3426D01*
Y2351D01*
X3416Y2341D01*
X3396D01*
X3386Y2351D01*
Y2381D01*
Y2361D02*
X3366Y2341D01*
X3426Y2281D02*
Y2321D01*
X3396D01*
X3406Y2301D01*
Y2291D01*
X3396Y2281D01*
X3376D01*
X3366Y2291D01*
Y2311D01*
X3376Y2321D01*
X3426Y2221D02*
X3416Y2241D01*
X3396Y2261D01*
X3376D01*
X3366Y2251D01*
Y2231D01*
X3376Y2221D01*
X3386D01*
X3396Y2231D01*
Y2261D01*
X3426Y2161D02*
Y2201D01*
X3396D01*
X3406Y2181D01*
Y2171D01*
X3396Y2161D01*
X3376D01*
X3366Y2171D01*
Y2191D01*
X3376Y2201D01*
X3366Y2141D02*
X3426D01*
Y2111D01*
X3416Y2101D01*
X3396D01*
X3386Y2111D01*
Y2141D01*
Y2121D02*
X3366Y2101D01*
X3426Y2081D02*
X3376D01*
X3366Y2071D01*
Y2051D01*
X3376Y2041D01*
X3426D01*
Y2021D02*
Y1981D01*
X3416D01*
X3376Y2021D01*
X3366D01*
X2442Y2441D02*
X2382D01*
X2402D01*
X2442Y2401D01*
X2412Y2431D01*
X2382Y2401D01*
Y2381D02*
X2442D01*
Y2351D01*
X2432Y2341D01*
X2412D01*
X2402Y2351D01*
Y2381D01*
Y2361D02*
X2382Y2341D01*
X2442Y2281D02*
Y2321D01*
X2412D01*
X2422Y2301D01*
Y2291D01*
X2412Y2281D01*
X2392D01*
X2382Y2291D01*
Y2311D01*
X2392Y2321D01*
X2442Y2221D02*
X2432Y2241D01*
X2412Y2261D01*
X2392D01*
X2382Y2251D01*
Y2231D01*
X2392Y2221D01*
X2402D01*
X2412Y2231D01*
Y2261D01*
X2442Y2161D02*
Y2201D01*
X2412D01*
X2422Y2181D01*
Y2171D01*
X2412Y2161D01*
X2392D01*
X2382Y2171D01*
Y2191D01*
X2392Y2201D01*
X2382Y2141D02*
X2442D01*
Y2111D01*
X2432Y2101D01*
X2412D01*
X2402Y2111D01*
Y2141D01*
Y2121D02*
X2382Y2101D01*
X2442Y2081D02*
X2392D01*
X2382Y2071D01*
Y2051D01*
X2392Y2041D01*
X2442D01*
Y2021D02*
Y1981D01*
X2432D01*
X2392Y2021D01*
X2382D01*
X1458Y2441D02*
X1398D01*
X1418D01*
X1458Y2401D01*
X1428Y2431D01*
X1398Y2401D01*
Y2381D02*
X1458D01*
Y2351D01*
X1448Y2341D01*
X1428D01*
X1418Y2351D01*
Y2381D01*
Y2361D02*
X1398Y2341D01*
X1458Y2281D02*
Y2321D01*
X1428D01*
X1438Y2301D01*
Y2291D01*
X1428Y2281D01*
X1408D01*
X1398Y2291D01*
Y2311D01*
X1408Y2321D01*
X1458Y2221D02*
X1448Y2241D01*
X1428Y2261D01*
X1408D01*
X1398Y2251D01*
Y2231D01*
X1408Y2221D01*
X1418D01*
X1428Y2231D01*
Y2261D01*
X1458Y2161D02*
Y2201D01*
X1428D01*
X1438Y2181D01*
Y2171D01*
X1428Y2161D01*
X1408D01*
X1398Y2171D01*
Y2191D01*
X1408Y2201D01*
X1398Y2141D02*
X1458D01*
Y2111D01*
X1448Y2101D01*
X1428D01*
X1418Y2111D01*
Y2141D01*
Y2121D02*
X1398Y2101D01*
X1458Y2081D02*
X1408D01*
X1398Y2071D01*
Y2051D01*
X1408Y2041D01*
X1458D01*
Y2021D02*
Y1981D01*
X1448D01*
X1408Y2021D01*
X1398D01*
X473Y2441D02*
X413D01*
X433D01*
X473Y2401D01*
X443Y2431D01*
X413Y2401D01*
Y2381D02*
X473D01*
Y2351D01*
X463Y2341D01*
X443D01*
X433Y2351D01*
Y2381D01*
Y2361D02*
X413Y2341D01*
X473Y2281D02*
Y2321D01*
X443D01*
X453Y2301D01*
Y2291D01*
X443Y2281D01*
X423D01*
X413Y2291D01*
Y2311D01*
X423Y2321D01*
X473Y2221D02*
X463Y2241D01*
X443Y2261D01*
X423D01*
X413Y2251D01*
Y2231D01*
X423Y2221D01*
X433D01*
X443Y2231D01*
Y2261D01*
X473Y2161D02*
Y2201D01*
X443D01*
X453Y2181D01*
Y2171D01*
X443Y2161D01*
X423D01*
X413Y2171D01*
Y2191D01*
X423Y2201D01*
X413Y2141D02*
X473D01*
Y2111D01*
X463Y2101D01*
X443D01*
X433Y2111D01*
Y2141D01*
Y2121D02*
X413Y2101D01*
X473Y2081D02*
X423D01*
X413Y2071D01*
Y2051D01*
X423Y2041D01*
X473D01*
Y2021D02*
Y1981D01*
X463D01*
X423Y2021D01*
X413D01*
X7855Y1358D02*
X7795D01*
X7815D01*
X7855Y1318D01*
X7825Y1348D01*
X7795Y1318D01*
Y1298D02*
X7855D01*
Y1268D01*
X7845Y1258D01*
X7825D01*
X7815Y1268D01*
Y1298D01*
Y1278D02*
X7795Y1258D01*
X7855Y1198D02*
Y1238D01*
X7825D01*
X7835Y1218D01*
Y1208D01*
X7825Y1198D01*
X7805D01*
X7795Y1208D01*
Y1228D01*
X7805Y1238D01*
X7855Y1138D02*
X7845Y1158D01*
X7825Y1178D01*
X7805D01*
X7795Y1168D01*
Y1148D01*
X7805Y1138D01*
X7815D01*
X7825Y1148D01*
Y1178D01*
X7855Y1078D02*
Y1118D01*
X7825D01*
X7835Y1098D01*
Y1088D01*
X7825Y1078D01*
X7805D01*
X7795Y1088D01*
Y1108D01*
X7805Y1118D01*
X7795Y1058D02*
X7855D01*
Y1028D01*
X7845Y1018D01*
X7825D01*
X7815Y1028D01*
Y1058D01*
Y1038D02*
X7795Y1018D01*
X7855Y998D02*
X7805D01*
X7795Y988D01*
Y968D01*
X7805Y958D01*
X7855D01*
Y938D02*
Y898D01*
X7845D01*
X7805Y938D01*
X7795D01*
X6871Y1358D02*
X6811D01*
X6831D01*
X6871Y1318D01*
X6841Y1348D01*
X6811Y1318D01*
Y1298D02*
X6871D01*
Y1268D01*
X6861Y1258D01*
X6841D01*
X6831Y1268D01*
Y1298D01*
Y1278D02*
X6811Y1258D01*
X6871Y1198D02*
Y1238D01*
X6841D01*
X6851Y1218D01*
Y1208D01*
X6841Y1198D01*
X6821D01*
X6811Y1208D01*
Y1228D01*
X6821Y1238D01*
X6871Y1138D02*
X6861Y1158D01*
X6841Y1178D01*
X6821D01*
X6811Y1168D01*
Y1148D01*
X6821Y1138D01*
X6831D01*
X6841Y1148D01*
Y1178D01*
X6871Y1078D02*
Y1118D01*
X6841D01*
X6851Y1098D01*
Y1088D01*
X6841Y1078D01*
X6821D01*
X6811Y1088D01*
Y1108D01*
X6821Y1118D01*
X6811Y1058D02*
X6871D01*
Y1028D01*
X6861Y1018D01*
X6841D01*
X6831Y1028D01*
Y1058D01*
Y1038D02*
X6811Y1018D01*
X6871Y998D02*
X6821D01*
X6811Y988D01*
Y968D01*
X6821Y958D01*
X6871D01*
Y938D02*
Y898D01*
X6861D01*
X6821Y938D01*
X6811D01*
X5887Y1358D02*
X5827D01*
X5847D01*
X5887Y1318D01*
X5857Y1348D01*
X5827Y1318D01*
Y1298D02*
X5887D01*
Y1268D01*
X5877Y1258D01*
X5857D01*
X5847Y1268D01*
Y1298D01*
Y1278D02*
X5827Y1258D01*
X5887Y1198D02*
Y1238D01*
X5857D01*
X5867Y1218D01*
Y1208D01*
X5857Y1198D01*
X5837D01*
X5827Y1208D01*
Y1228D01*
X5837Y1238D01*
X5887Y1138D02*
X5877Y1158D01*
X5857Y1178D01*
X5837D01*
X5827Y1168D01*
Y1148D01*
X5837Y1138D01*
X5847D01*
X5857Y1148D01*
Y1178D01*
X5887Y1078D02*
Y1118D01*
X5857D01*
X5867Y1098D01*
Y1088D01*
X5857Y1078D01*
X5837D01*
X5827Y1088D01*
Y1108D01*
X5837Y1118D01*
X5827Y1058D02*
X5887D01*
Y1028D01*
X5877Y1018D01*
X5857D01*
X5847Y1028D01*
Y1058D01*
Y1038D02*
X5827Y1018D01*
X5887Y998D02*
X5837D01*
X5827Y988D01*
Y968D01*
X5837Y958D01*
X5887D01*
Y938D02*
Y898D01*
X5877D01*
X5837Y938D01*
X5827D01*
X4902Y1358D02*
X4842D01*
X4862D01*
X4902Y1318D01*
X4872Y1348D01*
X4842Y1318D01*
Y1298D02*
X4902D01*
Y1268D01*
X4892Y1258D01*
X4872D01*
X4862Y1268D01*
Y1298D01*
Y1278D02*
X4842Y1258D01*
X4902Y1198D02*
Y1238D01*
X4872D01*
X4882Y1218D01*
Y1208D01*
X4872Y1198D01*
X4852D01*
X4842Y1208D01*
Y1228D01*
X4852Y1238D01*
X4902Y1138D02*
X4892Y1158D01*
X4872Y1178D01*
X4852D01*
X4842Y1168D01*
Y1148D01*
X4852Y1138D01*
X4862D01*
X4872Y1148D01*
Y1178D01*
X4902Y1078D02*
Y1118D01*
X4872D01*
X4882Y1098D01*
Y1088D01*
X4872Y1078D01*
X4852D01*
X4842Y1088D01*
Y1108D01*
X4852Y1118D01*
X4842Y1058D02*
X4902D01*
Y1028D01*
X4892Y1018D01*
X4872D01*
X4862Y1028D01*
Y1058D01*
Y1038D02*
X4842Y1018D01*
X4902Y998D02*
X4852D01*
X4842Y988D01*
Y968D01*
X4852Y958D01*
X4902D01*
Y938D02*
Y898D01*
X4892D01*
X4852Y938D01*
X4842D01*
X3918Y1358D02*
X3858D01*
X3878D01*
X3918Y1318D01*
X3888Y1348D01*
X3858Y1318D01*
Y1298D02*
X3918D01*
Y1268D01*
X3908Y1258D01*
X3888D01*
X3878Y1268D01*
Y1298D01*
Y1278D02*
X3858Y1258D01*
X3918Y1198D02*
Y1238D01*
X3888D01*
X3898Y1218D01*
Y1208D01*
X3888Y1198D01*
X3868D01*
X3858Y1208D01*
Y1228D01*
X3868Y1238D01*
X3918Y1138D02*
X3908Y1158D01*
X3888Y1178D01*
X3868D01*
X3858Y1168D01*
Y1148D01*
X3868Y1138D01*
X3878D01*
X3888Y1148D01*
Y1178D01*
X3918Y1078D02*
Y1118D01*
X3888D01*
X3898Y1098D01*
Y1088D01*
X3888Y1078D01*
X3868D01*
X3858Y1088D01*
Y1108D01*
X3868Y1118D01*
X3858Y1058D02*
X3918D01*
Y1028D01*
X3908Y1018D01*
X3888D01*
X3878Y1028D01*
Y1058D01*
Y1038D02*
X3858Y1018D01*
X3918Y998D02*
X3868D01*
X3858Y988D01*
Y968D01*
X3868Y958D01*
X3918D01*
Y938D02*
Y898D01*
X3908D01*
X3868Y938D01*
X3858D01*
X2934Y1358D02*
X2874D01*
X2894D01*
X2934Y1318D01*
X2904Y1348D01*
X2874Y1318D01*
Y1298D02*
X2934D01*
Y1268D01*
X2924Y1258D01*
X2904D01*
X2894Y1268D01*
Y1298D01*
Y1278D02*
X2874Y1258D01*
X2934Y1198D02*
Y1238D01*
X2904D01*
X2914Y1218D01*
Y1208D01*
X2904Y1198D01*
X2884D01*
X2874Y1208D01*
Y1228D01*
X2884Y1238D01*
X2934Y1138D02*
X2924Y1158D01*
X2904Y1178D01*
X2884D01*
X2874Y1168D01*
Y1148D01*
X2884Y1138D01*
X2894D01*
X2904Y1148D01*
Y1178D01*
X2934Y1078D02*
Y1118D01*
X2904D01*
X2914Y1098D01*
Y1088D01*
X2904Y1078D01*
X2884D01*
X2874Y1088D01*
Y1108D01*
X2884Y1118D01*
X2874Y1058D02*
X2934D01*
Y1028D01*
X2924Y1018D01*
X2904D01*
X2894Y1028D01*
Y1058D01*
Y1038D02*
X2874Y1018D01*
X2934Y998D02*
X2884D01*
X2874Y988D01*
Y968D01*
X2884Y958D01*
X2934D01*
Y938D02*
Y898D01*
X2924D01*
X2884Y938D01*
X2874D01*
X1950Y1358D02*
X1890D01*
X1910D01*
X1950Y1318D01*
X1920Y1348D01*
X1890Y1318D01*
Y1298D02*
X1950D01*
Y1268D01*
X1940Y1258D01*
X1920D01*
X1910Y1268D01*
Y1298D01*
Y1278D02*
X1890Y1258D01*
X1950Y1198D02*
Y1238D01*
X1920D01*
X1930Y1218D01*
Y1208D01*
X1920Y1198D01*
X1900D01*
X1890Y1208D01*
Y1228D01*
X1900Y1238D01*
X1950Y1138D02*
X1940Y1158D01*
X1920Y1178D01*
X1900D01*
X1890Y1168D01*
Y1148D01*
X1900Y1138D01*
X1910D01*
X1920Y1148D01*
Y1178D01*
X1950Y1078D02*
Y1118D01*
X1920D01*
X1930Y1098D01*
Y1088D01*
X1920Y1078D01*
X1900D01*
X1890Y1088D01*
Y1108D01*
X1900Y1118D01*
X1890Y1058D02*
X1950D01*
Y1028D01*
X1940Y1018D01*
X1920D01*
X1910Y1028D01*
Y1058D01*
Y1038D02*
X1890Y1018D01*
X1950Y998D02*
X1900D01*
X1890Y988D01*
Y968D01*
X1900Y958D01*
X1950D01*
Y938D02*
Y898D01*
X1940D01*
X1900Y938D01*
X1890D01*
X965Y1358D02*
X905D01*
X925D01*
X965Y1318D01*
X935Y1348D01*
X905Y1318D01*
Y1298D02*
X965D01*
Y1268D01*
X955Y1258D01*
X935D01*
X925Y1268D01*
Y1298D01*
Y1278D02*
X905Y1258D01*
X965Y1198D02*
Y1238D01*
X935D01*
X945Y1218D01*
Y1208D01*
X935Y1198D01*
X915D01*
X905Y1208D01*
Y1228D01*
X915Y1238D01*
X965Y1138D02*
X955Y1158D01*
X935Y1178D01*
X915D01*
X905Y1168D01*
Y1148D01*
X915Y1138D01*
X925D01*
X935Y1148D01*
Y1178D01*
X965Y1078D02*
Y1118D01*
X935D01*
X945Y1098D01*
Y1088D01*
X935Y1078D01*
X915D01*
X905Y1088D01*
Y1108D01*
X915Y1118D01*
X905Y1058D02*
X965D01*
Y1028D01*
X955Y1018D01*
X935D01*
X925Y1028D01*
Y1058D01*
Y1038D02*
X905Y1018D01*
X965Y998D02*
X915D01*
X905Y988D01*
Y968D01*
X915Y958D01*
X965D01*
Y938D02*
Y898D01*
X955D01*
X915Y938D01*
X905D01*
X7363Y1358D02*
X7303D01*
X7323D01*
X7363Y1318D01*
X7333Y1348D01*
X7303Y1318D01*
Y1298D02*
X7363D01*
Y1268D01*
X7353Y1258D01*
X7333D01*
X7323Y1268D01*
Y1298D01*
Y1278D02*
X7303Y1258D01*
X7363Y1198D02*
Y1238D01*
X7333D01*
X7343Y1218D01*
Y1208D01*
X7333Y1198D01*
X7313D01*
X7303Y1208D01*
Y1228D01*
X7313Y1238D01*
X7363Y1138D02*
X7353Y1158D01*
X7333Y1178D01*
X7313D01*
X7303Y1168D01*
Y1148D01*
X7313Y1138D01*
X7323D01*
X7333Y1148D01*
Y1178D01*
X7363Y1078D02*
Y1118D01*
X7333D01*
X7343Y1098D01*
Y1088D01*
X7333Y1078D01*
X7313D01*
X7303Y1088D01*
Y1108D01*
X7313Y1118D01*
X7303Y1058D02*
X7363D01*
Y1028D01*
X7353Y1018D01*
X7333D01*
X7323Y1028D01*
Y1058D01*
Y1038D02*
X7303Y1018D01*
X7363Y998D02*
X7313D01*
X7303Y988D01*
Y968D01*
X7313Y958D01*
X7363D01*
Y938D02*
Y898D01*
X7353D01*
X7313Y938D01*
X7303D01*
X6379Y1358D02*
X6319D01*
X6339D01*
X6379Y1318D01*
X6349Y1348D01*
X6319Y1318D01*
Y1298D02*
X6379D01*
Y1268D01*
X6369Y1258D01*
X6349D01*
X6339Y1268D01*
Y1298D01*
Y1278D02*
X6319Y1258D01*
X6379Y1198D02*
Y1238D01*
X6349D01*
X6359Y1218D01*
Y1208D01*
X6349Y1198D01*
X6329D01*
X6319Y1208D01*
Y1228D01*
X6329Y1238D01*
X6379Y1138D02*
X6369Y1158D01*
X6349Y1178D01*
X6329D01*
X6319Y1168D01*
Y1148D01*
X6329Y1138D01*
X6339D01*
X6349Y1148D01*
Y1178D01*
X6379Y1078D02*
Y1118D01*
X6349D01*
X6359Y1098D01*
Y1088D01*
X6349Y1078D01*
X6329D01*
X6319Y1088D01*
Y1108D01*
X6329Y1118D01*
X6319Y1058D02*
X6379D01*
Y1028D01*
X6369Y1018D01*
X6349D01*
X6339Y1028D01*
Y1058D01*
Y1038D02*
X6319Y1018D01*
X6379Y998D02*
X6329D01*
X6319Y988D01*
Y968D01*
X6329Y958D01*
X6379D01*
Y938D02*
Y898D01*
X6369D01*
X6329Y938D01*
X6319D01*
X5395Y1358D02*
X5335D01*
X5355D01*
X5395Y1318D01*
X5365Y1348D01*
X5335Y1318D01*
Y1298D02*
X5395D01*
Y1268D01*
X5385Y1258D01*
X5365D01*
X5355Y1268D01*
Y1298D01*
Y1278D02*
X5335Y1258D01*
X5395Y1198D02*
Y1238D01*
X5365D01*
X5375Y1218D01*
Y1208D01*
X5365Y1198D01*
X5345D01*
X5335Y1208D01*
Y1228D01*
X5345Y1238D01*
X5395Y1138D02*
X5385Y1158D01*
X5365Y1178D01*
X5345D01*
X5335Y1168D01*
Y1148D01*
X5345Y1138D01*
X5355D01*
X5365Y1148D01*
Y1178D01*
X5395Y1078D02*
Y1118D01*
X5365D01*
X5375Y1098D01*
Y1088D01*
X5365Y1078D01*
X5345D01*
X5335Y1088D01*
Y1108D01*
X5345Y1118D01*
X5335Y1058D02*
X5395D01*
Y1028D01*
X5385Y1018D01*
X5365D01*
X5355Y1028D01*
Y1058D01*
Y1038D02*
X5335Y1018D01*
X5395Y998D02*
X5345D01*
X5335Y988D01*
Y968D01*
X5345Y958D01*
X5395D01*
Y938D02*
Y898D01*
X5385D01*
X5345Y938D01*
X5335D01*
X4410Y1358D02*
X4350D01*
X4370D01*
X4410Y1318D01*
X4380Y1348D01*
X4350Y1318D01*
Y1298D02*
X4410D01*
Y1268D01*
X4400Y1258D01*
X4380D01*
X4370Y1268D01*
Y1298D01*
Y1278D02*
X4350Y1258D01*
X4410Y1198D02*
Y1238D01*
X4380D01*
X4390Y1218D01*
Y1208D01*
X4380Y1198D01*
X4360D01*
X4350Y1208D01*
Y1228D01*
X4360Y1238D01*
X4410Y1138D02*
X4400Y1158D01*
X4380Y1178D01*
X4360D01*
X4350Y1168D01*
Y1148D01*
X4360Y1138D01*
X4370D01*
X4380Y1148D01*
Y1178D01*
X4410Y1078D02*
Y1118D01*
X4380D01*
X4390Y1098D01*
Y1088D01*
X4380Y1078D01*
X4360D01*
X4350Y1088D01*
Y1108D01*
X4360Y1118D01*
X4350Y1058D02*
X4410D01*
Y1028D01*
X4400Y1018D01*
X4380D01*
X4370Y1028D01*
Y1058D01*
Y1038D02*
X4350Y1018D01*
X4410Y998D02*
X4360D01*
X4350Y988D01*
Y968D01*
X4360Y958D01*
X4410D01*
Y938D02*
Y898D01*
X4400D01*
X4360Y938D01*
X4350D01*
X3426Y1358D02*
X3366D01*
X3386D01*
X3426Y1318D01*
X3396Y1348D01*
X3366Y1318D01*
Y1298D02*
X3426D01*
Y1268D01*
X3416Y1258D01*
X3396D01*
X3386Y1268D01*
Y1298D01*
Y1278D02*
X3366Y1258D01*
X3426Y1198D02*
Y1238D01*
X3396D01*
X3406Y1218D01*
Y1208D01*
X3396Y1198D01*
X3376D01*
X3366Y1208D01*
Y1228D01*
X3376Y1238D01*
X3426Y1138D02*
X3416Y1158D01*
X3396Y1178D01*
X3376D01*
X3366Y1168D01*
Y1148D01*
X3376Y1138D01*
X3386D01*
X3396Y1148D01*
Y1178D01*
X3426Y1078D02*
Y1118D01*
X3396D01*
X3406Y1098D01*
Y1088D01*
X3396Y1078D01*
X3376D01*
X3366Y1088D01*
Y1108D01*
X3376Y1118D01*
X3366Y1058D02*
X3426D01*
Y1028D01*
X3416Y1018D01*
X3396D01*
X3386Y1028D01*
Y1058D01*
Y1038D02*
X3366Y1018D01*
X3426Y998D02*
X3376D01*
X3366Y988D01*
Y968D01*
X3376Y958D01*
X3426D01*
Y938D02*
Y898D01*
X3416D01*
X3376Y938D01*
X3366D01*
X2442Y1358D02*
X2382D01*
X2402D01*
X2442Y1318D01*
X2412Y1348D01*
X2382Y1318D01*
Y1298D02*
X2442D01*
Y1268D01*
X2432Y1258D01*
X2412D01*
X2402Y1268D01*
Y1298D01*
Y1278D02*
X2382Y1258D01*
X2442Y1198D02*
Y1238D01*
X2412D01*
X2422Y1218D01*
Y1208D01*
X2412Y1198D01*
X2392D01*
X2382Y1208D01*
Y1228D01*
X2392Y1238D01*
X2442Y1138D02*
X2432Y1158D01*
X2412Y1178D01*
X2392D01*
X2382Y1168D01*
Y1148D01*
X2392Y1138D01*
X2402D01*
X2412Y1148D01*
Y1178D01*
X2442Y1078D02*
Y1118D01*
X2412D01*
X2422Y1098D01*
Y1088D01*
X2412Y1078D01*
X2392D01*
X2382Y1088D01*
Y1108D01*
X2392Y1118D01*
X2382Y1058D02*
X2442D01*
Y1028D01*
X2432Y1018D01*
X2412D01*
X2402Y1028D01*
Y1058D01*
Y1038D02*
X2382Y1018D01*
X2442Y998D02*
X2392D01*
X2382Y988D01*
Y968D01*
X2392Y958D01*
X2442D01*
Y938D02*
Y898D01*
X2432D01*
X2392Y938D01*
X2382D01*
X1458Y1358D02*
X1398D01*
X1418D01*
X1458Y1318D01*
X1428Y1348D01*
X1398Y1318D01*
Y1298D02*
X1458D01*
Y1268D01*
X1448Y1258D01*
X1428D01*
X1418Y1268D01*
Y1298D01*
Y1278D02*
X1398Y1258D01*
X1458Y1198D02*
Y1238D01*
X1428D01*
X1438Y1218D01*
Y1208D01*
X1428Y1198D01*
X1408D01*
X1398Y1208D01*
Y1228D01*
X1408Y1238D01*
X1458Y1138D02*
X1448Y1158D01*
X1428Y1178D01*
X1408D01*
X1398Y1168D01*
Y1148D01*
X1408Y1138D01*
X1418D01*
X1428Y1148D01*
Y1178D01*
X1458Y1078D02*
Y1118D01*
X1428D01*
X1438Y1098D01*
Y1088D01*
X1428Y1078D01*
X1408D01*
X1398Y1088D01*
Y1108D01*
X1408Y1118D01*
X1398Y1058D02*
X1458D01*
Y1028D01*
X1448Y1018D01*
X1428D01*
X1418Y1028D01*
Y1058D01*
Y1038D02*
X1398Y1018D01*
X1458Y998D02*
X1408D01*
X1398Y988D01*
Y968D01*
X1408Y958D01*
X1458D01*
Y938D02*
Y898D01*
X1448D01*
X1408Y938D01*
X1398D01*
X473Y1358D02*
X413D01*
X433D01*
X473Y1318D01*
X443Y1348D01*
X413Y1318D01*
Y1298D02*
X473D01*
Y1268D01*
X463Y1258D01*
X443D01*
X433Y1268D01*
Y1298D01*
Y1278D02*
X413Y1258D01*
X473Y1198D02*
Y1238D01*
X443D01*
X453Y1218D01*
Y1208D01*
X443Y1198D01*
X423D01*
X413Y1208D01*
Y1228D01*
X423Y1238D01*
X473Y1138D02*
X463Y1158D01*
X443Y1178D01*
X423D01*
X413Y1168D01*
Y1148D01*
X423Y1138D01*
X433D01*
X443Y1148D01*
Y1178D01*
X473Y1078D02*
Y1118D01*
X443D01*
X453Y1098D01*
Y1088D01*
X443Y1078D01*
X423D01*
X413Y1088D01*
Y1108D01*
X423Y1118D01*
X413Y1058D02*
X473D01*
Y1028D01*
X463Y1018D01*
X443D01*
X433Y1028D01*
Y1058D01*
Y1038D02*
X413Y1018D01*
X473Y998D02*
X423D01*
X413Y988D01*
Y968D01*
X423Y958D01*
X473D01*
Y938D02*
Y898D01*
X463D01*
X423Y938D01*
X413D01*
X8976Y3524D02*
X9036D01*
X8976Y3484D01*
X9036D01*
X8976Y3464D02*
X9036D01*
Y3434D01*
X9026Y3424D01*
X9006D01*
X8996Y3434D01*
Y3464D01*
Y3444D02*
X8976Y3424D01*
Y3404D02*
Y3384D01*
Y3394D01*
X9036D01*
X9026Y3404D01*
X9006Y3354D02*
Y3314D01*
X8976Y3294D02*
Y3274D01*
Y3284D01*
X9036D01*
X9026Y3294D01*
X9006Y3244D02*
Y3204D01*
X8976Y3184D02*
Y3164D01*
Y3174D01*
X9036D01*
X9026Y3184D01*
X9006Y3134D02*
Y3094D01*
X9026Y3074D02*
X9036Y3064D01*
Y3044D01*
X9026Y3034D01*
X9016D01*
X9006Y3044D01*
X8996Y3034D01*
X8986D01*
X8976Y3044D01*
Y3064D01*
X8986Y3074D01*
X8996D01*
X9006Y3064D01*
X9016Y3074D01*
X9026D01*
X9006Y3064D02*
Y3044D01*
X9627Y4449D02*
X9567D01*
X9587D01*
X9627Y4409D01*
X9597Y4439D01*
X9567Y4409D01*
Y4389D02*
X9627D01*
Y4359D01*
X9617Y4349D01*
X9597D01*
X9587Y4359D01*
Y4389D01*
Y4369D02*
X9567Y4349D01*
Y4329D02*
Y4309D01*
Y4319D01*
X9627D01*
X9617Y4329D01*
X9627Y4239D02*
Y4279D01*
X9597D01*
X9607Y4259D01*
Y4249D01*
X9597Y4239D01*
X9577D01*
X9567Y4249D01*
Y4269D01*
X9577Y4279D01*
X9617Y4219D02*
X9627Y4209D01*
Y4189D01*
X9617Y4179D01*
X9607D01*
X9597Y4189D01*
Y4199D01*
Y4189D01*
X9587Y4179D01*
X9577D01*
X9567Y4189D01*
Y4209D01*
X9577Y4219D01*
X9617Y4159D02*
X9627Y4149D01*
Y4129D01*
X9617Y4119D01*
X9607D01*
X9597Y4129D01*
Y4139D01*
Y4129D01*
X9587Y4119D01*
X9577D01*
X9567Y4129D01*
Y4149D01*
X9577Y4159D01*
X9567Y4099D02*
X9607D01*
X9627Y4079D01*
X9607Y4059D01*
X9567D01*
X9597D01*
Y4099D01*
X9567Y4039D02*
X9627D01*
Y4009D01*
X9617Y3999D01*
X9597D01*
X9587Y4009D01*
Y4039D01*
X9627Y3939D02*
X9617Y3959D01*
X9597Y3979D01*
X9577D01*
X9567Y3969D01*
Y3949D01*
X9577Y3939D01*
X9587D01*
X9597Y3949D01*
Y3979D01*
X9036Y4606D02*
X8976D01*
X8996D01*
X9036Y4566D01*
X9006Y4596D01*
X8976Y4566D01*
Y4546D02*
X9036D01*
Y4516D01*
X9026Y4506D01*
X9006D01*
X8996Y4516D01*
Y4546D01*
Y4526D02*
X8976Y4506D01*
Y4486D02*
Y4466D01*
Y4476D01*
X9036D01*
X9026Y4486D01*
X9036Y4396D02*
Y4436D01*
X9006D01*
X9016Y4416D01*
Y4406D01*
X9006Y4396D01*
X8986D01*
X8976Y4406D01*
Y4426D01*
X8986Y4436D01*
X9026Y4376D02*
X9036Y4366D01*
Y4346D01*
X9026Y4336D01*
X9016D01*
X9006Y4346D01*
Y4356D01*
Y4346D01*
X8996Y4336D01*
X8986D01*
X8976Y4346D01*
Y4366D01*
X8986Y4376D01*
X9026Y4316D02*
X9036Y4306D01*
Y4286D01*
X9026Y4276D01*
X9016D01*
X9006Y4286D01*
Y4296D01*
Y4286D01*
X8996Y4276D01*
X8986D01*
X8976Y4286D01*
Y4306D01*
X8986Y4316D01*
X9036Y4256D02*
Y4236D01*
Y4246D01*
X8976D01*
Y4256D01*
Y4236D01*
X9036Y4206D02*
X8976D01*
Y4176D01*
X8986Y4166D01*
X9026D01*
X9036Y4176D01*
Y4206D01*
Y4146D02*
Y4106D01*
X9026D01*
X8986Y4146D01*
X8976D01*
X9036Y2441D02*
X8976D01*
X8996D01*
X9036Y2401D01*
X9006Y2431D01*
X8976Y2401D01*
Y2381D02*
X9036D01*
Y2351D01*
X9026Y2341D01*
X9006D01*
X8996Y2351D01*
Y2381D01*
Y2361D02*
X8976Y2341D01*
Y2321D02*
Y2301D01*
Y2311D01*
X9036D01*
X9026Y2321D01*
X9036Y2231D02*
Y2271D01*
X9006D01*
X9016Y2251D01*
Y2241D01*
X9006Y2231D01*
X8986D01*
X8976Y2241D01*
Y2261D01*
X8986Y2271D01*
X9026Y2211D02*
X9036Y2201D01*
Y2181D01*
X9026Y2171D01*
X9016D01*
X9006Y2181D01*
Y2191D01*
Y2181D01*
X8996Y2171D01*
X8986D01*
X8976Y2181D01*
Y2201D01*
X8986Y2211D01*
X9026Y2151D02*
X9036Y2141D01*
Y2121D01*
X9026Y2111D01*
X9016D01*
X9006Y2121D01*
Y2131D01*
Y2121D01*
X8996Y2111D01*
X8986D01*
X8976Y2121D01*
Y2141D01*
X8986Y2151D01*
X9036Y2091D02*
X8976D01*
X8996D01*
X9036Y2051D01*
X9006Y2081D01*
X8976Y2051D01*
Y2031D02*
X9036D01*
Y2001D01*
X9026Y1991D01*
X9006D01*
X8996Y2001D01*
Y2031D01*
X8976Y1971D02*
Y1951D01*
Y1961D01*
X9036D01*
X9026Y1971D01*
X8976Y1881D02*
Y1921D01*
X9016Y1881D01*
X9026D01*
X9036Y1891D01*
Y1911D01*
X9026Y1921D01*
X8446Y4606D02*
X8386D01*
X8406D01*
X8446Y4566D01*
X8416Y4596D01*
X8386Y4566D01*
Y4546D02*
X8446D01*
Y4516D01*
X8436Y4506D01*
X8416D01*
X8406Y4516D01*
Y4546D01*
Y4526D02*
X8386Y4506D01*
Y4486D02*
Y4466D01*
Y4476D01*
X8446D01*
X8436Y4486D01*
X8446Y4396D02*
Y4436D01*
X8416D01*
X8426Y4416D01*
Y4406D01*
X8416Y4396D01*
X8396D01*
X8386Y4406D01*
Y4426D01*
X8396Y4436D01*
X8436Y4376D02*
X8446Y4366D01*
Y4346D01*
X8436Y4336D01*
X8426D01*
X8416Y4346D01*
Y4356D01*
Y4346D01*
X8406Y4336D01*
X8396D01*
X8386Y4346D01*
Y4366D01*
X8396Y4376D01*
X8436Y4316D02*
X8446Y4306D01*
Y4286D01*
X8436Y4276D01*
X8426D01*
X8416Y4286D01*
Y4296D01*
Y4286D01*
X8406Y4276D01*
X8396D01*
X8386Y4286D01*
Y4306D01*
X8396Y4316D01*
X8446Y4256D02*
X8386D01*
X8406D01*
X8446Y4216D01*
X8416Y4246D01*
X8386Y4216D01*
Y4196D02*
X8446D01*
Y4166D01*
X8436Y4156D01*
X8416D01*
X8406Y4166D01*
Y4196D01*
X8386Y4136D02*
Y4116D01*
Y4126D01*
X8446D01*
X8436Y4136D01*
X8386Y4056D02*
X8446D01*
X8416Y4086D01*
Y4046D01*
X8446Y3524D02*
X8386D01*
X8406D01*
X8446Y3484D01*
X8416Y3514D01*
X8386Y3484D01*
Y3464D02*
X8446D01*
Y3434D01*
X8436Y3424D01*
X8416D01*
X8406Y3434D01*
Y3464D01*
Y3444D02*
X8386Y3424D01*
Y3404D02*
Y3384D01*
Y3394D01*
X8446D01*
X8436Y3404D01*
X8446Y3314D02*
Y3354D01*
X8416D01*
X8426Y3334D01*
Y3324D01*
X8416Y3314D01*
X8396D01*
X8386Y3324D01*
Y3344D01*
X8396Y3354D01*
X8436Y3294D02*
X8446Y3284D01*
Y3264D01*
X8436Y3254D01*
X8426D01*
X8416Y3264D01*
Y3274D01*
Y3264D01*
X8406Y3254D01*
X8396D01*
X8386Y3264D01*
Y3284D01*
X8396Y3294D01*
X8436Y3234D02*
X8446Y3224D01*
Y3204D01*
X8436Y3194D01*
X8426D01*
X8416Y3204D01*
Y3214D01*
Y3204D01*
X8406Y3194D01*
X8396D01*
X8386Y3204D01*
Y3224D01*
X8396Y3234D01*
X8446Y3174D02*
X8386D01*
X8406D01*
X8446Y3134D01*
X8416Y3164D01*
X8386Y3134D01*
Y3114D02*
X8446D01*
Y3084D01*
X8436Y3074D01*
X8416D01*
X8406Y3084D01*
Y3114D01*
X8386Y3054D02*
Y3034D01*
Y3044D01*
X8446D01*
X8436Y3054D01*
X8386Y2974D02*
X8446D01*
X8416Y3004D01*
Y2964D01*
X9036Y1201D02*
X8976D01*
X8996D01*
X9036Y1161D01*
X9006Y1191D01*
X8976Y1161D01*
Y1141D02*
X9036D01*
Y1111D01*
X9026Y1101D01*
X9006D01*
X8996Y1111D01*
Y1141D01*
Y1121D02*
X8976Y1101D01*
Y1081D02*
Y1061D01*
Y1071D01*
X9036D01*
X9026Y1081D01*
X9036Y991D02*
Y1031D01*
X9006D01*
X9016Y1011D01*
Y1001D01*
X9006Y991D01*
X8986D01*
X8976Y1001D01*
Y1021D01*
X8986Y1031D01*
X9026Y971D02*
X9036Y961D01*
Y941D01*
X9026Y931D01*
X9016D01*
X9006Y941D01*
Y951D01*
Y941D01*
X8996Y931D01*
X8986D01*
X8976Y941D01*
Y961D01*
X8986Y971D01*
X9026Y911D02*
X9036Y901D01*
Y881D01*
X9026Y871D01*
X9016D01*
X9006Y881D01*
Y891D01*
Y881D01*
X8996Y871D01*
X8986D01*
X8976Y881D01*
Y901D01*
X8986Y911D01*
X8976Y851D02*
X9016D01*
X9036Y831D01*
X9016Y811D01*
X8976D01*
X9006D01*
Y851D01*
X8976Y791D02*
X9036D01*
Y761D01*
X9026Y751D01*
X9006D01*
X8996Y761D01*
Y791D01*
X9026Y731D02*
X9036Y721D01*
Y701D01*
X9026Y691D01*
X9016D01*
X9006Y701D01*
Y711D01*
Y701D01*
X8996Y691D01*
X8986D01*
X8976Y701D01*
Y721D01*
X8986Y731D01*
X9627Y3524D02*
X9567D01*
X9587D01*
X9627Y3484D01*
X9597Y3514D01*
X9567Y3484D01*
Y3464D02*
X9627D01*
Y3434D01*
X9617Y3424D01*
X9597D01*
X9587Y3434D01*
Y3464D01*
Y3444D02*
X9567Y3424D01*
X9627Y3364D02*
Y3404D01*
X9597D01*
X9607Y3384D01*
Y3374D01*
X9597Y3364D01*
X9577D01*
X9567Y3374D01*
Y3394D01*
X9577Y3404D01*
X9567Y3314D02*
X9627D01*
X9597Y3344D01*
Y3304D01*
X9567Y3284D02*
Y3264D01*
Y3274D01*
X9627D01*
X9617Y3284D01*
X9567Y3234D02*
X9627D01*
Y3204D01*
X9617Y3194D01*
X9597D01*
X9587Y3204D01*
Y3234D01*
Y3214D02*
X9567Y3194D01*
X9627Y3174D02*
X9577D01*
X9567Y3164D01*
Y3144D01*
X9577Y3134D01*
X9627D01*
X9567Y3074D02*
Y3114D01*
X9607Y3074D01*
X9617D01*
X9627Y3084D01*
Y3104D01*
X9617Y3114D01*
X9567Y3054D02*
X9607D01*
X9627Y3034D01*
X9607Y3014D01*
X9567D01*
X9597D01*
Y3054D01*
X10217Y3524D02*
X10157D01*
X10177D01*
X10217Y3484D01*
X10187Y3514D01*
X10157Y3484D01*
Y3464D02*
X10217D01*
Y3434D01*
X10207Y3424D01*
X10187D01*
X10177Y3434D01*
Y3464D01*
Y3444D02*
X10157Y3424D01*
X10217Y3364D02*
Y3404D01*
X10187D01*
X10197Y3384D01*
Y3374D01*
X10187Y3364D01*
X10167D01*
X10157Y3374D01*
Y3394D01*
X10167Y3404D01*
X10157Y3314D02*
X10217D01*
X10187Y3344D01*
Y3304D01*
X10157Y3284D02*
Y3264D01*
Y3274D01*
X10217D01*
X10207Y3284D01*
X10157Y3234D02*
X10217D01*
Y3204D01*
X10207Y3194D01*
X10187D01*
X10177Y3204D01*
Y3234D01*
Y3214D02*
X10157Y3194D01*
X10217Y3174D02*
X10167D01*
X10157Y3164D01*
Y3144D01*
X10167Y3134D01*
X10217D01*
X10157Y3074D02*
Y3114D01*
X10197Y3074D01*
X10207D01*
X10217Y3084D01*
Y3104D01*
X10207Y3114D01*
X10157Y3054D02*
X10197D01*
X10217Y3034D01*
X10197Y3014D01*
X10157D01*
X10187D01*
Y3054D01*
X10808Y3524D02*
X10748D01*
X10768D01*
X10808Y3484D01*
X10778Y3514D01*
X10748Y3484D01*
Y3464D02*
X10808D01*
X10788Y3444D01*
X10808Y3424D01*
X10748D01*
X10808Y3364D02*
Y3404D01*
X10778D01*
X10788Y3384D01*
Y3374D01*
X10778Y3364D01*
X10758D01*
X10748Y3374D01*
Y3394D01*
X10758Y3404D01*
X10808Y3304D02*
Y3344D01*
X10778D01*
X10788Y3324D01*
Y3314D01*
X10778Y3304D01*
X10758D01*
X10748Y3314D01*
Y3334D01*
X10758Y3344D01*
X10808Y3244D02*
Y3284D01*
X10778D01*
X10788Y3264D01*
Y3254D01*
X10778Y3244D01*
X10758D01*
X10748Y3254D01*
Y3274D01*
X10758Y3284D01*
X10808Y3224D02*
Y3204D01*
Y3214D01*
X10748D01*
Y3224D01*
Y3204D01*
Y3174D02*
X10808D01*
Y3144D01*
X10798Y3134D01*
X10778D01*
X10768Y3144D01*
Y3174D01*
Y3154D02*
X10748Y3134D01*
Y3074D02*
Y3114D01*
X10788Y3074D01*
X10798D01*
X10808Y3084D01*
Y3104D01*
X10798Y3114D01*
X10808Y3014D02*
X10798Y3034D01*
X10778Y3054D01*
X10758D01*
X10748Y3044D01*
Y3024D01*
X10758Y3014D01*
X10768D01*
X10778Y3024D01*
Y3054D01*
X10808Y4606D02*
X10748D01*
X10768D01*
X10808Y4566D01*
X10778Y4596D01*
X10748Y4566D01*
Y4546D02*
X10808D01*
X10788Y4526D01*
X10808Y4506D01*
X10748D01*
X10808Y4446D02*
Y4486D01*
X10778D01*
X10788Y4466D01*
Y4456D01*
X10778Y4446D01*
X10758D01*
X10748Y4456D01*
Y4476D01*
X10758Y4486D01*
X10808Y4386D02*
Y4426D01*
X10778D01*
X10788Y4406D01*
Y4396D01*
X10778Y4386D01*
X10758D01*
X10748Y4396D01*
Y4416D01*
X10758Y4426D01*
X10808Y4326D02*
Y4366D01*
X10778D01*
X10788Y4346D01*
Y4336D01*
X10778Y4326D01*
X10758D01*
X10748Y4336D01*
Y4356D01*
X10758Y4366D01*
X10808Y4306D02*
Y4286D01*
Y4296D01*
X10748D01*
Y4306D01*
Y4286D01*
Y4256D02*
X10808D01*
Y4226D01*
X10798Y4216D01*
X10778D01*
X10768Y4226D01*
Y4256D01*
Y4236D02*
X10748Y4216D01*
Y4156D02*
Y4196D01*
X10788Y4156D01*
X10798D01*
X10808Y4166D01*
Y4186D01*
X10798Y4196D01*
X10808Y4096D02*
X10798Y4116D01*
X10778Y4136D01*
X10758D01*
X10748Y4126D01*
Y4106D01*
X10758Y4096D01*
X10768D01*
X10778Y4106D01*
Y4136D01*
X10217Y4449D02*
X10157D01*
X10177D01*
X10217Y4409D01*
X10187Y4439D01*
X10157Y4409D01*
Y4389D02*
X10217D01*
Y4359D01*
X10207Y4349D01*
X10187D01*
X10177Y4359D01*
Y4389D01*
Y4369D02*
X10157Y4349D01*
Y4329D02*
Y4309D01*
Y4319D01*
X10217D01*
X10207Y4329D01*
X10217Y4239D02*
Y4279D01*
X10187D01*
X10197Y4259D01*
Y4249D01*
X10187Y4239D01*
X10167D01*
X10157Y4249D01*
Y4269D01*
X10167Y4279D01*
X10207Y4219D02*
X10217Y4209D01*
Y4189D01*
X10207Y4179D01*
X10197D01*
X10187Y4189D01*
Y4199D01*
Y4189D01*
X10177Y4179D01*
X10167D01*
X10157Y4189D01*
Y4209D01*
X10167Y4219D01*
X10207Y4159D02*
X10217Y4149D01*
Y4129D01*
X10207Y4119D01*
X10197D01*
X10187Y4129D01*
Y4139D01*
Y4129D01*
X10177Y4119D01*
X10167D01*
X10157Y4129D01*
Y4149D01*
X10167Y4159D01*
X10157Y4099D02*
X10197D01*
X10217Y4079D01*
X10197Y4059D01*
X10157D01*
X10187D01*
Y4099D01*
X10157Y4039D02*
X10217D01*
Y4009D01*
X10207Y3999D01*
X10187D01*
X10177Y4009D01*
Y4039D01*
X10217Y3939D02*
Y3979D01*
X10187D01*
X10197Y3959D01*
Y3949D01*
X10187Y3939D01*
X10167D01*
X10157Y3949D01*
Y3969D01*
X10167Y3979D01*
X10808Y2441D02*
X10748D01*
X10768D01*
X10808Y2401D01*
X10778Y2431D01*
X10748Y2401D01*
Y2381D02*
X10808D01*
Y2351D01*
X10798Y2341D01*
X10778D01*
X10768Y2351D01*
Y2381D01*
Y2361D02*
X10748Y2341D01*
Y2321D02*
Y2301D01*
Y2311D01*
X10808D01*
X10798Y2321D01*
X10808Y2231D02*
Y2271D01*
X10778D01*
X10788Y2251D01*
Y2241D01*
X10778Y2231D01*
X10758D01*
X10748Y2241D01*
Y2261D01*
X10758Y2271D01*
X10798Y2211D02*
X10808Y2201D01*
Y2181D01*
X10798Y2171D01*
X10788D01*
X10778Y2181D01*
Y2191D01*
Y2181D01*
X10768Y2171D01*
X10758D01*
X10748Y2181D01*
Y2201D01*
X10758Y2211D01*
X10798Y2151D02*
X10808Y2141D01*
Y2121D01*
X10798Y2111D01*
X10788D01*
X10778Y2121D01*
Y2131D01*
Y2121D01*
X10768Y2111D01*
X10758D01*
X10748Y2121D01*
Y2141D01*
X10758Y2151D01*
X10808Y2091D02*
Y2051D01*
Y2071D01*
X10748D01*
Y2031D02*
X10808D01*
X10788Y2011D01*
X10808Y1991D01*
X10748D01*
X10758Y1971D02*
X10748Y1961D01*
Y1941D01*
X10758Y1931D01*
X10798D01*
X10808Y1941D01*
Y1961D01*
X10798Y1971D01*
X10788D01*
X10778Y1961D01*
Y1931D01*
X9627Y1358D02*
X9567D01*
X9587D01*
X9627Y1318D01*
X9597Y1348D01*
X9567Y1318D01*
Y1298D02*
X9627D01*
Y1268D01*
X9617Y1258D01*
X9597D01*
X9587Y1268D01*
Y1298D01*
Y1278D02*
X9567Y1258D01*
Y1238D02*
Y1218D01*
Y1228D01*
X9627D01*
X9617Y1238D01*
X9627Y1148D02*
Y1188D01*
X9597D01*
X9607Y1168D01*
Y1158D01*
X9597Y1148D01*
X9577D01*
X9567Y1158D01*
Y1178D01*
X9577Y1188D01*
X9617Y1128D02*
X9627Y1118D01*
Y1098D01*
X9617Y1088D01*
X9607D01*
X9597Y1098D01*
Y1108D01*
Y1098D01*
X9587Y1088D01*
X9577D01*
X9567Y1098D01*
Y1118D01*
X9577Y1128D01*
X9617Y1068D02*
X9627Y1058D01*
Y1038D01*
X9617Y1028D01*
X9607D01*
X9597Y1038D01*
Y1048D01*
Y1038D01*
X9587Y1028D01*
X9577D01*
X9567Y1038D01*
Y1058D01*
X9577Y1068D01*
X9627Y1008D02*
X9567D01*
Y968D01*
X9627Y908D02*
Y948D01*
X9567D01*
Y908D01*
X9597Y948D02*
Y928D01*
X9567Y888D02*
Y868D01*
Y878D01*
X9627D01*
X9617Y888D01*
X9627Y2343D02*
X9567D01*
X9587D01*
X9627Y2303D01*
X9597Y2333D01*
X9567Y2303D01*
X9627Y2243D02*
Y2283D01*
X9597D01*
X9607Y2263D01*
Y2253D01*
X9597Y2243D01*
X9577D01*
X9567Y2253D01*
Y2273D01*
X9577Y2283D01*
X9627Y2183D02*
Y2223D01*
X9597D01*
X9607Y2203D01*
Y2193D01*
X9597Y2183D01*
X9577D01*
X9567Y2193D01*
Y2213D01*
X9577Y2223D01*
X9627Y2123D02*
Y2163D01*
X9597D01*
X9607Y2143D01*
Y2133D01*
X9597Y2123D01*
X9577D01*
X9567Y2133D01*
Y2153D01*
X9577Y2163D01*
X9627Y2103D02*
X9567D01*
Y2063D01*
X9627Y2043D02*
X9567D01*
Y2003D01*
Y1983D02*
Y1963D01*
Y1973D01*
X9627D01*
X9617Y1983D01*
X10217Y1358D02*
X10157D01*
X10177D01*
X10217Y1318D01*
X10187Y1348D01*
X10157Y1318D01*
Y1298D02*
X10217D01*
Y1268D01*
X10207Y1258D01*
X10187D01*
X10177Y1268D01*
Y1298D01*
Y1278D02*
X10157Y1258D01*
Y1238D02*
Y1218D01*
Y1228D01*
X10217D01*
X10207Y1238D01*
X10217Y1148D02*
Y1188D01*
X10187D01*
X10197Y1168D01*
Y1158D01*
X10187Y1148D01*
X10167D01*
X10157Y1158D01*
Y1178D01*
X10167Y1188D01*
X10207Y1128D02*
X10217Y1118D01*
Y1098D01*
X10207Y1088D01*
X10197D01*
X10187Y1098D01*
Y1108D01*
Y1098D01*
X10177Y1088D01*
X10167D01*
X10157Y1098D01*
Y1118D01*
X10167Y1128D01*
X10207Y1068D02*
X10217Y1058D01*
Y1038D01*
X10207Y1028D01*
X10197D01*
X10187Y1038D01*
Y1048D01*
Y1038D01*
X10177Y1028D01*
X10167D01*
X10157Y1038D01*
Y1058D01*
X10167Y1068D01*
X10217Y1008D02*
X10157D01*
Y968D01*
X10217Y948D02*
Y928D01*
Y938D01*
X10157D01*
Y948D01*
Y928D01*
Y898D02*
Y878D01*
Y888D01*
X10217D01*
X10207Y898D01*
X10710Y1358D02*
X10650D01*
X10670D01*
X10710Y1318D01*
X10680Y1348D01*
X10650Y1318D01*
Y1298D02*
X10710D01*
Y1268D01*
X10700Y1258D01*
X10680D01*
X10670Y1268D01*
Y1298D01*
Y1278D02*
X10650Y1258D01*
Y1238D02*
Y1218D01*
Y1228D01*
X10710D01*
X10700Y1238D01*
X10710Y1148D02*
Y1188D01*
X10680D01*
X10690Y1168D01*
Y1158D01*
X10680Y1148D01*
X10660D01*
X10650Y1158D01*
Y1178D01*
X10660Y1188D01*
X10700Y1128D02*
X10710Y1118D01*
Y1098D01*
X10700Y1088D01*
X10690D01*
X10680Y1098D01*
Y1108D01*
Y1098D01*
X10670Y1088D01*
X10660D01*
X10650Y1098D01*
Y1118D01*
X10660Y1128D01*
X10700Y1068D02*
X10710Y1058D01*
Y1038D01*
X10700Y1028D01*
X10690D01*
X10680Y1038D01*
Y1048D01*
Y1038D01*
X10670Y1028D01*
X10660D01*
X10650Y1038D01*
Y1058D01*
X10660Y1068D01*
X10710Y1008D02*
X10650D01*
Y968D01*
Y948D02*
X10690D01*
X10710Y928D01*
X10690Y908D01*
X10650D01*
X10680D01*
Y948D01*
X10700Y888D02*
X10710Y878D01*
Y858D01*
X10700Y848D01*
X10690D01*
X10680Y858D01*
Y868D01*
Y858D01*
X10670Y848D01*
X10660D01*
X10650Y858D01*
Y878D01*
X10660Y888D01*
X10217Y2343D02*
X10157D01*
X10177D01*
X10217Y2303D01*
X10187Y2333D01*
X10157Y2303D01*
X10217Y2243D02*
Y2283D01*
X10187D01*
X10197Y2263D01*
Y2253D01*
X10187Y2243D01*
X10167D01*
X10157Y2253D01*
Y2273D01*
X10167Y2283D01*
X10217Y2183D02*
Y2223D01*
X10187D01*
X10197Y2203D01*
Y2193D01*
X10187Y2183D01*
X10167D01*
X10157Y2193D01*
Y2213D01*
X10167Y2223D01*
X10217Y2123D02*
Y2163D01*
X10187D01*
X10197Y2143D01*
Y2133D01*
X10187Y2123D01*
X10167D01*
X10157Y2133D01*
Y2153D01*
X10167Y2163D01*
X10217Y2103D02*
X10157D01*
Y2063D01*
X10217Y2043D02*
X10157D01*
Y2003D01*
Y1983D02*
Y1963D01*
Y1973D01*
X10217D01*
X10207Y1983D01*
X5985Y5728D02*
X5925D01*
X5945D01*
X5985Y5688D01*
X5955Y5718D01*
X5925Y5688D01*
Y5668D02*
X5985D01*
Y5638D01*
X5975Y5628D01*
X5955D01*
X5945Y5638D01*
Y5668D01*
Y5648D02*
X5925Y5628D01*
Y5608D02*
Y5588D01*
Y5598D01*
X5985D01*
X5975Y5608D01*
X5985Y5518D02*
Y5558D01*
X5955D01*
X5965Y5538D01*
Y5528D01*
X5955Y5518D01*
X5935D01*
X5925Y5528D01*
Y5548D01*
X5935Y5558D01*
X5975Y5498D02*
X5985Y5488D01*
Y5468D01*
X5975Y5458D01*
X5965D01*
X5955Y5468D01*
Y5478D01*
Y5468D01*
X5945Y5458D01*
X5935D01*
X5925Y5468D01*
Y5488D01*
X5935Y5498D01*
X5975Y5438D02*
X5985Y5428D01*
Y5408D01*
X5975Y5398D01*
X5965D01*
X5955Y5408D01*
Y5418D01*
Y5408D01*
X5945Y5398D01*
X5935D01*
X5925Y5408D01*
Y5428D01*
X5935Y5438D01*
X5925Y5378D02*
X5965D01*
X5985Y5358D01*
X5965Y5338D01*
X5925D01*
X5955D01*
Y5378D01*
X5925Y5318D02*
X5985D01*
Y5288D01*
X5975Y5278D01*
X5955D01*
X5945Y5288D01*
Y5318D01*
X5985Y5219D02*
X5975Y5239D01*
X5955Y5258D01*
X5935D01*
X5925Y5249D01*
Y5229D01*
X5935Y5219D01*
X5945D01*
X5955Y5229D01*
Y5258D01*
X5296Y7008D02*
X5236D01*
X5256D01*
X5296Y6968D01*
X5266Y6998D01*
X5236Y6968D01*
Y6948D02*
X5296D01*
Y6918D01*
X5286Y6908D01*
X5266D01*
X5256Y6918D01*
Y6948D01*
Y6928D02*
X5236Y6908D01*
Y6888D02*
Y6868D01*
Y6878D01*
X5296D01*
X5286Y6888D01*
X5296Y6798D02*
Y6838D01*
X5266D01*
X5276Y6818D01*
Y6808D01*
X5266Y6798D01*
X5246D01*
X5236Y6808D01*
Y6828D01*
X5246Y6838D01*
X5286Y6778D02*
X5296Y6768D01*
Y6748D01*
X5286Y6738D01*
X5276D01*
X5266Y6748D01*
Y6758D01*
Y6748D01*
X5256Y6738D01*
X5246D01*
X5236Y6748D01*
Y6768D01*
X5246Y6778D01*
X5286Y6718D02*
X5296Y6708D01*
Y6688D01*
X5286Y6678D01*
X5276D01*
X5266Y6688D01*
Y6698D01*
Y6688D01*
X5256Y6678D01*
X5246D01*
X5236Y6688D01*
Y6708D01*
X5246Y6718D01*
X5236Y6658D02*
X5276D01*
X5296Y6638D01*
X5276Y6618D01*
X5236D01*
X5266D01*
Y6658D01*
X5236Y6598D02*
X5296D01*
Y6568D01*
X5286Y6558D01*
X5266D01*
X5256Y6568D01*
Y6598D01*
X5296Y6498D02*
X5286Y6518D01*
X5266Y6538D01*
X5246D01*
X5236Y6528D01*
Y6508D01*
X5246Y6498D01*
X5256D01*
X5266Y6508D01*
Y6538D01*
X8446Y5728D02*
X8386D01*
X8406D01*
X8446Y5688D01*
X8416Y5718D01*
X8386Y5688D01*
Y5668D02*
X8446D01*
Y5638D01*
X8436Y5628D01*
X8416D01*
X8406Y5638D01*
Y5668D01*
Y5648D02*
X8386Y5628D01*
Y5608D02*
Y5588D01*
Y5598D01*
X8446D01*
X8436Y5608D01*
X8446Y5518D02*
Y5558D01*
X8416D01*
X8426Y5538D01*
Y5528D01*
X8416Y5518D01*
X8396D01*
X8386Y5528D01*
Y5548D01*
X8396Y5558D01*
X8436Y5498D02*
X8446Y5488D01*
Y5468D01*
X8436Y5458D01*
X8426D01*
X8416Y5468D01*
Y5478D01*
Y5468D01*
X8406Y5458D01*
X8396D01*
X8386Y5468D01*
Y5488D01*
X8396Y5498D01*
X8436Y5438D02*
X8446Y5428D01*
Y5408D01*
X8436Y5398D01*
X8426D01*
X8416Y5408D01*
Y5418D01*
Y5408D01*
X8406Y5398D01*
X8396D01*
X8386Y5408D01*
Y5428D01*
X8396Y5438D01*
X8386Y5378D02*
X8426D01*
X8446Y5358D01*
X8426Y5338D01*
X8386D01*
X8416D01*
Y5378D01*
X8386Y5318D02*
X8446D01*
Y5288D01*
X8436Y5278D01*
X8416D01*
X8406Y5288D01*
Y5318D01*
X8446Y5219D02*
X8436Y5239D01*
X8416Y5258D01*
X8396D01*
X8386Y5249D01*
Y5229D01*
X8396Y5219D01*
X8406D01*
X8416Y5229D01*
Y5258D01*
X11103Y5689D02*
X11043D01*
X11063D01*
X11103Y5649D01*
X11073Y5679D01*
X11043Y5649D01*
Y5629D02*
X11103D01*
Y5599D01*
X11093Y5589D01*
X11073D01*
X11063Y5599D01*
Y5629D01*
Y5609D02*
X11043Y5589D01*
X11103Y5529D02*
Y5569D01*
X11073D01*
X11083Y5549D01*
Y5539D01*
X11073Y5529D01*
X11053D01*
X11043Y5539D01*
Y5559D01*
X11053Y5569D01*
X11103Y5469D02*
Y5509D01*
X11073D01*
X11083Y5489D01*
Y5479D01*
X11073Y5469D01*
X11053D01*
X11043Y5479D01*
Y5499D01*
X11053Y5509D01*
X11103Y5409D02*
X11093Y5429D01*
X11073Y5449D01*
X11053D01*
X11043Y5439D01*
Y5419D01*
X11053Y5409D01*
X11063D01*
X11073Y5419D01*
Y5449D01*
X11043Y5389D02*
X11103D01*
Y5359D01*
X11093Y5349D01*
X11073D01*
X11063Y5359D01*
Y5389D01*
Y5369D02*
X11043Y5349D01*
X11103Y5329D02*
Y5289D01*
Y5309D01*
X11043D01*
Y5239D02*
X11103D01*
X11073Y5269D01*
Y5229D01*
X11043Y5209D02*
X11083D01*
X11103Y5189D01*
X11083Y5169D01*
X11043D01*
X11073D01*
Y5209D01*
X4410Y8189D02*
X4350D01*
X4370D01*
X4410Y8149D01*
X4380Y8179D01*
X4350Y8149D01*
Y8129D02*
X4410D01*
Y8099D01*
X4400Y8089D01*
X4380D01*
X4370Y8099D01*
Y8129D01*
Y8109D02*
X4350Y8089D01*
Y8069D02*
Y8049D01*
Y8059D01*
X4410D01*
X4400Y8069D01*
X4410Y7979D02*
Y8019D01*
X4380D01*
X4390Y7999D01*
Y7989D01*
X4380Y7979D01*
X4360D01*
X4350Y7989D01*
Y8009D01*
X4360Y8019D01*
X4400Y7959D02*
X4410Y7949D01*
Y7929D01*
X4400Y7919D01*
X4390D01*
X4380Y7929D01*
Y7939D01*
Y7929D01*
X4370Y7919D01*
X4360D01*
X4350Y7929D01*
Y7949D01*
X4360Y7959D01*
X4400Y7899D02*
X4410Y7889D01*
Y7869D01*
X4400Y7859D01*
X4390D01*
X4380Y7869D01*
Y7879D01*
Y7869D01*
X4370Y7859D01*
X4360D01*
X4350Y7869D01*
Y7889D01*
X4360Y7899D01*
X4350Y7839D02*
X4390D01*
X4410Y7819D01*
X4390Y7799D01*
X4350D01*
X4380D01*
Y7839D01*
X4350Y7779D02*
X4410D01*
Y7749D01*
X4400Y7739D01*
X4380D01*
X4370Y7749D01*
Y7779D01*
X4410Y7679D02*
Y7719D01*
X4380D01*
X4390Y7699D01*
Y7689D01*
X4380Y7679D01*
X4360D01*
X4350Y7689D01*
Y7709D01*
X4360Y7719D01*
X9036Y5728D02*
X8976D01*
X8996D01*
X9036Y5688D01*
X9006Y5718D01*
X8976Y5688D01*
Y5668D02*
X9036D01*
Y5638D01*
X9026Y5628D01*
X9006D01*
X8996Y5638D01*
Y5668D01*
Y5648D02*
X8976Y5628D01*
Y5608D02*
Y5588D01*
Y5598D01*
X9036D01*
X9026Y5608D01*
X9036Y5518D02*
Y5558D01*
X9006D01*
X9016Y5538D01*
Y5528D01*
X9006Y5518D01*
X8986D01*
X8976Y5528D01*
Y5548D01*
X8986Y5558D01*
X9026Y5498D02*
X9036Y5488D01*
Y5468D01*
X9026Y5458D01*
X9016D01*
X9006Y5468D01*
Y5478D01*
Y5468D01*
X8996Y5458D01*
X8986D01*
X8976Y5468D01*
Y5488D01*
X8986Y5498D01*
X9026Y5438D02*
X9036Y5428D01*
Y5408D01*
X9026Y5398D01*
X9016D01*
X9006Y5408D01*
Y5418D01*
Y5408D01*
X8996Y5398D01*
X8986D01*
X8976Y5408D01*
Y5428D01*
X8986Y5438D01*
X9036Y5378D02*
Y5358D01*
Y5368D01*
X8976D01*
Y5378D01*
Y5358D01*
Y5328D02*
X9036D01*
Y5298D01*
X9026Y5288D01*
X9006D01*
X8996Y5298D01*
Y5328D01*
Y5308D02*
X8976Y5288D01*
Y5229D02*
Y5268D01*
X9016Y5229D01*
X9026D01*
X9036Y5239D01*
Y5258D01*
X9026Y5268D01*
X8976Y5169D02*
Y5209D01*
X9016Y5169D01*
X9026D01*
X9036Y5179D01*
Y5199D01*
X9026Y5209D01*
X10217Y9469D02*
X10157D01*
X10177D01*
X10217Y9429D01*
X10187Y9459D01*
X10157Y9429D01*
Y9409D02*
X10217D01*
Y9379D01*
X10207Y9369D01*
X10187D01*
X10177Y9379D01*
Y9409D01*
Y9389D02*
X10157Y9369D01*
Y9349D02*
Y9329D01*
Y9339D01*
X10217D01*
X10207Y9349D01*
X10217Y9259D02*
Y9299D01*
X10187D01*
X10197Y9279D01*
Y9269D01*
X10187Y9259D01*
X10167D01*
X10157Y9269D01*
Y9289D01*
X10167Y9299D01*
X10207Y9239D02*
X10217Y9229D01*
Y9209D01*
X10207Y9199D01*
X10197D01*
X10187Y9209D01*
Y9219D01*
Y9209D01*
X10177Y9199D01*
X10167D01*
X10157Y9209D01*
Y9229D01*
X10167Y9239D01*
X10207Y9179D02*
X10217Y9169D01*
Y9149D01*
X10207Y9139D01*
X10197D01*
X10187Y9149D01*
Y9159D01*
Y9149D01*
X10177Y9139D01*
X10167D01*
X10157Y9149D01*
Y9169D01*
X10167Y9179D01*
X10157Y9119D02*
X10197D01*
X10217Y9099D01*
X10197Y9079D01*
X10157D01*
X10187D01*
Y9119D01*
X10157Y9059D02*
X10217D01*
Y9029D01*
X10207Y9019D01*
X10187D01*
X10177Y9029D01*
Y9059D01*
X10217Y8959D02*
Y8999D01*
X10187D01*
X10197Y8979D01*
Y8969D01*
X10187Y8959D01*
X10167D01*
X10157Y8969D01*
Y8989D01*
X10167Y8999D01*
X10513Y5591D02*
X10453D01*
X10473D01*
X10513Y5551D01*
X10483Y5581D01*
X10453Y5551D01*
X10513Y5491D02*
Y5531D01*
X10483D01*
X10493Y5511D01*
Y5501D01*
X10483Y5491D01*
X10463D01*
X10453Y5501D01*
Y5521D01*
X10463Y5531D01*
X10513Y5431D02*
X10503Y5451D01*
X10483Y5471D01*
X10463D01*
X10453Y5461D01*
Y5441D01*
X10463Y5431D01*
X10473D01*
X10483Y5441D01*
Y5471D01*
X10453Y5411D02*
Y5391D01*
Y5401D01*
X10513D01*
X10503Y5411D01*
X10513Y5361D02*
X10453D01*
Y5321D01*
Y5301D02*
X10513D01*
X10453Y5261D01*
X10513D01*
X10453Y5201D02*
Y5241D01*
X10493Y5201D01*
X10503D01*
X10513Y5211D01*
Y5231D01*
X10503Y5241D01*
X3623Y8150D02*
X3563D01*
X3583D01*
X3623Y8110D01*
X3593Y8140D01*
X3563Y8110D01*
Y8090D02*
X3623D01*
X3603Y8070D01*
X3623Y8050D01*
X3563D01*
X3623Y7990D02*
Y8030D01*
X3593D01*
X3603Y8010D01*
Y8000D01*
X3593Y7990D01*
X3573D01*
X3563Y8000D01*
Y8020D01*
X3573Y8030D01*
X3623Y7930D02*
Y7970D01*
X3593D01*
X3603Y7950D01*
Y7940D01*
X3593Y7930D01*
X3573D01*
X3563Y7940D01*
Y7960D01*
X3573Y7970D01*
X3623Y7870D02*
Y7910D01*
X3593D01*
X3603Y7890D01*
Y7880D01*
X3593Y7870D01*
X3573D01*
X3563Y7880D01*
Y7900D01*
X3573Y7910D01*
X3623Y7850D02*
Y7830D01*
Y7840D01*
X3563D01*
Y7850D01*
Y7830D01*
Y7800D02*
X3623D01*
Y7770D01*
X3613Y7760D01*
X3593D01*
X3583Y7770D01*
Y7800D01*
Y7780D02*
X3563Y7760D01*
Y7700D02*
Y7740D01*
X3603Y7700D01*
X3613D01*
X3623Y7710D01*
Y7730D01*
X3613Y7740D01*
X3623Y7640D02*
X3613Y7660D01*
X3593Y7680D01*
X3573D01*
X3563Y7670D01*
Y7650D01*
X3573Y7640D01*
X3583D01*
X3593Y7650D01*
Y7680D01*
X10217Y10748D02*
X10157D01*
X10177D01*
X10217Y10708D01*
X10187Y10738D01*
X10157Y10708D01*
Y10688D02*
X10217D01*
Y10658D01*
X10207Y10648D01*
X10187D01*
X10177Y10658D01*
Y10688D01*
Y10668D02*
X10157Y10648D01*
Y10628D02*
Y10608D01*
Y10618D01*
X10217D01*
X10207Y10628D01*
X10217Y10538D02*
Y10578D01*
X10187D01*
X10197Y10558D01*
Y10548D01*
X10187Y10538D01*
X10167D01*
X10157Y10548D01*
Y10568D01*
X10167Y10578D01*
X10207Y10518D02*
X10217Y10508D01*
Y10488D01*
X10207Y10478D01*
X10197D01*
X10187Y10488D01*
Y10498D01*
Y10488D01*
X10177Y10478D01*
X10167D01*
X10157Y10488D01*
Y10508D01*
X10167Y10518D01*
X10207Y10458D02*
X10217Y10448D01*
Y10428D01*
X10207Y10418D01*
X10197D01*
X10187Y10428D01*
Y10438D01*
Y10428D01*
X10177Y10418D01*
X10167D01*
X10157Y10428D01*
Y10448D01*
X10167Y10458D01*
X10157Y10398D02*
X10197D01*
X10217Y10378D01*
X10197Y10358D01*
X10157D01*
X10187D01*
Y10398D01*
X10157Y10338D02*
X10217D01*
Y10308D01*
X10207Y10298D01*
X10187D01*
X10177Y10308D01*
Y10338D01*
X10217Y10238D02*
X10207Y10258D01*
X10187Y10278D01*
X10167D01*
X10157Y10268D01*
Y10248D01*
X10167Y10238D01*
X10177D01*
X10187Y10248D01*
Y10278D01*
X5296Y5728D02*
X5236D01*
X5256D01*
X5296Y5688D01*
X5266Y5718D01*
X5236Y5688D01*
Y5668D02*
X5296D01*
Y5638D01*
X5286Y5628D01*
X5266D01*
X5256Y5638D01*
Y5668D01*
Y5648D02*
X5236Y5628D01*
Y5608D02*
Y5588D01*
Y5598D01*
X5296D01*
X5286Y5608D01*
X5296Y5518D02*
Y5558D01*
X5266D01*
X5276Y5538D01*
Y5528D01*
X5266Y5518D01*
X5246D01*
X5236Y5528D01*
Y5548D01*
X5246Y5558D01*
X5286Y5498D02*
X5296Y5488D01*
Y5468D01*
X5286Y5458D01*
X5276D01*
X5266Y5468D01*
Y5478D01*
Y5468D01*
X5256Y5458D01*
X5246D01*
X5236Y5468D01*
Y5488D01*
X5246Y5498D01*
X5286Y5438D02*
X5296Y5428D01*
Y5408D01*
X5286Y5398D01*
X5276D01*
X5266Y5408D01*
Y5418D01*
Y5408D01*
X5256Y5398D01*
X5246D01*
X5236Y5408D01*
Y5428D01*
X5246Y5438D01*
X5236Y5378D02*
X5276D01*
X5296Y5358D01*
X5276Y5338D01*
X5236D01*
X5266D01*
Y5378D01*
X5236Y5318D02*
X5296D01*
Y5288D01*
X5286Y5278D01*
X5266D01*
X5256Y5288D01*
Y5318D01*
X5296Y5219D02*
X5286Y5239D01*
X5266Y5258D01*
X5246D01*
X5236Y5249D01*
Y5229D01*
X5246Y5219D01*
X5256D01*
X5266Y5229D01*
Y5258D01*
X9332Y7362D02*
X9272D01*
X9292D01*
X9332Y7322D01*
X9302Y7352D01*
X9272Y7322D01*
X9332Y7262D02*
Y7302D01*
X9302D01*
X9312Y7282D01*
Y7272D01*
X9302Y7262D01*
X9282D01*
X9272Y7272D01*
Y7292D01*
X9282Y7302D01*
X9332Y7202D02*
Y7242D01*
X9302D01*
X9312Y7222D01*
Y7212D01*
X9302Y7202D01*
X9282D01*
X9272Y7212D01*
Y7232D01*
X9282Y7242D01*
X9332Y7142D02*
Y7182D01*
X9302D01*
X9312Y7162D01*
Y7152D01*
X9302Y7142D01*
X9282D01*
X9272Y7152D01*
Y7172D01*
X9282Y7182D01*
X9332Y7122D02*
X9272D01*
Y7082D01*
X9332Y7062D02*
X9272D01*
Y7022D01*
Y7002D02*
Y6982D01*
Y6992D01*
X9332D01*
X9322Y7002D01*
X4706Y7008D02*
X4646D01*
X4666D01*
X4706Y6968D01*
X4676Y6998D01*
X4646Y6968D01*
Y6948D02*
X4706D01*
Y6918D01*
X4696Y6908D01*
X4676D01*
X4666Y6918D01*
Y6948D01*
Y6928D02*
X4646Y6908D01*
Y6888D02*
Y6868D01*
Y6878D01*
X4706D01*
X4696Y6888D01*
X4706Y6798D02*
Y6838D01*
X4676D01*
X4686Y6818D01*
Y6808D01*
X4676Y6798D01*
X4656D01*
X4646Y6808D01*
Y6828D01*
X4656Y6838D01*
X4696Y6778D02*
X4706Y6768D01*
Y6748D01*
X4696Y6738D01*
X4686D01*
X4676Y6748D01*
Y6758D01*
Y6748D01*
X4666Y6738D01*
X4656D01*
X4646Y6748D01*
Y6768D01*
X4656Y6778D01*
X4696Y6718D02*
X4706Y6708D01*
Y6688D01*
X4696Y6678D01*
X4686D01*
X4676Y6688D01*
Y6698D01*
Y6688D01*
X4666Y6678D01*
X4656D01*
X4646Y6688D01*
Y6708D01*
X4656Y6718D01*
X4646Y6658D02*
X4686D01*
X4706Y6638D01*
X4686Y6618D01*
X4646D01*
X4676D01*
Y6658D01*
X4646Y6598D02*
X4706D01*
Y6568D01*
X4696Y6558D01*
X4676D01*
X4666Y6568D01*
Y6598D01*
X4706Y6498D02*
X4696Y6518D01*
X4676Y6538D01*
X4656D01*
X4646Y6528D01*
Y6508D01*
X4656Y6498D01*
X4666D01*
X4676Y6508D01*
Y6538D01*
X11398Y3524D02*
X11339D01*
X11358D01*
X11398Y3484D01*
X11368Y3514D01*
X11339Y3484D01*
Y3464D02*
Y3444D01*
Y3454D01*
X11398D01*
X11388Y3464D01*
X11398Y3374D02*
Y3414D01*
X11368D01*
X11378Y3394D01*
Y3384D01*
X11368Y3374D01*
X11349D01*
X11339Y3384D01*
Y3404D01*
X11349Y3414D01*
X11398Y3314D02*
Y3354D01*
X11368D01*
X11378Y3334D01*
Y3324D01*
X11368Y3314D01*
X11349D01*
X11339Y3324D01*
Y3344D01*
X11349Y3354D01*
X11398Y3294D02*
Y3274D01*
Y3284D01*
X11339D01*
Y3294D01*
Y3274D01*
X11398Y3204D02*
Y3244D01*
X11339D01*
Y3204D01*
X11368Y3244D02*
Y3224D01*
X11339Y3154D02*
X11398D01*
X11368Y3184D01*
Y3144D01*
X8446Y10748D02*
X8386D01*
X8406D01*
X8446Y10708D01*
X8416Y10738D01*
X8386Y10708D01*
Y10688D02*
X8446D01*
Y10658D01*
X8436Y10648D01*
X8416D01*
X8406Y10658D01*
Y10688D01*
Y10668D02*
X8386Y10648D01*
Y10628D02*
Y10608D01*
Y10618D01*
X8446D01*
X8436Y10628D01*
X8446Y10538D02*
Y10578D01*
X8416D01*
X8426Y10558D01*
Y10548D01*
X8416Y10538D01*
X8396D01*
X8386Y10548D01*
Y10568D01*
X8396Y10578D01*
X8436Y10518D02*
X8446Y10508D01*
Y10488D01*
X8436Y10478D01*
X8426D01*
X8416Y10488D01*
Y10498D01*
Y10488D01*
X8406Y10478D01*
X8396D01*
X8386Y10488D01*
Y10508D01*
X8396Y10518D01*
X8436Y10458D02*
X8446Y10448D01*
Y10428D01*
X8436Y10418D01*
X8426D01*
X8416Y10428D01*
Y10438D01*
Y10428D01*
X8406Y10418D01*
X8396D01*
X8386Y10428D01*
Y10448D01*
X8396Y10458D01*
X8446Y10398D02*
Y10378D01*
Y10388D01*
X8386D01*
Y10398D01*
Y10378D01*
Y10348D02*
X8446D01*
Y10318D01*
X8436Y10308D01*
X8416D01*
X8406Y10318D01*
Y10348D01*
Y10328D02*
X8386Y10308D01*
Y10248D02*
Y10288D01*
X8426Y10248D01*
X8436D01*
X8446Y10258D01*
Y10278D01*
X8436Y10288D01*
X8386Y10198D02*
X8446D01*
X8416Y10228D01*
Y10188D01*
X10748Y10610D02*
Y10590D01*
Y10600D01*
X10808D01*
X10798Y10610D01*
X10808Y10520D02*
Y10560D01*
X10778D01*
X10788Y10540D01*
Y10530D01*
X10778Y10520D01*
X10758D01*
X10748Y10530D01*
Y10550D01*
X10758Y10560D01*
X10808Y10460D02*
Y10500D01*
X10778D01*
X10788Y10480D01*
Y10470D01*
X10778Y10460D01*
X10758D01*
X10748Y10470D01*
Y10490D01*
X10758Y10500D01*
X10808Y10440D02*
X10748D01*
Y10400D01*
Y10380D02*
X10788D01*
X10808Y10360D01*
X10788Y10340D01*
X10748D01*
X10778D01*
Y10380D01*
X10748Y10320D02*
Y10300D01*
Y10310D01*
X10808D01*
X10798Y10320D01*
Y10270D02*
X10808Y10260D01*
Y10240D01*
X10798Y10230D01*
X10788D01*
X10778Y10240D01*
Y10250D01*
Y10240D01*
X10768Y10230D01*
X10758D01*
X10748Y10240D01*
Y10260D01*
X10758Y10270D01*
X11398Y8642D02*
X11339D01*
X11358D01*
X11398Y8602D01*
X11368Y8632D01*
X11339Y8602D01*
Y8582D02*
X11398D01*
Y8552D01*
X11388Y8542D01*
X11368D01*
X11358Y8552D01*
Y8582D01*
Y8562D02*
X11339Y8542D01*
Y8522D02*
Y8502D01*
Y8512D01*
X11398D01*
X11388Y8522D01*
X11398Y8432D02*
Y8472D01*
X11368D01*
X11378Y8452D01*
Y8442D01*
X11368Y8432D01*
X11349D01*
X11339Y8442D01*
Y8462D01*
X11349Y8472D01*
X11388Y8412D02*
X11398Y8402D01*
Y8382D01*
X11388Y8372D01*
X11378D01*
X11368Y8382D01*
Y8392D01*
Y8382D01*
X11358Y8372D01*
X11349D01*
X11339Y8382D01*
Y8402D01*
X11349Y8412D01*
X11388Y8352D02*
X11398Y8342D01*
Y8322D01*
X11388Y8312D01*
X11378D01*
X11368Y8322D01*
Y8332D01*
Y8322D01*
X11358Y8312D01*
X11349D01*
X11339Y8322D01*
Y8342D01*
X11349Y8352D01*
X11398Y8292D02*
Y8252D01*
Y8272D01*
X11339D01*
Y8232D02*
X11398D01*
X11378Y8212D01*
X11398Y8192D01*
X11339D01*
Y8132D02*
Y8172D01*
X11378Y8132D01*
X11388D01*
X11398Y8142D01*
Y8162D01*
X11388Y8172D01*
X10808Y8642D02*
X10748D01*
X10768D01*
X10808Y8602D01*
X10778Y8632D01*
X10748Y8602D01*
Y8582D02*
X10808D01*
Y8552D01*
X10798Y8542D01*
X10778D01*
X10768Y8552D01*
Y8582D01*
Y8562D02*
X10748Y8542D01*
Y8522D02*
Y8502D01*
Y8512D01*
X10808D01*
X10798Y8522D01*
X10808Y8432D02*
Y8472D01*
X10778D01*
X10788Y8452D01*
Y8442D01*
X10778Y8432D01*
X10758D01*
X10748Y8442D01*
Y8462D01*
X10758Y8472D01*
X10798Y8412D02*
X10808Y8402D01*
Y8382D01*
X10798Y8372D01*
X10788D01*
X10778Y8382D01*
Y8392D01*
Y8382D01*
X10768Y8372D01*
X10758D01*
X10748Y8382D01*
Y8402D01*
X10758Y8412D01*
X10798Y8352D02*
X10808Y8342D01*
Y8322D01*
X10798Y8312D01*
X10788D01*
X10778Y8322D01*
Y8332D01*
Y8322D01*
X10768Y8312D01*
X10758D01*
X10748Y8322D01*
Y8342D01*
X10758Y8352D01*
X10808Y8292D02*
Y8252D01*
Y8272D01*
X10748D01*
Y8232D02*
X10808D01*
X10788Y8212D01*
X10808Y8192D01*
X10748D01*
Y8132D02*
Y8172D01*
X10788Y8132D01*
X10798D01*
X10808Y8142D01*
Y8162D01*
X10798Y8172D01*
X10808Y9626D02*
X10748D01*
X10768D01*
X10808Y9586D01*
X10778Y9616D01*
X10748Y9586D01*
Y9566D02*
X10808D01*
Y9536D01*
X10798Y9526D01*
X10778D01*
X10768Y9536D01*
Y9566D01*
Y9546D02*
X10748Y9526D01*
Y9506D02*
Y9486D01*
Y9496D01*
X10808D01*
X10798Y9506D01*
X10808Y9416D02*
Y9456D01*
X10778D01*
X10788Y9436D01*
Y9426D01*
X10778Y9416D01*
X10758D01*
X10748Y9426D01*
Y9446D01*
X10758Y9456D01*
X10798Y9396D02*
X10808Y9386D01*
Y9366D01*
X10798Y9356D01*
X10788D01*
X10778Y9366D01*
Y9376D01*
Y9366D01*
X10768Y9356D01*
X10758D01*
X10748Y9366D01*
Y9386D01*
X10758Y9396D01*
X10798Y9336D02*
X10808Y9326D01*
Y9306D01*
X10798Y9296D01*
X10788D01*
X10778Y9306D01*
Y9316D01*
Y9306D01*
X10768Y9296D01*
X10758D01*
X10748Y9306D01*
Y9326D01*
X10758Y9336D01*
X10808Y9276D02*
X10748D01*
Y9236D01*
X10808Y9216D02*
Y9196D01*
Y9206D01*
X10748D01*
Y9216D01*
Y9196D01*
Y9166D02*
Y9146D01*
Y9156D01*
X10808D01*
X10798Y9166D01*
X4706Y5728D02*
X4646D01*
X4666D01*
X4706Y5688D01*
X4676Y5718D01*
X4646Y5688D01*
Y5668D02*
X4706D01*
Y5638D01*
X4696Y5628D01*
X4676D01*
X4666Y5638D01*
Y5668D01*
Y5648D02*
X4646Y5628D01*
Y5608D02*
Y5588D01*
Y5598D01*
X4706D01*
X4696Y5608D01*
X4706Y5518D02*
Y5558D01*
X4676D01*
X4686Y5538D01*
Y5528D01*
X4676Y5518D01*
X4656D01*
X4646Y5528D01*
Y5548D01*
X4656Y5558D01*
X4696Y5498D02*
X4706Y5488D01*
Y5468D01*
X4696Y5458D01*
X4686D01*
X4676Y5468D01*
Y5478D01*
Y5468D01*
X4666Y5458D01*
X4656D01*
X4646Y5468D01*
Y5488D01*
X4656Y5498D01*
X4696Y5438D02*
X4706Y5428D01*
Y5408D01*
X4696Y5398D01*
X4686D01*
X4676Y5408D01*
Y5418D01*
Y5408D01*
X4666Y5398D01*
X4656D01*
X4646Y5408D01*
Y5428D01*
X4656Y5438D01*
X4706Y5378D02*
Y5358D01*
Y5368D01*
X4646D01*
Y5378D01*
Y5358D01*
Y5328D02*
X4706D01*
Y5298D01*
X4696Y5288D01*
X4676D01*
X4666Y5298D01*
Y5328D01*
Y5308D02*
X4646Y5288D01*
Y5229D02*
Y5268D01*
X4686Y5229D01*
X4696D01*
X4706Y5239D01*
Y5258D01*
X4696Y5268D01*
X4646Y5169D02*
Y5209D01*
X4686Y5169D01*
X4696D01*
X4706Y5179D01*
Y5199D01*
X4696Y5209D01*
X3131Y8150D02*
X3071D01*
X3091D01*
X3131Y8110D01*
X3101Y8140D01*
X3071Y8110D01*
Y8090D02*
X3131D01*
Y8060D01*
X3121Y8050D01*
X3101D01*
X3091Y8060D01*
Y8090D01*
Y8070D02*
X3071Y8050D01*
X3131Y7990D02*
Y8030D01*
X3101D01*
X3111Y8010D01*
Y8000D01*
X3101Y7990D01*
X3081D01*
X3071Y8000D01*
Y8020D01*
X3081Y8030D01*
X3131Y7930D02*
Y7970D01*
X3101D01*
X3111Y7950D01*
Y7940D01*
X3101Y7930D01*
X3081D01*
X3071Y7940D01*
Y7960D01*
X3081Y7970D01*
X3131Y7870D02*
X3121Y7890D01*
X3101Y7910D01*
X3081D01*
X3071Y7900D01*
Y7880D01*
X3081Y7870D01*
X3091D01*
X3101Y7880D01*
Y7910D01*
X3071Y7850D02*
X3131D01*
Y7820D01*
X3121Y7810D01*
X3101D01*
X3091Y7820D01*
Y7850D01*
Y7830D02*
X3071Y7810D01*
X3131Y7790D02*
Y7750D01*
Y7770D01*
X3071D01*
Y7700D02*
X3131D01*
X3101Y7730D01*
Y7690D01*
X3071Y7670D02*
X3111D01*
X3131Y7650D01*
X3111Y7630D01*
X3071D01*
X3101D01*
Y7670D01*
X11202Y1358D02*
X11142D01*
X11162D01*
X11202Y1318D01*
X11172Y1348D01*
X11142Y1318D01*
Y1298D02*
X11202D01*
Y1268D01*
X11192Y1258D01*
X11172D01*
X11162Y1268D01*
Y1298D01*
Y1278D02*
X11142Y1258D01*
Y1238D02*
Y1218D01*
Y1228D01*
X11202D01*
X11192Y1238D01*
X11202Y1148D02*
Y1188D01*
X11172D01*
X11182Y1168D01*
Y1158D01*
X11172Y1148D01*
X11152D01*
X11142Y1158D01*
Y1178D01*
X11152Y1188D01*
X11192Y1128D02*
X11202Y1118D01*
Y1098D01*
X11192Y1088D01*
X11182D01*
X11172Y1098D01*
Y1108D01*
Y1098D01*
X11162Y1088D01*
X11152D01*
X11142Y1098D01*
Y1118D01*
X11152Y1128D01*
X11192Y1068D02*
X11202Y1058D01*
Y1038D01*
X11192Y1028D01*
X11182D01*
X11172Y1038D01*
Y1048D01*
Y1038D01*
X11162Y1028D01*
X11152D01*
X11142Y1038D01*
Y1058D01*
X11152Y1068D01*
X11202Y1008D02*
X11142D01*
Y968D01*
Y948D02*
X11202D01*
X11142Y908D01*
X11202D01*
X11142Y888D02*
Y868D01*
Y878D01*
X11202D01*
X11192Y888D01*
X1950Y7992D02*
X1890D01*
X1910D01*
X1950Y7952D01*
X1920Y7982D01*
X1890Y7952D01*
Y7932D02*
X1950D01*
Y7902D01*
X1940Y7892D01*
X1920D01*
X1910Y7902D01*
Y7932D01*
Y7912D02*
X1890Y7892D01*
Y7872D02*
Y7852D01*
Y7862D01*
X1950D01*
X1940Y7872D01*
Y7822D02*
X1950Y7812D01*
Y7792D01*
X1940Y7782D01*
X1930D01*
X1920Y7792D01*
X1910Y7782D01*
X1900D01*
X1890Y7792D01*
Y7812D01*
X1900Y7822D01*
X1910D01*
X1920Y7812D01*
X1930Y7822D01*
X1940D01*
X1920Y7812D02*
Y7792D01*
X1890Y7762D02*
Y7742D01*
Y7752D01*
X1950D01*
X1940Y7762D01*
Y7712D02*
X1950Y7702D01*
Y7682D01*
X1940Y7672D01*
X1900D01*
X1890Y7682D01*
Y7702D01*
X1900Y7712D01*
X1940D01*
X1950Y7652D02*
X1910D01*
X1890Y7632D01*
X1910Y7612D01*
X1950D01*
X1940Y7552D02*
X1950Y7562D01*
Y7582D01*
X1940Y7592D01*
X1900D01*
X1890Y7582D01*
Y7562D01*
X1900Y7552D01*
X1920D01*
Y7572D01*
X1940Y7532D02*
X1950Y7522D01*
Y7502D01*
X1940Y7492D01*
X1930D01*
X1920Y7502D01*
X1910Y7492D01*
X1900D01*
X1890Y7502D01*
Y7522D01*
X1900Y7532D01*
X1910D01*
X1920Y7522D01*
X1930Y7532D01*
X1940D01*
X1920Y7522D02*
Y7502D01*
X1940Y7472D02*
X1950Y7462D01*
Y7442D01*
X1940Y7432D01*
X1930D01*
X1920Y7442D01*
X1910Y7432D01*
X1900D01*
X1890Y7442D01*
Y7462D01*
X1900Y7472D01*
X1910D01*
X1920Y7462D01*
X1930Y7472D01*
X1940D01*
X1920Y7462D02*
Y7442D01*
X2540Y7992D02*
X2480D01*
X2500D01*
X2540Y7952D01*
X2510Y7982D01*
X2480Y7952D01*
Y7932D02*
X2540D01*
Y7902D01*
X2530Y7892D01*
X2510D01*
X2500Y7902D01*
Y7932D01*
Y7912D02*
X2480Y7892D01*
Y7872D02*
Y7852D01*
Y7862D01*
X2540D01*
X2530Y7872D01*
X2540Y7782D02*
Y7822D01*
X2510D01*
X2520Y7802D01*
Y7792D01*
X2510Y7782D01*
X2490D01*
X2480Y7792D01*
Y7812D01*
X2490Y7822D01*
X2530Y7762D02*
X2540Y7752D01*
Y7732D01*
X2530Y7722D01*
X2520D01*
X2510Y7732D01*
Y7742D01*
Y7732D01*
X2500Y7722D01*
X2490D01*
X2480Y7732D01*
Y7752D01*
X2490Y7762D01*
X2530Y7702D02*
X2540Y7692D01*
Y7672D01*
X2530Y7662D01*
X2520D01*
X2510Y7672D01*
Y7682D01*
Y7672D01*
X2500Y7662D01*
X2490D01*
X2480Y7672D01*
Y7692D01*
X2490Y7702D01*
X2540Y7642D02*
Y7622D01*
Y7632D01*
X2480D01*
Y7642D01*
Y7622D01*
Y7592D02*
X2540D01*
Y7562D01*
X2530Y7552D01*
X2510D01*
X2500Y7562D01*
Y7592D01*
Y7572D02*
X2480Y7552D01*
Y7492D02*
Y7532D01*
X2520Y7492D01*
X2530D01*
X2540Y7502D01*
Y7522D01*
X2530Y7532D01*
X2480Y7432D02*
Y7472D01*
X2520Y7432D01*
X2530D01*
X2540Y7442D01*
Y7462D01*
X2530Y7472D01*
X4115Y7008D02*
X4055D01*
X4075D01*
X4115Y6968D01*
X4085Y6998D01*
X4055Y6968D01*
Y6948D02*
X4115D01*
Y6918D01*
X4105Y6908D01*
X4085D01*
X4075Y6918D01*
Y6948D01*
Y6928D02*
X4055Y6908D01*
Y6888D02*
Y6868D01*
Y6878D01*
X4115D01*
X4105Y6888D01*
X4115Y6798D02*
Y6838D01*
X4085D01*
X4095Y6818D01*
Y6808D01*
X4085Y6798D01*
X4065D01*
X4055Y6808D01*
Y6828D01*
X4065Y6838D01*
X4105Y6778D02*
X4115Y6768D01*
Y6748D01*
X4105Y6738D01*
X4095D01*
X4085Y6748D01*
Y6758D01*
Y6748D01*
X4075Y6738D01*
X4065D01*
X4055Y6748D01*
Y6768D01*
X4065Y6778D01*
X4105Y6718D02*
X4115Y6708D01*
Y6688D01*
X4105Y6678D01*
X4095D01*
X4085Y6688D01*
Y6698D01*
Y6688D01*
X4075Y6678D01*
X4065D01*
X4055Y6688D01*
Y6708D01*
X4065Y6718D01*
X4115Y6658D02*
Y6638D01*
Y6648D01*
X4055D01*
Y6658D01*
Y6638D01*
Y6608D02*
X4115D01*
Y6578D01*
X4105Y6568D01*
X4085D01*
X4075Y6578D01*
Y6608D01*
Y6588D02*
X4055Y6568D01*
Y6508D02*
Y6548D01*
X4095Y6508D01*
X4105D01*
X4115Y6518D01*
Y6538D01*
X4105Y6548D01*
X4055Y6448D02*
Y6488D01*
X4095Y6448D01*
X4105D01*
X4115Y6458D01*
Y6478D01*
X4105Y6488D01*
X4115Y5728D02*
X4055D01*
X4075D01*
X4115Y5688D01*
X4085Y5718D01*
X4055Y5688D01*
Y5668D02*
X4115D01*
Y5638D01*
X4105Y5628D01*
X4085D01*
X4075Y5638D01*
Y5668D01*
Y5648D02*
X4055Y5628D01*
Y5608D02*
Y5588D01*
Y5598D01*
X4115D01*
X4105Y5608D01*
X4115Y5518D02*
Y5558D01*
X4085D01*
X4095Y5538D01*
Y5528D01*
X4085Y5518D01*
X4065D01*
X4055Y5528D01*
Y5548D01*
X4065Y5558D01*
X4105Y5498D02*
X4115Y5488D01*
Y5468D01*
X4105Y5458D01*
X4095D01*
X4085Y5468D01*
Y5478D01*
Y5468D01*
X4075Y5458D01*
X4065D01*
X4055Y5468D01*
Y5488D01*
X4065Y5498D01*
X4105Y5438D02*
X4115Y5428D01*
Y5408D01*
X4105Y5398D01*
X4095D01*
X4085Y5408D01*
Y5418D01*
Y5408D01*
X4075Y5398D01*
X4065D01*
X4055Y5408D01*
Y5428D01*
X4065Y5438D01*
X4115Y5378D02*
Y5358D01*
Y5368D01*
X4055D01*
Y5378D01*
Y5358D01*
Y5328D02*
X4115D01*
Y5298D01*
X4105Y5288D01*
X4085D01*
X4075Y5298D01*
Y5328D01*
Y5308D02*
X4055Y5288D01*
Y5229D02*
Y5268D01*
X4095Y5229D01*
X4105D01*
X4115Y5239D01*
Y5258D01*
X4105Y5268D01*
X4055Y5169D02*
Y5209D01*
X4095Y5169D01*
X4105D01*
X4115Y5179D01*
Y5199D01*
X4105Y5209D01*
X3524Y7008D02*
X3464D01*
X3484D01*
X3524Y6968D01*
X3494Y6998D01*
X3464Y6968D01*
Y6948D02*
X3524D01*
Y6918D01*
X3514Y6908D01*
X3494D01*
X3484Y6918D01*
Y6948D01*
Y6928D02*
X3464Y6908D01*
Y6888D02*
Y6868D01*
Y6878D01*
X3524D01*
X3514Y6888D01*
X3524Y6798D02*
Y6838D01*
X3494D01*
X3504Y6818D01*
Y6808D01*
X3494Y6798D01*
X3474D01*
X3464Y6808D01*
Y6828D01*
X3474Y6838D01*
X3514Y6778D02*
X3524Y6768D01*
Y6748D01*
X3514Y6738D01*
X3504D01*
X3494Y6748D01*
Y6758D01*
Y6748D01*
X3484Y6738D01*
X3474D01*
X3464Y6748D01*
Y6768D01*
X3474Y6778D01*
X3514Y6718D02*
X3524Y6708D01*
Y6688D01*
X3514Y6678D01*
X3504D01*
X3494Y6688D01*
Y6698D01*
Y6688D01*
X3484Y6678D01*
X3474D01*
X3464Y6688D01*
Y6708D01*
X3474Y6718D01*
X3464Y6658D02*
X3504D01*
X3524Y6638D01*
X3504Y6618D01*
X3464D01*
X3494D01*
Y6658D01*
X3464Y6598D02*
X3524D01*
Y6568D01*
X3514Y6558D01*
X3494D01*
X3484Y6568D01*
Y6598D01*
X3524Y6498D02*
X3514Y6518D01*
X3494Y6538D01*
X3474D01*
X3464Y6528D01*
Y6508D01*
X3474Y6498D01*
X3484D01*
X3494Y6508D01*
Y6538D01*
X3524Y5728D02*
X3464D01*
X3484D01*
X3524Y5688D01*
X3494Y5718D01*
X3464Y5688D01*
Y5668D02*
X3524D01*
Y5638D01*
X3514Y5628D01*
X3494D01*
X3484Y5638D01*
Y5668D01*
Y5648D02*
X3464Y5628D01*
Y5608D02*
Y5588D01*
Y5598D01*
X3524D01*
X3514Y5608D01*
X3524Y5518D02*
Y5558D01*
X3494D01*
X3504Y5538D01*
Y5528D01*
X3494Y5518D01*
X3474D01*
X3464Y5528D01*
Y5548D01*
X3474Y5558D01*
X3514Y5498D02*
X3524Y5488D01*
Y5468D01*
X3514Y5458D01*
X3504D01*
X3494Y5468D01*
Y5478D01*
Y5468D01*
X3484Y5458D01*
X3474D01*
X3464Y5468D01*
Y5488D01*
X3474Y5498D01*
X3514Y5438D02*
X3524Y5428D01*
Y5408D01*
X3514Y5398D01*
X3504D01*
X3494Y5408D01*
Y5418D01*
Y5408D01*
X3484Y5398D01*
X3474D01*
X3464Y5408D01*
Y5428D01*
X3474Y5438D01*
X3464Y5378D02*
X3504D01*
X3524Y5358D01*
X3504Y5338D01*
X3464D01*
X3494D01*
Y5378D01*
X3464Y5318D02*
X3524D01*
Y5288D01*
X3514Y5278D01*
X3494D01*
X3484Y5288D01*
Y5318D01*
X3524Y5219D02*
Y5258D01*
X3494D01*
X3504Y5239D01*
Y5229D01*
X3494Y5219D01*
X3474D01*
X3464Y5229D01*
Y5249D01*
X3474Y5258D01*
X10808Y11693D02*
X10748D01*
X10768D01*
X10808Y11653D01*
X10778Y11683D01*
X10748Y11653D01*
Y11633D02*
X10808D01*
Y11603D01*
X10798Y11593D01*
X10778D01*
X10768Y11603D01*
Y11633D01*
Y11613D02*
X10748Y11593D01*
Y11573D02*
Y11553D01*
Y11563D01*
X10808D01*
X10798Y11573D01*
X10808Y11483D02*
Y11523D01*
X10778D01*
X10788Y11503D01*
Y11493D01*
X10778Y11483D01*
X10758D01*
X10748Y11493D01*
Y11513D01*
X10758Y11523D01*
X10798Y11463D02*
X10808Y11453D01*
Y11433D01*
X10798Y11423D01*
X10788D01*
X10778Y11433D01*
Y11443D01*
Y11433D01*
X10768Y11423D01*
X10758D01*
X10748Y11433D01*
Y11453D01*
X10758Y11463D01*
X10798Y11403D02*
X10808Y11393D01*
Y11373D01*
X10798Y11363D01*
X10788D01*
X10778Y11373D01*
Y11383D01*
Y11373D01*
X10768Y11363D01*
X10758D01*
X10748Y11373D01*
Y11393D01*
X10758Y11403D01*
X10808Y11343D02*
X10748D01*
Y11303D01*
Y11283D02*
X10808D01*
Y11253D01*
X10798Y11243D01*
X10778D01*
X10768Y11253D01*
Y11283D01*
X10798Y11223D02*
X10808Y11213D01*
Y11193D01*
X10798Y11183D01*
X10788D01*
X10778Y11193D01*
X10768Y11183D01*
X10758D01*
X10748Y11193D01*
Y11213D01*
X10758Y11223D01*
X10768D01*
X10778Y11213D01*
X10788Y11223D01*
X10798D01*
X10778Y11213D02*
Y11193D01*
X10217Y8346D02*
X10157D01*
X10177D01*
X10217Y8306D01*
X10187Y8336D01*
X10157Y8306D01*
Y8286D02*
X10217D01*
Y8256D01*
X10207Y8246D01*
X10187D01*
X10177Y8256D01*
Y8286D01*
Y8266D02*
X10157Y8246D01*
Y8226D02*
Y8207D01*
Y8216D01*
X10217D01*
X10207Y8226D01*
X10217Y8137D02*
Y8177D01*
X10187D01*
X10197Y8157D01*
Y8147D01*
X10187Y8137D01*
X10167D01*
X10157Y8147D01*
Y8167D01*
X10167Y8177D01*
X10207Y8117D02*
X10217Y8107D01*
Y8087D01*
X10207Y8077D01*
X10197D01*
X10187Y8087D01*
Y8097D01*
Y8087D01*
X10177Y8077D01*
X10167D01*
X10157Y8087D01*
Y8107D01*
X10167Y8117D01*
X10207Y8057D02*
X10217Y8047D01*
Y8027D01*
X10207Y8017D01*
X10197D01*
X10187Y8027D01*
Y8037D01*
Y8027D01*
X10177Y8017D01*
X10167D01*
X10157Y8027D01*
Y8047D01*
X10167Y8057D01*
X10217Y7997D02*
X10157D01*
Y7957D01*
Y7937D02*
X10217D01*
X10157Y7897D01*
X10217D01*
X10157Y7877D02*
Y7857D01*
Y7867D01*
X10217D01*
X10207Y7877D01*
X1458Y8051D02*
X1398D01*
X1418D01*
X1458Y8011D01*
X1428Y8041D01*
X1398Y8011D01*
Y7991D02*
X1458D01*
Y7961D01*
X1448Y7951D01*
X1428D01*
X1418Y7961D01*
Y7991D01*
Y7971D02*
X1398Y7951D01*
Y7931D02*
Y7911D01*
Y7921D01*
X1458D01*
X1448Y7931D01*
X1458Y7841D02*
Y7881D01*
X1428D01*
X1438Y7861D01*
Y7851D01*
X1428Y7841D01*
X1408D01*
X1398Y7851D01*
Y7871D01*
X1408Y7881D01*
X1448Y7821D02*
X1458Y7811D01*
Y7791D01*
X1448Y7781D01*
X1438D01*
X1428Y7791D01*
Y7801D01*
Y7791D01*
X1418Y7781D01*
X1408D01*
X1398Y7791D01*
Y7811D01*
X1408Y7821D01*
X1448Y7761D02*
X1458Y7751D01*
Y7731D01*
X1448Y7721D01*
X1438D01*
X1428Y7731D01*
Y7741D01*
Y7731D01*
X1418Y7721D01*
X1408D01*
X1398Y7731D01*
Y7751D01*
X1408Y7761D01*
X1458Y7701D02*
Y7661D01*
Y7681D01*
X1398D01*
Y7641D02*
X1458D01*
X1438Y7621D01*
X1458Y7601D01*
X1398D01*
X1448Y7581D02*
X1458Y7571D01*
Y7551D01*
X1448Y7541D01*
X1438D01*
X1428Y7551D01*
X1418Y7541D01*
X1408D01*
X1398Y7551D01*
Y7571D01*
X1408Y7581D01*
X1418D01*
X1428Y7571D01*
X1438Y7581D01*
X1448D01*
X1428Y7571D02*
Y7551D01*
X1261Y6378D02*
X1201D01*
X1221D01*
X1261Y6338D01*
X1231Y6368D01*
X1201Y6338D01*
Y6318D02*
X1261D01*
Y6288D01*
X1251Y6278D01*
X1231D01*
X1221Y6288D01*
Y6318D01*
Y6298D02*
X1201Y6278D01*
X1261Y6218D02*
Y6258D01*
X1231D01*
X1241Y6238D01*
Y6228D01*
X1231Y6218D01*
X1211D01*
X1201Y6228D01*
Y6248D01*
X1211Y6258D01*
X1251Y6198D02*
X1261Y6188D01*
Y6168D01*
X1251Y6158D01*
X1241D01*
X1231Y6168D01*
Y6178D01*
Y6168D01*
X1221Y6158D01*
X1211D01*
X1201Y6168D01*
Y6188D01*
X1211Y6198D01*
X1201Y6138D02*
Y6118D01*
Y6128D01*
X1261D01*
X1251Y6138D01*
X1261Y6088D02*
Y6048D01*
Y6068D01*
X1201D01*
Y6028D02*
X1261D01*
X1241Y6008D01*
X1261Y5988D01*
X1201D01*
Y5928D02*
Y5968D01*
X1241Y5928D01*
X1251D01*
X1261Y5938D01*
Y5958D01*
X1251Y5968D01*
X4902Y8248D02*
X4842D01*
X4862D01*
X4902Y8208D01*
X4872Y8238D01*
X4842Y8208D01*
X4902Y8148D02*
Y8188D01*
X4872D01*
X4882Y8168D01*
Y8158D01*
X4872Y8148D01*
X4852D01*
X4842Y8158D01*
Y8178D01*
X4852Y8188D01*
X4902Y8088D02*
Y8128D01*
X4872D01*
X4882Y8108D01*
Y8098D01*
X4872Y8088D01*
X4852D01*
X4842Y8098D01*
Y8118D01*
X4852Y8128D01*
X4902Y8028D02*
Y8068D01*
X4872D01*
X4882Y8048D01*
Y8038D01*
X4872Y8028D01*
X4852D01*
X4842Y8038D01*
Y8058D01*
X4852Y8068D01*
X4902Y8008D02*
X4842D01*
Y7968D01*
X4902Y7948D02*
X4842D01*
Y7908D01*
Y7888D02*
Y7868D01*
Y7878D01*
X4902D01*
X4892Y7888D01*
X867Y6378D02*
X807D01*
X827D01*
X867Y6338D01*
X837Y6368D01*
X807Y6338D01*
Y6318D02*
X867D01*
Y6288D01*
X857Y6278D01*
X837D01*
X827Y6288D01*
Y6318D01*
Y6298D02*
X807Y6278D01*
Y6258D02*
Y6238D01*
Y6248D01*
X867D01*
X857Y6258D01*
X867Y6168D02*
Y6208D01*
X837D01*
X847Y6188D01*
Y6178D01*
X837Y6168D01*
X817D01*
X807Y6178D01*
Y6198D01*
X817Y6208D01*
X857Y6148D02*
X867Y6138D01*
Y6118D01*
X857Y6108D01*
X847D01*
X837Y6118D01*
Y6128D01*
Y6118D01*
X827Y6108D01*
X817D01*
X807Y6118D01*
Y6138D01*
X817Y6148D01*
X857Y6088D02*
X867Y6078D01*
Y6058D01*
X857Y6048D01*
X847D01*
X837Y6058D01*
Y6068D01*
Y6058D01*
X827Y6048D01*
X817D01*
X807Y6058D01*
Y6078D01*
X817Y6088D01*
X867Y6028D02*
X807D01*
Y5988D01*
X867Y5968D02*
Y5948D01*
Y5958D01*
X807D01*
Y5968D01*
Y5948D01*
Y5918D02*
Y5898D01*
Y5908D01*
X867D01*
X857Y5918D01*
X11398Y11693D02*
X11339D01*
X11358D01*
X11398Y11653D01*
X11368Y11683D01*
X11339Y11653D01*
Y11633D02*
X11398D01*
Y11603D01*
X11388Y11593D01*
X11368D01*
X11358Y11603D01*
Y11633D01*
Y11613D02*
X11339Y11593D01*
X11398Y11533D02*
Y11573D01*
X11368D01*
X11378Y11553D01*
Y11543D01*
X11368Y11533D01*
X11349D01*
X11339Y11543D01*
Y11563D01*
X11349Y11573D01*
X11388Y11513D02*
X11398Y11503D01*
Y11483D01*
X11388Y11473D01*
X11378D01*
X11368Y11483D01*
Y11493D01*
Y11483D01*
X11358Y11473D01*
X11349D01*
X11339Y11483D01*
Y11503D01*
X11349Y11513D01*
X11339Y11453D02*
Y11433D01*
Y11443D01*
X11398D01*
X11388Y11453D01*
X11398Y11403D02*
X11339D01*
Y11363D01*
Y11343D02*
X11398D01*
X11339Y11303D01*
X11398D01*
X11339Y11283D02*
Y11263D01*
Y11273D01*
X11398D01*
X11388Y11283D01*
X11398Y9626D02*
X11339D01*
X11358D01*
X11398Y9586D01*
X11368Y9616D01*
X11339Y9586D01*
Y9566D02*
X11398D01*
Y9536D01*
X11388Y9526D01*
X11368D01*
X11358Y9536D01*
Y9566D01*
Y9546D02*
X11339Y9526D01*
Y9506D02*
Y9486D01*
Y9496D01*
X11398D01*
X11388Y9506D01*
X11398Y9416D02*
Y9456D01*
X11368D01*
X11378Y9436D01*
Y9426D01*
X11368Y9416D01*
X11349D01*
X11339Y9426D01*
Y9446D01*
X11349Y9456D01*
X11388Y9396D02*
X11398Y9386D01*
Y9366D01*
X11388Y9356D01*
X11378D01*
X11368Y9366D01*
Y9376D01*
Y9366D01*
X11358Y9356D01*
X11349D01*
X11339Y9366D01*
Y9386D01*
X11349Y9396D01*
X11388Y9336D02*
X11398Y9326D01*
Y9306D01*
X11388Y9296D01*
X11378D01*
X11368Y9306D01*
Y9316D01*
Y9306D01*
X11358Y9296D01*
X11349D01*
X11339Y9306D01*
Y9326D01*
X11349Y9336D01*
X11398Y9276D02*
X11339D01*
Y9236D01*
X11398Y9176D02*
Y9216D01*
X11339D01*
Y9176D01*
X11368Y9216D02*
Y9196D01*
X11339Y9156D02*
Y9136D01*
Y9146D01*
X11398D01*
X11388Y9156D01*
X7757Y7461D02*
X7697D01*
X7717D01*
X7757Y7421D01*
X7727Y7451D01*
X7697Y7421D01*
Y7401D02*
X7757D01*
Y7371D01*
X7747Y7361D01*
X7727D01*
X7717Y7371D01*
Y7401D01*
Y7381D02*
X7697Y7361D01*
Y7341D02*
Y7321D01*
Y7331D01*
X7757D01*
X7747Y7341D01*
X7757Y7251D02*
Y7291D01*
X7727D01*
X7737Y7271D01*
Y7261D01*
X7727Y7251D01*
X7707D01*
X7697Y7261D01*
Y7281D01*
X7707Y7291D01*
X7747Y7231D02*
X7757Y7221D01*
Y7201D01*
X7747Y7191D01*
X7737D01*
X7727Y7201D01*
Y7211D01*
Y7201D01*
X7717Y7191D01*
X7707D01*
X7697Y7201D01*
Y7221D01*
X7707Y7231D01*
X7747Y7171D02*
X7757Y7161D01*
Y7141D01*
X7747Y7131D01*
X7737D01*
X7727Y7141D01*
Y7151D01*
Y7141D01*
X7717Y7131D01*
X7707D01*
X7697Y7141D01*
Y7161D01*
X7707Y7171D01*
X7757Y7111D02*
X7697D01*
Y7071D01*
Y7051D02*
X7737D01*
X7757Y7031D01*
X7737Y7011D01*
X7697D01*
X7727D01*
Y7051D01*
X7747Y6991D02*
X7757Y6981D01*
Y6961D01*
X7747Y6951D01*
X7737D01*
X7727Y6961D01*
Y6971D01*
Y6961D01*
X7717Y6951D01*
X7707D01*
X7697Y6961D01*
Y6981D01*
X7707Y6991D01*
X1064Y5591D02*
X1004D01*
X1024D01*
X1064Y5551D01*
X1034Y5581D01*
X1004Y5551D01*
Y5531D02*
X1064D01*
Y5501D01*
X1054Y5491D01*
X1034D01*
X1024Y5501D01*
Y5531D01*
Y5511D02*
X1004Y5491D01*
Y5471D02*
Y5451D01*
Y5461D01*
X1064D01*
X1054Y5471D01*
Y5421D02*
X1064Y5411D01*
Y5391D01*
X1054Y5381D01*
X1044D01*
X1034Y5391D01*
X1024Y5381D01*
X1014D01*
X1004Y5391D01*
Y5411D01*
X1014Y5421D01*
X1024D01*
X1034Y5411D01*
X1044Y5421D01*
X1054D01*
X1034Y5411D02*
Y5391D01*
X1004Y5361D02*
Y5341D01*
Y5351D01*
X1064D01*
X1054Y5361D01*
Y5311D02*
X1064Y5301D01*
Y5281D01*
X1054Y5271D01*
X1014D01*
X1004Y5281D01*
Y5301D01*
X1014Y5311D01*
X1054D01*
Y5211D02*
X1064Y5221D01*
Y5241D01*
X1054Y5251D01*
X1014D01*
X1004Y5241D01*
Y5221D01*
X1014Y5211D01*
X1034D01*
Y5231D01*
X1064Y5151D02*
Y5191D01*
X1034D01*
Y5171D01*
Y5191D01*
X1004D01*
X1054Y5131D02*
X1064Y5121D01*
Y5101D01*
X1054Y5091D01*
X1044D01*
X1034Y5101D01*
X1024Y5091D01*
X1014D01*
X1004Y5101D01*
Y5121D01*
X1014Y5131D01*
X1024D01*
X1034Y5121D01*
X1044Y5131D01*
X1054D01*
X1034Y5121D02*
Y5101D01*
X1004Y5041D02*
X1064D01*
X1034Y5071D01*
Y5031D01*
X965Y8051D02*
X905D01*
X925D01*
X965Y8011D01*
X935Y8041D01*
X905Y8011D01*
Y7991D02*
X965D01*
Y7961D01*
X955Y7951D01*
X935D01*
X925Y7961D01*
Y7991D01*
Y7971D02*
X905Y7951D01*
X965Y7891D02*
Y7931D01*
X935D01*
X945Y7911D01*
Y7901D01*
X935Y7891D01*
X915D01*
X905Y7901D01*
Y7921D01*
X915Y7931D01*
X965Y7831D02*
Y7871D01*
X935D01*
X945Y7851D01*
Y7841D01*
X935Y7831D01*
X915D01*
X905Y7841D01*
Y7861D01*
X915Y7871D01*
X965Y7771D02*
X955Y7791D01*
X935Y7811D01*
X915D01*
X905Y7801D01*
Y7781D01*
X915Y7771D01*
X925D01*
X935Y7781D01*
Y7811D01*
X905Y7751D02*
X965D01*
Y7721D01*
X955Y7711D01*
X935D01*
X925Y7721D01*
Y7751D01*
Y7731D02*
X905Y7711D01*
X965Y7691D02*
Y7651D01*
Y7671D01*
X905D01*
Y7601D02*
X965D01*
X935Y7631D01*
Y7591D01*
X905Y7571D02*
X945D01*
X965Y7551D01*
X945Y7531D01*
X905D01*
X935D01*
Y7571D01*
X5296Y8248D02*
X5236D01*
X5256D01*
X5296Y8208D01*
X5266Y8238D01*
X5236Y8208D01*
Y8188D02*
X5296D01*
Y8158D01*
X5286Y8148D01*
X5266D01*
X5256Y8158D01*
Y8188D01*
Y8168D02*
X5236Y8148D01*
Y8128D02*
Y8108D01*
Y8118D01*
X5296D01*
X5286Y8128D01*
X5296Y8038D02*
Y8078D01*
X5266D01*
X5276Y8058D01*
Y8048D01*
X5266Y8038D01*
X5246D01*
X5236Y8048D01*
Y8068D01*
X5246Y8078D01*
X5286Y8018D02*
X5296Y8008D01*
Y7988D01*
X5286Y7978D01*
X5276D01*
X5266Y7988D01*
Y7998D01*
Y7988D01*
X5256Y7978D01*
X5246D01*
X5236Y7988D01*
Y8008D01*
X5246Y8018D01*
X5286Y7958D02*
X5296Y7948D01*
Y7928D01*
X5286Y7918D01*
X5276D01*
X5266Y7928D01*
Y7938D01*
Y7928D01*
X5256Y7918D01*
X5246D01*
X5236Y7928D01*
Y7948D01*
X5246Y7958D01*
X5296Y7898D02*
X5236D01*
Y7858D01*
Y7838D02*
X5296D01*
X5236Y7798D01*
X5296D01*
X5236Y7778D02*
Y7758D01*
Y7768D01*
X5296D01*
X5286Y7778D01*
X8446Y12677D02*
X8386D01*
X8406D01*
X8446Y12637D01*
X8416Y12667D01*
X8386Y12637D01*
Y12617D02*
X8446D01*
Y12587D01*
X8436Y12577D01*
X8416D01*
X8406Y12587D01*
Y12617D01*
Y12597D02*
X8386Y12577D01*
Y12557D02*
Y12537D01*
Y12547D01*
X8446D01*
X8436Y12557D01*
X8446Y12467D02*
Y12507D01*
X8416D01*
X8426Y12487D01*
Y12477D01*
X8416Y12467D01*
X8396D01*
X8386Y12477D01*
Y12497D01*
X8396Y12507D01*
X8436Y12447D02*
X8446Y12437D01*
Y12417D01*
X8436Y12407D01*
X8426D01*
X8416Y12417D01*
Y12427D01*
Y12417D01*
X8406Y12407D01*
X8396D01*
X8386Y12417D01*
Y12437D01*
X8396Y12447D01*
X8436Y12387D02*
X8446Y12377D01*
Y12357D01*
X8436Y12347D01*
X8426D01*
X8416Y12357D01*
Y12367D01*
Y12357D01*
X8406Y12347D01*
X8396D01*
X8386Y12357D01*
Y12377D01*
X8396Y12387D01*
X8446Y12327D02*
Y12287D01*
Y12307D01*
X8386D01*
Y12267D02*
X8446D01*
X8426Y12247D01*
X8446Y12227D01*
X8386D01*
Y12167D02*
Y12207D01*
X8426Y12167D01*
X8436D01*
X8446Y12177D01*
Y12197D01*
X8436Y12207D01*
X9627Y12776D02*
X9567D01*
X9587D01*
X9627Y12736D01*
X9597Y12766D01*
X9567Y12736D01*
Y12716D02*
X9627D01*
Y12686D01*
X9617Y12676D01*
X9597D01*
X9587Y12686D01*
Y12716D01*
Y12696D02*
X9567Y12676D01*
Y12656D02*
Y12636D01*
Y12646D01*
X9627D01*
X9617Y12656D01*
X9627Y12566D02*
Y12606D01*
X9597D01*
X9607Y12586D01*
Y12576D01*
X9597Y12566D01*
X9577D01*
X9567Y12576D01*
Y12596D01*
X9577Y12606D01*
X9617Y12546D02*
X9627Y12536D01*
Y12516D01*
X9617Y12506D01*
X9607D01*
X9597Y12516D01*
Y12526D01*
Y12516D01*
X9587Y12506D01*
X9577D01*
X9567Y12516D01*
Y12536D01*
X9577Y12546D01*
X9617Y12486D02*
X9627Y12476D01*
Y12456D01*
X9617Y12446D01*
X9607D01*
X9597Y12456D01*
Y12466D01*
Y12456D01*
X9587Y12446D01*
X9577D01*
X9567Y12456D01*
Y12476D01*
X9577Y12486D01*
X9627Y12426D02*
Y12386D01*
Y12406D01*
X9567D01*
Y12366D02*
X9627D01*
X9607Y12346D01*
X9627Y12326D01*
X9567D01*
X9577Y12306D02*
X9567Y12296D01*
Y12276D01*
X9577Y12266D01*
X9617D01*
X9627Y12276D01*
Y12296D01*
X9617Y12306D01*
X9607D01*
X9597Y12296D01*
Y12266D01*
X473Y8051D02*
X413D01*
X433D01*
X473Y8011D01*
X443Y8041D01*
X413Y8011D01*
Y7991D02*
X473D01*
Y7961D01*
X463Y7951D01*
X443D01*
X433Y7961D01*
Y7991D01*
Y7971D02*
X413Y7951D01*
Y7931D02*
Y7911D01*
Y7921D01*
X473D01*
X463Y7931D01*
X473Y7841D02*
Y7881D01*
X443D01*
X453Y7861D01*
Y7851D01*
X443Y7841D01*
X423D01*
X413Y7851D01*
Y7871D01*
X423Y7881D01*
X463Y7821D02*
X473Y7811D01*
Y7791D01*
X463Y7781D01*
X453D01*
X443Y7791D01*
Y7801D01*
Y7791D01*
X433Y7781D01*
X423D01*
X413Y7791D01*
Y7811D01*
X423Y7821D01*
X463Y7761D02*
X473Y7751D01*
Y7731D01*
X463Y7721D01*
X453D01*
X443Y7731D01*
Y7741D01*
Y7731D01*
X433Y7721D01*
X423D01*
X413Y7731D01*
Y7751D01*
X423Y7761D01*
X473Y7701D02*
Y7681D01*
Y7691D01*
X413D01*
Y7701D01*
Y7681D01*
X473Y7611D02*
Y7651D01*
X413D01*
Y7611D01*
X443Y7651D02*
Y7631D01*
X413Y7591D02*
Y7571D01*
Y7581D01*
X473D01*
X463Y7591D01*
Y7541D02*
X473Y7531D01*
Y7511D01*
X463Y7501D01*
X423D01*
X413Y7511D01*
Y7531D01*
X423Y7541D01*
X463D01*
X10808Y12677D02*
X10748D01*
X10768D01*
X10808Y12637D01*
X10778Y12667D01*
X10748Y12637D01*
Y12617D02*
X10808D01*
Y12587D01*
X10798Y12577D01*
X10778D01*
X10768Y12587D01*
Y12617D01*
Y12597D02*
X10748Y12577D01*
Y12557D02*
Y12537D01*
Y12547D01*
X10808D01*
X10798Y12557D01*
X10808Y12467D02*
Y12507D01*
X10778D01*
X10788Y12487D01*
Y12477D01*
X10778Y12467D01*
X10758D01*
X10748Y12477D01*
Y12497D01*
X10758Y12507D01*
X10798Y12447D02*
X10808Y12437D01*
Y12417D01*
X10798Y12407D01*
X10788D01*
X10778Y12417D01*
Y12427D01*
Y12417D01*
X10768Y12407D01*
X10758D01*
X10748Y12417D01*
Y12437D01*
X10758Y12447D01*
X10798Y12387D02*
X10808Y12377D01*
Y12357D01*
X10798Y12347D01*
X10788D01*
X10778Y12357D01*
Y12367D01*
Y12357D01*
X10768Y12347D01*
X10758D01*
X10748Y12357D01*
Y12377D01*
X10758Y12387D01*
X10808Y12327D02*
X10748D01*
Y12287D01*
Y12267D02*
X10808D01*
X10748Y12227D01*
X10808D01*
X10748Y12207D02*
Y12187D01*
Y12197D01*
X10808D01*
X10798Y12207D01*
X11398Y2343D02*
X11339D01*
X11358D01*
X11398Y2303D01*
X11368Y2333D01*
X11339Y2303D01*
Y2283D02*
X11398D01*
Y2253D01*
X11388Y2243D01*
X11368D01*
X11358Y2253D01*
Y2283D01*
Y2263D02*
X11339Y2243D01*
Y2223D02*
Y2203D01*
Y2213D01*
X11398D01*
X11388Y2223D01*
X11398Y2133D02*
Y2173D01*
X11368D01*
X11378Y2153D01*
Y2143D01*
X11368Y2133D01*
X11349D01*
X11339Y2143D01*
Y2163D01*
X11349Y2173D01*
X11388Y2113D02*
X11398Y2103D01*
Y2083D01*
X11388Y2073D01*
X11378D01*
X11368Y2083D01*
Y2093D01*
Y2083D01*
X11358Y2073D01*
X11349D01*
X11339Y2083D01*
Y2103D01*
X11349Y2113D01*
X11388Y2053D02*
X11398Y2043D01*
Y2023D01*
X11388Y2013D01*
X11378D01*
X11368Y2023D01*
Y2033D01*
Y2023D01*
X11358Y2013D01*
X11349D01*
X11339Y2023D01*
Y2043D01*
X11349Y2053D01*
X11398Y1993D02*
Y1953D01*
Y1973D01*
X11339D01*
Y1933D02*
X11398D01*
X11378Y1913D01*
X11398Y1893D01*
X11339D01*
Y1833D02*
Y1873D01*
X11378Y1833D01*
X11388D01*
X11398Y1843D01*
Y1863D01*
X11388Y1873D01*
X8446Y11890D02*
X8386D01*
X8406D01*
X8446Y11850D01*
X8416Y11880D01*
X8386Y11850D01*
Y11830D02*
X8446D01*
Y11800D01*
X8436Y11790D01*
X8416D01*
X8406Y11800D01*
Y11830D01*
Y11810D02*
X8386Y11790D01*
Y11770D02*
Y11750D01*
Y11760D01*
X8446D01*
X8436Y11770D01*
X8446Y11680D02*
Y11720D01*
X8416D01*
X8426Y11700D01*
Y11690D01*
X8416Y11680D01*
X8396D01*
X8386Y11690D01*
Y11710D01*
X8396Y11720D01*
X8436Y11660D02*
X8446Y11650D01*
Y11630D01*
X8436Y11620D01*
X8426D01*
X8416Y11630D01*
Y11640D01*
Y11630D01*
X8406Y11620D01*
X8396D01*
X8386Y11630D01*
Y11650D01*
X8396Y11660D01*
X8436Y11600D02*
X8446Y11590D01*
Y11570D01*
X8436Y11560D01*
X8426D01*
X8416Y11570D01*
Y11580D01*
Y11570D01*
X8406Y11560D01*
X8396D01*
X8386Y11570D01*
Y11590D01*
X8396Y11600D01*
X8446Y11540D02*
Y11500D01*
Y11520D01*
X8386D01*
Y11480D02*
X8446D01*
X8426Y11460D01*
X8446Y11440D01*
X8386D01*
Y11380D02*
Y11420D01*
X8426Y11380D01*
X8436D01*
X8446Y11390D01*
Y11410D01*
X8436Y11420D01*
X9036Y12677D02*
X8976D01*
X8996D01*
X9036Y12637D01*
X9006Y12667D01*
X8976Y12637D01*
X9036Y12577D02*
Y12617D01*
X9006D01*
X9016Y12597D01*
Y12587D01*
X9006Y12577D01*
X8986D01*
X8976Y12587D01*
Y12607D01*
X8986Y12617D01*
X9036Y12517D02*
Y12557D01*
X9006D01*
X9016Y12537D01*
Y12527D01*
X9006Y12517D01*
X8986D01*
X8976Y12527D01*
Y12547D01*
X8986Y12557D01*
X9036Y12457D02*
Y12497D01*
X9006D01*
X9016Y12477D01*
Y12467D01*
X9006Y12457D01*
X8986D01*
X8976Y12467D01*
Y12487D01*
X8986Y12497D01*
X9036Y12437D02*
X8976D01*
Y12397D01*
X9036Y12377D02*
X8976D01*
Y12337D01*
Y12317D02*
Y12297D01*
Y12307D01*
X9036D01*
X9026Y12317D01*
X10217Y11890D02*
X10157D01*
X10177D01*
X10217Y11850D01*
X10187Y11880D01*
X10157Y11850D01*
Y11830D02*
X10217D01*
Y11800D01*
X10207Y11790D01*
X10187D01*
X10177Y11800D01*
Y11830D01*
Y11810D02*
X10157Y11790D01*
Y11770D02*
Y11750D01*
Y11760D01*
X10217D01*
X10207Y11770D01*
X10217Y11680D02*
Y11720D01*
X10187D01*
X10197Y11700D01*
Y11690D01*
X10187Y11680D01*
X10167D01*
X10157Y11690D01*
Y11710D01*
X10167Y11720D01*
X10207Y11660D02*
X10217Y11650D01*
Y11630D01*
X10207Y11620D01*
X10197D01*
X10187Y11630D01*
Y11640D01*
Y11630D01*
X10177Y11620D01*
X10167D01*
X10157Y11630D01*
Y11650D01*
X10167Y11660D01*
X10207Y11600D02*
X10217Y11590D01*
Y11570D01*
X10207Y11560D01*
X10197D01*
X10187Y11570D01*
Y11580D01*
Y11570D01*
X10177Y11560D01*
X10167D01*
X10157Y11570D01*
Y11590D01*
X10167Y11600D01*
X10217Y11540D02*
X10157D01*
Y11500D01*
X10217Y11480D02*
Y11460D01*
Y11470D01*
X10157D01*
Y11480D01*
Y11460D01*
Y11430D02*
Y11410D01*
Y11420D01*
X10217D01*
X10207Y11430D01*
X1162Y7165D02*
X1102D01*
X1122D01*
X1162Y7125D01*
X1132Y7155D01*
X1102Y7125D01*
Y7105D02*
X1162D01*
Y7075D01*
X1152Y7065D01*
X1132D01*
X1122Y7075D01*
Y7105D01*
Y7085D02*
X1102Y7065D01*
Y7045D02*
Y7025D01*
Y7035D01*
X1162D01*
X1152Y7045D01*
X1162Y6955D02*
Y6995D01*
X1132D01*
X1142Y6975D01*
Y6965D01*
X1132Y6955D01*
X1112D01*
X1102Y6965D01*
Y6985D01*
X1112Y6995D01*
X1152Y6935D02*
X1162Y6925D01*
Y6905D01*
X1152Y6895D01*
X1142D01*
X1132Y6905D01*
Y6915D01*
Y6905D01*
X1122Y6895D01*
X1112D01*
X1102Y6905D01*
Y6925D01*
X1112Y6935D01*
X1152Y6875D02*
X1162Y6865D01*
Y6845D01*
X1152Y6835D01*
X1142D01*
X1132Y6845D01*
Y6855D01*
Y6845D01*
X1122Y6835D01*
X1112D01*
X1102Y6845D01*
Y6865D01*
X1112Y6875D01*
X1162Y6815D02*
X1102D01*
Y6775D01*
Y6755D02*
X1142D01*
X1162Y6735D01*
X1142Y6715D01*
X1102D01*
X1132D01*
Y6755D01*
X1102Y6696D02*
Y6676D01*
Y6686D01*
X1162D01*
X1152Y6696D01*
X9627Y11890D02*
X9567D01*
X9587D01*
X9627Y11850D01*
X9597Y11880D01*
X9567Y11850D01*
Y11830D02*
X9627D01*
Y11800D01*
X9617Y11790D01*
X9597D01*
X9587Y11800D01*
Y11830D01*
Y11810D02*
X9567Y11790D01*
Y11770D02*
Y11750D01*
Y11760D01*
X9627D01*
X9617Y11770D01*
X9627Y11680D02*
Y11720D01*
X9597D01*
X9607Y11700D01*
Y11690D01*
X9597Y11680D01*
X9577D01*
X9567Y11690D01*
Y11710D01*
X9577Y11720D01*
X9617Y11660D02*
X9627Y11650D01*
Y11630D01*
X9617Y11620D01*
X9607D01*
X9597Y11630D01*
Y11640D01*
Y11630D01*
X9587Y11620D01*
X9577D01*
X9567Y11630D01*
Y11650D01*
X9577Y11660D01*
X9617Y11600D02*
X9627Y11590D01*
Y11570D01*
X9617Y11560D01*
X9607D01*
X9597Y11570D01*
Y11580D01*
Y11570D01*
X9587Y11560D01*
X9577D01*
X9567Y11570D01*
Y11590D01*
X9577Y11600D01*
X9627Y11540D02*
Y11500D01*
Y11520D01*
X9567D01*
Y11480D02*
X9627D01*
X9607Y11460D01*
X9627Y11440D01*
X9567D01*
Y11380D02*
Y11420D01*
X9607Y11380D01*
X9617D01*
X9627Y11390D01*
Y11410D01*
X9617Y11420D01*
X9292Y10856D02*
X9232D01*
X9252D01*
X9292Y10816D01*
X9262Y10846D01*
X9232Y10816D01*
Y10796D02*
Y10776D01*
Y10786D01*
X9292D01*
X9282Y10796D01*
X9292Y10707D02*
Y10746D01*
X9262D01*
X9272Y10726D01*
Y10717D01*
X9262Y10707D01*
X9242D01*
X9232Y10717D01*
Y10736D01*
X9242Y10746D01*
X9292Y10647D02*
Y10687D01*
X9262D01*
X9272Y10667D01*
Y10657D01*
X9262Y10647D01*
X9242D01*
X9232Y10657D01*
Y10677D01*
X9242Y10687D01*
X9292Y10627D02*
Y10607D01*
Y10617D01*
X9232D01*
Y10627D01*
Y10607D01*
X9292Y10577D02*
X9232D01*
Y10547D01*
X9242Y10537D01*
X9282D01*
X9292Y10547D01*
Y10577D01*
X9282Y10517D02*
X9292Y10507D01*
Y10487D01*
X9282Y10477D01*
X9272D01*
X9262Y10487D01*
Y10497D01*
Y10487D01*
X9252Y10477D01*
X9242D01*
X9232Y10487D01*
Y10507D01*
X9242Y10517D01*
X8603Y7076D02*
Y7116D01*
X8573D01*
X8583Y7096D01*
Y7086D01*
X8573Y7076D01*
X8553D01*
X8543Y7086D01*
Y7106D01*
X8553Y7116D01*
X8593Y7056D02*
X8603Y7046D01*
Y7026D01*
X8593Y7016D01*
X8583D01*
X8573Y7026D01*
X8563Y7016D01*
X8553D01*
X8543Y7026D01*
Y7046D01*
X8553Y7056D01*
X8563D01*
X8573Y7046D01*
X8583Y7056D01*
X8593D01*
X8573Y7046D02*
Y7026D01*
X8593Y6996D02*
X8603Y6986D01*
Y6966D01*
X8593Y6956D01*
X8553D01*
X8543Y6966D01*
Y6986D01*
X8553Y6996D01*
X8593D01*
X8603Y6936D02*
X8563D01*
X8543Y6916D01*
X8563Y6896D01*
X8603D01*
Y6876D02*
Y6856D01*
Y6866D01*
X8543D01*
Y6876D01*
Y6856D01*
X8603Y6786D02*
Y6826D01*
X8573D01*
X8583Y6806D01*
Y6796D01*
X8573Y6786D01*
X8553D01*
X8543Y6796D01*
Y6816D01*
X8553Y6826D01*
X8593Y6766D02*
X8603Y6756D01*
Y6736D01*
X8593Y6726D01*
X8583D01*
X8573Y6736D01*
Y6746D01*
Y6736D01*
X8563Y6726D01*
X8553D01*
X8543Y6736D01*
Y6756D01*
X8553Y6766D01*
X9784Y5837D02*
X9724D01*
X9744D01*
X9784Y5797D01*
X9754Y5827D01*
X9724Y5797D01*
Y5777D02*
X9784D01*
Y5747D01*
X9774Y5737D01*
X9754D01*
X9744Y5747D01*
Y5777D01*
Y5757D02*
X9724Y5737D01*
X9784Y5677D02*
Y5717D01*
X9754D01*
X9764Y5697D01*
Y5687D01*
X9754Y5677D01*
X9734D01*
X9724Y5687D01*
Y5707D01*
X9734Y5717D01*
X9724Y5657D02*
Y5637D01*
Y5647D01*
X9784D01*
X9774Y5657D01*
X9724Y5567D02*
Y5607D01*
X9764Y5567D01*
X9774D01*
X9784Y5577D01*
Y5597D01*
X9774Y5607D01*
X9784Y5547D02*
X9744D01*
X9724Y5527D01*
X9744Y5507D01*
X9784D01*
Y5487D02*
Y5467D01*
Y5477D01*
X9724D01*
Y5487D01*
Y5467D01*
Y5437D02*
Y5417D01*
Y5427D01*
X9784D01*
X9774Y5437D01*
M02*
