G04 Layer_Physical_Order=2*
G04 Layer_Color=32768*
%FSLAX23Y23*%
%MOIN*%
G70*
G01*
G75*
%ADD24C,0.040*%
%ADD25C,0.075*%
%ADD26C,0.071*%
G04:AMPARAMS|DCode=27|XSize=91.496mil|YSize=91.496mil|CornerRadius=0mil|HoleSize=0mil|Usage=FLASHONLY|Rotation=0.000|XOffset=0mil|YOffset=0mil|HoleType=Round|Shape=Relief|Width=10mil|Gap=10mil|Entries=4|*
%AMTHD27*
7,0,0,0.091,0.071,0.010,45*
%
%ADD27THD27*%
G04:AMPARAMS|DCode=28|XSize=95.433mil|YSize=95.433mil|CornerRadius=0mil|HoleSize=0mil|Usage=FLASHONLY|Rotation=0.000|XOffset=0mil|YOffset=0mil|HoleType=Round|Shape=Relief|Width=10mil|Gap=10mil|Entries=4|*
%AMTHD28*
7,0,0,0.095,0.075,0.010,45*
%
%ADD28THD28*%
G04:AMPARAMS|DCode=29|XSize=107.244mil|YSize=107.244mil|CornerRadius=0mil|HoleSize=0mil|Usage=FLASHONLY|Rotation=0.000|XOffset=0mil|YOffset=0mil|HoleType=Round|Shape=Relief|Width=10mil|Gap=10mil|Entries=4|*
%AMTHD29*
7,0,0,0.107,0.087,0.010,45*
%
%ADD29THD29*%
%ADD30C,0.087*%
%ADD31C,0.091*%
G04:AMPARAMS|DCode=32|XSize=111.181mil|YSize=111.181mil|CornerRadius=0mil|HoleSize=0mil|Usage=FLASHONLY|Rotation=0.000|XOffset=0mil|YOffset=0mil|HoleType=Round|Shape=Relief|Width=10mil|Gap=10mil|Entries=4|*
%AMTHD32*
7,0,0,0.111,0.091,0.010,45*
%
%ADD32THD32*%
%ADD33O,0.186X0.087*%
%ADD34C,0.079*%
G04:AMPARAMS|DCode=35|XSize=98.583mil|YSize=98.583mil|CornerRadius=0mil|HoleSize=0mil|Usage=FLASHONLY|Rotation=0.000|XOffset=0mil|YOffset=0mil|HoleType=Round|Shape=Relief|Width=10mil|Gap=10mil|Entries=4|*
%AMTHD35*
7,0,0,0.099,0.079,0.010,45*
%
%ADD35THD35*%
%ADD36O,0.197X0.276*%
G04:AMPARAMS|DCode=37|XSize=217.48mil|YSize=217.48mil|CornerRadius=0mil|HoleSize=0mil|Usage=FLASHONLY|Rotation=0.000|XOffset=0mil|YOffset=0mil|HoleType=Round|Shape=Relief|Width=10mil|Gap=10mil|Entries=4|*
%AMTHD37*
7,0,0,0.217,0.197,0.010,45*
%
%ADD37THD37*%
%ADD38C,0.197*%
%ADD39C,0.068*%
G36*
X11762Y5709D02*
X11516Y5955D01*
X11516Y6152D01*
Y6398D01*
X11762Y6644D01*
X11762Y5709D01*
D02*
G37*
D24*
X0Y-0D02*
X11762D01*
Y13091D01*
X0D02*
X11762D01*
X0Y-0D02*
Y13091D01*
D25*
X8711Y1965D02*
D03*
Y2065D02*
D03*
Y2165D02*
D03*
X5997Y12104D02*
D03*
Y12004D02*
D03*
Y11904D02*
D03*
Y11804D02*
D03*
Y11704D02*
D03*
Y11604D02*
D03*
Y11504D02*
D03*
Y11404D02*
D03*
Y11304D02*
D03*
Y11204D02*
D03*
Y11104D02*
D03*
Y11004D02*
D03*
Y10904D02*
D03*
Y10804D02*
D03*
Y10704D02*
D03*
Y10604D02*
D03*
Y10504D02*
D03*
Y10404D02*
D03*
Y10304D02*
D03*
Y10204D02*
D03*
Y10104D02*
D03*
Y10004D02*
D03*
Y9904D02*
D03*
Y9804D02*
D03*
Y9704D02*
D03*
Y9604D02*
D03*
Y9504D02*
D03*
Y9404D02*
D03*
Y9304D02*
D03*
Y9204D02*
D03*
Y9104D02*
D03*
X5797Y9204D02*
D03*
Y9304D02*
D03*
Y9404D02*
D03*
Y9504D02*
D03*
Y9604D02*
D03*
Y9704D02*
D03*
Y9804D02*
D03*
Y9904D02*
D03*
Y10004D02*
D03*
Y10104D02*
D03*
Y10204D02*
D03*
Y10304D02*
D03*
Y10404D02*
D03*
Y10504D02*
D03*
Y10604D02*
D03*
Y10704D02*
D03*
Y10804D02*
D03*
Y10904D02*
D03*
Y11004D02*
D03*
Y11104D02*
D03*
Y11304D02*
D03*
Y11404D02*
D03*
Y11504D02*
D03*
Y11604D02*
D03*
Y11704D02*
D03*
Y11804D02*
D03*
Y11904D02*
D03*
Y12004D02*
D03*
X5197Y12104D02*
D03*
Y12004D02*
D03*
Y11904D02*
D03*
Y11804D02*
D03*
Y11704D02*
D03*
Y11604D02*
D03*
Y11504D02*
D03*
Y11404D02*
D03*
Y11304D02*
D03*
Y11204D02*
D03*
Y11104D02*
D03*
Y11004D02*
D03*
Y10904D02*
D03*
Y10804D02*
D03*
Y10704D02*
D03*
Y10604D02*
D03*
Y10504D02*
D03*
Y10404D02*
D03*
Y10304D02*
D03*
Y10204D02*
D03*
Y10104D02*
D03*
Y10004D02*
D03*
Y9904D02*
D03*
Y9804D02*
D03*
Y9704D02*
D03*
Y9604D02*
D03*
Y9504D02*
D03*
Y9404D02*
D03*
Y9304D02*
D03*
Y9204D02*
D03*
Y9104D02*
D03*
X4997Y9204D02*
D03*
Y9304D02*
D03*
Y9404D02*
D03*
Y9504D02*
D03*
Y9604D02*
D03*
Y9704D02*
D03*
Y9804D02*
D03*
Y9904D02*
D03*
Y10004D02*
D03*
Y10104D02*
D03*
Y10204D02*
D03*
Y10304D02*
D03*
Y10404D02*
D03*
Y10504D02*
D03*
Y10604D02*
D03*
Y10704D02*
D03*
Y10804D02*
D03*
Y10904D02*
D03*
Y11004D02*
D03*
Y11104D02*
D03*
Y11304D02*
D03*
Y11404D02*
D03*
Y11504D02*
D03*
Y11604D02*
D03*
Y11704D02*
D03*
Y11804D02*
D03*
Y11904D02*
D03*
Y12004D02*
D03*
X4397Y12104D02*
D03*
Y12004D02*
D03*
Y11904D02*
D03*
Y11804D02*
D03*
Y11704D02*
D03*
Y11604D02*
D03*
Y11504D02*
D03*
Y11404D02*
D03*
Y11304D02*
D03*
Y11204D02*
D03*
Y11104D02*
D03*
Y11004D02*
D03*
Y10904D02*
D03*
Y10804D02*
D03*
Y10704D02*
D03*
Y10604D02*
D03*
Y10504D02*
D03*
Y10404D02*
D03*
Y10304D02*
D03*
Y10204D02*
D03*
Y10104D02*
D03*
Y10004D02*
D03*
Y9904D02*
D03*
Y9804D02*
D03*
Y9704D02*
D03*
Y9604D02*
D03*
Y9504D02*
D03*
Y9404D02*
D03*
Y9304D02*
D03*
Y9204D02*
D03*
Y9104D02*
D03*
X4197Y9204D02*
D03*
Y9304D02*
D03*
Y9404D02*
D03*
Y9504D02*
D03*
Y9604D02*
D03*
Y9704D02*
D03*
Y9804D02*
D03*
Y9904D02*
D03*
Y10004D02*
D03*
Y10104D02*
D03*
Y10204D02*
D03*
Y10304D02*
D03*
Y10404D02*
D03*
Y10504D02*
D03*
Y10604D02*
D03*
Y10704D02*
D03*
Y10804D02*
D03*
Y10904D02*
D03*
Y11004D02*
D03*
Y11104D02*
D03*
Y11304D02*
D03*
Y11404D02*
D03*
Y11504D02*
D03*
Y11604D02*
D03*
Y11704D02*
D03*
Y11804D02*
D03*
Y11904D02*
D03*
Y12004D02*
D03*
X3597Y12104D02*
D03*
Y12004D02*
D03*
Y11904D02*
D03*
Y11804D02*
D03*
Y11704D02*
D03*
Y11604D02*
D03*
Y11504D02*
D03*
Y11404D02*
D03*
Y11304D02*
D03*
Y11204D02*
D03*
Y11104D02*
D03*
Y11004D02*
D03*
Y10904D02*
D03*
Y10804D02*
D03*
Y10704D02*
D03*
Y10604D02*
D03*
Y10504D02*
D03*
Y10404D02*
D03*
Y10304D02*
D03*
Y10204D02*
D03*
Y10104D02*
D03*
Y10004D02*
D03*
Y9904D02*
D03*
Y9804D02*
D03*
Y9704D02*
D03*
Y9604D02*
D03*
Y9504D02*
D03*
Y9404D02*
D03*
Y9304D02*
D03*
Y9204D02*
D03*
Y9104D02*
D03*
X3397Y9204D02*
D03*
Y9304D02*
D03*
Y9404D02*
D03*
Y9504D02*
D03*
Y9604D02*
D03*
Y9704D02*
D03*
Y9804D02*
D03*
Y9904D02*
D03*
Y10004D02*
D03*
Y10104D02*
D03*
Y10204D02*
D03*
Y10304D02*
D03*
Y10404D02*
D03*
Y10504D02*
D03*
Y10604D02*
D03*
Y10704D02*
D03*
Y10804D02*
D03*
Y10904D02*
D03*
Y11004D02*
D03*
Y11104D02*
D03*
Y11304D02*
D03*
Y11404D02*
D03*
Y11504D02*
D03*
Y11604D02*
D03*
Y11704D02*
D03*
Y11804D02*
D03*
Y11904D02*
D03*
Y12004D02*
D03*
X2797Y12104D02*
D03*
Y12004D02*
D03*
Y11904D02*
D03*
Y11804D02*
D03*
Y11704D02*
D03*
Y11604D02*
D03*
Y11504D02*
D03*
Y11404D02*
D03*
Y11304D02*
D03*
Y11204D02*
D03*
Y11104D02*
D03*
Y11004D02*
D03*
Y10904D02*
D03*
Y10804D02*
D03*
Y10704D02*
D03*
Y10604D02*
D03*
Y10504D02*
D03*
Y10404D02*
D03*
Y10304D02*
D03*
Y10204D02*
D03*
Y10104D02*
D03*
Y10004D02*
D03*
Y9904D02*
D03*
Y9804D02*
D03*
Y9704D02*
D03*
Y9604D02*
D03*
Y9504D02*
D03*
Y9404D02*
D03*
Y9304D02*
D03*
Y9204D02*
D03*
Y9104D02*
D03*
X2597Y9204D02*
D03*
Y9304D02*
D03*
Y9404D02*
D03*
Y9504D02*
D03*
Y9604D02*
D03*
Y9704D02*
D03*
Y9804D02*
D03*
Y9904D02*
D03*
Y10004D02*
D03*
Y10104D02*
D03*
Y10204D02*
D03*
Y10304D02*
D03*
Y10404D02*
D03*
Y10504D02*
D03*
Y10604D02*
D03*
Y10704D02*
D03*
Y10804D02*
D03*
Y10904D02*
D03*
Y11004D02*
D03*
Y11104D02*
D03*
Y11304D02*
D03*
Y11404D02*
D03*
Y11504D02*
D03*
Y11604D02*
D03*
Y11704D02*
D03*
Y11804D02*
D03*
Y11904D02*
D03*
Y12004D02*
D03*
X1997Y12104D02*
D03*
Y12004D02*
D03*
Y11904D02*
D03*
Y11804D02*
D03*
Y11704D02*
D03*
Y11604D02*
D03*
Y11504D02*
D03*
Y11404D02*
D03*
Y11304D02*
D03*
Y11204D02*
D03*
Y11104D02*
D03*
Y11004D02*
D03*
Y10904D02*
D03*
Y10804D02*
D03*
Y10704D02*
D03*
Y10604D02*
D03*
Y10504D02*
D03*
Y10404D02*
D03*
Y10304D02*
D03*
Y10204D02*
D03*
Y10104D02*
D03*
Y10004D02*
D03*
Y9904D02*
D03*
Y9804D02*
D03*
Y9704D02*
D03*
Y9604D02*
D03*
Y9504D02*
D03*
Y9404D02*
D03*
Y9304D02*
D03*
Y9204D02*
D03*
Y9104D02*
D03*
X1797Y9204D02*
D03*
Y9304D02*
D03*
Y9404D02*
D03*
Y9504D02*
D03*
Y9604D02*
D03*
Y9704D02*
D03*
Y9804D02*
D03*
Y9904D02*
D03*
Y10004D02*
D03*
Y10104D02*
D03*
Y10204D02*
D03*
Y10304D02*
D03*
Y10404D02*
D03*
Y10504D02*
D03*
Y10604D02*
D03*
Y10704D02*
D03*
Y10804D02*
D03*
Y10904D02*
D03*
Y11004D02*
D03*
Y11104D02*
D03*
Y11304D02*
D03*
Y11404D02*
D03*
Y11504D02*
D03*
Y11604D02*
D03*
Y11704D02*
D03*
Y11804D02*
D03*
Y11904D02*
D03*
Y12004D02*
D03*
X1197Y12104D02*
D03*
Y12004D02*
D03*
Y11904D02*
D03*
Y11804D02*
D03*
Y11704D02*
D03*
Y11604D02*
D03*
Y11504D02*
D03*
Y11404D02*
D03*
Y11304D02*
D03*
Y11204D02*
D03*
Y11104D02*
D03*
Y11004D02*
D03*
Y10904D02*
D03*
Y10804D02*
D03*
Y10704D02*
D03*
Y10604D02*
D03*
Y10504D02*
D03*
Y10404D02*
D03*
Y10304D02*
D03*
Y10204D02*
D03*
Y10104D02*
D03*
Y10004D02*
D03*
Y9904D02*
D03*
Y9804D02*
D03*
Y9704D02*
D03*
Y9604D02*
D03*
Y9504D02*
D03*
Y9404D02*
D03*
Y9304D02*
D03*
Y9204D02*
D03*
Y9104D02*
D03*
X997Y9204D02*
D03*
Y9304D02*
D03*
Y9404D02*
D03*
Y9504D02*
D03*
Y9604D02*
D03*
Y9704D02*
D03*
Y9804D02*
D03*
Y9904D02*
D03*
Y10004D02*
D03*
Y10104D02*
D03*
Y10204D02*
D03*
Y10304D02*
D03*
Y10404D02*
D03*
Y10504D02*
D03*
Y10604D02*
D03*
Y10704D02*
D03*
Y10804D02*
D03*
Y10904D02*
D03*
Y11004D02*
D03*
Y11104D02*
D03*
Y11304D02*
D03*
Y11404D02*
D03*
Y11504D02*
D03*
Y11604D02*
D03*
Y11704D02*
D03*
Y11804D02*
D03*
Y11904D02*
D03*
Y12004D02*
D03*
X397Y12104D02*
D03*
Y12004D02*
D03*
Y11904D02*
D03*
Y11804D02*
D03*
Y11704D02*
D03*
Y11604D02*
D03*
Y11504D02*
D03*
Y11404D02*
D03*
Y11304D02*
D03*
Y11204D02*
D03*
Y11104D02*
D03*
Y11004D02*
D03*
Y10904D02*
D03*
Y10804D02*
D03*
Y10704D02*
D03*
Y10604D02*
D03*
Y10504D02*
D03*
Y10404D02*
D03*
Y10304D02*
D03*
Y10204D02*
D03*
Y10104D02*
D03*
Y10004D02*
D03*
Y9904D02*
D03*
Y9804D02*
D03*
Y9704D02*
D03*
Y9604D02*
D03*
Y9504D02*
D03*
Y9404D02*
D03*
Y9304D02*
D03*
Y9204D02*
D03*
Y9104D02*
D03*
X197Y9204D02*
D03*
Y9304D02*
D03*
Y9404D02*
D03*
Y9504D02*
D03*
Y9604D02*
D03*
Y9704D02*
D03*
Y9804D02*
D03*
Y9904D02*
D03*
Y10004D02*
D03*
Y10104D02*
D03*
Y10204D02*
D03*
Y10304D02*
D03*
Y10404D02*
D03*
Y10504D02*
D03*
Y10604D02*
D03*
Y10704D02*
D03*
Y10804D02*
D03*
Y10904D02*
D03*
Y11004D02*
D03*
Y11104D02*
D03*
Y11304D02*
D03*
Y11404D02*
D03*
Y11504D02*
D03*
Y11604D02*
D03*
Y11704D02*
D03*
Y11804D02*
D03*
Y11904D02*
D03*
Y12004D02*
D03*
X592Y4821D02*
D03*
X492D02*
D03*
X592Y4921D02*
D03*
X492D02*
D03*
X8711Y3104D02*
D03*
Y3004D02*
D03*
Y2904D02*
D03*
X8763Y1575D02*
D03*
X8663D02*
D03*
X8563D02*
D03*
X8120Y4137D02*
D03*
Y4037D02*
D03*
Y3937D02*
D03*
X11124Y640D02*
D03*
X11024D02*
D03*
X11417Y10630D02*
D03*
X11317D02*
D03*
X10433Y12697D02*
D03*
X10333D02*
D03*
X11222Y12598D02*
D03*
X4626Y197D02*
D03*
D26*
X8563Y1772D02*
D03*
Y1870D02*
D03*
Y1969D02*
D03*
Y2067D02*
D03*
Y2165D02*
D03*
Y2264D02*
D03*
Y2362D02*
D03*
Y2461D02*
D03*
X8268Y1772D02*
D03*
Y1870D02*
D03*
Y1969D02*
D03*
Y2067D02*
D03*
Y2165D02*
D03*
Y2264D02*
D03*
Y2362D02*
D03*
Y2461D02*
D03*
X8563Y689D02*
D03*
Y787D02*
D03*
Y886D02*
D03*
Y984D02*
D03*
Y1083D02*
D03*
Y1181D02*
D03*
Y1280D02*
D03*
Y1378D02*
D03*
X8268Y689D02*
D03*
Y787D02*
D03*
Y886D02*
D03*
Y984D02*
D03*
Y1083D02*
D03*
Y1181D02*
D03*
Y1280D02*
D03*
Y1378D02*
D03*
X6998Y5009D02*
D03*
Y5109D02*
D03*
Y5209D02*
D03*
Y5309D02*
D03*
Y5409D02*
D03*
Y5609D02*
D03*
Y5709D02*
D03*
Y5809D02*
D03*
Y5909D02*
D03*
Y6009D02*
D03*
Y6109D02*
D03*
Y6209D02*
D03*
Y6309D02*
D03*
X6398Y5109D02*
D03*
Y5209D02*
D03*
Y5309D02*
D03*
Y5409D02*
D03*
Y5509D02*
D03*
Y5609D02*
D03*
Y5709D02*
D03*
Y5809D02*
D03*
Y5909D02*
D03*
Y6009D02*
D03*
Y6109D02*
D03*
Y6209D02*
D03*
Y6309D02*
D03*
X7982Y5009D02*
D03*
Y5109D02*
D03*
Y5209D02*
D03*
Y5309D02*
D03*
Y5409D02*
D03*
Y5609D02*
D03*
Y5709D02*
D03*
Y5809D02*
D03*
Y5909D02*
D03*
Y6009D02*
D03*
Y6109D02*
D03*
Y6209D02*
D03*
Y6309D02*
D03*
X7382Y5109D02*
D03*
Y5209D02*
D03*
Y5309D02*
D03*
Y5409D02*
D03*
Y5509D02*
D03*
Y5609D02*
D03*
Y5709D02*
D03*
Y5809D02*
D03*
Y5909D02*
D03*
Y6009D02*
D03*
Y6109D02*
D03*
Y6209D02*
D03*
Y6309D02*
D03*
X6604Y6879D02*
D03*
Y6979D02*
D03*
Y7079D02*
D03*
Y7179D02*
D03*
Y7279D02*
D03*
Y7379D02*
D03*
Y7479D02*
D03*
Y7579D02*
D03*
Y7679D02*
D03*
Y7779D02*
D03*
Y7879D02*
D03*
Y7979D02*
D03*
Y8079D02*
D03*
Y8179D02*
D03*
X6004Y6979D02*
D03*
Y7079D02*
D03*
Y7179D02*
D03*
Y7279D02*
D03*
Y7379D02*
D03*
Y7479D02*
D03*
Y7579D02*
D03*
Y7679D02*
D03*
Y7779D02*
D03*
Y7879D02*
D03*
Y7979D02*
D03*
Y8079D02*
D03*
Y8179D02*
D03*
X2076Y5005D02*
D03*
Y5105D02*
D03*
Y5205D02*
D03*
Y5305D02*
D03*
Y5405D02*
D03*
Y5505D02*
D03*
Y5605D02*
D03*
Y5705D02*
D03*
Y5805D02*
D03*
Y5905D02*
D03*
Y6005D02*
D03*
Y6105D02*
D03*
Y6305D02*
D03*
Y6405D02*
D03*
Y6505D02*
D03*
Y6605D02*
D03*
Y6705D02*
D03*
Y6805D02*
D03*
Y6905D02*
D03*
X1476Y5105D02*
D03*
Y5205D02*
D03*
Y5305D02*
D03*
Y5405D02*
D03*
Y5505D02*
D03*
Y5605D02*
D03*
Y5705D02*
D03*
Y5805D02*
D03*
Y5905D02*
D03*
Y6005D02*
D03*
Y6105D02*
D03*
Y6205D02*
D03*
Y6305D02*
D03*
Y6405D02*
D03*
Y6505D02*
D03*
Y6605D02*
D03*
Y6705D02*
D03*
Y6805D02*
D03*
X9852Y7761D02*
D03*
Y7861D02*
D03*
Y7961D02*
D03*
Y8061D02*
D03*
Y8161D02*
D03*
Y8261D02*
D03*
Y8361D02*
D03*
Y8461D02*
D03*
Y8561D02*
D03*
Y8661D02*
D03*
Y8761D02*
D03*
Y8861D02*
D03*
Y8961D02*
D03*
Y9061D02*
D03*
Y9161D02*
D03*
Y9261D02*
D03*
Y9361D02*
D03*
Y9461D02*
D03*
Y9561D02*
D03*
Y9661D02*
D03*
X9252Y7861D02*
D03*
Y7961D02*
D03*
Y8061D02*
D03*
Y8161D02*
D03*
Y8261D02*
D03*
Y8361D02*
D03*
Y8461D02*
D03*
Y8561D02*
D03*
Y8661D02*
D03*
Y8761D02*
D03*
Y8861D02*
D03*
Y8961D02*
D03*
Y9061D02*
D03*
Y9161D02*
D03*
Y9261D02*
D03*
Y9361D02*
D03*
Y9461D02*
D03*
Y9561D02*
D03*
Y9661D02*
D03*
X8868Y7761D02*
D03*
Y7861D02*
D03*
Y7961D02*
D03*
Y8061D02*
D03*
Y8161D02*
D03*
Y8261D02*
D03*
Y8361D02*
D03*
Y8461D02*
D03*
Y8561D02*
D03*
Y8661D02*
D03*
Y8761D02*
D03*
Y8861D02*
D03*
Y8961D02*
D03*
Y9061D02*
D03*
Y9161D02*
D03*
Y9261D02*
D03*
Y9361D02*
D03*
Y9461D02*
D03*
Y9561D02*
D03*
Y9661D02*
D03*
X8268Y7761D02*
D03*
Y7861D02*
D03*
Y7961D02*
D03*
Y8061D02*
D03*
Y8161D02*
D03*
Y8261D02*
D03*
Y8361D02*
D03*
Y8461D02*
D03*
Y8561D02*
D03*
Y8661D02*
D03*
Y8761D02*
D03*
Y8861D02*
D03*
Y8961D02*
D03*
Y9161D02*
D03*
Y9261D02*
D03*
Y9361D02*
D03*
Y9461D02*
D03*
Y9561D02*
D03*
Y9661D02*
D03*
X3061Y5005D02*
D03*
Y5105D02*
D03*
Y5205D02*
D03*
Y5305D02*
D03*
Y5405D02*
D03*
Y5505D02*
D03*
Y5605D02*
D03*
Y5705D02*
D03*
Y5805D02*
D03*
Y5905D02*
D03*
Y6005D02*
D03*
Y6105D02*
D03*
Y6205D02*
D03*
Y6305D02*
D03*
Y6405D02*
D03*
Y6505D02*
D03*
Y6605D02*
D03*
Y6705D02*
D03*
Y6805D02*
D03*
Y6905D02*
D03*
X2461Y5105D02*
D03*
Y5205D02*
D03*
Y5305D02*
D03*
Y5405D02*
D03*
Y5505D02*
D03*
Y5605D02*
D03*
Y5705D02*
D03*
Y5805D02*
D03*
Y5905D02*
D03*
Y6005D02*
D03*
Y6105D02*
D03*
Y6205D02*
D03*
Y6305D02*
D03*
Y6405D02*
D03*
Y6505D02*
D03*
Y6605D02*
D03*
Y6705D02*
D03*
Y6805D02*
D03*
X10630Y295D02*
D03*
Y492D02*
D03*
X10138Y148D02*
D03*
Y640D02*
D03*
X590Y5807D02*
D03*
X394D02*
D03*
X738Y5315D02*
D03*
X246D02*
D03*
X9941Y6398D02*
D03*
X7972Y3937D02*
D03*
Y4035D02*
D03*
Y4134D02*
D03*
Y4232D02*
D03*
Y4331D02*
D03*
Y4429D02*
D03*
Y4528D02*
D03*
X7677Y3937D02*
D03*
Y4035D02*
D03*
Y4134D02*
D03*
Y4232D02*
D03*
Y4331D02*
D03*
Y4429D02*
D03*
Y4528D02*
D03*
Y4626D02*
D03*
X6988Y3937D02*
D03*
Y4035D02*
D03*
Y4134D02*
D03*
Y4232D02*
D03*
Y4331D02*
D03*
Y4429D02*
D03*
Y4528D02*
D03*
X6693Y3937D02*
D03*
Y4035D02*
D03*
Y4134D02*
D03*
Y4232D02*
D03*
Y4331D02*
D03*
Y4429D02*
D03*
Y4528D02*
D03*
Y4626D02*
D03*
X6004Y3937D02*
D03*
Y4035D02*
D03*
Y4134D02*
D03*
Y4232D02*
D03*
Y4331D02*
D03*
Y4429D02*
D03*
Y4528D02*
D03*
X5709Y3937D02*
D03*
Y4035D02*
D03*
Y4134D02*
D03*
Y4232D02*
D03*
Y4331D02*
D03*
Y4429D02*
D03*
Y4528D02*
D03*
Y4626D02*
D03*
X5020Y3937D02*
D03*
Y4035D02*
D03*
Y4134D02*
D03*
Y4232D02*
D03*
Y4331D02*
D03*
Y4429D02*
D03*
Y4528D02*
D03*
X4724Y3937D02*
D03*
Y4035D02*
D03*
Y4134D02*
D03*
Y4232D02*
D03*
Y4331D02*
D03*
Y4429D02*
D03*
Y4528D02*
D03*
Y4626D02*
D03*
X4035Y3937D02*
D03*
Y4035D02*
D03*
Y4134D02*
D03*
Y4232D02*
D03*
Y4331D02*
D03*
Y4429D02*
D03*
Y4528D02*
D03*
X3740Y3937D02*
D03*
Y4035D02*
D03*
Y4134D02*
D03*
Y4232D02*
D03*
Y4331D02*
D03*
Y4429D02*
D03*
Y4528D02*
D03*
Y4626D02*
D03*
X3051Y3937D02*
D03*
Y4035D02*
D03*
Y4134D02*
D03*
Y4232D02*
D03*
Y4331D02*
D03*
Y4429D02*
D03*
Y4528D02*
D03*
X2756Y3937D02*
D03*
Y4035D02*
D03*
Y4134D02*
D03*
Y4232D02*
D03*
Y4331D02*
D03*
Y4429D02*
D03*
Y4528D02*
D03*
Y4626D02*
D03*
X2067Y3937D02*
D03*
Y4035D02*
D03*
Y4134D02*
D03*
Y4232D02*
D03*
Y4331D02*
D03*
Y4429D02*
D03*
Y4528D02*
D03*
X1772Y3937D02*
D03*
Y4035D02*
D03*
Y4134D02*
D03*
Y4232D02*
D03*
Y4331D02*
D03*
Y4429D02*
D03*
Y4528D02*
D03*
Y4626D02*
D03*
X1083Y3937D02*
D03*
Y4035D02*
D03*
Y4134D02*
D03*
Y4232D02*
D03*
Y4331D02*
D03*
Y4429D02*
D03*
Y4528D02*
D03*
X787Y3937D02*
D03*
Y4035D02*
D03*
Y4134D02*
D03*
Y4232D02*
D03*
Y4331D02*
D03*
Y4429D02*
D03*
Y4528D02*
D03*
Y4626D02*
D03*
X7480Y3937D02*
D03*
Y4035D02*
D03*
Y4134D02*
D03*
Y4232D02*
D03*
Y4331D02*
D03*
Y4429D02*
D03*
Y4528D02*
D03*
X7185Y3937D02*
D03*
Y4035D02*
D03*
Y4134D02*
D03*
Y4232D02*
D03*
Y4331D02*
D03*
Y4429D02*
D03*
Y4528D02*
D03*
Y4626D02*
D03*
X6496Y3937D02*
D03*
Y4035D02*
D03*
Y4134D02*
D03*
Y4232D02*
D03*
Y4331D02*
D03*
Y4429D02*
D03*
Y4528D02*
D03*
X6201Y3937D02*
D03*
Y4035D02*
D03*
Y4134D02*
D03*
Y4232D02*
D03*
Y4331D02*
D03*
Y4429D02*
D03*
Y4528D02*
D03*
Y4626D02*
D03*
X5512Y3937D02*
D03*
Y4035D02*
D03*
Y4134D02*
D03*
Y4232D02*
D03*
Y4331D02*
D03*
Y4429D02*
D03*
Y4528D02*
D03*
X5216Y3937D02*
D03*
Y4035D02*
D03*
Y4134D02*
D03*
Y4232D02*
D03*
Y4331D02*
D03*
Y4429D02*
D03*
Y4528D02*
D03*
Y4626D02*
D03*
X4527Y3937D02*
D03*
Y4035D02*
D03*
Y4134D02*
D03*
Y4232D02*
D03*
Y4331D02*
D03*
Y4429D02*
D03*
Y4528D02*
D03*
X4232Y3937D02*
D03*
Y4035D02*
D03*
Y4134D02*
D03*
Y4232D02*
D03*
Y4331D02*
D03*
Y4429D02*
D03*
Y4528D02*
D03*
Y4626D02*
D03*
X3543Y3937D02*
D03*
Y4035D02*
D03*
Y4134D02*
D03*
Y4232D02*
D03*
Y4331D02*
D03*
Y4429D02*
D03*
Y4528D02*
D03*
X3248Y3937D02*
D03*
Y4035D02*
D03*
Y4134D02*
D03*
Y4232D02*
D03*
Y4331D02*
D03*
Y4429D02*
D03*
Y4528D02*
D03*
Y4626D02*
D03*
X2559Y3937D02*
D03*
Y4035D02*
D03*
Y4134D02*
D03*
Y4232D02*
D03*
Y4331D02*
D03*
Y4429D02*
D03*
Y4528D02*
D03*
X2264Y3937D02*
D03*
Y4035D02*
D03*
Y4134D02*
D03*
Y4232D02*
D03*
Y4331D02*
D03*
Y4429D02*
D03*
Y4528D02*
D03*
Y4626D02*
D03*
X1575Y3937D02*
D03*
Y4035D02*
D03*
Y4134D02*
D03*
Y4232D02*
D03*
Y4331D02*
D03*
Y4429D02*
D03*
Y4528D02*
D03*
X1279Y3937D02*
D03*
Y4035D02*
D03*
Y4134D02*
D03*
Y4232D02*
D03*
Y4331D02*
D03*
Y4429D02*
D03*
Y4528D02*
D03*
Y4626D02*
D03*
X590Y3937D02*
D03*
Y4035D02*
D03*
Y4134D02*
D03*
Y4232D02*
D03*
Y4331D02*
D03*
Y4429D02*
D03*
Y4528D02*
D03*
X295Y3937D02*
D03*
Y4035D02*
D03*
Y4134D02*
D03*
Y4232D02*
D03*
Y4331D02*
D03*
Y4429D02*
D03*
Y4528D02*
D03*
Y4626D02*
D03*
X7972Y2854D02*
D03*
Y2953D02*
D03*
Y3051D02*
D03*
Y3150D02*
D03*
Y3248D02*
D03*
Y3346D02*
D03*
Y3445D02*
D03*
X7677Y2854D02*
D03*
Y2953D02*
D03*
Y3051D02*
D03*
Y3150D02*
D03*
Y3248D02*
D03*
Y3346D02*
D03*
Y3445D02*
D03*
Y3543D02*
D03*
X6988Y2854D02*
D03*
Y2953D02*
D03*
Y3051D02*
D03*
Y3150D02*
D03*
Y3248D02*
D03*
Y3346D02*
D03*
Y3445D02*
D03*
X6693Y2854D02*
D03*
Y2953D02*
D03*
Y3051D02*
D03*
Y3150D02*
D03*
Y3248D02*
D03*
Y3346D02*
D03*
Y3445D02*
D03*
Y3543D02*
D03*
X6004Y2854D02*
D03*
Y2953D02*
D03*
Y3051D02*
D03*
Y3150D02*
D03*
Y3248D02*
D03*
Y3346D02*
D03*
Y3445D02*
D03*
X5709Y2854D02*
D03*
Y2953D02*
D03*
Y3051D02*
D03*
Y3150D02*
D03*
Y3248D02*
D03*
Y3346D02*
D03*
Y3445D02*
D03*
Y3543D02*
D03*
X5020Y2854D02*
D03*
Y2953D02*
D03*
Y3051D02*
D03*
Y3150D02*
D03*
Y3248D02*
D03*
Y3346D02*
D03*
Y3445D02*
D03*
X4724Y2854D02*
D03*
Y2953D02*
D03*
Y3051D02*
D03*
Y3150D02*
D03*
Y3248D02*
D03*
Y3346D02*
D03*
Y3445D02*
D03*
Y3543D02*
D03*
X4035Y2854D02*
D03*
Y2953D02*
D03*
Y3051D02*
D03*
Y3150D02*
D03*
Y3248D02*
D03*
Y3346D02*
D03*
Y3445D02*
D03*
X3740Y2854D02*
D03*
Y2953D02*
D03*
Y3051D02*
D03*
Y3150D02*
D03*
Y3248D02*
D03*
Y3346D02*
D03*
Y3445D02*
D03*
Y3543D02*
D03*
X3051Y2854D02*
D03*
Y2953D02*
D03*
Y3051D02*
D03*
Y3150D02*
D03*
Y3248D02*
D03*
Y3346D02*
D03*
Y3445D02*
D03*
X2756Y2854D02*
D03*
Y2953D02*
D03*
Y3051D02*
D03*
Y3150D02*
D03*
Y3248D02*
D03*
Y3346D02*
D03*
Y3445D02*
D03*
Y3543D02*
D03*
X2067Y2854D02*
D03*
Y2953D02*
D03*
Y3051D02*
D03*
Y3150D02*
D03*
Y3248D02*
D03*
Y3346D02*
D03*
Y3445D02*
D03*
X1772Y2854D02*
D03*
Y2953D02*
D03*
Y3051D02*
D03*
Y3150D02*
D03*
Y3248D02*
D03*
Y3346D02*
D03*
Y3445D02*
D03*
Y3543D02*
D03*
X1083Y2854D02*
D03*
Y2953D02*
D03*
Y3051D02*
D03*
Y3150D02*
D03*
Y3248D02*
D03*
Y3346D02*
D03*
Y3445D02*
D03*
X787Y2854D02*
D03*
Y2953D02*
D03*
Y3051D02*
D03*
Y3150D02*
D03*
Y3248D02*
D03*
Y3346D02*
D03*
Y3445D02*
D03*
Y3543D02*
D03*
X7480Y2854D02*
D03*
Y2953D02*
D03*
Y3051D02*
D03*
Y3150D02*
D03*
Y3248D02*
D03*
Y3346D02*
D03*
Y3445D02*
D03*
X7185Y2854D02*
D03*
Y2953D02*
D03*
Y3051D02*
D03*
Y3150D02*
D03*
Y3248D02*
D03*
Y3346D02*
D03*
Y3445D02*
D03*
Y3543D02*
D03*
X6496Y2854D02*
D03*
Y2953D02*
D03*
Y3051D02*
D03*
Y3150D02*
D03*
Y3248D02*
D03*
Y3346D02*
D03*
Y3445D02*
D03*
X6201Y2854D02*
D03*
Y2953D02*
D03*
Y3051D02*
D03*
Y3150D02*
D03*
Y3248D02*
D03*
Y3346D02*
D03*
Y3445D02*
D03*
Y3543D02*
D03*
X5512Y2854D02*
D03*
Y2953D02*
D03*
Y3051D02*
D03*
Y3150D02*
D03*
Y3248D02*
D03*
Y3346D02*
D03*
Y3445D02*
D03*
X5216Y2854D02*
D03*
Y2953D02*
D03*
Y3051D02*
D03*
Y3150D02*
D03*
Y3248D02*
D03*
Y3346D02*
D03*
Y3445D02*
D03*
Y3543D02*
D03*
X4527Y2854D02*
D03*
Y2953D02*
D03*
Y3051D02*
D03*
Y3150D02*
D03*
Y3248D02*
D03*
Y3346D02*
D03*
Y3445D02*
D03*
X4232Y2854D02*
D03*
Y2953D02*
D03*
Y3051D02*
D03*
Y3150D02*
D03*
Y3248D02*
D03*
Y3346D02*
D03*
Y3445D02*
D03*
Y3543D02*
D03*
X3543Y2854D02*
D03*
Y2953D02*
D03*
Y3051D02*
D03*
Y3150D02*
D03*
Y3248D02*
D03*
Y3346D02*
D03*
Y3445D02*
D03*
X3248Y2854D02*
D03*
Y2953D02*
D03*
Y3051D02*
D03*
Y3150D02*
D03*
Y3248D02*
D03*
Y3346D02*
D03*
Y3445D02*
D03*
Y3543D02*
D03*
X2559Y2854D02*
D03*
Y2953D02*
D03*
Y3051D02*
D03*
Y3150D02*
D03*
Y3248D02*
D03*
Y3346D02*
D03*
Y3445D02*
D03*
X2264Y2854D02*
D03*
Y2953D02*
D03*
Y3051D02*
D03*
Y3150D02*
D03*
Y3248D02*
D03*
Y3346D02*
D03*
Y3445D02*
D03*
Y3543D02*
D03*
X1575Y2854D02*
D03*
Y2953D02*
D03*
Y3051D02*
D03*
Y3150D02*
D03*
Y3248D02*
D03*
Y3346D02*
D03*
Y3445D02*
D03*
X1279Y2854D02*
D03*
Y2953D02*
D03*
Y3051D02*
D03*
Y3150D02*
D03*
Y3248D02*
D03*
Y3346D02*
D03*
Y3445D02*
D03*
Y3543D02*
D03*
X590Y2854D02*
D03*
Y2953D02*
D03*
Y3051D02*
D03*
Y3150D02*
D03*
Y3248D02*
D03*
Y3346D02*
D03*
Y3445D02*
D03*
X295Y2854D02*
D03*
Y2953D02*
D03*
Y3051D02*
D03*
Y3150D02*
D03*
Y3248D02*
D03*
Y3346D02*
D03*
Y3445D02*
D03*
Y3543D02*
D03*
X7972Y1772D02*
D03*
Y1870D02*
D03*
Y1969D02*
D03*
Y2067D02*
D03*
Y2165D02*
D03*
Y2264D02*
D03*
Y2362D02*
D03*
X7677Y1772D02*
D03*
Y1870D02*
D03*
Y1969D02*
D03*
Y2067D02*
D03*
Y2165D02*
D03*
Y2264D02*
D03*
Y2362D02*
D03*
Y2461D02*
D03*
X6988Y1772D02*
D03*
Y1870D02*
D03*
Y1969D02*
D03*
Y2067D02*
D03*
Y2165D02*
D03*
Y2264D02*
D03*
Y2362D02*
D03*
X6693Y1772D02*
D03*
Y1870D02*
D03*
Y1969D02*
D03*
Y2067D02*
D03*
Y2165D02*
D03*
Y2264D02*
D03*
Y2362D02*
D03*
Y2461D02*
D03*
X6004Y1772D02*
D03*
Y1870D02*
D03*
Y1969D02*
D03*
Y2067D02*
D03*
Y2165D02*
D03*
Y2264D02*
D03*
Y2362D02*
D03*
X5709Y1772D02*
D03*
Y1870D02*
D03*
Y1969D02*
D03*
Y2067D02*
D03*
Y2165D02*
D03*
Y2264D02*
D03*
Y2362D02*
D03*
Y2461D02*
D03*
X5020Y1772D02*
D03*
Y1870D02*
D03*
Y1969D02*
D03*
Y2067D02*
D03*
Y2165D02*
D03*
Y2264D02*
D03*
Y2362D02*
D03*
X4724Y1772D02*
D03*
Y1870D02*
D03*
Y1969D02*
D03*
Y2067D02*
D03*
Y2165D02*
D03*
Y2264D02*
D03*
Y2362D02*
D03*
Y2461D02*
D03*
X4035Y1772D02*
D03*
Y1870D02*
D03*
Y1969D02*
D03*
Y2067D02*
D03*
Y2165D02*
D03*
Y2264D02*
D03*
Y2362D02*
D03*
X3740Y1772D02*
D03*
Y1870D02*
D03*
Y1969D02*
D03*
Y2067D02*
D03*
Y2165D02*
D03*
Y2264D02*
D03*
Y2362D02*
D03*
Y2461D02*
D03*
X3051Y1772D02*
D03*
Y1870D02*
D03*
Y1969D02*
D03*
Y2067D02*
D03*
Y2165D02*
D03*
Y2264D02*
D03*
Y2362D02*
D03*
X2756Y1772D02*
D03*
Y1870D02*
D03*
Y1969D02*
D03*
Y2067D02*
D03*
Y2165D02*
D03*
Y2264D02*
D03*
Y2362D02*
D03*
Y2461D02*
D03*
X2067Y1772D02*
D03*
Y1870D02*
D03*
Y1969D02*
D03*
Y2067D02*
D03*
Y2165D02*
D03*
Y2264D02*
D03*
Y2362D02*
D03*
X1772Y1772D02*
D03*
Y1870D02*
D03*
Y1969D02*
D03*
Y2067D02*
D03*
Y2165D02*
D03*
Y2264D02*
D03*
Y2362D02*
D03*
Y2461D02*
D03*
X1083Y1772D02*
D03*
Y1870D02*
D03*
Y1969D02*
D03*
Y2067D02*
D03*
Y2165D02*
D03*
Y2264D02*
D03*
Y2362D02*
D03*
X787Y1772D02*
D03*
Y1870D02*
D03*
Y1969D02*
D03*
Y2067D02*
D03*
Y2165D02*
D03*
Y2264D02*
D03*
Y2362D02*
D03*
Y2461D02*
D03*
X7480Y1772D02*
D03*
Y1870D02*
D03*
Y1969D02*
D03*
Y2067D02*
D03*
Y2165D02*
D03*
Y2264D02*
D03*
Y2362D02*
D03*
X7185Y1772D02*
D03*
Y1870D02*
D03*
Y1969D02*
D03*
Y2067D02*
D03*
Y2165D02*
D03*
Y2264D02*
D03*
Y2362D02*
D03*
Y2461D02*
D03*
X6496Y1772D02*
D03*
Y1870D02*
D03*
Y1969D02*
D03*
Y2067D02*
D03*
Y2165D02*
D03*
Y2264D02*
D03*
Y2362D02*
D03*
X6201Y1772D02*
D03*
Y1870D02*
D03*
Y1969D02*
D03*
Y2067D02*
D03*
Y2165D02*
D03*
Y2264D02*
D03*
Y2362D02*
D03*
Y2461D02*
D03*
X5512Y1772D02*
D03*
Y1870D02*
D03*
Y1969D02*
D03*
Y2067D02*
D03*
Y2165D02*
D03*
Y2264D02*
D03*
Y2362D02*
D03*
X5216Y1772D02*
D03*
Y1870D02*
D03*
Y1969D02*
D03*
Y2067D02*
D03*
Y2165D02*
D03*
Y2264D02*
D03*
Y2362D02*
D03*
Y2461D02*
D03*
X4527Y1772D02*
D03*
Y1870D02*
D03*
Y1969D02*
D03*
Y2067D02*
D03*
Y2165D02*
D03*
Y2264D02*
D03*
Y2362D02*
D03*
X4232Y1772D02*
D03*
Y1870D02*
D03*
Y1969D02*
D03*
Y2067D02*
D03*
Y2165D02*
D03*
Y2264D02*
D03*
Y2362D02*
D03*
Y2461D02*
D03*
X3543Y1772D02*
D03*
Y1870D02*
D03*
Y1969D02*
D03*
Y2067D02*
D03*
Y2165D02*
D03*
Y2264D02*
D03*
Y2362D02*
D03*
X3248Y1772D02*
D03*
Y1870D02*
D03*
Y1969D02*
D03*
Y2067D02*
D03*
Y2165D02*
D03*
Y2264D02*
D03*
Y2362D02*
D03*
Y2461D02*
D03*
X2559Y1772D02*
D03*
Y1870D02*
D03*
Y1969D02*
D03*
Y2067D02*
D03*
Y2165D02*
D03*
Y2264D02*
D03*
Y2362D02*
D03*
X2264Y1772D02*
D03*
Y1870D02*
D03*
Y1969D02*
D03*
Y2067D02*
D03*
Y2165D02*
D03*
Y2264D02*
D03*
Y2362D02*
D03*
Y2461D02*
D03*
X1575Y1772D02*
D03*
Y1870D02*
D03*
Y1969D02*
D03*
Y2067D02*
D03*
Y2165D02*
D03*
Y2264D02*
D03*
Y2362D02*
D03*
X1279Y1772D02*
D03*
Y1870D02*
D03*
Y1969D02*
D03*
Y2067D02*
D03*
Y2165D02*
D03*
Y2264D02*
D03*
Y2362D02*
D03*
Y2461D02*
D03*
X590Y1772D02*
D03*
Y1870D02*
D03*
Y1969D02*
D03*
Y2067D02*
D03*
Y2165D02*
D03*
Y2264D02*
D03*
Y2362D02*
D03*
X295Y1772D02*
D03*
Y1870D02*
D03*
Y1969D02*
D03*
Y2067D02*
D03*
Y2165D02*
D03*
Y2264D02*
D03*
Y2362D02*
D03*
Y2461D02*
D03*
X7972Y689D02*
D03*
Y787D02*
D03*
Y886D02*
D03*
Y984D02*
D03*
Y1083D02*
D03*
Y1181D02*
D03*
Y1280D02*
D03*
X7677Y689D02*
D03*
Y787D02*
D03*
Y886D02*
D03*
Y984D02*
D03*
Y1083D02*
D03*
Y1181D02*
D03*
Y1280D02*
D03*
Y1378D02*
D03*
X6988Y689D02*
D03*
Y787D02*
D03*
Y886D02*
D03*
Y984D02*
D03*
Y1083D02*
D03*
Y1181D02*
D03*
Y1280D02*
D03*
X6693Y689D02*
D03*
Y787D02*
D03*
Y886D02*
D03*
Y984D02*
D03*
Y1083D02*
D03*
Y1181D02*
D03*
Y1280D02*
D03*
Y1378D02*
D03*
X6004Y689D02*
D03*
Y787D02*
D03*
Y886D02*
D03*
Y984D02*
D03*
Y1083D02*
D03*
Y1181D02*
D03*
Y1280D02*
D03*
X5709Y689D02*
D03*
Y787D02*
D03*
Y886D02*
D03*
Y984D02*
D03*
Y1083D02*
D03*
Y1181D02*
D03*
Y1280D02*
D03*
Y1378D02*
D03*
X5020Y689D02*
D03*
Y787D02*
D03*
Y886D02*
D03*
Y984D02*
D03*
Y1083D02*
D03*
Y1181D02*
D03*
Y1280D02*
D03*
X4724Y689D02*
D03*
Y787D02*
D03*
Y886D02*
D03*
Y984D02*
D03*
Y1083D02*
D03*
Y1181D02*
D03*
Y1280D02*
D03*
Y1378D02*
D03*
X4035Y689D02*
D03*
Y787D02*
D03*
Y886D02*
D03*
Y984D02*
D03*
Y1083D02*
D03*
Y1181D02*
D03*
Y1280D02*
D03*
X3740Y689D02*
D03*
Y787D02*
D03*
Y886D02*
D03*
Y984D02*
D03*
Y1083D02*
D03*
Y1181D02*
D03*
Y1280D02*
D03*
Y1378D02*
D03*
X3051Y689D02*
D03*
Y787D02*
D03*
Y886D02*
D03*
Y984D02*
D03*
Y1083D02*
D03*
Y1181D02*
D03*
Y1280D02*
D03*
X2756Y689D02*
D03*
Y787D02*
D03*
Y886D02*
D03*
Y984D02*
D03*
Y1083D02*
D03*
Y1181D02*
D03*
Y1280D02*
D03*
Y1378D02*
D03*
X2067Y689D02*
D03*
Y787D02*
D03*
Y886D02*
D03*
Y984D02*
D03*
Y1083D02*
D03*
Y1181D02*
D03*
Y1280D02*
D03*
X1772Y689D02*
D03*
Y787D02*
D03*
Y886D02*
D03*
Y984D02*
D03*
Y1083D02*
D03*
Y1181D02*
D03*
Y1280D02*
D03*
Y1378D02*
D03*
X1083Y689D02*
D03*
Y787D02*
D03*
Y886D02*
D03*
Y984D02*
D03*
Y1083D02*
D03*
Y1181D02*
D03*
Y1280D02*
D03*
X787Y689D02*
D03*
Y787D02*
D03*
Y886D02*
D03*
Y984D02*
D03*
Y1083D02*
D03*
Y1181D02*
D03*
Y1280D02*
D03*
Y1378D02*
D03*
X7480Y689D02*
D03*
Y787D02*
D03*
Y886D02*
D03*
Y984D02*
D03*
Y1083D02*
D03*
Y1181D02*
D03*
Y1280D02*
D03*
X7185Y689D02*
D03*
Y787D02*
D03*
Y886D02*
D03*
Y984D02*
D03*
Y1083D02*
D03*
Y1181D02*
D03*
Y1280D02*
D03*
Y1378D02*
D03*
X6496Y689D02*
D03*
Y787D02*
D03*
Y886D02*
D03*
Y984D02*
D03*
Y1083D02*
D03*
Y1181D02*
D03*
Y1280D02*
D03*
X6201Y689D02*
D03*
Y787D02*
D03*
Y886D02*
D03*
Y984D02*
D03*
Y1083D02*
D03*
Y1181D02*
D03*
Y1280D02*
D03*
Y1378D02*
D03*
X5512Y689D02*
D03*
Y787D02*
D03*
Y886D02*
D03*
Y984D02*
D03*
Y1083D02*
D03*
Y1181D02*
D03*
Y1280D02*
D03*
X5216Y689D02*
D03*
Y787D02*
D03*
Y886D02*
D03*
Y984D02*
D03*
Y1083D02*
D03*
Y1181D02*
D03*
Y1280D02*
D03*
Y1378D02*
D03*
X4527Y689D02*
D03*
Y787D02*
D03*
Y886D02*
D03*
Y984D02*
D03*
Y1083D02*
D03*
Y1181D02*
D03*
Y1280D02*
D03*
X4232Y689D02*
D03*
Y787D02*
D03*
Y886D02*
D03*
Y984D02*
D03*
Y1083D02*
D03*
Y1181D02*
D03*
Y1280D02*
D03*
Y1378D02*
D03*
X3543Y689D02*
D03*
Y787D02*
D03*
Y886D02*
D03*
Y984D02*
D03*
Y1083D02*
D03*
Y1181D02*
D03*
Y1280D02*
D03*
X3248Y689D02*
D03*
Y787D02*
D03*
Y886D02*
D03*
Y984D02*
D03*
Y1083D02*
D03*
Y1181D02*
D03*
Y1280D02*
D03*
Y1378D02*
D03*
X2559Y689D02*
D03*
Y787D02*
D03*
Y886D02*
D03*
Y984D02*
D03*
Y1083D02*
D03*
Y1181D02*
D03*
Y1280D02*
D03*
X2264Y689D02*
D03*
Y787D02*
D03*
Y886D02*
D03*
Y984D02*
D03*
Y1083D02*
D03*
Y1181D02*
D03*
Y1280D02*
D03*
Y1378D02*
D03*
X1575Y689D02*
D03*
Y787D02*
D03*
Y886D02*
D03*
Y984D02*
D03*
Y1083D02*
D03*
Y1181D02*
D03*
Y1280D02*
D03*
X1279Y689D02*
D03*
Y787D02*
D03*
Y886D02*
D03*
Y984D02*
D03*
Y1083D02*
D03*
Y1181D02*
D03*
Y1280D02*
D03*
Y1378D02*
D03*
X590Y689D02*
D03*
Y787D02*
D03*
Y886D02*
D03*
Y984D02*
D03*
Y1083D02*
D03*
Y1181D02*
D03*
Y1280D02*
D03*
X295Y689D02*
D03*
Y787D02*
D03*
Y886D02*
D03*
Y984D02*
D03*
Y1083D02*
D03*
Y1181D02*
D03*
Y1280D02*
D03*
Y1378D02*
D03*
X9153Y2854D02*
D03*
Y2953D02*
D03*
Y3051D02*
D03*
Y3150D02*
D03*
Y3248D02*
D03*
Y3346D02*
D03*
Y3445D02*
D03*
Y3543D02*
D03*
X8858Y2854D02*
D03*
Y2953D02*
D03*
Y3051D02*
D03*
Y3150D02*
D03*
Y3248D02*
D03*
Y3346D02*
D03*
Y3445D02*
D03*
Y3543D02*
D03*
X9449Y4626D02*
D03*
Y4528D02*
D03*
Y4429D02*
D03*
Y4331D02*
D03*
Y4232D02*
D03*
Y4134D02*
D03*
Y4035D02*
D03*
Y3937D02*
D03*
Y3839D02*
D03*
X9744Y4626D02*
D03*
Y4528D02*
D03*
Y4429D02*
D03*
Y4331D02*
D03*
Y4232D02*
D03*
Y4134D02*
D03*
Y4035D02*
D03*
Y3937D02*
D03*
Y3839D02*
D03*
Y3740D02*
D03*
X9153Y3937D02*
D03*
Y4035D02*
D03*
Y4134D02*
D03*
Y4232D02*
D03*
Y4331D02*
D03*
Y4429D02*
D03*
Y4528D02*
D03*
Y4626D02*
D03*
X8858Y4035D02*
D03*
Y4134D02*
D03*
Y4331D02*
D03*
Y4429D02*
D03*
Y4528D02*
D03*
Y4626D02*
D03*
X9153Y1772D02*
D03*
Y1870D02*
D03*
Y1969D02*
D03*
Y2067D02*
D03*
Y2165D02*
D03*
Y2264D02*
D03*
Y2461D02*
D03*
X8858Y1870D02*
D03*
Y1969D02*
D03*
Y2067D02*
D03*
Y2165D02*
D03*
Y2264D02*
D03*
Y2362D02*
D03*
X8563Y3937D02*
D03*
Y4035D02*
D03*
Y4134D02*
D03*
Y4232D02*
D03*
Y4331D02*
D03*
Y4429D02*
D03*
Y4626D02*
D03*
X8268Y4035D02*
D03*
Y4134D02*
D03*
Y4232D02*
D03*
Y4331D02*
D03*
Y4429D02*
D03*
Y4528D02*
D03*
Y4626D02*
D03*
X8563Y2854D02*
D03*
Y2953D02*
D03*
Y3051D02*
D03*
Y3150D02*
D03*
Y3248D02*
D03*
Y3346D02*
D03*
Y3543D02*
D03*
X8268Y2953D02*
D03*
Y3051D02*
D03*
Y3150D02*
D03*
Y3248D02*
D03*
Y3346D02*
D03*
Y3445D02*
D03*
Y3543D02*
D03*
X8858Y1280D02*
D03*
Y1181D02*
D03*
Y1083D02*
D03*
Y984D02*
D03*
Y886D02*
D03*
Y787D02*
D03*
Y689D02*
D03*
Y591D02*
D03*
X9153Y1378D02*
D03*
Y1181D02*
D03*
Y1083D02*
D03*
Y984D02*
D03*
Y886D02*
D03*
Y787D02*
D03*
Y689D02*
D03*
Y591D02*
D03*
Y492D02*
D03*
X9744Y2756D02*
D03*
Y2854D02*
D03*
Y2953D02*
D03*
Y3051D02*
D03*
Y3150D02*
D03*
Y3445D02*
D03*
Y3543D02*
D03*
X9449Y2953D02*
D03*
Y3051D02*
D03*
Y3150D02*
D03*
Y3248D02*
D03*
Y3346D02*
D03*
Y3445D02*
D03*
Y3543D02*
D03*
X10335Y2756D02*
D03*
Y2854D02*
D03*
Y2953D02*
D03*
Y3051D02*
D03*
Y3150D02*
D03*
Y3445D02*
D03*
Y3543D02*
D03*
X10039Y2953D02*
D03*
Y3051D02*
D03*
Y3150D02*
D03*
Y3248D02*
D03*
Y3346D02*
D03*
Y3445D02*
D03*
Y3543D02*
D03*
X10925Y2854D02*
D03*
Y2953D02*
D03*
Y3051D02*
D03*
Y3150D02*
D03*
Y3248D02*
D03*
Y3346D02*
D03*
Y3445D02*
D03*
Y3543D02*
D03*
X10630Y2953D02*
D03*
Y3051D02*
D03*
Y3150D02*
D03*
Y3248D02*
D03*
Y3346D02*
D03*
Y3445D02*
D03*
Y3543D02*
D03*
X10925Y3937D02*
D03*
Y4035D02*
D03*
Y4134D02*
D03*
Y4232D02*
D03*
Y4331D02*
D03*
Y4429D02*
D03*
Y4528D02*
D03*
Y4626D02*
D03*
X10630Y4035D02*
D03*
Y4134D02*
D03*
Y4232D02*
D03*
Y4331D02*
D03*
Y4429D02*
D03*
Y4528D02*
D03*
Y4626D02*
D03*
X10039D02*
D03*
Y4528D02*
D03*
Y4429D02*
D03*
Y4331D02*
D03*
Y4232D02*
D03*
Y4134D02*
D03*
Y4035D02*
D03*
Y3937D02*
D03*
Y3839D02*
D03*
X10335Y4626D02*
D03*
Y4528D02*
D03*
Y4429D02*
D03*
Y4232D02*
D03*
Y4035D02*
D03*
Y3937D02*
D03*
Y3839D02*
D03*
Y3740D02*
D03*
X10925Y1772D02*
D03*
Y1870D02*
D03*
Y1969D02*
D03*
Y2067D02*
D03*
Y2165D02*
D03*
Y2264D02*
D03*
Y2362D02*
D03*
Y2461D02*
D03*
X10630Y1870D02*
D03*
Y1969D02*
D03*
Y2067D02*
D03*
Y2165D02*
D03*
Y2264D02*
D03*
Y2362D02*
D03*
Y2461D02*
D03*
X9744Y787D02*
D03*
Y886D02*
D03*
Y984D02*
D03*
Y1083D02*
D03*
Y1181D02*
D03*
Y1280D02*
D03*
Y1378D02*
D03*
X9449Y886D02*
D03*
Y984D02*
D03*
Y1083D02*
D03*
Y1181D02*
D03*
Y1280D02*
D03*
Y1378D02*
D03*
X9744Y1772D02*
D03*
Y1870D02*
D03*
Y1969D02*
D03*
Y2067D02*
D03*
Y2165D02*
D03*
Y2264D02*
D03*
Y2362D02*
D03*
X9449Y1870D02*
D03*
Y1969D02*
D03*
Y2067D02*
D03*
Y2165D02*
D03*
Y2264D02*
D03*
Y2362D02*
D03*
X10335Y787D02*
D03*
Y886D02*
D03*
Y984D02*
D03*
Y1083D02*
D03*
Y1181D02*
D03*
Y1280D02*
D03*
Y1378D02*
D03*
X10039Y886D02*
D03*
Y984D02*
D03*
Y1083D02*
D03*
Y1181D02*
D03*
Y1280D02*
D03*
Y1378D02*
D03*
X10827Y787D02*
D03*
Y886D02*
D03*
Y984D02*
D03*
Y1083D02*
D03*
Y1181D02*
D03*
Y1280D02*
D03*
Y1378D02*
D03*
X10531Y886D02*
D03*
Y984D02*
D03*
Y1083D02*
D03*
Y1181D02*
D03*
Y1280D02*
D03*
Y1378D02*
D03*
X10335Y1772D02*
D03*
Y1870D02*
D03*
Y1969D02*
D03*
Y2067D02*
D03*
Y2165D02*
D03*
Y2264D02*
D03*
Y2362D02*
D03*
X10039Y1870D02*
D03*
Y1969D02*
D03*
Y2067D02*
D03*
Y2165D02*
D03*
Y2264D02*
D03*
Y2362D02*
D03*
X5807Y5906D02*
D03*
Y5807D02*
D03*
Y5709D02*
D03*
Y5610D02*
D03*
Y5512D02*
D03*
Y5413D02*
D03*
Y5315D02*
D03*
Y5217D02*
D03*
Y5118D02*
D03*
X6102Y5906D02*
D03*
Y5807D02*
D03*
Y5709D02*
D03*
Y5610D02*
D03*
Y5512D02*
D03*
Y5413D02*
D03*
Y5315D02*
D03*
Y5217D02*
D03*
Y5118D02*
D03*
Y5020D02*
D03*
X5118Y7185D02*
D03*
Y7087D02*
D03*
Y6988D02*
D03*
Y6890D02*
D03*
Y6791D02*
D03*
Y6693D02*
D03*
Y6594D02*
D03*
Y6496D02*
D03*
Y6398D02*
D03*
X5413Y7185D02*
D03*
Y7087D02*
D03*
Y6988D02*
D03*
Y6890D02*
D03*
Y6791D02*
D03*
Y6693D02*
D03*
Y6594D02*
D03*
Y6496D02*
D03*
Y6398D02*
D03*
Y6299D02*
D03*
X8268Y5906D02*
D03*
Y5807D02*
D03*
Y5709D02*
D03*
Y5610D02*
D03*
Y5512D02*
D03*
Y5413D02*
D03*
Y5315D02*
D03*
Y5217D02*
D03*
Y5118D02*
D03*
X8563Y5906D02*
D03*
Y5807D02*
D03*
Y5709D02*
D03*
Y5610D02*
D03*
Y5512D02*
D03*
Y5413D02*
D03*
Y5315D02*
D03*
Y5217D02*
D03*
Y5118D02*
D03*
Y5020D02*
D03*
X11220D02*
D03*
Y5118D02*
D03*
Y5217D02*
D03*
Y5315D02*
D03*
Y5709D02*
D03*
X10925Y5118D02*
D03*
Y5217D02*
D03*
Y5315D02*
D03*
Y5413D02*
D03*
Y5512D02*
D03*
Y5610D02*
D03*
X4232Y8268D02*
D03*
Y8169D02*
D03*
Y8071D02*
D03*
Y7972D02*
D03*
Y7874D02*
D03*
Y7776D02*
D03*
Y7677D02*
D03*
Y7579D02*
D03*
X4527Y8366D02*
D03*
Y8169D02*
D03*
Y8071D02*
D03*
Y7972D02*
D03*
Y7874D02*
D03*
Y7776D02*
D03*
Y7677D02*
D03*
Y7579D02*
D03*
Y7480D02*
D03*
X8858Y5906D02*
D03*
Y5807D02*
D03*
Y5709D02*
D03*
Y5610D02*
D03*
Y5512D02*
D03*
Y5413D02*
D03*
Y5315D02*
D03*
Y5217D02*
D03*
Y5118D02*
D03*
X9153Y5906D02*
D03*
Y5807D02*
D03*
Y5709D02*
D03*
Y5610D02*
D03*
Y5512D02*
D03*
Y5413D02*
D03*
Y5315D02*
D03*
Y5217D02*
D03*
Y5118D02*
D03*
Y5020D02*
D03*
X10039Y9646D02*
D03*
Y9449D02*
D03*
Y9350D02*
D03*
Y9252D02*
D03*
Y9154D02*
D03*
Y9055D02*
D03*
Y8957D02*
D03*
Y8858D02*
D03*
X10335Y9646D02*
D03*
Y9449D02*
D03*
Y9350D02*
D03*
Y9252D02*
D03*
Y9154D02*
D03*
Y9055D02*
D03*
Y8957D02*
D03*
Y8858D02*
D03*
Y8760D02*
D03*
X10630Y5020D02*
D03*
Y5118D02*
D03*
Y5217D02*
D03*
Y5315D02*
D03*
Y5413D02*
D03*
Y5512D02*
D03*
Y5610D02*
D03*
X10335Y5118D02*
D03*
Y5217D02*
D03*
Y5315D02*
D03*
Y5413D02*
D03*
Y5512D02*
D03*
Y5610D02*
D03*
X3740Y7480D02*
D03*
Y7579D02*
D03*
Y7677D02*
D03*
Y7776D02*
D03*
Y7874D02*
D03*
Y7972D02*
D03*
Y8071D02*
D03*
Y8169D02*
D03*
X3445Y7579D02*
D03*
Y7677D02*
D03*
Y7776D02*
D03*
Y7874D02*
D03*
Y7972D02*
D03*
Y8071D02*
D03*
Y8169D02*
D03*
X10039Y10925D02*
D03*
Y10827D02*
D03*
Y10728D02*
D03*
Y10630D02*
D03*
Y10531D02*
D03*
Y10433D02*
D03*
Y10335D02*
D03*
Y10236D02*
D03*
Y10138D02*
D03*
X10335Y10925D02*
D03*
Y10728D02*
D03*
Y10630D02*
D03*
Y10531D02*
D03*
Y10433D02*
D03*
Y10335D02*
D03*
Y10236D02*
D03*
Y10138D02*
D03*
Y10039D02*
D03*
X5118Y5906D02*
D03*
Y5807D02*
D03*
Y5709D02*
D03*
Y5610D02*
D03*
Y5512D02*
D03*
Y5413D02*
D03*
Y5315D02*
D03*
Y5217D02*
D03*
Y5118D02*
D03*
X5413Y5906D02*
D03*
Y5807D02*
D03*
Y5709D02*
D03*
Y5610D02*
D03*
Y5512D02*
D03*
Y5413D02*
D03*
Y5315D02*
D03*
Y5217D02*
D03*
Y5118D02*
D03*
Y5020D02*
D03*
X9449Y6791D02*
D03*
Y6890D02*
D03*
Y6988D02*
D03*
Y7087D02*
D03*
Y7185D02*
D03*
Y7283D02*
D03*
Y7382D02*
D03*
X9153Y6890D02*
D03*
Y6988D02*
D03*
Y7087D02*
D03*
Y7185D02*
D03*
Y7283D02*
D03*
Y7382D02*
D03*
X4527Y7185D02*
D03*
Y7087D02*
D03*
Y6988D02*
D03*
Y6890D02*
D03*
Y6791D02*
D03*
Y6693D02*
D03*
Y6594D02*
D03*
Y6496D02*
D03*
Y6398D02*
D03*
X4823Y7185D02*
D03*
Y7087D02*
D03*
Y6988D02*
D03*
Y6890D02*
D03*
Y6791D02*
D03*
Y6693D02*
D03*
Y6594D02*
D03*
Y6496D02*
D03*
Y6398D02*
D03*
Y6299D02*
D03*
X11516Y2953D02*
D03*
Y3051D02*
D03*
Y3248D02*
D03*
Y3346D02*
D03*
Y3445D02*
D03*
Y3543D02*
D03*
X11220Y3150D02*
D03*
Y3248D02*
D03*
Y3346D02*
D03*
Y3445D02*
D03*
Y3543D02*
D03*
X8268Y10925D02*
D03*
Y10827D02*
D03*
Y10728D02*
D03*
Y10630D02*
D03*
Y10531D02*
D03*
Y10433D02*
D03*
Y10335D02*
D03*
Y10236D02*
D03*
Y10138D02*
D03*
X8563Y10925D02*
D03*
Y10728D02*
D03*
Y10630D02*
D03*
Y10531D02*
D03*
Y10433D02*
D03*
Y10335D02*
D03*
Y10236D02*
D03*
Y10138D02*
D03*
Y10039D02*
D03*
X10925D02*
D03*
Y10138D02*
D03*
Y10236D02*
D03*
Y10335D02*
D03*
Y10433D02*
D03*
Y10531D02*
D03*
Y10630D02*
D03*
X10630Y10138D02*
D03*
Y10236D02*
D03*
Y10335D02*
D03*
Y10433D02*
D03*
Y10531D02*
D03*
Y10630D02*
D03*
X11516Y8071D02*
D03*
Y8169D02*
D03*
Y8268D02*
D03*
Y8366D02*
D03*
Y8465D02*
D03*
Y8563D02*
D03*
Y8661D02*
D03*
X11220Y8169D02*
D03*
Y8268D02*
D03*
Y8366D02*
D03*
Y8465D02*
D03*
Y8563D02*
D03*
Y8661D02*
D03*
X10925Y8071D02*
D03*
Y8169D02*
D03*
Y8268D02*
D03*
Y8366D02*
D03*
Y8465D02*
D03*
Y8563D02*
D03*
Y8661D02*
D03*
X10630Y8169D02*
D03*
Y8268D02*
D03*
Y8366D02*
D03*
Y8465D02*
D03*
Y8563D02*
D03*
Y8661D02*
D03*
X10925Y9055D02*
D03*
Y9154D02*
D03*
Y9252D02*
D03*
Y9350D02*
D03*
Y9449D02*
D03*
Y9547D02*
D03*
Y9646D02*
D03*
X10630Y9154D02*
D03*
Y9252D02*
D03*
Y9350D02*
D03*
Y9449D02*
D03*
Y9547D02*
D03*
Y9646D02*
D03*
X4527Y5906D02*
D03*
Y5807D02*
D03*
Y5709D02*
D03*
Y5610D02*
D03*
Y5512D02*
D03*
Y5413D02*
D03*
Y5315D02*
D03*
Y5217D02*
D03*
Y5118D02*
D03*
X4823Y5906D02*
D03*
Y5807D02*
D03*
Y5709D02*
D03*
Y5610D02*
D03*
Y5512D02*
D03*
Y5413D02*
D03*
Y5315D02*
D03*
Y5217D02*
D03*
Y5118D02*
D03*
Y5020D02*
D03*
X3248Y7480D02*
D03*
Y7579D02*
D03*
Y7677D02*
D03*
Y7776D02*
D03*
Y8071D02*
D03*
Y8169D02*
D03*
X2953Y7579D02*
D03*
Y7677D02*
D03*
Y7776D02*
D03*
Y7874D02*
D03*
Y7972D02*
D03*
Y8071D02*
D03*
Y8169D02*
D03*
X11319Y787D02*
D03*
Y886D02*
D03*
Y984D02*
D03*
Y1083D02*
D03*
Y1181D02*
D03*
Y1280D02*
D03*
Y1378D02*
D03*
X11024Y886D02*
D03*
Y984D02*
D03*
Y1083D02*
D03*
Y1181D02*
D03*
Y1280D02*
D03*
Y1378D02*
D03*
X1772Y8071D02*
D03*
Y7972D02*
D03*
Y7874D02*
D03*
Y7776D02*
D03*
Y7677D02*
D03*
Y7579D02*
D03*
Y7480D02*
D03*
Y7382D02*
D03*
X2067Y8169D02*
D03*
Y8071D02*
D03*
Y7972D02*
D03*
Y7874D02*
D03*
Y7776D02*
D03*
Y7677D02*
D03*
Y7579D02*
D03*
Y7480D02*
D03*
Y7382D02*
D03*
Y7283D02*
D03*
X2362Y8169D02*
D03*
Y8071D02*
D03*
Y7972D02*
D03*
Y7874D02*
D03*
Y7776D02*
D03*
Y7677D02*
D03*
Y7579D02*
D03*
Y7480D02*
D03*
Y7382D02*
D03*
X2657Y8169D02*
D03*
Y8071D02*
D03*
Y7972D02*
D03*
Y7874D02*
D03*
Y7776D02*
D03*
Y7677D02*
D03*
Y7579D02*
D03*
Y7480D02*
D03*
Y7382D02*
D03*
Y7283D02*
D03*
X3937Y7185D02*
D03*
Y7087D02*
D03*
Y6988D02*
D03*
Y6890D02*
D03*
Y6791D02*
D03*
Y6693D02*
D03*
Y6594D02*
D03*
Y6496D02*
D03*
Y6398D02*
D03*
X4232Y7185D02*
D03*
Y7087D02*
D03*
Y6988D02*
D03*
Y6890D02*
D03*
Y6791D02*
D03*
Y6693D02*
D03*
Y6594D02*
D03*
Y6496D02*
D03*
Y6398D02*
D03*
Y6299D02*
D03*
X3937Y5906D02*
D03*
Y5807D02*
D03*
Y5709D02*
D03*
Y5610D02*
D03*
Y5512D02*
D03*
Y5413D02*
D03*
Y5315D02*
D03*
Y5217D02*
D03*
Y5118D02*
D03*
X4232Y5906D02*
D03*
Y5807D02*
D03*
Y5709D02*
D03*
Y5610D02*
D03*
Y5512D02*
D03*
Y5413D02*
D03*
Y5315D02*
D03*
Y5217D02*
D03*
Y5118D02*
D03*
Y5020D02*
D03*
X3346Y7185D02*
D03*
Y7087D02*
D03*
Y6988D02*
D03*
Y6890D02*
D03*
Y6791D02*
D03*
Y6693D02*
D03*
Y6594D02*
D03*
Y6496D02*
D03*
Y6398D02*
D03*
X3642Y7185D02*
D03*
Y7087D02*
D03*
Y6988D02*
D03*
Y6890D02*
D03*
Y6791D02*
D03*
Y6693D02*
D03*
Y6594D02*
D03*
Y6496D02*
D03*
Y6398D02*
D03*
Y6299D02*
D03*
X3346Y5906D02*
D03*
Y5807D02*
D03*
Y5709D02*
D03*
Y5610D02*
D03*
Y5512D02*
D03*
Y5413D02*
D03*
Y5315D02*
D03*
Y5217D02*
D03*
Y5118D02*
D03*
X3642Y5906D02*
D03*
Y5807D02*
D03*
Y5709D02*
D03*
Y5610D02*
D03*
Y5512D02*
D03*
Y5413D02*
D03*
Y5315D02*
D03*
Y5217D02*
D03*
Y5118D02*
D03*
Y5020D02*
D03*
X10925Y11122D02*
D03*
Y11220D02*
D03*
Y11319D02*
D03*
Y11417D02*
D03*
Y11516D02*
D03*
Y11614D02*
D03*
Y11713D02*
D03*
X10630Y11220D02*
D03*
Y11319D02*
D03*
Y11417D02*
D03*
Y11516D02*
D03*
Y11614D02*
D03*
Y11713D02*
D03*
X10335Y7776D02*
D03*
Y7874D02*
D03*
Y7972D02*
D03*
Y8071D02*
D03*
Y8169D02*
D03*
Y8268D02*
D03*
Y8366D02*
D03*
X10039Y7874D02*
D03*
Y7972D02*
D03*
Y8071D02*
D03*
Y8169D02*
D03*
Y8268D02*
D03*
Y8366D02*
D03*
X1575Y7382D02*
D03*
Y7480D02*
D03*
Y7579D02*
D03*
Y7677D02*
D03*
Y7776D02*
D03*
Y7874D02*
D03*
Y7972D02*
D03*
Y8071D02*
D03*
X1279Y7480D02*
D03*
Y7579D02*
D03*
Y7677D02*
D03*
Y7776D02*
D03*
Y7874D02*
D03*
Y7972D02*
D03*
Y8071D02*
D03*
X1378Y5807D02*
D03*
Y5906D02*
D03*
Y6004D02*
D03*
Y6102D02*
D03*
Y6201D02*
D03*
Y6299D02*
D03*
Y6398D02*
D03*
X1083Y5906D02*
D03*
Y6004D02*
D03*
Y6102D02*
D03*
Y6201D02*
D03*
Y6299D02*
D03*
Y6398D02*
D03*
X5020Y7677D02*
D03*
Y7776D02*
D03*
Y7874D02*
D03*
Y7972D02*
D03*
Y8071D02*
D03*
Y8169D02*
D03*
Y8268D02*
D03*
X4724Y7776D02*
D03*
Y7874D02*
D03*
Y7972D02*
D03*
Y8071D02*
D03*
Y8169D02*
D03*
Y8268D02*
D03*
X984Y5807D02*
D03*
Y5906D02*
D03*
Y6004D02*
D03*
Y6102D02*
D03*
Y6201D02*
D03*
Y6299D02*
D03*
Y6398D02*
D03*
X689Y5906D02*
D03*
Y6004D02*
D03*
Y6102D02*
D03*
Y6201D02*
D03*
Y6299D02*
D03*
Y6398D02*
D03*
X11516Y11122D02*
D03*
Y11220D02*
D03*
Y11319D02*
D03*
Y11417D02*
D03*
Y11516D02*
D03*
Y11614D02*
D03*
Y11713D02*
D03*
X11220Y11220D02*
D03*
Y11319D02*
D03*
Y11417D02*
D03*
Y11516D02*
D03*
Y11614D02*
D03*
Y11713D02*
D03*
X11516Y9055D02*
D03*
Y9154D02*
D03*
Y9252D02*
D03*
Y9350D02*
D03*
Y9449D02*
D03*
Y9547D02*
D03*
Y9646D02*
D03*
X11220Y9154D02*
D03*
Y9252D02*
D03*
Y9350D02*
D03*
Y9449D02*
D03*
Y9547D02*
D03*
Y9646D02*
D03*
X7874Y6890D02*
D03*
Y6988D02*
D03*
Y7087D02*
D03*
Y7185D02*
D03*
Y7283D02*
D03*
Y7382D02*
D03*
Y7480D02*
D03*
X7579Y6988D02*
D03*
Y7087D02*
D03*
Y7185D02*
D03*
Y7283D02*
D03*
Y7382D02*
D03*
Y7480D02*
D03*
X1181Y4823D02*
D03*
Y4921D02*
D03*
Y5020D02*
D03*
Y5217D02*
D03*
Y5315D02*
D03*
Y5413D02*
D03*
Y5512D02*
D03*
Y5610D02*
D03*
X886Y4921D02*
D03*
Y5217D02*
D03*
Y5315D02*
D03*
Y5413D02*
D03*
Y5512D02*
D03*
X1083Y7382D02*
D03*
Y7480D02*
D03*
Y7579D02*
D03*
Y7677D02*
D03*
Y8071D02*
D03*
X787Y7480D02*
D03*
Y7579D02*
D03*
Y7677D02*
D03*
Y7776D02*
D03*
Y7874D02*
D03*
Y7972D02*
D03*
X5413Y7677D02*
D03*
Y7776D02*
D03*
Y7874D02*
D03*
Y7972D02*
D03*
Y8071D02*
D03*
Y8169D02*
D03*
Y8268D02*
D03*
X5118Y7776D02*
D03*
Y7874D02*
D03*
Y7972D02*
D03*
Y8071D02*
D03*
Y8169D02*
D03*
Y8268D02*
D03*
X8563Y12106D02*
D03*
Y12205D02*
D03*
Y12303D02*
D03*
Y12402D02*
D03*
Y12500D02*
D03*
Y12598D02*
D03*
Y12697D02*
D03*
X8268Y12205D02*
D03*
Y12303D02*
D03*
Y12402D02*
D03*
Y12500D02*
D03*
Y12598D02*
D03*
Y12697D02*
D03*
X9744Y12106D02*
D03*
Y12205D02*
D03*
Y12303D02*
D03*
Y12402D02*
D03*
Y12500D02*
D03*
Y12598D02*
D03*
Y12697D02*
D03*
Y12795D02*
D03*
X9449Y12205D02*
D03*
Y12303D02*
D03*
Y12402D02*
D03*
Y12500D02*
D03*
Y12598D02*
D03*
Y12697D02*
D03*
Y12795D02*
D03*
X590Y7382D02*
D03*
Y7480D02*
D03*
Y7579D02*
D03*
Y7677D02*
D03*
Y7776D02*
D03*
Y7874D02*
D03*
Y7972D02*
D03*
Y8071D02*
D03*
X295Y7480D02*
D03*
Y7579D02*
D03*
Y7677D02*
D03*
Y7776D02*
D03*
Y7874D02*
D03*
Y7972D02*
D03*
Y8071D02*
D03*
X10925Y12205D02*
D03*
Y12303D02*
D03*
Y12500D02*
D03*
Y12598D02*
D03*
Y12697D02*
D03*
X10630Y12205D02*
D03*
Y12303D02*
D03*
Y12402D02*
D03*
Y12500D02*
D03*
Y12598D02*
D03*
Y12697D02*
D03*
X11516Y1772D02*
D03*
Y1870D02*
D03*
Y1969D02*
D03*
Y2067D02*
D03*
Y2165D02*
D03*
Y2264D02*
D03*
Y2362D02*
D03*
X11220Y1870D02*
D03*
Y1969D02*
D03*
Y2067D02*
D03*
Y2165D02*
D03*
Y2264D02*
D03*
Y2362D02*
D03*
X8563Y11319D02*
D03*
Y11417D02*
D03*
Y11516D02*
D03*
Y11614D02*
D03*
Y11713D02*
D03*
Y11811D02*
D03*
Y11909D02*
D03*
X8268Y11417D02*
D03*
Y11516D02*
D03*
Y11614D02*
D03*
Y11713D02*
D03*
Y11811D02*
D03*
Y11909D02*
D03*
X9153Y12106D02*
D03*
Y12205D02*
D03*
Y12303D02*
D03*
Y12402D02*
D03*
Y12500D02*
D03*
Y12598D02*
D03*
Y12697D02*
D03*
X8858Y12205D02*
D03*
Y12303D02*
D03*
Y12402D02*
D03*
Y12500D02*
D03*
Y12598D02*
D03*
Y12697D02*
D03*
X10335Y11319D02*
D03*
Y11417D02*
D03*
Y11516D02*
D03*
Y11614D02*
D03*
Y11713D02*
D03*
Y11811D02*
D03*
Y11909D02*
D03*
X10039Y11417D02*
D03*
Y11516D02*
D03*
Y11614D02*
D03*
Y11713D02*
D03*
Y11811D02*
D03*
Y11909D02*
D03*
X1279Y6594D02*
D03*
Y6693D02*
D03*
Y6791D02*
D03*
Y6890D02*
D03*
Y6988D02*
D03*
Y7087D02*
D03*
Y7185D02*
D03*
X984Y6693D02*
D03*
Y6791D02*
D03*
Y6890D02*
D03*
Y6988D02*
D03*
Y7087D02*
D03*
Y7185D02*
D03*
X9744Y11319D02*
D03*
Y11417D02*
D03*
Y11516D02*
D03*
Y11614D02*
D03*
Y11713D02*
D03*
Y11811D02*
D03*
Y11909D02*
D03*
X9449Y11417D02*
D03*
Y11516D02*
D03*
Y11614D02*
D03*
Y11713D02*
D03*
Y11811D02*
D03*
Y11909D02*
D03*
X492Y6398D02*
D03*
X295D02*
D03*
X11024Y11909D02*
D03*
X10630Y6791D02*
D03*
X10138D02*
D03*
X10630Y6594D02*
D03*
X10138D02*
D03*
X7776Y12008D02*
D03*
Y11614D02*
D03*
X5216Y197D02*
D03*
X4823D02*
D03*
X10335Y12106D02*
D03*
X9941D02*
D03*
X11024Y12402D02*
D03*
X11417D02*
D03*
X11122Y6398D02*
D03*
X10728D02*
D03*
X8169Y9941D02*
D03*
X7776D02*
D03*
X10925Y2657D02*
D03*
X10531D02*
D03*
X11122Y4232D02*
D03*
X11516D02*
D03*
X11122Y4429D02*
D03*
X11516D02*
D03*
X11122Y4035D02*
D03*
X11516D02*
D03*
X11122Y4626D02*
D03*
X11516D02*
D03*
X10236Y6201D02*
D03*
X10630D02*
D03*
Y6398D02*
D03*
X10236D02*
D03*
X11024Y7874D02*
D03*
X10630D02*
D03*
X10728Y6201D02*
D03*
X11122D02*
D03*
X10433Y9843D02*
D03*
X10039D02*
D03*
X10138Y5807D02*
D03*
X10630D02*
D03*
X11122Y7382D02*
D03*
X11516Y7579D02*
D03*
X11122D02*
D03*
X11516Y10039D02*
D03*
X11122D02*
D03*
X10630Y7677D02*
D03*
X11024D02*
D03*
X11516Y10433D02*
D03*
X11122D02*
D03*
X10827Y394D02*
D03*
X11220D02*
D03*
X10335Y12500D02*
D03*
X9941D02*
D03*
X11516Y7776D02*
D03*
X11122D02*
D03*
X8464Y11122D02*
D03*
X8858D02*
D03*
X11122Y10236D02*
D03*
X11516D02*
D03*
X11220Y197D02*
D03*
X10827D02*
D03*
X11122Y10925D02*
D03*
X11516D02*
D03*
X1673Y4823D02*
D03*
X3150D02*
D03*
X2756D02*
D03*
X2165D02*
D03*
X1772D02*
D03*
X197Y6890D02*
D03*
X590Y6004D02*
D03*
X8760Y11713D02*
D03*
X9153D02*
D03*
X197Y6201D02*
D03*
X590D02*
D03*
X9941Y12303D02*
D03*
X10335D02*
D03*
X11122Y2657D02*
D03*
X11516D02*
D03*
X1575Y8760D02*
D03*
X7874Y11713D02*
D03*
X3789Y11705D02*
D03*
Y11504D02*
D03*
Y11307D02*
D03*
X10531Y11909D02*
D03*
X8858Y11909D02*
D03*
X8071Y11122D02*
D03*
X8957Y11417D02*
D03*
X9744Y11122D02*
D03*
X10138D02*
D03*
X10630Y10827D02*
D03*
X11220Y9843D02*
D03*
X10630D02*
D03*
X8858D02*
D03*
X8268D02*
D03*
X11220Y8858D02*
D03*
X10630D02*
D03*
X10039Y8563D02*
D03*
X9449Y7579D02*
D03*
X8661D02*
D03*
X3839Y7382D02*
D03*
X2854Y7185D02*
D03*
X2067Y7087D02*
D03*
X1575D02*
D03*
X295Y7185D02*
D03*
X7185Y6594D02*
D03*
X6102Y6693D02*
D03*
X5020Y6102D02*
D03*
X4429D02*
D03*
X3839D02*
D03*
X3248D02*
D03*
X10827Y4823D02*
D03*
X10335D02*
D03*
X9941D02*
D03*
X9055D02*
D03*
X8268D02*
D03*
X7283D02*
D03*
X6398D02*
D03*
X5807D02*
D03*
X5020D02*
D03*
X4429D02*
D03*
X3839D02*
D03*
X3248D02*
D03*
X2362D02*
D03*
X9941Y12697D02*
D03*
X11220Y3740D02*
D03*
X8366D02*
D03*
X10039Y2559D02*
D03*
X9449D02*
D03*
X11220Y1575D02*
D03*
X10630D02*
D03*
X10039D02*
D03*
X9547D02*
D03*
X8957D02*
D03*
X9449Y492D02*
D03*
X8464D02*
D03*
X7776Y3740D02*
D03*
X7283D02*
D03*
X6791D02*
D03*
X6299D02*
D03*
X5807D02*
D03*
X5315D02*
D03*
X4823D02*
D03*
X4331D02*
D03*
X3839D02*
D03*
X3346D02*
D03*
X2854D02*
D03*
X2362D02*
D03*
X1870D02*
D03*
X1378D02*
D03*
X886D02*
D03*
X394D02*
D03*
X7776Y2657D02*
D03*
X7283D02*
D03*
X6791D02*
D03*
X6299D02*
D03*
X5807D02*
D03*
X5315D02*
D03*
X4823D02*
D03*
X4331D02*
D03*
X3839D02*
D03*
X3346D02*
D03*
X2854D02*
D03*
X2362D02*
D03*
X1870D02*
D03*
X1378D02*
D03*
X886D02*
D03*
X394D02*
D03*
X7776Y1575D02*
D03*
X7283D02*
D03*
X6791D02*
D03*
X6299D02*
D03*
X5807D02*
D03*
X5315D02*
D03*
X4823D02*
D03*
X4331D02*
D03*
X3839D02*
D03*
X3346D02*
D03*
X2854D02*
D03*
X2362D02*
D03*
X1870D02*
D03*
X1378D02*
D03*
X886D02*
D03*
X394D02*
D03*
X7776Y492D02*
D03*
X7283D02*
D03*
X6791D02*
D03*
X6398D02*
D03*
X6004D02*
D03*
X5216D02*
D03*
X4823D02*
D03*
X4331D02*
D03*
X3839D02*
D03*
X3346D02*
D03*
X2854D02*
D03*
X2362D02*
D03*
X1870D02*
D03*
X1378D02*
D03*
X984D02*
D03*
X3543Y8366D02*
D03*
X3445D02*
D03*
X3346D02*
D03*
X3248D02*
D03*
X3150D02*
D03*
X3051D02*
D03*
X2953D02*
D03*
X2854D02*
D03*
X2756D02*
D03*
X2657D02*
D03*
X1575D02*
D03*
X1673D02*
D03*
X1772D02*
D03*
X1870D02*
D03*
X1968D02*
D03*
X2067D02*
D03*
X2165D02*
D03*
X2264D02*
D03*
X2362D02*
D03*
X2461D02*
D03*
X492D02*
D03*
X590D02*
D03*
X689D02*
D03*
X787D02*
D03*
X886D02*
D03*
X984D02*
D03*
X1083D02*
D03*
X1181D02*
D03*
X1279D02*
D03*
X1378D02*
D03*
X1497Y12104D02*
D03*
Y12004D02*
D03*
Y11904D02*
D03*
Y11804D02*
D03*
Y11704D02*
D03*
Y11604D02*
D03*
Y11504D02*
D03*
Y11404D02*
D03*
Y11304D02*
D03*
Y11204D02*
D03*
X1497Y9005D02*
D03*
Y9105D02*
D03*
Y9205D02*
D03*
Y9305D02*
D03*
Y9405D02*
D03*
Y9505D02*
D03*
Y9605D02*
D03*
Y9705D02*
D03*
Y9805D02*
D03*
Y9905D02*
D03*
Y11004D02*
D03*
Y10904D02*
D03*
Y10804D02*
D03*
Y10704D02*
D03*
Y10604D02*
D03*
Y10504D02*
D03*
Y10404D02*
D03*
Y10304D02*
D03*
Y10204D02*
D03*
Y10104D02*
D03*
X11122Y6791D02*
D03*
X10974Y6693D02*
D03*
X5512Y8071D02*
D03*
X5807D02*
D03*
X5512Y7972D02*
D03*
X5807D02*
D03*
Y7776D02*
D03*
X5512D02*
D03*
X5807Y7874D02*
D03*
X5512D02*
D03*
X11516Y394D02*
D03*
X11417D02*
D03*
X10728Y5807D02*
D03*
X10925Y6004D02*
D03*
X10630Y6004D02*
D03*
X10335D02*
D03*
X8957Y11132D02*
D03*
Y11032D02*
D03*
Y10932D02*
D03*
Y10832D02*
D03*
Y10732D02*
D03*
Y10632D02*
D03*
Y10532D02*
D03*
Y10432D02*
D03*
Y10332D02*
D03*
Y10232D02*
D03*
Y10132D02*
D03*
X9557Y11132D02*
D03*
Y11032D02*
D03*
Y10932D02*
D03*
Y10832D02*
D03*
Y10732D02*
D03*
Y10632D02*
D03*
Y10532D02*
D03*
Y10432D02*
D03*
Y10332D02*
D03*
Y10232D02*
D03*
Y10132D02*
D03*
Y10032D02*
D03*
X8268Y7392D02*
D03*
Y7292D02*
D03*
Y7192D02*
D03*
Y7092D02*
D03*
Y6992D02*
D03*
Y6892D02*
D03*
Y6792D02*
D03*
Y6692D02*
D03*
Y6592D02*
D03*
Y6492D02*
D03*
Y6392D02*
D03*
X8868Y7392D02*
D03*
Y7292D02*
D03*
Y7192D02*
D03*
Y7092D02*
D03*
Y6992D02*
D03*
Y6892D02*
D03*
Y6792D02*
D03*
Y6692D02*
D03*
Y6592D02*
D03*
Y6492D02*
D03*
Y6392D02*
D03*
Y6292D02*
D03*
X9449Y6112D02*
D03*
Y6012D02*
D03*
Y5912D02*
D03*
Y5812D02*
D03*
Y5712D02*
D03*
Y5612D02*
D03*
Y5512D02*
D03*
Y5412D02*
D03*
Y5312D02*
D03*
Y5212D02*
D03*
Y5112D02*
D03*
X10049Y6112D02*
D03*
Y6012D02*
D03*
Y5912D02*
D03*
Y5812D02*
D03*
Y5712D02*
D03*
Y5612D02*
D03*
Y5512D02*
D03*
Y5412D02*
D03*
Y5312D02*
D03*
Y5212D02*
D03*
Y5112D02*
D03*
Y5012D02*
D03*
D27*
X6998Y5509D02*
D03*
X6398Y5009D02*
D03*
X7982Y5509D02*
D03*
X7382Y5009D02*
D03*
X6004Y6879D02*
D03*
X2076Y6205D02*
D03*
X1476Y5005D02*
D03*
Y6905D02*
D03*
X9252Y7761D02*
D03*
X8268Y9061D02*
D03*
X2461Y5005D02*
D03*
Y6905D02*
D03*
X9153Y6398D02*
D03*
X7972Y4626D02*
D03*
X6988D02*
D03*
X6004D02*
D03*
X5020D02*
D03*
X4035D02*
D03*
X3051D02*
D03*
X2067D02*
D03*
X1083D02*
D03*
X7480D02*
D03*
X6496D02*
D03*
X5512D02*
D03*
X4527D02*
D03*
X3543D02*
D03*
X2559D02*
D03*
X1575Y4626D02*
D03*
X590Y4626D02*
D03*
X7972Y3543D02*
D03*
X6988D02*
D03*
X6004D02*
D03*
X5020D02*
D03*
X4035D02*
D03*
X3051D02*
D03*
X2067D02*
D03*
X1083D02*
D03*
X7480D02*
D03*
X6496D02*
D03*
X5512D02*
D03*
X4527D02*
D03*
X3543D02*
D03*
X2559D02*
D03*
X1575D02*
D03*
X590D02*
D03*
X7972Y2461D02*
D03*
X6988D02*
D03*
X6004D02*
D03*
X5020D02*
D03*
X4035D02*
D03*
X3051D02*
D03*
X2067D02*
D03*
X1083D02*
D03*
X7480D02*
D03*
X6496D02*
D03*
X5512D02*
D03*
X4527D02*
D03*
X3543D02*
D03*
X2559D02*
D03*
X1575D02*
D03*
X590D02*
D03*
X7972Y1378D02*
D03*
X6988D02*
D03*
X6004D02*
D03*
X5020D02*
D03*
X4035D02*
D03*
X3051D02*
D03*
X2067D02*
D03*
X1083D02*
D03*
X7480D02*
D03*
X6496D02*
D03*
X5512D02*
D03*
X4527D02*
D03*
X3543D02*
D03*
X2559D02*
D03*
X1575D02*
D03*
X590D02*
D03*
X9449Y3740D02*
D03*
X8858Y3937D02*
D03*
Y4232D02*
D03*
X9153Y2362D02*
D03*
X8858Y1772D02*
D03*
Y2461D02*
D03*
X8563Y4528D02*
D03*
X8268Y3937D02*
D03*
X8563Y3445D02*
D03*
X8268Y2854D02*
D03*
X8858Y1378D02*
D03*
Y492D02*
D03*
X9153Y1280D02*
D03*
X9744Y3248D02*
D03*
Y3346D02*
D03*
X9449Y2756D02*
D03*
Y2854D02*
D03*
X10335Y3248D02*
D03*
Y3346D02*
D03*
X10039Y2756D02*
D03*
Y2854D02*
D03*
X10630D02*
D03*
Y3937D02*
D03*
X10039Y3740D02*
D03*
X10335Y4331D02*
D03*
Y4134D02*
D03*
X10630Y1772D02*
D03*
X9449Y787D02*
D03*
Y1772D02*
D03*
X10039Y787D02*
D03*
X10531D02*
D03*
X10039Y1772D02*
D03*
X5807Y5020D02*
D03*
X5118Y6299D02*
D03*
X8268Y5020D02*
D03*
X11220Y5413D02*
D03*
Y5512D02*
D03*
Y5610D02*
D03*
X10925Y5020D02*
D03*
Y5709D02*
D03*
X4232Y8366D02*
D03*
Y7480D02*
D03*
X4527Y8268D02*
D03*
X8858Y5020D02*
D03*
X10039Y9547D02*
D03*
Y8760D02*
D03*
X10335Y9547D02*
D03*
Y5020D02*
D03*
X3445Y7480D02*
D03*
X10039Y10039D02*
D03*
X10335Y10827D02*
D03*
X5118Y5020D02*
D03*
X9153Y6791D02*
D03*
X4527Y6299D02*
D03*
X11516Y3150D02*
D03*
X11220Y2953D02*
D03*
Y3051D02*
D03*
X8268Y10039D02*
D03*
X8563Y10827D02*
D03*
X10630Y10039D02*
D03*
X11220Y8071D02*
D03*
X10630D02*
D03*
Y9055D02*
D03*
X4527Y5020D02*
D03*
X3248Y7874D02*
D03*
Y7972D02*
D03*
X2953Y7480D02*
D03*
X11024Y787D02*
D03*
X1772Y8169D02*
D03*
Y7283D02*
D03*
X2362D02*
D03*
X3937Y6299D02*
D03*
Y5020D02*
D03*
X3346Y6299D02*
D03*
Y5020D02*
D03*
X10630Y11122D02*
D03*
X10039Y7776D02*
D03*
X1279Y7382D02*
D03*
X1083Y5807D02*
D03*
X4724Y7677D02*
D03*
X689Y5807D02*
D03*
X11220Y11122D02*
D03*
Y9055D02*
D03*
X7579Y6890D02*
D03*
X1181Y5118D02*
D03*
X886Y4823D02*
D03*
Y5020D02*
D03*
Y5118D02*
D03*
Y5610D02*
D03*
X1083Y7776D02*
D03*
Y7874D02*
D03*
Y7972D02*
D03*
X787Y7382D02*
D03*
Y8071D02*
D03*
X5118Y7677D02*
D03*
X8268Y12106D02*
D03*
X9449D02*
D03*
X295Y7382D02*
D03*
X10925Y12106D02*
D03*
Y12402D02*
D03*
X10630Y12106D02*
D03*
X11220Y1772D02*
D03*
X8268Y11319D02*
D03*
X8858Y12106D02*
D03*
X10039Y11319D02*
D03*
X984Y6594D02*
D03*
X9449Y11319D02*
D03*
X11220Y11909D02*
D03*
X11516Y7382D02*
D03*
X1279Y4823D02*
D03*
X590Y6890D02*
D03*
X197Y6004D02*
D03*
X1378Y8760D02*
D03*
X8071Y11713D02*
D03*
X3986Y11705D02*
D03*
Y11504D02*
D03*
Y11307D02*
D03*
X10728Y11909D02*
D03*
X9055Y11909D02*
D03*
X8268Y11122D02*
D03*
X9153Y11417D02*
D03*
X9941Y11122D02*
D03*
X10335D02*
D03*
X10827Y10827D02*
D03*
X11417Y9843D02*
D03*
X10827D02*
D03*
X9055D02*
D03*
X8464D02*
D03*
X11417Y8858D02*
D03*
X10827D02*
D03*
X10236Y8563D02*
D03*
X9646Y7579D02*
D03*
X8858D02*
D03*
X4035Y7382D02*
D03*
X3051Y7185D02*
D03*
X2264Y7087D02*
D03*
X1772D02*
D03*
X492Y7185D02*
D03*
X7382Y6594D02*
D03*
X6299Y6693D02*
D03*
X5216Y6102D02*
D03*
X4626D02*
D03*
X4035D02*
D03*
X3445D02*
D03*
X11024Y4823D02*
D03*
X10531D02*
D03*
X10138D02*
D03*
X9252D02*
D03*
X8464D02*
D03*
X7480D02*
D03*
X6594D02*
D03*
X6004D02*
D03*
X5216D02*
D03*
X4626D02*
D03*
X4035D02*
D03*
X3445D02*
D03*
X2559D02*
D03*
X10138Y12697D02*
D03*
X11417Y3740D02*
D03*
X8563D02*
D03*
X10236Y2559D02*
D03*
X9646D02*
D03*
X11417Y1575D02*
D03*
X10827D02*
D03*
X10236D02*
D03*
X9744D02*
D03*
X9153D02*
D03*
X9646Y492D02*
D03*
X8661D02*
D03*
X7972Y3740D02*
D03*
X7480D02*
D03*
X6988D02*
D03*
X6496D02*
D03*
X6004D02*
D03*
X5512D02*
D03*
X5020D02*
D03*
X4527D02*
D03*
X4035D02*
D03*
X3543D02*
D03*
X3051D02*
D03*
X2559D02*
D03*
X2067D02*
D03*
X1575D02*
D03*
X1083D02*
D03*
X590D02*
D03*
X7972Y2657D02*
D03*
X7480D02*
D03*
X6988D02*
D03*
X6496D02*
D03*
X6004D02*
D03*
X5512D02*
D03*
X5020D02*
D03*
X4527D02*
D03*
X4035D02*
D03*
X3543D02*
D03*
X3051D02*
D03*
X2559D02*
D03*
X2067D02*
D03*
X1575D02*
D03*
X1083D02*
D03*
X590D02*
D03*
X7972Y1575D02*
D03*
X7480D02*
D03*
X6988D02*
D03*
X6496D02*
D03*
X6004D02*
D03*
X5512D02*
D03*
X5020D02*
D03*
X4527D02*
D03*
X4035D02*
D03*
X3543D02*
D03*
X3051D02*
D03*
X2559D02*
D03*
X2067D02*
D03*
X1575D02*
D03*
X1083D02*
D03*
X590D02*
D03*
X7972Y492D02*
D03*
X7480D02*
D03*
X6988D02*
D03*
X6594D02*
D03*
X6201D02*
D03*
X5413D02*
D03*
X5020D02*
D03*
X4527D02*
D03*
X4035D02*
D03*
X3543D02*
D03*
X3051D02*
D03*
X2559D02*
D03*
X2067D02*
D03*
X1575D02*
D03*
X1181D02*
D03*
X10827Y5807D02*
D03*
X11024Y6004D02*
D03*
X10728Y6004D02*
D03*
X10433D02*
D03*
X8957Y10032D02*
D03*
X8268Y6292D02*
D03*
X9449Y5012D02*
D03*
D28*
X5797Y9104D02*
D03*
Y11204D02*
D03*
Y12104D02*
D03*
X4997Y9104D02*
D03*
Y11204D02*
D03*
Y12104D02*
D03*
X4197Y9104D02*
D03*
Y11204D02*
D03*
Y12104D02*
D03*
X3397Y9104D02*
D03*
Y11204D02*
D03*
Y12104D02*
D03*
X2597Y9104D02*
D03*
Y11204D02*
D03*
Y12104D02*
D03*
X1797Y9104D02*
D03*
Y11204D02*
D03*
Y12104D02*
D03*
X997Y9104D02*
D03*
Y11204D02*
D03*
Y12104D02*
D03*
X197Y9104D02*
D03*
Y11204D02*
D03*
Y12104D02*
D03*
X11122Y12598D02*
D03*
X4526Y197D02*
D03*
D29*
X6299Y11713D02*
D03*
X6693D02*
D03*
X6496Y11516D02*
D03*
Y9350D02*
D03*
X7480Y10621D02*
D03*
Y10777D02*
D03*
Y10933D02*
D03*
Y11089D02*
D03*
D30*
X6299Y12697D02*
D03*
X6693D02*
D03*
X6496Y10531D02*
D03*
Y10335D02*
D03*
X7480Y9998D02*
D03*
Y10154D02*
D03*
Y10309D02*
D03*
Y10465D02*
D03*
Y11245D02*
D03*
Y11401D02*
D03*
Y11557D02*
D03*
Y11713D02*
D03*
D31*
X7185Y12598D02*
D03*
X7480D02*
D03*
X7677Y12500D02*
D03*
X7776Y12598D02*
D03*
X7185Y8760D02*
D03*
D32*
X7283Y12500D02*
D03*
X7185Y7972D02*
D03*
D33*
X7333Y12992D02*
D03*
X7628D02*
D03*
D34*
X11024Y7480D02*
D03*
X10925Y7382D02*
D03*
X10531Y7480D02*
D03*
X10433Y7382D02*
D03*
X10531Y7283D02*
D03*
D35*
X11024D02*
D03*
D36*
X443Y443D02*
D03*
D37*
X3839Y12697D02*
D03*
D38*
X1624Y295D02*
D03*
X5561Y394D02*
D03*
X640Y6594D02*
D03*
X5561Y6594D02*
D03*
X640Y12697D02*
D03*
X11565Y12894D02*
D03*
X11614Y6152D02*
D03*
D39*
X6790Y5860D02*
D03*
Y5960D02*
D03*
Y6060D02*
D03*
X7775Y6010D02*
D03*
X7240Y5160D02*
D03*
X7090Y7280D02*
D03*
X6348Y8169D02*
D03*
X8464Y9449D02*
D03*
X8710Y7960D02*
D03*
X8760Y8160D02*
D03*
X8365Y8560D02*
D03*
Y8360D02*
D03*
Y8460D02*
D03*
X8760Y8510D02*
D03*
Y9160D02*
D03*
X8960D02*
D03*
X8365Y9360D02*
D03*
X9450Y7910D02*
D03*
X1970Y6705D02*
D03*
X2560Y5005D02*
D03*
Y5305D02*
D03*
Y6605D02*
D03*
Y6805D02*
D03*
X2755Y6905D02*
D03*
X2560D02*
D03*
X3050Y6995D02*
D03*
X1969Y8760D02*
D03*
X2067Y8858D02*
D03*
X3986Y8760D02*
D03*
Y8858D02*
D03*
X7776Y6496D02*
D03*
Y5217D02*
D03*
X8169Y5118D02*
D03*
X5709Y6496D02*
D03*
X5807D02*
D03*
X5512Y7283D02*
D03*
X5807Y6791D02*
D03*
X6299Y6299D02*
D03*
X5512Y7677D02*
D03*
X9547D02*
D03*
Y6890D02*
D03*
X10433Y6988D02*
D03*
Y5610D02*
D03*
X7677Y5217D02*
D03*
X9055Y6102D02*
D03*
X11516Y5315D02*
D03*
X11614Y2362D02*
D03*
X10630Y984D02*
D03*
X8957Y1378D02*
D03*
X9055Y1083D02*
D03*
X7874Y3445D02*
D03*
X9055Y3248D02*
D03*
Y3051D02*
D03*
X8957Y5118D02*
D03*
Y5315D02*
D03*
X5217Y7185D02*
D03*
Y7972D02*
D03*
X5315Y7185D02*
D03*
X5217Y5807D02*
D03*
X4724Y5217D02*
D03*
X4626Y5118D02*
D03*
X4823Y8071D02*
D03*
X4724Y5906D02*
D03*
X4429Y7677D02*
D03*
X4823Y7530D02*
D03*
X10236Y7382D02*
D03*
X6791Y11220D02*
D03*
X6988Y7480D02*
D03*
X10335Y7087D02*
D03*
X10138Y5315D02*
D03*
X10728Y2461D02*
D03*
X10433Y3150D02*
D03*
X10236Y3937D02*
D03*
X10433Y3051D02*
D03*
X10138Y1870D02*
D03*
X9350Y1673D02*
D03*
Y2067D02*
D03*
X5512Y1673D02*
D03*
X10827Y3051D02*
D03*
Y1870D02*
D03*
X11614Y9843D02*
D03*
X11516Y6693D02*
D03*
X10433Y1772D02*
D03*
X11516Y1378D02*
D03*
X11417Y5315D02*
D03*
X11614Y2264D02*
D03*
X11516Y7087D02*
D03*
X9449Y6693D02*
D03*
Y8465D02*
D03*
Y8071D02*
D03*
X8465Y10728D02*
D03*
X8563Y8809D02*
D03*
X8465Y11909D02*
D03*
X9547Y12106D02*
D03*
X9744Y8760D02*
D03*
X8465Y11713D02*
D03*
X9350Y12303D02*
D03*
X9547Y11811D02*
D03*
X9350Y6693D02*
D03*
X11220Y12205D02*
D03*
X10728Y9154D02*
D03*
X9843Y12500D02*
D03*
X10925Y4724D02*
D03*
X11024D02*
D03*
X10433Y3839D02*
D03*
X10827Y5118D02*
D03*
X10433Y3937D02*
D03*
X10531Y5020D02*
D03*
Y5217D02*
D03*
X10335Y4724D02*
D03*
X10728Y11516D02*
D03*
X11073Y5709D02*
D03*
X9547Y689D02*
D03*
X984Y7283D02*
D03*
X1969Y689D02*
D03*
X9154Y394D02*
D03*
X2461Y7480D02*
D03*
X9154Y7628D02*
D03*
Y7480D02*
D03*
X9055Y7382D02*
D03*
X11073Y5118D02*
D03*
X10728Y9547D02*
D03*
Y9646D02*
D03*
Y9055D02*
D03*
X10236Y7480D02*
D03*
X11220Y7087D02*
D03*
X11516Y2461D02*
D03*
X5315Y7874D02*
D03*
X4921Y8366D02*
D03*
Y8465D02*
D03*
X1575Y5906D02*
D03*
X1378Y7087D02*
D03*
X1969Y6201D02*
D03*
X2165D02*
D03*
Y1575D02*
D03*
X1673Y5610D02*
D03*
Y6890D02*
D03*
X4625Y10404D02*
D03*
X4527Y7382D02*
D03*
X4429D02*
D03*
X4921Y6791D02*
D03*
Y6299D02*
D03*
X4429Y5906D02*
D03*
X4331Y6102D02*
D03*
X3248Y6299D02*
D03*
X4331Y5512D02*
D03*
X3839Y5807D02*
D03*
X6250Y6398D02*
D03*
X4626D02*
D03*
Y7087D02*
D03*
X4331Y6299D02*
D03*
X4429D02*
D03*
X4380Y7185D02*
D03*
X4331Y6398D02*
D03*
Y6496D02*
D03*
X5709Y7087D02*
D03*
Y7185D02*
D03*
X5807D02*
D03*
X5315Y7677D02*
D03*
X6004Y6496D02*
D03*
X8366Y6791D02*
D03*
X8169Y9055D02*
D03*
X7480Y7677D02*
D03*
X7677Y7776D02*
D03*
X6890Y11516D02*
D03*
X9449Y8957D02*
D03*
X8169Y10630D02*
D03*
X8661Y9646D02*
D03*
X7677Y7185D02*
D03*
X7480Y6398D02*
D03*
X7726Y6348D02*
D03*
X7677Y4823D02*
D03*
X886Y4724D02*
D03*
X197Y5906D02*
D03*
X7382Y6398D02*
D03*
X7579Y6594D02*
D03*
X8366Y5906D02*
D03*
Y5315D02*
D03*
X9350Y5020D02*
D03*
Y2756D02*
D03*
X8464Y2264D02*
D03*
X8957Y1772D02*
D03*
X11417Y3543D02*
D03*
X10531Y4134D02*
D03*
Y3839D02*
D03*
X8268Y1673D02*
D03*
X9744Y5807D02*
D03*
X9646Y5709D02*
D03*
X9842Y4331D02*
D03*
X9892Y4183D02*
D03*
X10728Y3248D02*
D03*
X10433Y11319D02*
D03*
Y8071D02*
D03*
X7037Y7972D02*
D03*
X6890Y12106D02*
D03*
X11319Y12795D02*
D03*
X10827Y12894D02*
D03*
X3248Y6496D02*
D03*
Y6398D02*
D03*
X3150Y6299D02*
D03*
X2362Y6102D02*
D03*
X2805Y7825D02*
D03*
X2756Y7677D02*
D03*
X2854Y7972D02*
D03*
X2953Y7382D02*
D03*
X2461Y6988D02*
D03*
X6791Y7874D02*
D03*
X6594Y8661D02*
D03*
X10531Y8366D02*
D03*
Y8858D02*
D03*
X10630Y10728D02*
D03*
X8661Y11319D02*
D03*
X11024Y9843D02*
D03*
X10728Y12106D02*
D03*
X10925Y8760D02*
D03*
X10433Y11122D02*
D03*
Y10630D02*
D03*
X10236Y4528D02*
D03*
X10433Y8169D02*
D03*
X9941Y5118D02*
D03*
X10138Y4232D02*
D03*
X10236Y5217D02*
D03*
X10138D02*
D03*
Y9055D02*
D03*
X9842Y5610D02*
D03*
X10138Y7087D02*
D03*
X8957Y7185D02*
D03*
X10827Y5610D02*
D03*
X10728D02*
D03*
X10433Y6496D02*
D03*
X5216Y5413D02*
D03*
X6201Y6890D02*
D03*
X6299D02*
D03*
X8169Y6594D02*
D03*
X8563Y6496D02*
D03*
X8661D02*
D03*
X9252Y1575D02*
D03*
Y1476D02*
D03*
Y3839D02*
D03*
Y2165D02*
D03*
X9842Y2953D02*
D03*
X9350Y4626D02*
D03*
Y4528D02*
D03*
X9646Y2756D02*
D03*
X9301Y4429D02*
D03*
X9744Y2657D02*
D03*
X9449D02*
D03*
X9547Y2559D02*
D03*
X9153Y3839D02*
D03*
X9252Y2461D02*
D03*
X11368Y4823D02*
D03*
X3150Y2657D02*
D03*
X2854Y5807D02*
D03*
X2953Y6004D02*
D03*
X10039Y2461D02*
D03*
X11220D02*
D03*
X11319Y2559D02*
D03*
X10925Y4921D02*
D03*
X10827Y3740D02*
D03*
X11220Y4331D02*
D03*
X11319Y4134D02*
D03*
X8169Y4232D02*
D03*
X8661Y5217D02*
D03*
Y5118D02*
D03*
Y4872D02*
D03*
X8760Y5020D02*
D03*
X8661Y3346D02*
D03*
X9842Y1083D02*
D03*
X9941Y2165D02*
D03*
X9252Y2362D02*
D03*
X9744Y7283D02*
D03*
X10433Y7677D02*
D03*
Y7579D02*
D03*
X10630Y8957D02*
D03*
X10925Y7185D02*
D03*
X11417D02*
D03*
Y5512D02*
D03*
Y5610D02*
D03*
Y5413D02*
D03*
X3740Y8465D02*
D03*
X3248Y10154D02*
D03*
X3839Y6004D02*
D03*
X3937D02*
D03*
X4035Y6299D02*
D03*
Y6693D02*
D03*
Y6791D02*
D03*
X4134Y6004D02*
D03*
X4429Y6890D02*
D03*
Y7579D02*
D03*
Y7776D02*
D03*
Y7972D02*
D03*
X4626Y8366D02*
D03*
Y8268D02*
D03*
X5118Y8465D02*
D03*
X5315Y8268D02*
D03*
X4675Y7431D02*
D03*
X4823Y7382D02*
D03*
X4921Y7283D02*
D03*
X4823D02*
D03*
X4921Y7776D02*
D03*
Y7874D02*
D03*
X7185Y4823D02*
D03*
X7087D02*
D03*
X6988D02*
D03*
X5561Y8465D02*
D03*
Y9804D02*
D03*
Y9704D02*
D03*
X6004Y8465D02*
D03*
X6791Y5758D02*
D03*
X6496Y6791D02*
D03*
X6890Y5512D02*
D03*
Y5709D02*
D03*
X6791Y5512D02*
D03*
Y4823D02*
D03*
X6693D02*
D03*
X6594Y5020D02*
D03*
Y4921D02*
D03*
X6299Y5610D02*
D03*
Y5512D02*
D03*
X6250Y5413D02*
D03*
X6791Y5118D02*
D03*
Y5413D02*
D03*
X6594Y6791D02*
D03*
X7087Y5512D02*
D03*
X5020Y7283D02*
D03*
X5118D02*
D03*
X5216Y8071D02*
D03*
X5266Y7333D02*
D03*
X5216Y5709D02*
D03*
X5315Y5315D02*
D03*
X8169Y5906D02*
D03*
Y4528D02*
D03*
X6890Y6594D02*
D03*
X7874Y6496D02*
D03*
X8661Y6398D02*
D03*
X7874D02*
D03*
X7825Y6299D02*
D03*
X7480Y5709D02*
D03*
Y5610D02*
D03*
X7579Y5512D02*
D03*
X8071Y5315D02*
D03*
X8169Y10925D02*
D03*
Y10827D02*
D03*
X7972D02*
D03*
X8071D02*
D03*
X8760Y4429D02*
D03*
X8661Y6890D02*
D03*
X8760Y7185D02*
D03*
X8366Y8962D02*
D03*
X8661Y8907D02*
D03*
X8366Y8858D02*
D03*
Y8760D02*
D03*
Y8661D02*
D03*
X7283Y6299D02*
D03*
X9646Y6201D02*
D03*
X8957Y6693D02*
D03*
X8858Y6201D02*
D03*
X9153Y6693D02*
D03*
X9547Y8957D02*
D03*
Y6791D02*
D03*
X9646Y10531D02*
D03*
X9744Y8071D02*
D03*
X8661Y10335D02*
D03*
X8760Y10138D02*
D03*
X11516Y9744D02*
D03*
X11122Y5413D02*
D03*
Y8563D02*
D03*
Y11614D02*
D03*
X11024D02*
D03*
X11319Y9547D02*
D03*
X11122Y8169D02*
D03*
Y11713D02*
D03*
X8464Y689D02*
D03*
X8415Y1575D02*
D03*
X1083Y1673D02*
D03*
X1181Y6988D02*
D03*
X1378Y6496D02*
D03*
X886Y7972D02*
D03*
X935Y7825D02*
D03*
X9153Y10531D02*
D03*
X9350Y12500D02*
D03*
X9646Y11319D02*
D03*
X6890Y12352D02*
D03*
X1722Y6348D02*
D03*
Y6791D02*
D03*
X1870Y7087D02*
D03*
X2214Y7480D02*
D03*
X1968Y7283D02*
D03*
X1870Y6890D02*
D03*
X1575D02*
D03*
X1476Y4921D02*
D03*
X689Y8465D02*
D03*
X787Y4724D02*
D03*
X3543Y5118D02*
D03*
Y4724D02*
D03*
X1673Y5217D02*
D03*
X3248Y5315D02*
D03*
Y5413D02*
D03*
X3150Y5610D02*
D03*
X4134Y5512D02*
D03*
X6299Y4823D02*
D03*
X6201D02*
D03*
X6102D02*
D03*
X3937Y4921D02*
D03*
X3839Y5020D02*
D03*
X4134Y5118D02*
D03*
Y4823D02*
D03*
X4232D02*
D03*
X4331D02*
D03*
X3740Y5020D02*
D03*
X984Y4823D02*
D03*
X1083Y5020D02*
D03*
X295Y6594D02*
D03*
Y8268D02*
D03*
X8071Y4626D02*
D03*
X7874D02*
D03*
X8071Y2953D02*
D03*
X7874Y5217D02*
D03*
X7776Y4429D02*
D03*
X8071D02*
D03*
X7087Y2559D02*
D03*
X7776Y787D02*
D03*
Y886D02*
D03*
Y984D02*
D03*
Y1181D02*
D03*
X7972Y3642D02*
D03*
X7579Y5315D02*
D03*
X7283Y2264D02*
D03*
Y1181D02*
D03*
X6890Y5118D02*
D03*
X6791Y2264D02*
D03*
Y1181D02*
D03*
X6890Y5315D02*
D03*
X6299Y2264D02*
D03*
Y1181D02*
D03*
X5905Y3543D02*
D03*
X5709Y1575D02*
D03*
X5807Y1181D02*
D03*
Y2264D02*
D03*
X5709Y3642D02*
D03*
X5413Y3839D02*
D03*
X5512D02*
D03*
X5709Y5020D02*
D03*
X5610Y3839D02*
D03*
X5315Y2264D02*
D03*
Y1181D02*
D03*
X4331Y2264D02*
D03*
Y1181D02*
D03*
X4823D02*
D03*
Y2264D02*
D03*
X4429Y4626D02*
D03*
X4134Y3740D02*
D03*
X3839Y2264D02*
D03*
Y1181D02*
D03*
X3445Y4626D02*
D03*
X3346Y1181D02*
D03*
Y2264D02*
D03*
X2953Y3543D02*
D03*
X2854Y2264D02*
D03*
Y1181D02*
D03*
X2362D02*
D03*
X2461Y3543D02*
D03*
X2362Y2264D02*
D03*
X1772Y3839D02*
D03*
X1870Y1181D02*
D03*
Y2264D02*
D03*
X1476Y2461D02*
D03*
X1378Y1181D02*
D03*
Y2264D02*
D03*
X1083Y3839D02*
D03*
X886Y1181D02*
D03*
Y2264D02*
D03*
X394Y1181D02*
D03*
Y2461D02*
D03*
X7283Y3346D02*
D03*
X6791D02*
D03*
X6299D02*
D03*
X5807D02*
D03*
X5315D02*
D03*
X4823D02*
D03*
X4331D02*
D03*
X3839D02*
D03*
X3346D02*
D03*
X2854D02*
D03*
X2362D02*
D03*
X1870D02*
D03*
X1378D02*
D03*
X886D02*
D03*
X394D02*
D03*
Y4429D02*
D03*
X886D02*
D03*
X1378D02*
D03*
X1870D02*
D03*
X2362D02*
D03*
X2854D02*
D03*
X3346D02*
D03*
X3839D02*
D03*
X4331D02*
D03*
X4823D02*
D03*
X5315D02*
D03*
X5807D02*
D03*
X6299D02*
D03*
X6791D02*
D03*
X7283D02*
D03*
X6988Y2559D02*
D03*
X8661Y1280D02*
D03*
X8464Y1083D02*
D03*
X7283Y3642D02*
D03*
X7874Y3543D02*
D03*
X7972Y1673D02*
D03*
Y12106D02*
D03*
Y11516D02*
D03*
Y11319D02*
D03*
X8563Y12008D02*
D03*
X8661Y12500D02*
D03*
X8366Y12106D02*
D03*
Y12697D02*
D03*
X8760Y10236D02*
D03*
X689Y6988D02*
D03*
X984Y4921D02*
D03*
X5610Y7874D02*
D03*
X5807Y7628D02*
D03*
Y7530D02*
D03*
X7382Y7972D02*
D03*
X10925Y12008D02*
D03*
X10531Y12500D02*
D03*
X9842Y12205D02*
D03*
X10138Y11713D02*
D03*
X590Y6398D02*
D03*
X10433Y6693D02*
D03*
X10236Y5512D02*
D03*
X10335Y7579D02*
D03*
X10236Y9252D02*
D03*
X10531Y7776D02*
D03*
X10039Y8661D02*
D03*
Y7087D02*
D03*
X11614Y1673D02*
D03*
X11516Y10728D02*
D03*
X10925Y11024D02*
D03*
X10630Y11811D02*
D03*
X2362Y5315D02*
D03*
X3150Y7776D02*
D03*
X2953Y8268D02*
D03*
X3248Y6890D02*
D03*
Y7136D02*
D03*
X3346Y6201D02*
D03*
X3248Y7382D02*
D03*
X3445Y6398D02*
D03*
X3543Y6496D02*
D03*
X3051Y11804D02*
D03*
X3100Y11704D02*
D03*
X3150Y11604D02*
D03*
X1624Y11055D02*
D03*
X2756Y6004D02*
D03*
Y6201D02*
D03*
X2165Y7726D02*
D03*
X2264Y8563D02*
D03*
X9646Y10728D02*
D03*
Y10630D02*
D03*
X11122Y7874D02*
D03*
X11024Y7579D02*
D03*
X8268Y7480D02*
D03*
X8366Y11024D02*
D03*
X8169Y11319D02*
D03*
Y6988D02*
D03*
Y7480D02*
D03*
X6102Y7874D02*
D03*
X6201Y7776D02*
D03*
X1476Y8563D02*
D03*
Y7283D02*
D03*
Y7972D02*
D03*
X1575Y8169D02*
D03*
X1378Y7185D02*
D03*
X9941Y11713D02*
D03*
X787Y7283D02*
D03*
X7776Y8120D02*
D03*
X7874Y9154D02*
D03*
X7776Y8219D02*
D03*
Y8563D02*
D03*
X8120Y12008D02*
D03*
X9252Y11516D02*
D03*
X9941Y4626D02*
D03*
X10138Y6693D02*
D03*
X11516Y6988D02*
D03*
X11220Y12008D02*
D03*
X9055Y12106D02*
D03*
X10138Y11516D02*
D03*
X9842Y12303D02*
D03*
X2362Y10704D02*
D03*
X2756Y7972D02*
D03*
X2264Y9554D02*
D03*
X2559Y7923D02*
D03*
X3543Y7677D02*
D03*
Y8071D02*
D03*
X9153Y3642D02*
D03*
X9449Y1476D02*
D03*
X9941Y8563D02*
D03*
X10138Y10925D02*
D03*
X10827Y9350D02*
D03*
Y9646D02*
D03*
X10728Y2067D02*
D03*
X1821Y6004D02*
D03*
X2264Y1476D02*
D03*
X8366Y3051D02*
D03*
X8465Y5020D02*
D03*
X8071Y6004D02*
D03*
X5807Y6299D02*
D03*
Y6398D02*
D03*
X6004Y5020D02*
D03*
X10827Y1476D02*
D03*
X11220D02*
D03*
X11122Y1378D02*
D03*
X10039Y1476D02*
D03*
X9843Y2362D02*
D03*
X9547Y2165D02*
D03*
X5709Y5906D02*
D03*
X10728D02*
D03*
X9843Y4528D02*
D03*
X3740Y5413D02*
D03*
X4429Y5709D02*
D03*
Y5413D02*
D03*
X10138Y3346D02*
D03*
X8661Y3199D02*
D03*
X591Y12352D02*
D03*
X787D02*
D03*
X591Y12254D02*
D03*
X1378Y12205D02*
D03*
X6791Y9252D02*
D03*
X2264Y12598D02*
D03*
X2362D02*
D03*
X4724Y12697D02*
D03*
X5807Y6890D02*
D03*
X5512Y5217D02*
D03*
Y6299D02*
D03*
X4675Y8711D02*
D03*
X2116D02*
D03*
X9345Y11130D02*
D03*
X9250Y10030D02*
D03*
X9300Y5110D02*
D03*
X9250Y5210D02*
D03*
M02*
