G04 Layer_Color=255*
%FSLAX23Y23*%
%MOIN*%
G70*
G01*
G75*
%ADD11C,0.059*%
%ADD12R,0.059X0.059*%
%ADD13R,0.059X0.059*%
%ADD14R,0.067X0.067*%
%ADD15C,0.067*%
%ADD16C,0.087*%
%ADD17C,0.098*%
%ADD18O,0.189X0.087*%
%ADD19C,0.063*%
G04:AMPARAMS|DCode=20|XSize=276mil|YSize=276mil|CornerRadius=69mil|HoleSize=0mil|Usage=FLASHONLY|Rotation=0.000|XOffset=0mil|YOffset=0mil|HoleType=Round|Shape=RoundedRectangle|*
%AMROUNDEDRECTD20*
21,1,0.276,0.138,0,0,0.0*
21,1,0.138,0.276,0,0,0.0*
1,1,0.138,0.069,-0.069*
1,1,0.138,-0.069,-0.069*
1,1,0.138,-0.069,0.069*
1,1,0.138,0.069,0.069*
%
%ADD20ROUNDEDRECTD20*%
%ADD21C,0.157*%
%ADD22C,0.102*%
D11*
X8711Y1965D02*
D03*
Y2065D02*
D03*
X8563Y1772D02*
D03*
Y1870D02*
D03*
Y1969D02*
D03*
Y2067D02*
D03*
Y2165D02*
D03*
Y2264D02*
D03*
Y2362D02*
D03*
Y2461D02*
D03*
X8268Y1772D02*
D03*
Y1870D02*
D03*
Y1969D02*
D03*
Y2067D02*
D03*
Y2165D02*
D03*
Y2264D02*
D03*
Y2362D02*
D03*
X8563Y689D02*
D03*
Y787D02*
D03*
Y886D02*
D03*
Y984D02*
D03*
Y1083D02*
D03*
Y1181D02*
D03*
Y1280D02*
D03*
Y1378D02*
D03*
X8268Y689D02*
D03*
Y787D02*
D03*
Y886D02*
D03*
Y984D02*
D03*
Y1083D02*
D03*
Y1181D02*
D03*
Y1280D02*
D03*
X6998Y5009D02*
D03*
Y5109D02*
D03*
Y5209D02*
D03*
Y5309D02*
D03*
Y5409D02*
D03*
Y5509D02*
D03*
Y5609D02*
D03*
Y5709D02*
D03*
Y5809D02*
D03*
Y5909D02*
D03*
Y6009D02*
D03*
Y6109D02*
D03*
Y6209D02*
D03*
Y6309D02*
D03*
X6398Y5009D02*
D03*
Y5109D02*
D03*
Y5209D02*
D03*
Y5309D02*
D03*
Y5409D02*
D03*
Y5509D02*
D03*
Y5609D02*
D03*
Y5709D02*
D03*
Y5809D02*
D03*
Y5909D02*
D03*
Y6009D02*
D03*
Y6109D02*
D03*
Y6209D02*
D03*
X7982Y5009D02*
D03*
Y5109D02*
D03*
Y5209D02*
D03*
Y5309D02*
D03*
Y5409D02*
D03*
Y5509D02*
D03*
Y5609D02*
D03*
Y5709D02*
D03*
Y5809D02*
D03*
Y5909D02*
D03*
Y6009D02*
D03*
Y6109D02*
D03*
Y6209D02*
D03*
Y6309D02*
D03*
X7382Y5009D02*
D03*
Y5109D02*
D03*
Y5209D02*
D03*
Y5309D02*
D03*
Y5409D02*
D03*
Y5509D02*
D03*
Y5609D02*
D03*
Y5709D02*
D03*
Y5809D02*
D03*
Y5909D02*
D03*
Y6009D02*
D03*
Y6109D02*
D03*
Y6209D02*
D03*
X6604Y6879D02*
D03*
Y6979D02*
D03*
Y7079D02*
D03*
Y7179D02*
D03*
Y7279D02*
D03*
Y7379D02*
D03*
Y7479D02*
D03*
Y7579D02*
D03*
Y7679D02*
D03*
Y7779D02*
D03*
Y7879D02*
D03*
Y7979D02*
D03*
Y8079D02*
D03*
Y8179D02*
D03*
X6004Y6879D02*
D03*
Y6979D02*
D03*
Y7079D02*
D03*
Y7179D02*
D03*
Y7279D02*
D03*
Y7379D02*
D03*
Y7479D02*
D03*
Y7579D02*
D03*
Y7679D02*
D03*
Y7779D02*
D03*
Y7879D02*
D03*
Y7979D02*
D03*
Y8079D02*
D03*
X2076Y5005D02*
D03*
Y5105D02*
D03*
Y5205D02*
D03*
Y5305D02*
D03*
Y5405D02*
D03*
Y5505D02*
D03*
Y5605D02*
D03*
Y5705D02*
D03*
Y5805D02*
D03*
Y5905D02*
D03*
Y6005D02*
D03*
Y6105D02*
D03*
Y6205D02*
D03*
Y6305D02*
D03*
Y6405D02*
D03*
Y6505D02*
D03*
Y6605D02*
D03*
Y6705D02*
D03*
Y6805D02*
D03*
Y6905D02*
D03*
X1476Y5005D02*
D03*
Y5105D02*
D03*
Y5205D02*
D03*
Y5305D02*
D03*
Y5405D02*
D03*
Y5505D02*
D03*
Y5605D02*
D03*
Y5705D02*
D03*
Y5805D02*
D03*
Y5905D02*
D03*
Y6005D02*
D03*
Y6105D02*
D03*
Y6205D02*
D03*
Y6305D02*
D03*
Y6405D02*
D03*
Y6505D02*
D03*
Y6605D02*
D03*
Y6705D02*
D03*
Y6805D02*
D03*
X9852Y7761D02*
D03*
Y7861D02*
D03*
Y7961D02*
D03*
Y8061D02*
D03*
Y8161D02*
D03*
Y8261D02*
D03*
Y8361D02*
D03*
Y8461D02*
D03*
Y8561D02*
D03*
Y8661D02*
D03*
Y8761D02*
D03*
Y8861D02*
D03*
Y8961D02*
D03*
Y9061D02*
D03*
Y9161D02*
D03*
Y9261D02*
D03*
Y9361D02*
D03*
Y9461D02*
D03*
Y9561D02*
D03*
Y9661D02*
D03*
X9252Y7761D02*
D03*
Y7861D02*
D03*
Y7961D02*
D03*
Y8061D02*
D03*
Y8161D02*
D03*
Y8261D02*
D03*
Y8361D02*
D03*
Y8461D02*
D03*
Y8561D02*
D03*
Y8661D02*
D03*
Y8761D02*
D03*
Y8861D02*
D03*
Y8961D02*
D03*
Y9061D02*
D03*
Y9161D02*
D03*
Y9261D02*
D03*
Y9361D02*
D03*
Y9461D02*
D03*
Y9561D02*
D03*
X8868Y7761D02*
D03*
Y7861D02*
D03*
Y7961D02*
D03*
Y8061D02*
D03*
Y8161D02*
D03*
Y8261D02*
D03*
Y8361D02*
D03*
Y8461D02*
D03*
Y8561D02*
D03*
Y8661D02*
D03*
Y8761D02*
D03*
Y8861D02*
D03*
Y8961D02*
D03*
Y9061D02*
D03*
Y9161D02*
D03*
Y9261D02*
D03*
Y9361D02*
D03*
Y9461D02*
D03*
Y9561D02*
D03*
Y9661D02*
D03*
X8268Y7761D02*
D03*
Y7861D02*
D03*
Y7961D02*
D03*
Y8061D02*
D03*
Y8161D02*
D03*
Y8261D02*
D03*
Y8361D02*
D03*
Y8461D02*
D03*
Y8561D02*
D03*
Y8661D02*
D03*
Y8761D02*
D03*
Y8861D02*
D03*
Y8961D02*
D03*
Y9061D02*
D03*
Y9161D02*
D03*
Y9261D02*
D03*
Y9361D02*
D03*
Y9461D02*
D03*
Y9561D02*
D03*
X3061Y5005D02*
D03*
Y5105D02*
D03*
Y5205D02*
D03*
Y5305D02*
D03*
Y5405D02*
D03*
Y5505D02*
D03*
Y5605D02*
D03*
Y5705D02*
D03*
Y5805D02*
D03*
Y5905D02*
D03*
Y6005D02*
D03*
Y6105D02*
D03*
Y6205D02*
D03*
Y6305D02*
D03*
Y6405D02*
D03*
Y6505D02*
D03*
Y6605D02*
D03*
Y6705D02*
D03*
Y6805D02*
D03*
Y6905D02*
D03*
X2461Y5005D02*
D03*
Y5105D02*
D03*
Y5205D02*
D03*
Y5305D02*
D03*
Y5405D02*
D03*
Y5505D02*
D03*
Y5605D02*
D03*
Y5705D02*
D03*
Y5805D02*
D03*
Y5905D02*
D03*
Y6005D02*
D03*
Y6105D02*
D03*
Y6205D02*
D03*
Y6305D02*
D03*
Y6405D02*
D03*
Y6505D02*
D03*
Y6605D02*
D03*
Y6705D02*
D03*
Y6805D02*
D03*
X10630Y295D02*
D03*
Y492D02*
D03*
X10138Y148D02*
D03*
Y640D02*
D03*
X590Y5807D02*
D03*
X394D02*
D03*
X738Y5315D02*
D03*
X246D02*
D03*
X9941Y6398D02*
D03*
X9153D02*
D03*
X7972Y3937D02*
D03*
Y4035D02*
D03*
Y4134D02*
D03*
Y4232D02*
D03*
Y4331D02*
D03*
Y4429D02*
D03*
Y4528D02*
D03*
Y4626D02*
D03*
X7677Y3937D02*
D03*
Y4035D02*
D03*
Y4134D02*
D03*
Y4232D02*
D03*
Y4331D02*
D03*
Y4429D02*
D03*
Y4528D02*
D03*
X6988Y3937D02*
D03*
Y4035D02*
D03*
Y4134D02*
D03*
Y4232D02*
D03*
Y4331D02*
D03*
Y4429D02*
D03*
Y4528D02*
D03*
Y4626D02*
D03*
X6693Y3937D02*
D03*
Y4035D02*
D03*
Y4134D02*
D03*
Y4232D02*
D03*
Y4331D02*
D03*
Y4429D02*
D03*
Y4528D02*
D03*
X6004Y3937D02*
D03*
Y4035D02*
D03*
Y4134D02*
D03*
Y4232D02*
D03*
Y4331D02*
D03*
Y4429D02*
D03*
Y4528D02*
D03*
Y4626D02*
D03*
X5709Y3937D02*
D03*
Y4035D02*
D03*
Y4134D02*
D03*
Y4232D02*
D03*
Y4331D02*
D03*
Y4429D02*
D03*
Y4528D02*
D03*
X5020Y3937D02*
D03*
Y4035D02*
D03*
Y4134D02*
D03*
Y4232D02*
D03*
Y4331D02*
D03*
Y4429D02*
D03*
Y4528D02*
D03*
Y4626D02*
D03*
X4724Y3937D02*
D03*
Y4035D02*
D03*
Y4134D02*
D03*
Y4232D02*
D03*
Y4331D02*
D03*
Y4429D02*
D03*
Y4528D02*
D03*
X4035Y3937D02*
D03*
Y4035D02*
D03*
Y4134D02*
D03*
Y4232D02*
D03*
Y4331D02*
D03*
Y4429D02*
D03*
Y4528D02*
D03*
Y4626D02*
D03*
X3740Y3937D02*
D03*
Y4035D02*
D03*
Y4134D02*
D03*
Y4232D02*
D03*
Y4331D02*
D03*
Y4429D02*
D03*
Y4528D02*
D03*
X3051Y3937D02*
D03*
Y4035D02*
D03*
Y4134D02*
D03*
Y4232D02*
D03*
Y4331D02*
D03*
Y4429D02*
D03*
Y4528D02*
D03*
Y4626D02*
D03*
X2756Y3937D02*
D03*
Y4035D02*
D03*
Y4134D02*
D03*
Y4232D02*
D03*
Y4331D02*
D03*
Y4429D02*
D03*
Y4528D02*
D03*
X2067Y3937D02*
D03*
Y4035D02*
D03*
Y4134D02*
D03*
Y4232D02*
D03*
Y4331D02*
D03*
Y4429D02*
D03*
Y4528D02*
D03*
Y4626D02*
D03*
X1772Y3937D02*
D03*
Y4035D02*
D03*
Y4134D02*
D03*
Y4232D02*
D03*
Y4331D02*
D03*
Y4429D02*
D03*
Y4528D02*
D03*
X1083Y3937D02*
D03*
Y4035D02*
D03*
Y4134D02*
D03*
Y4232D02*
D03*
Y4331D02*
D03*
Y4429D02*
D03*
Y4528D02*
D03*
Y4626D02*
D03*
X787Y3937D02*
D03*
Y4035D02*
D03*
Y4134D02*
D03*
Y4232D02*
D03*
Y4331D02*
D03*
Y4429D02*
D03*
Y4528D02*
D03*
X7480Y3937D02*
D03*
Y4035D02*
D03*
Y4134D02*
D03*
Y4232D02*
D03*
Y4331D02*
D03*
Y4429D02*
D03*
Y4528D02*
D03*
Y4626D02*
D03*
X7185Y3937D02*
D03*
Y4035D02*
D03*
Y4134D02*
D03*
Y4232D02*
D03*
Y4331D02*
D03*
Y4429D02*
D03*
Y4528D02*
D03*
X6496Y3937D02*
D03*
Y4035D02*
D03*
Y4134D02*
D03*
Y4232D02*
D03*
Y4331D02*
D03*
Y4429D02*
D03*
Y4528D02*
D03*
Y4626D02*
D03*
X6201Y3937D02*
D03*
Y4035D02*
D03*
Y4134D02*
D03*
Y4232D02*
D03*
Y4331D02*
D03*
Y4429D02*
D03*
Y4528D02*
D03*
X5512Y3937D02*
D03*
Y4035D02*
D03*
Y4134D02*
D03*
Y4232D02*
D03*
Y4331D02*
D03*
Y4429D02*
D03*
Y4528D02*
D03*
Y4626D02*
D03*
X5216Y3937D02*
D03*
Y4035D02*
D03*
Y4134D02*
D03*
Y4232D02*
D03*
Y4331D02*
D03*
Y4429D02*
D03*
Y4528D02*
D03*
X4527Y3937D02*
D03*
Y4035D02*
D03*
Y4134D02*
D03*
Y4232D02*
D03*
Y4331D02*
D03*
Y4429D02*
D03*
Y4528D02*
D03*
Y4626D02*
D03*
X4232Y3937D02*
D03*
Y4035D02*
D03*
Y4134D02*
D03*
Y4232D02*
D03*
Y4331D02*
D03*
Y4429D02*
D03*
Y4528D02*
D03*
X3543Y3937D02*
D03*
Y4035D02*
D03*
Y4134D02*
D03*
Y4232D02*
D03*
Y4331D02*
D03*
Y4429D02*
D03*
Y4528D02*
D03*
Y4626D02*
D03*
X3248Y3937D02*
D03*
Y4035D02*
D03*
Y4134D02*
D03*
Y4232D02*
D03*
Y4331D02*
D03*
Y4429D02*
D03*
Y4528D02*
D03*
X2559Y3937D02*
D03*
Y4035D02*
D03*
Y4134D02*
D03*
Y4232D02*
D03*
Y4331D02*
D03*
Y4429D02*
D03*
Y4528D02*
D03*
Y4626D02*
D03*
X2264Y3937D02*
D03*
Y4035D02*
D03*
Y4134D02*
D03*
Y4232D02*
D03*
Y4331D02*
D03*
Y4429D02*
D03*
Y4528D02*
D03*
X1575Y3937D02*
D03*
Y4035D02*
D03*
Y4134D02*
D03*
Y4232D02*
D03*
Y4331D02*
D03*
Y4429D02*
D03*
Y4528D02*
D03*
Y4626D02*
D03*
X1279Y3937D02*
D03*
Y4035D02*
D03*
Y4134D02*
D03*
Y4232D02*
D03*
Y4331D02*
D03*
Y4429D02*
D03*
Y4528D02*
D03*
X590Y3937D02*
D03*
Y4035D02*
D03*
Y4134D02*
D03*
Y4232D02*
D03*
Y4331D02*
D03*
Y4429D02*
D03*
Y4528D02*
D03*
Y4626D02*
D03*
X295Y3937D02*
D03*
Y4035D02*
D03*
Y4134D02*
D03*
Y4232D02*
D03*
Y4331D02*
D03*
Y4429D02*
D03*
Y4528D02*
D03*
X7972Y2854D02*
D03*
Y2953D02*
D03*
Y3051D02*
D03*
Y3150D02*
D03*
Y3248D02*
D03*
Y3346D02*
D03*
Y3445D02*
D03*
Y3543D02*
D03*
X7677Y2854D02*
D03*
Y2953D02*
D03*
Y3051D02*
D03*
Y3150D02*
D03*
Y3248D02*
D03*
Y3346D02*
D03*
Y3445D02*
D03*
X6988Y2854D02*
D03*
Y2953D02*
D03*
Y3051D02*
D03*
Y3150D02*
D03*
Y3248D02*
D03*
Y3346D02*
D03*
Y3445D02*
D03*
Y3543D02*
D03*
X6693Y2854D02*
D03*
Y2953D02*
D03*
Y3051D02*
D03*
Y3150D02*
D03*
Y3248D02*
D03*
Y3346D02*
D03*
Y3445D02*
D03*
X6004Y2854D02*
D03*
Y2953D02*
D03*
Y3051D02*
D03*
Y3150D02*
D03*
Y3248D02*
D03*
Y3346D02*
D03*
Y3445D02*
D03*
Y3543D02*
D03*
X5709Y2854D02*
D03*
Y2953D02*
D03*
Y3051D02*
D03*
Y3150D02*
D03*
Y3248D02*
D03*
Y3346D02*
D03*
Y3445D02*
D03*
X5020Y2854D02*
D03*
Y2953D02*
D03*
Y3051D02*
D03*
Y3150D02*
D03*
Y3248D02*
D03*
Y3346D02*
D03*
Y3445D02*
D03*
Y3543D02*
D03*
X4724Y2854D02*
D03*
Y2953D02*
D03*
Y3051D02*
D03*
Y3150D02*
D03*
Y3248D02*
D03*
Y3346D02*
D03*
Y3445D02*
D03*
X4035Y2854D02*
D03*
Y2953D02*
D03*
Y3051D02*
D03*
Y3150D02*
D03*
Y3248D02*
D03*
Y3346D02*
D03*
Y3445D02*
D03*
Y3543D02*
D03*
X3740Y2854D02*
D03*
Y2953D02*
D03*
Y3051D02*
D03*
Y3150D02*
D03*
Y3248D02*
D03*
Y3346D02*
D03*
Y3445D02*
D03*
X3051Y2854D02*
D03*
Y2953D02*
D03*
Y3051D02*
D03*
Y3150D02*
D03*
Y3248D02*
D03*
Y3346D02*
D03*
Y3445D02*
D03*
Y3543D02*
D03*
X2756Y2854D02*
D03*
Y2953D02*
D03*
Y3051D02*
D03*
Y3150D02*
D03*
Y3248D02*
D03*
Y3346D02*
D03*
Y3445D02*
D03*
X2067Y2854D02*
D03*
Y2953D02*
D03*
Y3051D02*
D03*
Y3150D02*
D03*
Y3248D02*
D03*
Y3346D02*
D03*
Y3445D02*
D03*
Y3543D02*
D03*
X1772Y2854D02*
D03*
Y2953D02*
D03*
Y3051D02*
D03*
Y3150D02*
D03*
Y3248D02*
D03*
Y3346D02*
D03*
Y3445D02*
D03*
X1083Y2854D02*
D03*
Y2953D02*
D03*
Y3051D02*
D03*
Y3150D02*
D03*
Y3248D02*
D03*
Y3346D02*
D03*
Y3445D02*
D03*
Y3543D02*
D03*
X787Y2854D02*
D03*
Y2953D02*
D03*
Y3051D02*
D03*
Y3150D02*
D03*
Y3248D02*
D03*
Y3346D02*
D03*
Y3445D02*
D03*
X7480Y2854D02*
D03*
Y2953D02*
D03*
Y3051D02*
D03*
Y3150D02*
D03*
Y3248D02*
D03*
Y3346D02*
D03*
Y3445D02*
D03*
Y3543D02*
D03*
X7185Y2854D02*
D03*
Y2953D02*
D03*
Y3051D02*
D03*
Y3150D02*
D03*
Y3248D02*
D03*
Y3346D02*
D03*
Y3445D02*
D03*
X6496Y2854D02*
D03*
Y2953D02*
D03*
Y3051D02*
D03*
Y3150D02*
D03*
Y3248D02*
D03*
Y3346D02*
D03*
Y3445D02*
D03*
Y3543D02*
D03*
X6201Y2854D02*
D03*
Y2953D02*
D03*
Y3051D02*
D03*
Y3150D02*
D03*
Y3248D02*
D03*
Y3346D02*
D03*
Y3445D02*
D03*
X5512Y2854D02*
D03*
Y2953D02*
D03*
Y3051D02*
D03*
Y3150D02*
D03*
Y3248D02*
D03*
Y3346D02*
D03*
Y3445D02*
D03*
Y3543D02*
D03*
X5216Y2854D02*
D03*
Y2953D02*
D03*
Y3051D02*
D03*
Y3150D02*
D03*
Y3248D02*
D03*
Y3346D02*
D03*
Y3445D02*
D03*
X4527Y2854D02*
D03*
Y2953D02*
D03*
Y3051D02*
D03*
Y3150D02*
D03*
Y3248D02*
D03*
Y3346D02*
D03*
Y3445D02*
D03*
Y3543D02*
D03*
X4232Y2854D02*
D03*
Y2953D02*
D03*
Y3051D02*
D03*
Y3150D02*
D03*
Y3248D02*
D03*
Y3346D02*
D03*
Y3445D02*
D03*
X3543Y2854D02*
D03*
Y2953D02*
D03*
Y3051D02*
D03*
Y3150D02*
D03*
Y3248D02*
D03*
Y3346D02*
D03*
Y3445D02*
D03*
Y3543D02*
D03*
X3248Y2854D02*
D03*
Y2953D02*
D03*
Y3051D02*
D03*
Y3150D02*
D03*
Y3248D02*
D03*
Y3346D02*
D03*
Y3445D02*
D03*
X2559Y2854D02*
D03*
Y2953D02*
D03*
Y3051D02*
D03*
Y3150D02*
D03*
Y3248D02*
D03*
Y3346D02*
D03*
Y3445D02*
D03*
Y3543D02*
D03*
X2264Y2854D02*
D03*
Y2953D02*
D03*
Y3051D02*
D03*
Y3150D02*
D03*
Y3248D02*
D03*
Y3346D02*
D03*
Y3445D02*
D03*
X1575Y2854D02*
D03*
Y2953D02*
D03*
Y3051D02*
D03*
Y3150D02*
D03*
Y3248D02*
D03*
Y3346D02*
D03*
Y3445D02*
D03*
Y3543D02*
D03*
X1279Y2854D02*
D03*
Y2953D02*
D03*
Y3051D02*
D03*
Y3150D02*
D03*
Y3248D02*
D03*
Y3346D02*
D03*
Y3445D02*
D03*
X590Y2854D02*
D03*
Y2953D02*
D03*
Y3051D02*
D03*
Y3150D02*
D03*
Y3248D02*
D03*
Y3346D02*
D03*
Y3445D02*
D03*
Y3543D02*
D03*
X295Y2854D02*
D03*
Y2953D02*
D03*
Y3051D02*
D03*
Y3150D02*
D03*
Y3248D02*
D03*
Y3346D02*
D03*
Y3445D02*
D03*
X7972Y1772D02*
D03*
Y1870D02*
D03*
Y1969D02*
D03*
Y2067D02*
D03*
Y2165D02*
D03*
Y2264D02*
D03*
Y2362D02*
D03*
Y2461D02*
D03*
X7677Y1772D02*
D03*
Y1870D02*
D03*
Y1969D02*
D03*
Y2067D02*
D03*
Y2165D02*
D03*
Y2264D02*
D03*
Y2362D02*
D03*
X6988Y1772D02*
D03*
Y1870D02*
D03*
Y1969D02*
D03*
Y2067D02*
D03*
Y2165D02*
D03*
Y2264D02*
D03*
Y2362D02*
D03*
Y2461D02*
D03*
X6693Y1772D02*
D03*
Y1870D02*
D03*
Y1969D02*
D03*
Y2067D02*
D03*
Y2165D02*
D03*
Y2264D02*
D03*
Y2362D02*
D03*
X6004Y1772D02*
D03*
Y1870D02*
D03*
Y1969D02*
D03*
Y2067D02*
D03*
Y2165D02*
D03*
Y2264D02*
D03*
Y2362D02*
D03*
Y2461D02*
D03*
X5709Y1772D02*
D03*
Y1870D02*
D03*
Y1969D02*
D03*
Y2067D02*
D03*
Y2165D02*
D03*
Y2264D02*
D03*
Y2362D02*
D03*
X5020Y1772D02*
D03*
Y1870D02*
D03*
Y1969D02*
D03*
Y2067D02*
D03*
Y2165D02*
D03*
Y2264D02*
D03*
Y2362D02*
D03*
Y2461D02*
D03*
X4724Y1772D02*
D03*
Y1870D02*
D03*
Y1969D02*
D03*
Y2067D02*
D03*
Y2165D02*
D03*
Y2264D02*
D03*
Y2362D02*
D03*
X4035Y1772D02*
D03*
Y1870D02*
D03*
Y1969D02*
D03*
Y2067D02*
D03*
Y2165D02*
D03*
Y2264D02*
D03*
Y2362D02*
D03*
Y2461D02*
D03*
X3740Y1772D02*
D03*
Y1870D02*
D03*
Y1969D02*
D03*
Y2067D02*
D03*
Y2165D02*
D03*
Y2264D02*
D03*
Y2362D02*
D03*
X3051Y1772D02*
D03*
Y1870D02*
D03*
Y1969D02*
D03*
Y2067D02*
D03*
Y2165D02*
D03*
Y2264D02*
D03*
Y2362D02*
D03*
Y2461D02*
D03*
X2756Y1772D02*
D03*
Y1870D02*
D03*
Y1969D02*
D03*
Y2067D02*
D03*
Y2165D02*
D03*
Y2264D02*
D03*
Y2362D02*
D03*
X2067Y1772D02*
D03*
Y1870D02*
D03*
Y1969D02*
D03*
Y2067D02*
D03*
Y2165D02*
D03*
Y2264D02*
D03*
Y2362D02*
D03*
Y2461D02*
D03*
X1772Y1772D02*
D03*
Y1870D02*
D03*
Y1969D02*
D03*
Y2067D02*
D03*
Y2165D02*
D03*
Y2264D02*
D03*
Y2362D02*
D03*
X1083Y1772D02*
D03*
Y1870D02*
D03*
Y1969D02*
D03*
Y2067D02*
D03*
Y2165D02*
D03*
Y2264D02*
D03*
Y2362D02*
D03*
Y2461D02*
D03*
X787Y1772D02*
D03*
Y1870D02*
D03*
Y1969D02*
D03*
Y2067D02*
D03*
Y2165D02*
D03*
Y2264D02*
D03*
Y2362D02*
D03*
X7480Y1772D02*
D03*
Y1870D02*
D03*
Y1969D02*
D03*
Y2067D02*
D03*
Y2165D02*
D03*
Y2264D02*
D03*
Y2362D02*
D03*
Y2461D02*
D03*
X7185Y1772D02*
D03*
Y1870D02*
D03*
Y1969D02*
D03*
Y2067D02*
D03*
Y2165D02*
D03*
Y2264D02*
D03*
Y2362D02*
D03*
X6496Y1772D02*
D03*
Y1870D02*
D03*
Y1969D02*
D03*
Y2067D02*
D03*
Y2165D02*
D03*
Y2264D02*
D03*
Y2362D02*
D03*
Y2461D02*
D03*
X6201Y1772D02*
D03*
Y1870D02*
D03*
Y1969D02*
D03*
Y2067D02*
D03*
Y2165D02*
D03*
Y2264D02*
D03*
Y2362D02*
D03*
X5512Y1772D02*
D03*
Y1870D02*
D03*
Y1969D02*
D03*
Y2067D02*
D03*
Y2165D02*
D03*
Y2264D02*
D03*
Y2362D02*
D03*
Y2461D02*
D03*
X5216Y1772D02*
D03*
Y1870D02*
D03*
Y1969D02*
D03*
Y2067D02*
D03*
Y2165D02*
D03*
Y2264D02*
D03*
Y2362D02*
D03*
X4527Y1772D02*
D03*
Y1870D02*
D03*
Y1969D02*
D03*
Y2067D02*
D03*
Y2165D02*
D03*
Y2264D02*
D03*
Y2362D02*
D03*
Y2461D02*
D03*
X4232Y1772D02*
D03*
Y1870D02*
D03*
Y1969D02*
D03*
Y2067D02*
D03*
Y2165D02*
D03*
Y2264D02*
D03*
Y2362D02*
D03*
X3543Y1772D02*
D03*
Y1870D02*
D03*
Y1969D02*
D03*
Y2067D02*
D03*
Y2165D02*
D03*
Y2264D02*
D03*
Y2362D02*
D03*
Y2461D02*
D03*
X3248Y1772D02*
D03*
Y1870D02*
D03*
Y1969D02*
D03*
Y2067D02*
D03*
Y2165D02*
D03*
Y2264D02*
D03*
Y2362D02*
D03*
X2559Y1772D02*
D03*
Y1870D02*
D03*
Y1969D02*
D03*
Y2067D02*
D03*
Y2165D02*
D03*
Y2264D02*
D03*
Y2362D02*
D03*
Y2461D02*
D03*
X2264Y1772D02*
D03*
Y1870D02*
D03*
Y1969D02*
D03*
Y2067D02*
D03*
Y2165D02*
D03*
Y2264D02*
D03*
Y2362D02*
D03*
X1575Y1772D02*
D03*
Y1870D02*
D03*
Y1969D02*
D03*
Y2067D02*
D03*
Y2165D02*
D03*
Y2264D02*
D03*
Y2362D02*
D03*
Y2461D02*
D03*
X1279Y1772D02*
D03*
Y1870D02*
D03*
Y1969D02*
D03*
Y2067D02*
D03*
Y2165D02*
D03*
Y2264D02*
D03*
Y2362D02*
D03*
X590Y1772D02*
D03*
Y1870D02*
D03*
Y1969D02*
D03*
Y2067D02*
D03*
Y2165D02*
D03*
Y2264D02*
D03*
Y2362D02*
D03*
Y2461D02*
D03*
X295Y1772D02*
D03*
Y1870D02*
D03*
Y1969D02*
D03*
Y2067D02*
D03*
Y2165D02*
D03*
Y2264D02*
D03*
Y2362D02*
D03*
X7972Y689D02*
D03*
Y787D02*
D03*
Y886D02*
D03*
Y984D02*
D03*
Y1083D02*
D03*
Y1181D02*
D03*
Y1280D02*
D03*
Y1378D02*
D03*
X7677Y689D02*
D03*
Y787D02*
D03*
Y886D02*
D03*
Y984D02*
D03*
Y1083D02*
D03*
Y1181D02*
D03*
Y1280D02*
D03*
X6988Y689D02*
D03*
Y787D02*
D03*
Y886D02*
D03*
Y984D02*
D03*
Y1083D02*
D03*
Y1181D02*
D03*
Y1280D02*
D03*
Y1378D02*
D03*
X6693Y689D02*
D03*
Y787D02*
D03*
Y886D02*
D03*
Y984D02*
D03*
Y1083D02*
D03*
Y1181D02*
D03*
Y1280D02*
D03*
X6004Y689D02*
D03*
Y787D02*
D03*
Y886D02*
D03*
Y984D02*
D03*
Y1083D02*
D03*
Y1181D02*
D03*
Y1280D02*
D03*
Y1378D02*
D03*
X5709Y689D02*
D03*
Y787D02*
D03*
Y886D02*
D03*
Y984D02*
D03*
Y1083D02*
D03*
Y1181D02*
D03*
Y1280D02*
D03*
X5020Y689D02*
D03*
Y787D02*
D03*
Y886D02*
D03*
Y984D02*
D03*
Y1083D02*
D03*
Y1181D02*
D03*
Y1280D02*
D03*
Y1378D02*
D03*
X4724Y689D02*
D03*
Y787D02*
D03*
Y886D02*
D03*
Y984D02*
D03*
Y1083D02*
D03*
Y1181D02*
D03*
Y1280D02*
D03*
X4035Y689D02*
D03*
Y787D02*
D03*
Y886D02*
D03*
Y984D02*
D03*
Y1083D02*
D03*
Y1181D02*
D03*
Y1280D02*
D03*
Y1378D02*
D03*
X3740Y689D02*
D03*
Y787D02*
D03*
Y886D02*
D03*
Y984D02*
D03*
Y1083D02*
D03*
Y1181D02*
D03*
Y1280D02*
D03*
X3051Y689D02*
D03*
Y787D02*
D03*
Y886D02*
D03*
Y984D02*
D03*
Y1083D02*
D03*
Y1181D02*
D03*
Y1280D02*
D03*
Y1378D02*
D03*
X2756Y689D02*
D03*
Y787D02*
D03*
Y886D02*
D03*
Y984D02*
D03*
Y1083D02*
D03*
Y1181D02*
D03*
Y1280D02*
D03*
X2067Y689D02*
D03*
Y787D02*
D03*
Y886D02*
D03*
Y984D02*
D03*
Y1083D02*
D03*
Y1181D02*
D03*
Y1280D02*
D03*
Y1378D02*
D03*
X1772Y689D02*
D03*
Y787D02*
D03*
Y886D02*
D03*
Y984D02*
D03*
Y1083D02*
D03*
Y1181D02*
D03*
Y1280D02*
D03*
X1083Y689D02*
D03*
Y787D02*
D03*
Y886D02*
D03*
Y984D02*
D03*
Y1083D02*
D03*
Y1181D02*
D03*
Y1280D02*
D03*
Y1378D02*
D03*
X787Y689D02*
D03*
Y787D02*
D03*
Y886D02*
D03*
Y984D02*
D03*
Y1083D02*
D03*
Y1181D02*
D03*
Y1280D02*
D03*
X7480Y689D02*
D03*
Y787D02*
D03*
Y886D02*
D03*
Y984D02*
D03*
Y1083D02*
D03*
Y1181D02*
D03*
Y1280D02*
D03*
Y1378D02*
D03*
X7185Y689D02*
D03*
Y787D02*
D03*
Y886D02*
D03*
Y984D02*
D03*
Y1083D02*
D03*
Y1181D02*
D03*
Y1280D02*
D03*
X6496Y689D02*
D03*
Y787D02*
D03*
Y886D02*
D03*
Y984D02*
D03*
Y1083D02*
D03*
Y1181D02*
D03*
Y1280D02*
D03*
Y1378D02*
D03*
X6201Y689D02*
D03*
Y787D02*
D03*
Y886D02*
D03*
Y984D02*
D03*
Y1083D02*
D03*
Y1181D02*
D03*
Y1280D02*
D03*
X5512Y689D02*
D03*
Y787D02*
D03*
Y886D02*
D03*
Y984D02*
D03*
Y1083D02*
D03*
Y1181D02*
D03*
Y1280D02*
D03*
Y1378D02*
D03*
X5216Y689D02*
D03*
Y787D02*
D03*
Y886D02*
D03*
Y984D02*
D03*
Y1083D02*
D03*
Y1181D02*
D03*
Y1280D02*
D03*
X4527Y689D02*
D03*
Y787D02*
D03*
Y886D02*
D03*
Y984D02*
D03*
Y1083D02*
D03*
Y1181D02*
D03*
Y1280D02*
D03*
Y1378D02*
D03*
X4232Y689D02*
D03*
Y787D02*
D03*
Y886D02*
D03*
Y984D02*
D03*
Y1083D02*
D03*
Y1181D02*
D03*
Y1280D02*
D03*
X3543Y689D02*
D03*
Y787D02*
D03*
Y886D02*
D03*
Y984D02*
D03*
Y1083D02*
D03*
Y1181D02*
D03*
Y1280D02*
D03*
Y1378D02*
D03*
X3248Y689D02*
D03*
Y787D02*
D03*
Y886D02*
D03*
Y984D02*
D03*
Y1083D02*
D03*
Y1181D02*
D03*
Y1280D02*
D03*
X2559Y689D02*
D03*
Y787D02*
D03*
Y886D02*
D03*
Y984D02*
D03*
Y1083D02*
D03*
Y1181D02*
D03*
Y1280D02*
D03*
Y1378D02*
D03*
X2264Y689D02*
D03*
Y787D02*
D03*
Y886D02*
D03*
Y984D02*
D03*
Y1083D02*
D03*
Y1181D02*
D03*
Y1280D02*
D03*
X1575Y689D02*
D03*
Y787D02*
D03*
Y886D02*
D03*
Y984D02*
D03*
Y1083D02*
D03*
Y1181D02*
D03*
Y1280D02*
D03*
Y1378D02*
D03*
X1279Y689D02*
D03*
Y787D02*
D03*
Y886D02*
D03*
Y984D02*
D03*
Y1083D02*
D03*
Y1181D02*
D03*
Y1280D02*
D03*
X590Y689D02*
D03*
Y787D02*
D03*
Y886D02*
D03*
Y984D02*
D03*
Y1083D02*
D03*
Y1181D02*
D03*
Y1280D02*
D03*
Y1378D02*
D03*
X295Y689D02*
D03*
Y787D02*
D03*
Y886D02*
D03*
Y984D02*
D03*
Y1083D02*
D03*
Y1181D02*
D03*
Y1280D02*
D03*
X9153Y2854D02*
D03*
Y2953D02*
D03*
Y3051D02*
D03*
Y3150D02*
D03*
Y3248D02*
D03*
Y3346D02*
D03*
Y3445D02*
D03*
Y3543D02*
D03*
X8858Y2854D02*
D03*
Y2953D02*
D03*
Y3051D02*
D03*
Y3150D02*
D03*
Y3248D02*
D03*
Y3346D02*
D03*
Y3445D02*
D03*
X9449Y4528D02*
D03*
Y4429D02*
D03*
Y4331D02*
D03*
Y4232D02*
D03*
Y4134D02*
D03*
Y4035D02*
D03*
Y3937D02*
D03*
Y3839D02*
D03*
Y3740D02*
D03*
X9744Y4626D02*
D03*
Y4528D02*
D03*
Y4429D02*
D03*
Y4331D02*
D03*
Y4232D02*
D03*
Y4134D02*
D03*
Y4035D02*
D03*
Y3937D02*
D03*
Y3839D02*
D03*
Y3740D02*
D03*
X9153Y3937D02*
D03*
Y4035D02*
D03*
Y4134D02*
D03*
Y4232D02*
D03*
Y4331D02*
D03*
Y4429D02*
D03*
Y4528D02*
D03*
Y4626D02*
D03*
X8858Y3937D02*
D03*
Y4035D02*
D03*
Y4134D02*
D03*
Y4232D02*
D03*
Y4331D02*
D03*
Y4429D02*
D03*
Y4528D02*
D03*
X9153Y1772D02*
D03*
Y1870D02*
D03*
Y1969D02*
D03*
Y2067D02*
D03*
Y2165D02*
D03*
Y2264D02*
D03*
Y2362D02*
D03*
Y2461D02*
D03*
X8858Y1772D02*
D03*
Y1870D02*
D03*
Y1969D02*
D03*
Y2067D02*
D03*
Y2165D02*
D03*
Y2264D02*
D03*
Y2362D02*
D03*
X8563Y3937D02*
D03*
Y4035D02*
D03*
Y4134D02*
D03*
Y4232D02*
D03*
Y4331D02*
D03*
Y4429D02*
D03*
Y4528D02*
D03*
Y4626D02*
D03*
X8268Y3937D02*
D03*
Y4035D02*
D03*
Y4134D02*
D03*
Y4232D02*
D03*
Y4331D02*
D03*
Y4429D02*
D03*
Y4528D02*
D03*
X8563Y2854D02*
D03*
Y2953D02*
D03*
Y3051D02*
D03*
Y3150D02*
D03*
Y3248D02*
D03*
Y3346D02*
D03*
Y3445D02*
D03*
Y3543D02*
D03*
X8268Y2854D02*
D03*
Y2953D02*
D03*
Y3051D02*
D03*
Y3150D02*
D03*
Y3248D02*
D03*
Y3346D02*
D03*
Y3445D02*
D03*
X8858Y1280D02*
D03*
Y1181D02*
D03*
Y1083D02*
D03*
Y984D02*
D03*
Y886D02*
D03*
Y787D02*
D03*
Y689D02*
D03*
Y591D02*
D03*
Y492D02*
D03*
X9153Y1378D02*
D03*
Y1280D02*
D03*
Y1181D02*
D03*
Y1083D02*
D03*
Y984D02*
D03*
Y886D02*
D03*
Y787D02*
D03*
Y689D02*
D03*
Y591D02*
D03*
Y492D02*
D03*
X9744Y2756D02*
D03*
Y2854D02*
D03*
Y2953D02*
D03*
Y3051D02*
D03*
Y3150D02*
D03*
Y3248D02*
D03*
Y3346D02*
D03*
Y3445D02*
D03*
Y3543D02*
D03*
X9449Y2756D02*
D03*
Y2854D02*
D03*
Y2953D02*
D03*
Y3051D02*
D03*
Y3150D02*
D03*
Y3248D02*
D03*
Y3346D02*
D03*
Y3445D02*
D03*
X10335Y2756D02*
D03*
Y2854D02*
D03*
Y2953D02*
D03*
Y3051D02*
D03*
Y3150D02*
D03*
Y3248D02*
D03*
Y3346D02*
D03*
Y3445D02*
D03*
Y3543D02*
D03*
X10039Y2756D02*
D03*
Y2854D02*
D03*
Y2953D02*
D03*
Y3051D02*
D03*
Y3150D02*
D03*
Y3248D02*
D03*
Y3346D02*
D03*
Y3445D02*
D03*
X10925Y2854D02*
D03*
Y2953D02*
D03*
Y3051D02*
D03*
Y3150D02*
D03*
Y3248D02*
D03*
Y3346D02*
D03*
Y3445D02*
D03*
Y3543D02*
D03*
X10630Y2854D02*
D03*
Y2953D02*
D03*
Y3051D02*
D03*
Y3150D02*
D03*
Y3248D02*
D03*
Y3346D02*
D03*
Y3445D02*
D03*
X10925Y3937D02*
D03*
Y4035D02*
D03*
Y4134D02*
D03*
Y4232D02*
D03*
Y4331D02*
D03*
Y4429D02*
D03*
Y4528D02*
D03*
Y4626D02*
D03*
X10630Y3937D02*
D03*
Y4035D02*
D03*
Y4134D02*
D03*
Y4232D02*
D03*
Y4331D02*
D03*
Y4429D02*
D03*
Y4528D02*
D03*
X10039D02*
D03*
Y4429D02*
D03*
Y4331D02*
D03*
Y4232D02*
D03*
Y4134D02*
D03*
Y4035D02*
D03*
Y3937D02*
D03*
Y3839D02*
D03*
Y3740D02*
D03*
X10335Y4626D02*
D03*
Y4528D02*
D03*
Y4429D02*
D03*
Y4331D02*
D03*
Y4232D02*
D03*
Y4134D02*
D03*
Y4035D02*
D03*
Y3937D02*
D03*
Y3839D02*
D03*
Y3740D02*
D03*
X10925Y1772D02*
D03*
Y1870D02*
D03*
Y1969D02*
D03*
Y2067D02*
D03*
Y2165D02*
D03*
Y2264D02*
D03*
Y2362D02*
D03*
Y2461D02*
D03*
X10630Y1772D02*
D03*
Y1870D02*
D03*
Y1969D02*
D03*
Y2067D02*
D03*
Y2165D02*
D03*
Y2264D02*
D03*
Y2362D02*
D03*
X9744Y787D02*
D03*
Y886D02*
D03*
Y984D02*
D03*
Y1083D02*
D03*
Y1181D02*
D03*
Y1280D02*
D03*
Y1378D02*
D03*
X9449Y787D02*
D03*
Y886D02*
D03*
Y984D02*
D03*
Y1083D02*
D03*
Y1181D02*
D03*
Y1280D02*
D03*
X9744Y1772D02*
D03*
Y1870D02*
D03*
Y1969D02*
D03*
Y2067D02*
D03*
Y2165D02*
D03*
Y2264D02*
D03*
Y2362D02*
D03*
X9449Y1772D02*
D03*
Y1870D02*
D03*
Y1969D02*
D03*
Y2067D02*
D03*
Y2165D02*
D03*
Y2264D02*
D03*
X10335Y787D02*
D03*
Y886D02*
D03*
Y984D02*
D03*
Y1083D02*
D03*
Y1181D02*
D03*
Y1280D02*
D03*
Y1378D02*
D03*
X10039Y787D02*
D03*
Y886D02*
D03*
Y984D02*
D03*
Y1083D02*
D03*
Y1181D02*
D03*
Y1280D02*
D03*
X10827Y787D02*
D03*
Y886D02*
D03*
Y984D02*
D03*
Y1083D02*
D03*
Y1181D02*
D03*
Y1280D02*
D03*
Y1378D02*
D03*
X10531Y787D02*
D03*
Y886D02*
D03*
Y984D02*
D03*
Y1083D02*
D03*
Y1181D02*
D03*
Y1280D02*
D03*
X10335Y1772D02*
D03*
Y1870D02*
D03*
Y1969D02*
D03*
Y2067D02*
D03*
Y2165D02*
D03*
Y2264D02*
D03*
Y2362D02*
D03*
X10039Y1772D02*
D03*
Y1870D02*
D03*
Y1969D02*
D03*
Y2067D02*
D03*
Y2165D02*
D03*
Y2264D02*
D03*
X5807Y5807D02*
D03*
Y5709D02*
D03*
Y5610D02*
D03*
Y5512D02*
D03*
Y5413D02*
D03*
Y5315D02*
D03*
Y5217D02*
D03*
Y5118D02*
D03*
Y5020D02*
D03*
X6102Y5906D02*
D03*
Y5807D02*
D03*
Y5709D02*
D03*
Y5610D02*
D03*
Y5512D02*
D03*
Y5413D02*
D03*
Y5315D02*
D03*
Y5217D02*
D03*
Y5118D02*
D03*
Y5020D02*
D03*
X5118Y7087D02*
D03*
Y6988D02*
D03*
Y6890D02*
D03*
Y6791D02*
D03*
Y6693D02*
D03*
Y6594D02*
D03*
Y6496D02*
D03*
Y6398D02*
D03*
Y6299D02*
D03*
X5413Y7185D02*
D03*
Y7087D02*
D03*
Y6988D02*
D03*
Y6890D02*
D03*
Y6791D02*
D03*
Y6693D02*
D03*
Y6594D02*
D03*
Y6496D02*
D03*
Y6398D02*
D03*
Y6299D02*
D03*
X8268Y5807D02*
D03*
Y5709D02*
D03*
Y5610D02*
D03*
Y5512D02*
D03*
Y5413D02*
D03*
Y5315D02*
D03*
Y5217D02*
D03*
Y5118D02*
D03*
Y5020D02*
D03*
X8563Y5906D02*
D03*
Y5807D02*
D03*
Y5709D02*
D03*
Y5610D02*
D03*
Y5512D02*
D03*
Y5413D02*
D03*
Y5315D02*
D03*
Y5217D02*
D03*
Y5118D02*
D03*
Y5020D02*
D03*
X11220D02*
D03*
Y5118D02*
D03*
Y5217D02*
D03*
Y5315D02*
D03*
Y5413D02*
D03*
Y5512D02*
D03*
Y5610D02*
D03*
Y5709D02*
D03*
X10925Y5020D02*
D03*
Y5118D02*
D03*
Y5217D02*
D03*
Y5315D02*
D03*
Y5413D02*
D03*
Y5512D02*
D03*
Y5610D02*
D03*
X4232Y8268D02*
D03*
Y8169D02*
D03*
Y8071D02*
D03*
Y7972D02*
D03*
Y7874D02*
D03*
Y7776D02*
D03*
Y7677D02*
D03*
Y7579D02*
D03*
Y7480D02*
D03*
X4527Y8366D02*
D03*
Y8268D02*
D03*
Y8169D02*
D03*
Y8071D02*
D03*
Y7972D02*
D03*
Y7874D02*
D03*
Y7776D02*
D03*
Y7677D02*
D03*
Y7579D02*
D03*
Y7480D02*
D03*
X8858Y5807D02*
D03*
Y5709D02*
D03*
Y5610D02*
D03*
Y5512D02*
D03*
Y5413D02*
D03*
Y5315D02*
D03*
Y5217D02*
D03*
Y5118D02*
D03*
Y5020D02*
D03*
X9153Y5906D02*
D03*
Y5807D02*
D03*
Y5709D02*
D03*
Y5610D02*
D03*
Y5512D02*
D03*
Y5413D02*
D03*
Y5315D02*
D03*
Y5217D02*
D03*
Y5118D02*
D03*
Y5020D02*
D03*
X10039Y9547D02*
D03*
Y9449D02*
D03*
Y9350D02*
D03*
Y9252D02*
D03*
Y9154D02*
D03*
Y9055D02*
D03*
Y8957D02*
D03*
Y8858D02*
D03*
Y8760D02*
D03*
X10335Y9646D02*
D03*
Y9547D02*
D03*
Y9449D02*
D03*
Y9350D02*
D03*
Y9252D02*
D03*
Y9154D02*
D03*
Y9055D02*
D03*
Y8957D02*
D03*
Y8858D02*
D03*
Y8760D02*
D03*
X10630Y5020D02*
D03*
Y5118D02*
D03*
Y5217D02*
D03*
Y5315D02*
D03*
Y5413D02*
D03*
Y5512D02*
D03*
Y5610D02*
D03*
X10335Y5020D02*
D03*
Y5118D02*
D03*
Y5217D02*
D03*
Y5315D02*
D03*
Y5413D02*
D03*
Y5512D02*
D03*
X3740Y7480D02*
D03*
Y7579D02*
D03*
Y7677D02*
D03*
Y7776D02*
D03*
Y7874D02*
D03*
Y7972D02*
D03*
Y8071D02*
D03*
Y8169D02*
D03*
X3445Y7480D02*
D03*
Y7579D02*
D03*
Y7677D02*
D03*
Y7776D02*
D03*
Y7874D02*
D03*
Y7972D02*
D03*
Y8071D02*
D03*
X10039Y10827D02*
D03*
Y10728D02*
D03*
Y10630D02*
D03*
Y10531D02*
D03*
Y10433D02*
D03*
Y10335D02*
D03*
Y10236D02*
D03*
Y10138D02*
D03*
Y10039D02*
D03*
X10335Y10925D02*
D03*
Y10827D02*
D03*
Y10728D02*
D03*
Y10630D02*
D03*
Y10531D02*
D03*
Y10433D02*
D03*
Y10335D02*
D03*
Y10236D02*
D03*
Y10138D02*
D03*
Y10039D02*
D03*
X5118Y5807D02*
D03*
Y5709D02*
D03*
Y5610D02*
D03*
Y5512D02*
D03*
Y5413D02*
D03*
Y5315D02*
D03*
Y5217D02*
D03*
Y5118D02*
D03*
Y5020D02*
D03*
X5413Y5906D02*
D03*
Y5807D02*
D03*
Y5709D02*
D03*
Y5610D02*
D03*
Y5512D02*
D03*
Y5413D02*
D03*
Y5315D02*
D03*
Y5217D02*
D03*
Y5118D02*
D03*
Y5020D02*
D03*
X9449Y6791D02*
D03*
Y6890D02*
D03*
Y6988D02*
D03*
Y7087D02*
D03*
Y7185D02*
D03*
Y7283D02*
D03*
Y7382D02*
D03*
X9153Y6791D02*
D03*
Y6890D02*
D03*
Y6988D02*
D03*
Y7087D02*
D03*
Y7185D02*
D03*
Y7283D02*
D03*
X4527Y7087D02*
D03*
Y6988D02*
D03*
Y6890D02*
D03*
Y6791D02*
D03*
Y6693D02*
D03*
Y6594D02*
D03*
Y6496D02*
D03*
Y6398D02*
D03*
Y6299D02*
D03*
X4823Y7185D02*
D03*
Y7087D02*
D03*
Y6988D02*
D03*
Y6890D02*
D03*
Y6791D02*
D03*
Y6693D02*
D03*
Y6594D02*
D03*
Y6496D02*
D03*
Y6398D02*
D03*
Y6299D02*
D03*
X11516Y2953D02*
D03*
Y3051D02*
D03*
Y3150D02*
D03*
Y3248D02*
D03*
Y3346D02*
D03*
Y3445D02*
D03*
Y3543D02*
D03*
X11220Y2953D02*
D03*
Y3051D02*
D03*
Y3150D02*
D03*
Y3248D02*
D03*
Y3346D02*
D03*
Y3445D02*
D03*
X8268Y10827D02*
D03*
Y10728D02*
D03*
Y10630D02*
D03*
Y10531D02*
D03*
Y10433D02*
D03*
Y10335D02*
D03*
Y10236D02*
D03*
Y10138D02*
D03*
Y10039D02*
D03*
X8563Y10925D02*
D03*
Y10827D02*
D03*
Y10728D02*
D03*
Y10630D02*
D03*
Y10531D02*
D03*
Y10433D02*
D03*
Y10335D02*
D03*
Y10236D02*
D03*
Y10138D02*
D03*
Y10039D02*
D03*
X10925D02*
D03*
Y10138D02*
D03*
Y10236D02*
D03*
Y10335D02*
D03*
Y10433D02*
D03*
Y10531D02*
D03*
Y10630D02*
D03*
X10630Y10039D02*
D03*
Y10138D02*
D03*
Y10236D02*
D03*
Y10335D02*
D03*
Y10433D02*
D03*
Y10531D02*
D03*
X11516Y8071D02*
D03*
Y8169D02*
D03*
Y8268D02*
D03*
Y8366D02*
D03*
Y8465D02*
D03*
Y8563D02*
D03*
Y8661D02*
D03*
X11220Y8071D02*
D03*
Y8169D02*
D03*
Y8268D02*
D03*
Y8366D02*
D03*
Y8465D02*
D03*
Y8563D02*
D03*
X10925Y8071D02*
D03*
Y8169D02*
D03*
Y8268D02*
D03*
Y8366D02*
D03*
Y8465D02*
D03*
Y8563D02*
D03*
Y8661D02*
D03*
X10630Y8071D02*
D03*
Y8169D02*
D03*
Y8268D02*
D03*
Y8366D02*
D03*
Y8465D02*
D03*
Y8563D02*
D03*
X10925Y9055D02*
D03*
Y9154D02*
D03*
Y9252D02*
D03*
Y9350D02*
D03*
Y9449D02*
D03*
Y9547D02*
D03*
Y9646D02*
D03*
X10630Y9055D02*
D03*
Y9154D02*
D03*
Y9252D02*
D03*
Y9350D02*
D03*
Y9449D02*
D03*
Y9547D02*
D03*
X4527Y5807D02*
D03*
Y5709D02*
D03*
Y5610D02*
D03*
Y5512D02*
D03*
Y5413D02*
D03*
Y5315D02*
D03*
Y5217D02*
D03*
Y5118D02*
D03*
Y5020D02*
D03*
X4823Y5906D02*
D03*
Y5807D02*
D03*
Y5709D02*
D03*
Y5610D02*
D03*
Y5512D02*
D03*
Y5413D02*
D03*
Y5315D02*
D03*
Y5217D02*
D03*
Y5118D02*
D03*
Y5020D02*
D03*
X3248Y7480D02*
D03*
Y7579D02*
D03*
Y7677D02*
D03*
Y7776D02*
D03*
Y7874D02*
D03*
Y7972D02*
D03*
Y8071D02*
D03*
Y8169D02*
D03*
X2953Y7480D02*
D03*
Y7579D02*
D03*
Y7677D02*
D03*
Y7776D02*
D03*
Y7874D02*
D03*
Y7972D02*
D03*
Y8071D02*
D03*
X11319Y787D02*
D03*
Y886D02*
D03*
Y984D02*
D03*
Y1083D02*
D03*
Y1181D02*
D03*
Y1280D02*
D03*
Y1378D02*
D03*
X11024Y787D02*
D03*
Y886D02*
D03*
Y984D02*
D03*
Y1083D02*
D03*
Y1181D02*
D03*
Y1280D02*
D03*
X1772Y8071D02*
D03*
Y7972D02*
D03*
Y7874D02*
D03*
Y7776D02*
D03*
Y7677D02*
D03*
Y7579D02*
D03*
Y7480D02*
D03*
Y7382D02*
D03*
Y7283D02*
D03*
X2067Y8169D02*
D03*
Y8071D02*
D03*
Y7972D02*
D03*
Y7874D02*
D03*
Y7776D02*
D03*
Y7677D02*
D03*
Y7579D02*
D03*
Y7480D02*
D03*
Y7382D02*
D03*
Y7283D02*
D03*
X2362Y8071D02*
D03*
Y7972D02*
D03*
Y7874D02*
D03*
Y7776D02*
D03*
Y7677D02*
D03*
Y7579D02*
D03*
Y7480D02*
D03*
Y7382D02*
D03*
Y7283D02*
D03*
X2657Y8169D02*
D03*
Y8071D02*
D03*
Y7972D02*
D03*
Y7874D02*
D03*
Y7776D02*
D03*
Y7677D02*
D03*
Y7579D02*
D03*
Y7480D02*
D03*
Y7382D02*
D03*
Y7283D02*
D03*
X3937Y7087D02*
D03*
Y6988D02*
D03*
Y6890D02*
D03*
Y6791D02*
D03*
Y6693D02*
D03*
Y6594D02*
D03*
Y6496D02*
D03*
Y6398D02*
D03*
Y6299D02*
D03*
X4232Y7185D02*
D03*
Y7087D02*
D03*
Y6988D02*
D03*
Y6890D02*
D03*
Y6791D02*
D03*
Y6693D02*
D03*
Y6594D02*
D03*
Y6496D02*
D03*
Y6398D02*
D03*
Y6299D02*
D03*
X3937Y5807D02*
D03*
Y5709D02*
D03*
Y5610D02*
D03*
Y5512D02*
D03*
Y5413D02*
D03*
Y5315D02*
D03*
Y5217D02*
D03*
Y5118D02*
D03*
Y5020D02*
D03*
X4232Y5906D02*
D03*
Y5807D02*
D03*
Y5709D02*
D03*
Y5610D02*
D03*
Y5512D02*
D03*
Y5413D02*
D03*
Y5315D02*
D03*
Y5217D02*
D03*
Y5118D02*
D03*
Y5020D02*
D03*
X3346Y7087D02*
D03*
Y6988D02*
D03*
Y6890D02*
D03*
Y6791D02*
D03*
Y6693D02*
D03*
Y6594D02*
D03*
Y6496D02*
D03*
Y6398D02*
D03*
Y6299D02*
D03*
X3642Y7185D02*
D03*
Y7087D02*
D03*
Y6988D02*
D03*
Y6890D02*
D03*
Y6791D02*
D03*
Y6693D02*
D03*
Y6594D02*
D03*
Y6496D02*
D03*
Y6398D02*
D03*
Y6299D02*
D03*
X3346Y5807D02*
D03*
Y5709D02*
D03*
Y5610D02*
D03*
Y5512D02*
D03*
Y5413D02*
D03*
Y5315D02*
D03*
Y5217D02*
D03*
Y5118D02*
D03*
Y5020D02*
D03*
X3642Y5906D02*
D03*
Y5807D02*
D03*
Y5709D02*
D03*
Y5610D02*
D03*
Y5512D02*
D03*
Y5413D02*
D03*
Y5315D02*
D03*
Y5217D02*
D03*
Y5118D02*
D03*
Y5020D02*
D03*
X10925Y11122D02*
D03*
Y11220D02*
D03*
Y11319D02*
D03*
Y11417D02*
D03*
Y11516D02*
D03*
Y11614D02*
D03*
Y11713D02*
D03*
X10630Y11122D02*
D03*
Y11220D02*
D03*
Y11319D02*
D03*
Y11417D02*
D03*
Y11516D02*
D03*
Y11614D02*
D03*
X10335Y7776D02*
D03*
Y7874D02*
D03*
Y7972D02*
D03*
Y8071D02*
D03*
Y8169D02*
D03*
Y8268D02*
D03*
Y8366D02*
D03*
X10039Y7776D02*
D03*
Y7874D02*
D03*
Y7972D02*
D03*
Y8071D02*
D03*
Y8169D02*
D03*
Y8268D02*
D03*
X1575Y7382D02*
D03*
Y7480D02*
D03*
Y7579D02*
D03*
Y7677D02*
D03*
Y7776D02*
D03*
Y7874D02*
D03*
Y7972D02*
D03*
Y8071D02*
D03*
X1279Y7382D02*
D03*
Y7480D02*
D03*
Y7579D02*
D03*
Y7677D02*
D03*
Y7776D02*
D03*
Y7874D02*
D03*
Y7972D02*
D03*
X1378Y5807D02*
D03*
Y5906D02*
D03*
Y6004D02*
D03*
Y6102D02*
D03*
Y6201D02*
D03*
Y6299D02*
D03*
Y6398D02*
D03*
X1083Y5807D02*
D03*
Y5906D02*
D03*
Y6004D02*
D03*
Y6102D02*
D03*
Y6201D02*
D03*
Y6299D02*
D03*
X5020Y7677D02*
D03*
Y7776D02*
D03*
Y7874D02*
D03*
Y7972D02*
D03*
Y8071D02*
D03*
Y8169D02*
D03*
Y8268D02*
D03*
X4724Y7677D02*
D03*
Y7776D02*
D03*
Y7874D02*
D03*
Y7972D02*
D03*
Y8071D02*
D03*
Y8169D02*
D03*
X984Y5807D02*
D03*
Y5906D02*
D03*
Y6004D02*
D03*
Y6102D02*
D03*
Y6201D02*
D03*
Y6299D02*
D03*
Y6398D02*
D03*
X689Y5807D02*
D03*
Y5906D02*
D03*
Y6004D02*
D03*
Y6102D02*
D03*
Y6201D02*
D03*
Y6299D02*
D03*
X11516Y11122D02*
D03*
Y11220D02*
D03*
Y11319D02*
D03*
Y11417D02*
D03*
Y11516D02*
D03*
Y11614D02*
D03*
Y11713D02*
D03*
X11220Y11122D02*
D03*
Y11220D02*
D03*
Y11319D02*
D03*
Y11417D02*
D03*
Y11516D02*
D03*
Y11614D02*
D03*
X11516Y9055D02*
D03*
Y9154D02*
D03*
Y9252D02*
D03*
Y9350D02*
D03*
Y9449D02*
D03*
Y9547D02*
D03*
Y9646D02*
D03*
X11220Y9055D02*
D03*
Y9154D02*
D03*
Y9252D02*
D03*
Y9350D02*
D03*
Y9449D02*
D03*
Y9547D02*
D03*
X7874Y6890D02*
D03*
Y6988D02*
D03*
Y7087D02*
D03*
Y7185D02*
D03*
Y7283D02*
D03*
Y7382D02*
D03*
Y7480D02*
D03*
X7579Y6890D02*
D03*
Y6988D02*
D03*
Y7087D02*
D03*
Y7185D02*
D03*
Y7283D02*
D03*
Y7382D02*
D03*
X1181Y4823D02*
D03*
Y4921D02*
D03*
Y5020D02*
D03*
Y5118D02*
D03*
Y5217D02*
D03*
Y5315D02*
D03*
Y5413D02*
D03*
Y5512D02*
D03*
Y5610D02*
D03*
X886Y4823D02*
D03*
Y4921D02*
D03*
Y5020D02*
D03*
Y5118D02*
D03*
Y5217D02*
D03*
Y5315D02*
D03*
Y5413D02*
D03*
Y5512D02*
D03*
X1083Y7382D02*
D03*
Y7480D02*
D03*
Y7579D02*
D03*
Y7677D02*
D03*
Y7776D02*
D03*
Y7874D02*
D03*
Y7972D02*
D03*
Y8071D02*
D03*
X787Y7382D02*
D03*
Y7480D02*
D03*
Y7579D02*
D03*
Y7677D02*
D03*
Y7776D02*
D03*
Y7874D02*
D03*
Y7972D02*
D03*
X5413Y7677D02*
D03*
Y7776D02*
D03*
Y7874D02*
D03*
Y7972D02*
D03*
Y8071D02*
D03*
Y8169D02*
D03*
Y8268D02*
D03*
X5118Y7677D02*
D03*
Y7776D02*
D03*
Y7874D02*
D03*
Y7972D02*
D03*
Y8071D02*
D03*
Y8169D02*
D03*
X8563Y12106D02*
D03*
Y12205D02*
D03*
Y12303D02*
D03*
Y12402D02*
D03*
Y12500D02*
D03*
Y12598D02*
D03*
Y12697D02*
D03*
X8268Y12106D02*
D03*
Y12205D02*
D03*
Y12303D02*
D03*
Y12402D02*
D03*
Y12500D02*
D03*
Y12598D02*
D03*
X9744Y12106D02*
D03*
Y12205D02*
D03*
Y12303D02*
D03*
Y12402D02*
D03*
Y12500D02*
D03*
Y12598D02*
D03*
Y12697D02*
D03*
Y12795D02*
D03*
X9449Y12106D02*
D03*
Y12205D02*
D03*
Y12303D02*
D03*
Y12402D02*
D03*
Y12500D02*
D03*
Y12598D02*
D03*
Y12697D02*
D03*
X590Y7382D02*
D03*
Y7480D02*
D03*
Y7579D02*
D03*
Y7677D02*
D03*
Y7776D02*
D03*
Y7874D02*
D03*
Y7972D02*
D03*
Y8071D02*
D03*
X295Y7382D02*
D03*
Y7480D02*
D03*
Y7579D02*
D03*
Y7677D02*
D03*
Y7776D02*
D03*
Y7874D02*
D03*
Y7972D02*
D03*
X10925Y12106D02*
D03*
Y12205D02*
D03*
Y12303D02*
D03*
Y12402D02*
D03*
Y12500D02*
D03*
Y12598D02*
D03*
Y12697D02*
D03*
X10630Y12106D02*
D03*
Y12205D02*
D03*
Y12303D02*
D03*
Y12402D02*
D03*
Y12500D02*
D03*
Y12598D02*
D03*
X11516Y1772D02*
D03*
Y1870D02*
D03*
Y1969D02*
D03*
Y2067D02*
D03*
Y2165D02*
D03*
Y2264D02*
D03*
Y2362D02*
D03*
X11220Y1772D02*
D03*
Y1870D02*
D03*
Y1969D02*
D03*
Y2067D02*
D03*
Y2165D02*
D03*
Y2264D02*
D03*
X8563Y11319D02*
D03*
Y11417D02*
D03*
Y11516D02*
D03*
Y11614D02*
D03*
Y11713D02*
D03*
Y11811D02*
D03*
Y11909D02*
D03*
X8268Y11319D02*
D03*
Y11417D02*
D03*
Y11516D02*
D03*
Y11614D02*
D03*
Y11713D02*
D03*
Y11811D02*
D03*
X9153Y12106D02*
D03*
Y12205D02*
D03*
Y12303D02*
D03*
Y12402D02*
D03*
Y12500D02*
D03*
Y12598D02*
D03*
Y12697D02*
D03*
X8858Y12106D02*
D03*
Y12205D02*
D03*
Y12303D02*
D03*
Y12402D02*
D03*
Y12500D02*
D03*
Y12598D02*
D03*
X10335Y11319D02*
D03*
Y11417D02*
D03*
Y11516D02*
D03*
Y11614D02*
D03*
Y11713D02*
D03*
Y11811D02*
D03*
Y11909D02*
D03*
X10039Y11319D02*
D03*
Y11417D02*
D03*
Y11516D02*
D03*
Y11614D02*
D03*
Y11713D02*
D03*
Y11811D02*
D03*
X1279Y6594D02*
D03*
Y6693D02*
D03*
Y6791D02*
D03*
Y6890D02*
D03*
Y6988D02*
D03*
Y7087D02*
D03*
Y7185D02*
D03*
X984Y6594D02*
D03*
Y6693D02*
D03*
Y6791D02*
D03*
Y6890D02*
D03*
Y6988D02*
D03*
Y7087D02*
D03*
X9744Y11319D02*
D03*
Y11417D02*
D03*
Y11516D02*
D03*
Y11614D02*
D03*
Y11713D02*
D03*
Y11811D02*
D03*
Y11909D02*
D03*
X9449Y11319D02*
D03*
Y11417D02*
D03*
Y11516D02*
D03*
Y11614D02*
D03*
Y11713D02*
D03*
Y11811D02*
D03*
X492Y6398D02*
D03*
X295D02*
D03*
X11220Y11909D02*
D03*
X11024D02*
D03*
X10630Y6791D02*
D03*
X10138D02*
D03*
X10630Y6594D02*
D03*
X10138D02*
D03*
X7776Y12008D02*
D03*
Y11614D02*
D03*
X5216Y197D02*
D03*
X4823D02*
D03*
X10335Y12106D02*
D03*
X9941D02*
D03*
X11024Y12402D02*
D03*
X11417D02*
D03*
X11122Y6398D02*
D03*
X10728D02*
D03*
X8169Y9941D02*
D03*
X7776D02*
D03*
X10925Y2657D02*
D03*
X10531D02*
D03*
X11122Y4232D02*
D03*
X11516D02*
D03*
X11122Y4429D02*
D03*
X11516D02*
D03*
X11122Y4035D02*
D03*
X11516D02*
D03*
X11122Y4626D02*
D03*
X11516D02*
D03*
X10236Y6201D02*
D03*
X10630D02*
D03*
Y6398D02*
D03*
X10236D02*
D03*
X11024Y7874D02*
D03*
X10630D02*
D03*
X10728Y6201D02*
D03*
X11122D02*
D03*
X10433Y9843D02*
D03*
X10039D02*
D03*
X10138Y5807D02*
D03*
X10630D02*
D03*
X11516Y7382D02*
D03*
X11122D02*
D03*
X11516Y7579D02*
D03*
X11122D02*
D03*
X11516Y10039D02*
D03*
X11122D02*
D03*
X10630Y7677D02*
D03*
X11024D02*
D03*
X11516Y10433D02*
D03*
X11122D02*
D03*
X10827Y394D02*
D03*
X11220D02*
D03*
X10335Y12500D02*
D03*
X9941D02*
D03*
X11516Y7776D02*
D03*
X11122D02*
D03*
X8464Y11122D02*
D03*
X8858D02*
D03*
X11122Y10236D02*
D03*
X11516D02*
D03*
X11220Y197D02*
D03*
X10827D02*
D03*
X11122Y10925D02*
D03*
X11516D02*
D03*
X1673Y4823D02*
D03*
X1279D02*
D03*
X3150D02*
D03*
X2756D02*
D03*
X2165D02*
D03*
X1772D02*
D03*
X197Y6890D02*
D03*
X590D02*
D03*
X197Y6004D02*
D03*
X590D02*
D03*
X8760Y11713D02*
D03*
X9153D02*
D03*
X197Y6201D02*
D03*
X590D02*
D03*
X9941Y12303D02*
D03*
X10335D02*
D03*
X11122Y2657D02*
D03*
X11516D02*
D03*
X1378Y8760D02*
D03*
X1575D02*
D03*
X8071Y11713D02*
D03*
X7874D02*
D03*
X3986Y11705D02*
D03*
X3789D02*
D03*
X3986Y11504D02*
D03*
X3789D02*
D03*
X3986Y11307D02*
D03*
X3789D02*
D03*
X10728Y11909D02*
D03*
X10531D02*
D03*
X9055Y11909D02*
D03*
X8858D02*
D03*
X8268Y11122D02*
D03*
X8071D02*
D03*
X9153Y11417D02*
D03*
X8957D02*
D03*
X9941Y11122D02*
D03*
X9744D02*
D03*
X10335D02*
D03*
X10138D02*
D03*
X10827Y10827D02*
D03*
X10630D02*
D03*
X11417Y9843D02*
D03*
X11220D02*
D03*
X10827D02*
D03*
X10630D02*
D03*
X9055D02*
D03*
X8858D02*
D03*
X8464D02*
D03*
X8268D02*
D03*
X11417Y8858D02*
D03*
X11220D02*
D03*
X10827D02*
D03*
X10630D02*
D03*
X10236Y8563D02*
D03*
X10039D02*
D03*
X9646Y7579D02*
D03*
X9449D02*
D03*
X8858D02*
D03*
X8661D02*
D03*
X4035Y7382D02*
D03*
X3839D02*
D03*
X3051Y7185D02*
D03*
X2854D02*
D03*
X2264Y7087D02*
D03*
X2067D02*
D03*
X1772D02*
D03*
X1575D02*
D03*
X492Y7185D02*
D03*
X295D02*
D03*
X7382Y6594D02*
D03*
X7185D02*
D03*
X6299Y6693D02*
D03*
X6102D02*
D03*
X5216Y6102D02*
D03*
X5020D02*
D03*
X4626D02*
D03*
X4429D02*
D03*
X4035D02*
D03*
X3839D02*
D03*
X3445D02*
D03*
X3248D02*
D03*
X11024Y4823D02*
D03*
X10827D02*
D03*
X10531D02*
D03*
X10335D02*
D03*
X10138D02*
D03*
X9941D02*
D03*
X9252D02*
D03*
X9055D02*
D03*
X8464D02*
D03*
X8268D02*
D03*
X7480D02*
D03*
X7283D02*
D03*
X6594D02*
D03*
X6398D02*
D03*
X6004D02*
D03*
X5807D02*
D03*
X5216D02*
D03*
X5020D02*
D03*
X4626D02*
D03*
X4429D02*
D03*
X4035D02*
D03*
X3839D02*
D03*
X3445D02*
D03*
X3248D02*
D03*
X2559D02*
D03*
X2362D02*
D03*
X10138Y12697D02*
D03*
X9941D02*
D03*
X11417Y3740D02*
D03*
X11220D02*
D03*
X8563D02*
D03*
X8366D02*
D03*
X10236Y2559D02*
D03*
X10039D02*
D03*
X9646D02*
D03*
X9449D02*
D03*
X11417Y1575D02*
D03*
X11220D02*
D03*
X10827D02*
D03*
X10630D02*
D03*
X10236D02*
D03*
X10039D02*
D03*
X9744D02*
D03*
X9547D02*
D03*
X9153D02*
D03*
X8957D02*
D03*
X9646Y492D02*
D03*
X9449D02*
D03*
X8661D02*
D03*
X8464D02*
D03*
X7972Y3740D02*
D03*
X7776D02*
D03*
X7480D02*
D03*
X7283D02*
D03*
X6988D02*
D03*
X6791D02*
D03*
X6496D02*
D03*
X6299D02*
D03*
X6004D02*
D03*
X5807D02*
D03*
X5512D02*
D03*
X5315D02*
D03*
X5020D02*
D03*
X4823D02*
D03*
X4527D02*
D03*
X4331D02*
D03*
X4035D02*
D03*
X3839D02*
D03*
X3543D02*
D03*
X3346D02*
D03*
X3051D02*
D03*
X2854D02*
D03*
X2559D02*
D03*
X2362D02*
D03*
X2067D02*
D03*
X1870D02*
D03*
X1575D02*
D03*
X1378D02*
D03*
X1083D02*
D03*
X886D02*
D03*
X590D02*
D03*
X394D02*
D03*
X7972Y2657D02*
D03*
X7776D02*
D03*
X7480D02*
D03*
X7283D02*
D03*
X6988D02*
D03*
X6791D02*
D03*
X6496D02*
D03*
X6299D02*
D03*
X6004D02*
D03*
X5807D02*
D03*
X5512D02*
D03*
X5315D02*
D03*
X5020D02*
D03*
X4823D02*
D03*
X4527D02*
D03*
X4331D02*
D03*
X4035D02*
D03*
X3839D02*
D03*
X3543D02*
D03*
X3346D02*
D03*
X3051D02*
D03*
X2854D02*
D03*
X2559D02*
D03*
X2362D02*
D03*
X2067D02*
D03*
X1870D02*
D03*
X1575D02*
D03*
X1378D02*
D03*
X1083D02*
D03*
X886D02*
D03*
X590D02*
D03*
X394D02*
D03*
X7972Y1575D02*
D03*
X7776D02*
D03*
X7480D02*
D03*
X7283D02*
D03*
X6988D02*
D03*
X6791D02*
D03*
X6496D02*
D03*
X6299D02*
D03*
X6004D02*
D03*
X5807D02*
D03*
X5512D02*
D03*
X5315D02*
D03*
X5020D02*
D03*
X4823D02*
D03*
X4527D02*
D03*
X4331D02*
D03*
X4035D02*
D03*
X3839D02*
D03*
X3543D02*
D03*
X3346D02*
D03*
X3051D02*
D03*
X2854D02*
D03*
X2559D02*
D03*
X2362D02*
D03*
X2067D02*
D03*
X1870D02*
D03*
X1575D02*
D03*
X1378D02*
D03*
X1083D02*
D03*
X886D02*
D03*
X590D02*
D03*
X394D02*
D03*
X7972Y492D02*
D03*
X7776D02*
D03*
X7480D02*
D03*
X7283D02*
D03*
X6988D02*
D03*
X6791D02*
D03*
X6594D02*
D03*
X6398D02*
D03*
X6201D02*
D03*
X6004D02*
D03*
X5413D02*
D03*
X5216D02*
D03*
X5020D02*
D03*
X4823D02*
D03*
X4527D02*
D03*
X4331D02*
D03*
X4035D02*
D03*
X3839D02*
D03*
X3543D02*
D03*
X3346D02*
D03*
X3051D02*
D03*
X2854D02*
D03*
X2559D02*
D03*
X2362D02*
D03*
X2067D02*
D03*
X1870D02*
D03*
X1575D02*
D03*
X1378D02*
D03*
X1181D02*
D03*
X984D02*
D03*
X3445Y8366D02*
D03*
X3346D02*
D03*
X3248D02*
D03*
X3150D02*
D03*
X3051D02*
D03*
X2953D02*
D03*
X2854D02*
D03*
X2756D02*
D03*
X2657D02*
D03*
X1673D02*
D03*
X1772D02*
D03*
X1870D02*
D03*
X1968D02*
D03*
X2067D02*
D03*
X2165D02*
D03*
X2264D02*
D03*
X2362D02*
D03*
X2461D02*
D03*
X590D02*
D03*
X689D02*
D03*
X787D02*
D03*
X886D02*
D03*
X984D02*
D03*
X1083D02*
D03*
X1181D02*
D03*
X1279D02*
D03*
X1378D02*
D03*
X1497Y12004D02*
D03*
Y11904D02*
D03*
Y11804D02*
D03*
Y11704D02*
D03*
Y11604D02*
D03*
Y11504D02*
D03*
Y11404D02*
D03*
Y11304D02*
D03*
Y11204D02*
D03*
X1497Y9105D02*
D03*
Y9205D02*
D03*
Y9305D02*
D03*
Y9405D02*
D03*
Y9505D02*
D03*
Y9605D02*
D03*
Y9705D02*
D03*
Y9805D02*
D03*
Y9905D02*
D03*
Y10904D02*
D03*
Y10804D02*
D03*
Y10704D02*
D03*
Y10604D02*
D03*
Y10504D02*
D03*
Y10404D02*
D03*
Y10304D02*
D03*
Y10204D02*
D03*
Y10104D02*
D03*
X592Y4821D02*
D03*
X492D02*
D03*
X592Y4921D02*
D03*
X8711Y3104D02*
D03*
Y3004D02*
D03*
X8763Y1575D02*
D03*
X8663D02*
D03*
X8120Y4137D02*
D03*
Y4037D02*
D03*
X11122Y6791D02*
D03*
X10974Y6693D02*
D03*
X11124Y640D02*
D03*
X11317Y10630D02*
D03*
X10333Y12697D02*
D03*
X11222Y12598D02*
D03*
X4526Y197D02*
D03*
X5807Y8071D02*
D03*
X5512Y7972D02*
D03*
X5807D02*
D03*
Y7776D02*
D03*
X5512D02*
D03*
X5807Y7874D02*
D03*
X5512D02*
D03*
X11516Y394D02*
D03*
X11417D02*
D03*
X10728Y5807D02*
D03*
X10827D02*
D03*
X10925Y6004D02*
D03*
X11024D02*
D03*
X10630Y6004D02*
D03*
X10728D02*
D03*
X10335D02*
D03*
X10433D02*
D03*
X8957Y11032D02*
D03*
Y10932D02*
D03*
Y10832D02*
D03*
Y10732D02*
D03*
Y10632D02*
D03*
Y10532D02*
D03*
Y10432D02*
D03*
Y10332D02*
D03*
Y10232D02*
D03*
Y10132D02*
D03*
Y10032D02*
D03*
X9557Y11132D02*
D03*
Y11032D02*
D03*
Y10932D02*
D03*
Y10832D02*
D03*
Y10732D02*
D03*
Y10632D02*
D03*
Y10532D02*
D03*
Y10432D02*
D03*
Y10332D02*
D03*
Y10232D02*
D03*
Y10132D02*
D03*
Y10032D02*
D03*
X8268Y7292D02*
D03*
Y7192D02*
D03*
Y7092D02*
D03*
Y6992D02*
D03*
Y6892D02*
D03*
Y6792D02*
D03*
Y6692D02*
D03*
Y6592D02*
D03*
Y6492D02*
D03*
Y6392D02*
D03*
Y6292D02*
D03*
X8868Y7392D02*
D03*
Y7292D02*
D03*
Y7192D02*
D03*
Y7092D02*
D03*
Y6992D02*
D03*
Y6892D02*
D03*
Y6792D02*
D03*
Y6692D02*
D03*
Y6592D02*
D03*
Y6492D02*
D03*
Y6392D02*
D03*
Y6292D02*
D03*
X9449Y6012D02*
D03*
Y5912D02*
D03*
Y5812D02*
D03*
Y5712D02*
D03*
Y5612D02*
D03*
Y5512D02*
D03*
Y5412D02*
D03*
Y5312D02*
D03*
Y5212D02*
D03*
Y5112D02*
D03*
Y5012D02*
D03*
X10049Y6112D02*
D03*
Y6012D02*
D03*
Y5912D02*
D03*
Y5812D02*
D03*
Y5712D02*
D03*
Y5612D02*
D03*
Y5512D02*
D03*
Y5412D02*
D03*
Y5312D02*
D03*
Y5212D02*
D03*
Y5112D02*
D03*
Y5012D02*
D03*
D12*
X8711Y2165D02*
D03*
X3543Y8366D02*
D03*
X1575D02*
D03*
X492D02*
D03*
Y4921D02*
D03*
X8711Y2904D02*
D03*
X8120Y3937D02*
D03*
D13*
X8268Y2461D02*
D03*
Y1378D02*
D03*
X6398Y6309D02*
D03*
X7382D02*
D03*
X6004Y8179D02*
D03*
X1476Y6905D02*
D03*
X9252Y9661D02*
D03*
X8268D02*
D03*
X2461Y6905D02*
D03*
X7677Y4626D02*
D03*
X6693D02*
D03*
X5709D02*
D03*
X4724D02*
D03*
X3740D02*
D03*
X2756D02*
D03*
X1772D02*
D03*
X787D02*
D03*
X7185D02*
D03*
X6201D02*
D03*
X5216D02*
D03*
X4232D02*
D03*
X3248D02*
D03*
X2264D02*
D03*
X1279Y4626D02*
D03*
X295Y4626D02*
D03*
X7677Y3543D02*
D03*
X6693D02*
D03*
X5709D02*
D03*
X4724D02*
D03*
X3740D02*
D03*
X2756D02*
D03*
X1772D02*
D03*
X787D02*
D03*
X7185D02*
D03*
X6201D02*
D03*
X5216D02*
D03*
X4232D02*
D03*
X3248D02*
D03*
X2264D02*
D03*
X1279D02*
D03*
X295D02*
D03*
X7677Y2461D02*
D03*
X6693D02*
D03*
X5709D02*
D03*
X4724D02*
D03*
X3740D02*
D03*
X2756D02*
D03*
X1772D02*
D03*
X787D02*
D03*
X7185D02*
D03*
X6201D02*
D03*
X5216D02*
D03*
X4232D02*
D03*
X3248D02*
D03*
X2264D02*
D03*
X1279D02*
D03*
X295D02*
D03*
X7677Y1378D02*
D03*
X6693D02*
D03*
X5709D02*
D03*
X4724D02*
D03*
X3740D02*
D03*
X2756D02*
D03*
X1772D02*
D03*
X787D02*
D03*
X7185D02*
D03*
X6201D02*
D03*
X5216D02*
D03*
X4232D02*
D03*
X3248D02*
D03*
X2264D02*
D03*
X1279D02*
D03*
X295D02*
D03*
X8858Y3543D02*
D03*
X9449Y4626D02*
D03*
X8858D02*
D03*
Y2461D02*
D03*
X8268Y4626D02*
D03*
Y3543D02*
D03*
X8858Y1378D02*
D03*
X9449Y3543D02*
D03*
X10039D02*
D03*
X10630D02*
D03*
Y4626D02*
D03*
X10039D02*
D03*
X10630Y2461D02*
D03*
X9449Y1378D02*
D03*
Y2362D02*
D03*
X10039Y1378D02*
D03*
X10531D02*
D03*
X10039Y2362D02*
D03*
X5807Y5906D02*
D03*
X5118Y7185D02*
D03*
X8268Y5906D02*
D03*
X10925Y5709D02*
D03*
X4232Y8366D02*
D03*
X8858Y5906D02*
D03*
X10039Y9646D02*
D03*
X10335Y5610D02*
D03*
X3445Y8169D02*
D03*
X10039Y10925D02*
D03*
X5118Y5906D02*
D03*
X9153Y7382D02*
D03*
X4527Y7185D02*
D03*
X11220Y3543D02*
D03*
X8268Y10925D02*
D03*
X10630Y10630D02*
D03*
X11220Y8661D02*
D03*
X10630D02*
D03*
Y9646D02*
D03*
X4527Y5906D02*
D03*
X2953Y8169D02*
D03*
X11024Y1378D02*
D03*
X1772Y8169D02*
D03*
X2362D02*
D03*
X3937Y7185D02*
D03*
Y5906D02*
D03*
X3346Y7185D02*
D03*
Y5906D02*
D03*
X10630Y11713D02*
D03*
X10039Y8366D02*
D03*
X1279Y8071D02*
D03*
X1083Y6398D02*
D03*
X4724Y8268D02*
D03*
X689Y6398D02*
D03*
X11220Y11713D02*
D03*
Y9646D02*
D03*
X7579Y7480D02*
D03*
X886Y5610D02*
D03*
X787Y8071D02*
D03*
X5118Y8268D02*
D03*
X8268Y12697D02*
D03*
X9449Y12795D02*
D03*
X295Y8071D02*
D03*
X10630Y12697D02*
D03*
X11220Y2362D02*
D03*
X8268Y11909D02*
D03*
X8858Y12697D02*
D03*
X10039Y11909D02*
D03*
X984Y7185D02*
D03*
X9449Y11909D02*
D03*
X1497Y12104D02*
D03*
X1497Y9005D02*
D03*
Y11004D02*
D03*
X8563Y1575D02*
D03*
X11024Y640D02*
D03*
X11417Y10630D02*
D03*
X10433Y12697D02*
D03*
X11122Y12598D02*
D03*
X4626Y197D02*
D03*
X5512Y8071D02*
D03*
X8957Y11132D02*
D03*
X8268Y7392D02*
D03*
X9449Y6112D02*
D03*
D14*
X5997Y12104D02*
D03*
X5197D02*
D03*
X4397D02*
D03*
X3597D02*
D03*
X2797D02*
D03*
X1997D02*
D03*
X1197D02*
D03*
X397D02*
D03*
D15*
X5997Y12004D02*
D03*
Y11904D02*
D03*
Y11804D02*
D03*
Y11704D02*
D03*
Y11604D02*
D03*
Y11504D02*
D03*
Y11404D02*
D03*
Y11304D02*
D03*
Y11204D02*
D03*
Y11104D02*
D03*
Y11004D02*
D03*
Y10904D02*
D03*
Y10804D02*
D03*
Y10704D02*
D03*
Y10604D02*
D03*
Y10504D02*
D03*
Y10404D02*
D03*
Y10304D02*
D03*
Y10204D02*
D03*
Y10104D02*
D03*
Y10004D02*
D03*
Y9904D02*
D03*
Y9804D02*
D03*
Y9704D02*
D03*
Y9604D02*
D03*
Y9504D02*
D03*
Y9404D02*
D03*
Y9304D02*
D03*
Y9204D02*
D03*
Y9104D02*
D03*
X5797D02*
D03*
Y9204D02*
D03*
Y9304D02*
D03*
Y9404D02*
D03*
Y9504D02*
D03*
Y9604D02*
D03*
Y9704D02*
D03*
Y9804D02*
D03*
Y9904D02*
D03*
Y10004D02*
D03*
Y10104D02*
D03*
Y10204D02*
D03*
Y10304D02*
D03*
Y10404D02*
D03*
Y10504D02*
D03*
Y10604D02*
D03*
Y10704D02*
D03*
Y10804D02*
D03*
Y10904D02*
D03*
Y11004D02*
D03*
Y11104D02*
D03*
Y11204D02*
D03*
Y11304D02*
D03*
Y11404D02*
D03*
Y11504D02*
D03*
Y11604D02*
D03*
Y11704D02*
D03*
Y11804D02*
D03*
Y11904D02*
D03*
Y12004D02*
D03*
Y12104D02*
D03*
X5197Y12004D02*
D03*
Y11904D02*
D03*
Y11804D02*
D03*
Y11704D02*
D03*
Y11604D02*
D03*
Y11504D02*
D03*
Y11404D02*
D03*
Y11304D02*
D03*
Y11204D02*
D03*
Y11104D02*
D03*
Y11004D02*
D03*
Y10904D02*
D03*
Y10804D02*
D03*
Y10704D02*
D03*
Y10604D02*
D03*
Y10504D02*
D03*
Y10404D02*
D03*
Y10304D02*
D03*
Y10204D02*
D03*
Y10104D02*
D03*
Y10004D02*
D03*
Y9904D02*
D03*
Y9804D02*
D03*
Y9704D02*
D03*
Y9604D02*
D03*
Y9504D02*
D03*
Y9404D02*
D03*
Y9304D02*
D03*
Y9204D02*
D03*
Y9104D02*
D03*
X4997D02*
D03*
Y9204D02*
D03*
Y9304D02*
D03*
Y9404D02*
D03*
Y9504D02*
D03*
Y9604D02*
D03*
Y9704D02*
D03*
Y9804D02*
D03*
Y9904D02*
D03*
Y10004D02*
D03*
Y10104D02*
D03*
Y10204D02*
D03*
Y10304D02*
D03*
Y10404D02*
D03*
Y10504D02*
D03*
Y10604D02*
D03*
Y10704D02*
D03*
Y10804D02*
D03*
Y10904D02*
D03*
Y11004D02*
D03*
Y11104D02*
D03*
Y11204D02*
D03*
Y11304D02*
D03*
Y11404D02*
D03*
Y11504D02*
D03*
Y11604D02*
D03*
Y11704D02*
D03*
Y11804D02*
D03*
Y11904D02*
D03*
Y12004D02*
D03*
Y12104D02*
D03*
X4397Y12004D02*
D03*
Y11904D02*
D03*
Y11804D02*
D03*
Y11704D02*
D03*
Y11604D02*
D03*
Y11504D02*
D03*
Y11404D02*
D03*
Y11304D02*
D03*
Y11204D02*
D03*
Y11104D02*
D03*
Y11004D02*
D03*
Y10904D02*
D03*
Y10804D02*
D03*
Y10704D02*
D03*
Y10604D02*
D03*
Y10504D02*
D03*
Y10404D02*
D03*
Y10304D02*
D03*
Y10204D02*
D03*
Y10104D02*
D03*
Y10004D02*
D03*
Y9904D02*
D03*
Y9804D02*
D03*
Y9704D02*
D03*
Y9604D02*
D03*
Y9504D02*
D03*
Y9404D02*
D03*
Y9304D02*
D03*
Y9204D02*
D03*
Y9104D02*
D03*
X4197D02*
D03*
Y9204D02*
D03*
Y9304D02*
D03*
Y9404D02*
D03*
Y9504D02*
D03*
Y9604D02*
D03*
Y9704D02*
D03*
Y9804D02*
D03*
Y9904D02*
D03*
Y10004D02*
D03*
Y10104D02*
D03*
Y10204D02*
D03*
Y10304D02*
D03*
Y10404D02*
D03*
Y10504D02*
D03*
Y10604D02*
D03*
Y10704D02*
D03*
Y10804D02*
D03*
Y10904D02*
D03*
Y11004D02*
D03*
Y11104D02*
D03*
Y11204D02*
D03*
Y11304D02*
D03*
Y11404D02*
D03*
Y11504D02*
D03*
Y11604D02*
D03*
Y11704D02*
D03*
Y11804D02*
D03*
Y11904D02*
D03*
Y12004D02*
D03*
Y12104D02*
D03*
X3597Y12004D02*
D03*
Y11904D02*
D03*
Y11804D02*
D03*
Y11704D02*
D03*
Y11604D02*
D03*
Y11504D02*
D03*
Y11404D02*
D03*
Y11304D02*
D03*
Y11204D02*
D03*
Y11104D02*
D03*
Y11004D02*
D03*
Y10904D02*
D03*
Y10804D02*
D03*
Y10704D02*
D03*
Y10604D02*
D03*
Y10504D02*
D03*
Y10404D02*
D03*
Y10304D02*
D03*
Y10204D02*
D03*
Y10104D02*
D03*
Y10004D02*
D03*
Y9904D02*
D03*
Y9804D02*
D03*
Y9704D02*
D03*
Y9604D02*
D03*
Y9504D02*
D03*
Y9404D02*
D03*
Y9304D02*
D03*
Y9204D02*
D03*
Y9104D02*
D03*
X3397D02*
D03*
Y9204D02*
D03*
Y9304D02*
D03*
Y9404D02*
D03*
Y9504D02*
D03*
Y9604D02*
D03*
Y9704D02*
D03*
Y9804D02*
D03*
Y9904D02*
D03*
Y10004D02*
D03*
Y10104D02*
D03*
Y10204D02*
D03*
Y10304D02*
D03*
Y10404D02*
D03*
Y10504D02*
D03*
Y10604D02*
D03*
Y10704D02*
D03*
Y10804D02*
D03*
Y10904D02*
D03*
Y11004D02*
D03*
Y11104D02*
D03*
Y11204D02*
D03*
Y11304D02*
D03*
Y11404D02*
D03*
Y11504D02*
D03*
Y11604D02*
D03*
Y11704D02*
D03*
Y11804D02*
D03*
Y11904D02*
D03*
Y12004D02*
D03*
Y12104D02*
D03*
X2797Y12004D02*
D03*
Y11904D02*
D03*
Y11804D02*
D03*
Y11704D02*
D03*
Y11604D02*
D03*
Y11504D02*
D03*
Y11404D02*
D03*
Y11304D02*
D03*
Y11204D02*
D03*
Y11104D02*
D03*
Y11004D02*
D03*
Y10904D02*
D03*
Y10804D02*
D03*
Y10704D02*
D03*
Y10604D02*
D03*
Y10504D02*
D03*
Y10404D02*
D03*
Y10304D02*
D03*
Y10204D02*
D03*
Y10104D02*
D03*
Y10004D02*
D03*
Y9904D02*
D03*
Y9804D02*
D03*
Y9704D02*
D03*
Y9604D02*
D03*
Y9504D02*
D03*
Y9404D02*
D03*
Y9304D02*
D03*
Y9204D02*
D03*
Y9104D02*
D03*
X2597D02*
D03*
Y9204D02*
D03*
Y9304D02*
D03*
Y9404D02*
D03*
Y9504D02*
D03*
Y9604D02*
D03*
Y9704D02*
D03*
Y9804D02*
D03*
Y9904D02*
D03*
Y10004D02*
D03*
Y10104D02*
D03*
Y10204D02*
D03*
Y10304D02*
D03*
Y10404D02*
D03*
Y10504D02*
D03*
Y10604D02*
D03*
Y10704D02*
D03*
Y10804D02*
D03*
Y10904D02*
D03*
Y11004D02*
D03*
Y11104D02*
D03*
Y11204D02*
D03*
Y11304D02*
D03*
Y11404D02*
D03*
Y11504D02*
D03*
Y11604D02*
D03*
Y11704D02*
D03*
Y11804D02*
D03*
Y11904D02*
D03*
Y12004D02*
D03*
Y12104D02*
D03*
X1997Y12004D02*
D03*
Y11904D02*
D03*
Y11804D02*
D03*
Y11704D02*
D03*
Y11604D02*
D03*
Y11504D02*
D03*
Y11404D02*
D03*
Y11304D02*
D03*
Y11204D02*
D03*
Y11104D02*
D03*
Y11004D02*
D03*
Y10904D02*
D03*
Y10804D02*
D03*
Y10704D02*
D03*
Y10604D02*
D03*
Y10504D02*
D03*
Y10404D02*
D03*
Y10304D02*
D03*
Y10204D02*
D03*
Y10104D02*
D03*
Y10004D02*
D03*
Y9904D02*
D03*
Y9804D02*
D03*
Y9704D02*
D03*
Y9604D02*
D03*
Y9504D02*
D03*
Y9404D02*
D03*
Y9304D02*
D03*
Y9204D02*
D03*
Y9104D02*
D03*
X1797D02*
D03*
Y9204D02*
D03*
Y9304D02*
D03*
Y9404D02*
D03*
Y9504D02*
D03*
Y9604D02*
D03*
Y9704D02*
D03*
Y9804D02*
D03*
Y9904D02*
D03*
Y10004D02*
D03*
Y10104D02*
D03*
Y10204D02*
D03*
Y10304D02*
D03*
Y10404D02*
D03*
Y10504D02*
D03*
Y10604D02*
D03*
Y10704D02*
D03*
Y10804D02*
D03*
Y10904D02*
D03*
Y11004D02*
D03*
Y11104D02*
D03*
Y11204D02*
D03*
Y11304D02*
D03*
Y11404D02*
D03*
Y11504D02*
D03*
Y11604D02*
D03*
Y11704D02*
D03*
Y11804D02*
D03*
Y11904D02*
D03*
Y12004D02*
D03*
Y12104D02*
D03*
X1197Y12004D02*
D03*
Y11904D02*
D03*
Y11804D02*
D03*
Y11704D02*
D03*
Y11604D02*
D03*
Y11504D02*
D03*
Y11404D02*
D03*
Y11304D02*
D03*
Y11204D02*
D03*
Y11104D02*
D03*
Y11004D02*
D03*
Y10904D02*
D03*
Y10804D02*
D03*
Y10704D02*
D03*
Y10604D02*
D03*
Y10504D02*
D03*
Y10404D02*
D03*
Y10304D02*
D03*
Y10204D02*
D03*
Y10104D02*
D03*
Y10004D02*
D03*
Y9904D02*
D03*
Y9804D02*
D03*
Y9704D02*
D03*
Y9604D02*
D03*
Y9504D02*
D03*
Y9404D02*
D03*
Y9304D02*
D03*
Y9204D02*
D03*
Y9104D02*
D03*
X997D02*
D03*
Y9204D02*
D03*
Y9304D02*
D03*
Y9404D02*
D03*
Y9504D02*
D03*
Y9604D02*
D03*
Y9704D02*
D03*
Y9804D02*
D03*
Y9904D02*
D03*
Y10004D02*
D03*
Y10104D02*
D03*
Y10204D02*
D03*
Y10304D02*
D03*
Y10404D02*
D03*
Y10504D02*
D03*
Y10604D02*
D03*
Y10704D02*
D03*
Y10804D02*
D03*
Y10904D02*
D03*
Y11004D02*
D03*
Y11104D02*
D03*
Y11204D02*
D03*
Y11304D02*
D03*
Y11404D02*
D03*
Y11504D02*
D03*
Y11604D02*
D03*
Y11704D02*
D03*
Y11804D02*
D03*
Y11904D02*
D03*
Y12004D02*
D03*
Y12104D02*
D03*
X397Y12004D02*
D03*
Y11904D02*
D03*
Y11804D02*
D03*
Y11704D02*
D03*
Y11604D02*
D03*
Y11504D02*
D03*
Y11404D02*
D03*
Y11304D02*
D03*
Y11204D02*
D03*
Y11104D02*
D03*
Y11004D02*
D03*
Y10904D02*
D03*
Y10804D02*
D03*
Y10704D02*
D03*
Y10604D02*
D03*
Y10504D02*
D03*
Y10404D02*
D03*
Y10304D02*
D03*
Y10204D02*
D03*
Y10104D02*
D03*
Y10004D02*
D03*
Y9904D02*
D03*
Y9804D02*
D03*
Y9704D02*
D03*
Y9604D02*
D03*
Y9504D02*
D03*
Y9404D02*
D03*
Y9304D02*
D03*
Y9204D02*
D03*
Y9104D02*
D03*
X197D02*
D03*
Y9204D02*
D03*
Y9304D02*
D03*
Y9404D02*
D03*
Y9504D02*
D03*
Y9604D02*
D03*
Y9704D02*
D03*
Y9804D02*
D03*
Y9904D02*
D03*
Y10004D02*
D03*
Y10104D02*
D03*
Y10204D02*
D03*
Y10304D02*
D03*
Y10404D02*
D03*
Y10504D02*
D03*
Y10604D02*
D03*
Y10704D02*
D03*
Y10804D02*
D03*
Y10904D02*
D03*
Y11004D02*
D03*
Y11104D02*
D03*
Y11204D02*
D03*
Y11304D02*
D03*
Y11404D02*
D03*
Y11504D02*
D03*
Y11604D02*
D03*
Y11704D02*
D03*
Y11804D02*
D03*
Y11904D02*
D03*
Y12004D02*
D03*
Y12104D02*
D03*
D16*
X6299Y11713D02*
D03*
Y12697D02*
D03*
X6693Y11713D02*
D03*
Y12697D02*
D03*
X6496Y10531D02*
D03*
Y11516D02*
D03*
Y10335D02*
D03*
Y9350D02*
D03*
X7480Y9998D02*
D03*
Y10154D02*
D03*
Y10309D02*
D03*
Y10465D02*
D03*
Y10621D02*
D03*
Y10777D02*
D03*
Y10933D02*
D03*
Y11089D02*
D03*
Y11245D02*
D03*
Y11401D02*
D03*
Y11557D02*
D03*
Y11713D02*
D03*
D17*
X7185Y12598D02*
D03*
X7283Y12500D02*
D03*
X7480Y12598D02*
D03*
X7677Y12500D02*
D03*
X7776Y12598D02*
D03*
D18*
X7333Y12992D02*
D03*
X7628D02*
D03*
D19*
X11024Y7480D02*
D03*
X10925Y7382D02*
D03*
X11024Y7283D02*
D03*
X10531Y7480D02*
D03*
X10433Y7382D02*
D03*
X10531Y7283D02*
D03*
D20*
X413Y443D02*
D03*
X3809Y12697D02*
D03*
D21*
X1624Y295D02*
D03*
X5561Y394D02*
D03*
X640Y6594D02*
D03*
X5561Y6594D02*
D03*
X640Y12697D02*
D03*
X11565Y12894D02*
D03*
X11614Y6152D02*
D03*
D22*
X7185Y7972D02*
D03*
Y8760D02*
D03*
M02*
